G04 EAGLE Gerber X2 export*
%TF.Part,Single*%
%TF.FileFunction,Paste,Top*%
%TF.FilePolarity,Positive*%
%TF.GenerationSoftware,Autodesk,EAGLE,9.1.1*%
%TF.CreationDate,2018-08-02T16:49:24Z*%
G75*
%MOMM*%
%FSLAX34Y34*%
%LPD*%
%AMOC8*
5,1,8,0,0,1.08239X$1,22.5*%
G01*
%ADD10R,0.965200X1.447800*%
%ADD11R,1.447800X0.965200*%
%ADD12R,1.000000X1.100000*%
%ADD13R,0.800000X0.800000*%
%ADD14R,1.005600X1.199997*%
%ADD15R,1.778000X0.914400*%
%ADD16R,0.914400X1.778000*%
%ADD17R,0.270000X0.450000*%
%ADD18R,0.450000X0.270000*%
%ADD19R,1.200000X0.600000*%


D10*
X1147445Y406400D03*
X1163955Y406400D03*
D11*
X1117600Y410845D03*
X1117600Y427355D03*
D12*
X1066800Y613800D03*
X1066800Y630800D03*
X1104900Y554600D03*
X1104900Y537600D03*
X1079500Y554600D03*
X1079500Y537600D03*
X1092200Y613800D03*
X1092200Y630800D03*
X1117600Y613800D03*
X1117600Y630800D03*
D13*
X1092200Y426600D03*
X1092200Y411600D03*
D14*
X1147172Y457200D03*
X1164228Y457200D03*
X1286872Y431800D03*
X1303928Y431800D03*
X1286872Y457200D03*
X1303928Y457200D03*
D12*
X1126100Y444500D03*
X1109100Y444500D03*
D15*
X1141700Y550900D03*
X1141700Y603400D03*
X1141700Y524650D03*
X1141700Y577150D03*
X1141700Y629650D03*
X1141700Y498400D03*
X1296700Y577150D03*
X1296700Y550900D03*
X1296700Y524650D03*
X1296700Y603400D03*
X1296700Y629650D03*
X1296700Y498400D03*
D16*
X1164700Y483900D03*
X1192700Y483900D03*
X1219200Y483900D03*
X1245700Y483900D03*
X1273700Y483900D03*
D17*
X1107250Y571950D03*
D18*
X1106950Y577750D03*
X1106950Y582050D03*
X1106950Y586350D03*
X1106950Y590650D03*
D17*
X1107250Y596450D03*
X1102950Y596450D03*
X1098650Y596450D03*
X1094350Y596450D03*
X1090050Y596450D03*
X1085750Y596450D03*
X1081450Y596450D03*
X1077150Y596450D03*
D18*
X1077450Y590650D03*
X1077450Y586350D03*
X1077450Y582050D03*
X1077450Y577750D03*
D17*
X1077150Y571950D03*
X1081450Y571950D03*
X1085750Y571950D03*
X1090050Y571950D03*
X1094350Y571950D03*
X1098650Y571950D03*
X1102950Y571950D03*
D19*
X1168760Y441300D03*
X1168760Y422300D03*
X1142640Y441300D03*
X1142640Y431800D03*
X1142640Y422300D03*
M02*
