G04 EAGLE Gerber X2 export*
%TF.Part,Single*%
%TF.FileFunction,Soldermask,Top,1*%
%TF.FilePolarity,Negative*%
%TF.GenerationSoftware,Autodesk,EAGLE,9.1.1*%
%TF.CreationDate,2018-08-02T16:49:24Z*%
G75*
%MOMM*%
%FSLAX34Y34*%
%LPD*%
%AMOC8*
5,1,8,0,0,1.08239X$1,22.5*%
G01*
%ADD10C,1.727200*%
%ADD11R,1.168400X1.651000*%
%ADD12R,1.651000X1.168400*%
%ADD13R,1.203200X1.303200*%
%ADD14R,1.003200X1.003200*%
%ADD15R,1.208800X1.403197*%
%ADD16R,1.981200X1.117600*%
%ADD17R,1.117600X1.981200*%
%ADD18R,0.473200X0.653200*%
%ADD19R,0.653200X0.473200*%
%ADD20R,1.403200X0.803200*%
%ADD21C,0.959600*%
%ADD22C,0.809600*%
%ADD23C,0.533400*%


D10*
X1244600Y452120D02*
X1244600Y436880D01*
X1219200Y436880D02*
X1219200Y452120D01*
X1193800Y452120D02*
X1193800Y436880D01*
D11*
X1147445Y406400D03*
X1163955Y406400D03*
D12*
X1117600Y410845D03*
X1117600Y427355D03*
D13*
X1066800Y613800D03*
X1066800Y630800D03*
X1104900Y554600D03*
X1104900Y537600D03*
X1079500Y554600D03*
X1079500Y537600D03*
X1092200Y613800D03*
X1092200Y630800D03*
X1117600Y613800D03*
X1117600Y630800D03*
D14*
X1092200Y426600D03*
X1092200Y411600D03*
D15*
X1147172Y457200D03*
X1164228Y457200D03*
X1286872Y431800D03*
X1303928Y431800D03*
X1286872Y457200D03*
X1303928Y457200D03*
D13*
X1126100Y444500D03*
X1109100Y444500D03*
D10*
X1325880Y431800D02*
X1341120Y431800D01*
X1341120Y457200D02*
X1325880Y457200D01*
X1325880Y482600D02*
X1341120Y482600D01*
D16*
X1141700Y550900D03*
X1141700Y603400D03*
X1141700Y524650D03*
X1141700Y577150D03*
X1141700Y629650D03*
X1141700Y498400D03*
X1296700Y577150D03*
X1296700Y550900D03*
X1296700Y524650D03*
X1296700Y603400D03*
X1296700Y629650D03*
X1296700Y498400D03*
D17*
X1164700Y483900D03*
X1192700Y483900D03*
X1219200Y483900D03*
X1245700Y483900D03*
X1273700Y483900D03*
D18*
X1107250Y571950D03*
D19*
X1106950Y577750D03*
X1106950Y582050D03*
X1106950Y586350D03*
X1106950Y590650D03*
D18*
X1107250Y596450D03*
X1102950Y596450D03*
X1098650Y596450D03*
X1094350Y596450D03*
X1090050Y596450D03*
X1085750Y596450D03*
X1081450Y596450D03*
X1077150Y596450D03*
D19*
X1077450Y590650D03*
X1077450Y586350D03*
X1077450Y582050D03*
X1077450Y577750D03*
D18*
X1077150Y571950D03*
X1081450Y571950D03*
X1085750Y571950D03*
X1090050Y571950D03*
X1094350Y571950D03*
X1098650Y571950D03*
X1102950Y571950D03*
D20*
X1168760Y441300D03*
X1168760Y422300D03*
X1142640Y441300D03*
X1142640Y431800D03*
X1142640Y422300D03*
D21*
X1117600Y596900D03*
D22*
X1333500Y508000D03*
X1181100Y406400D03*
X1130300Y482600D03*
X1117600Y482600D03*
D21*
X1130300Y419100D03*
D22*
X1092200Y533400D03*
X1079500Y635000D03*
X1104900Y635000D03*
X1066800Y584200D03*
X1104900Y508000D03*
X1143000Y482600D03*
X1270000Y444500D03*
D23*
X1125220Y547370D03*
D22*
X1117600Y571500D03*
X1130300Y508000D03*
M02*
