G04 EAGLE Gerber RS-274X export*
G75*
%MOMM*%
%FSLAX34Y34*%
%LPD*%
%INSilkscreen Top*%
%IPPOS*%
%AMOC8*
5,1,8,0,0,1.08239X$1,22.5*%
G01*
%ADD10C,0.025400*%
%ADD11C,0.152400*%
%ADD12C,0.127000*%
%ADD13C,0.050800*%
%ADD14C,0.304800*%
%ADD15C,0.076200*%
%ADD16R,0.250000X0.250000*%
%ADD17C,0.400000*%
%ADD18C,0.101600*%


D10*
X45887Y111892D02*
X45887Y111046D01*
X45885Y110988D01*
X45879Y110931D01*
X45869Y110874D01*
X45856Y110817D01*
X45838Y110762D01*
X45817Y110709D01*
X45792Y110656D01*
X45764Y110606D01*
X45732Y110558D01*
X45697Y110511D01*
X45659Y110468D01*
X45618Y110427D01*
X45575Y110389D01*
X45528Y110354D01*
X45480Y110322D01*
X45430Y110294D01*
X45377Y110269D01*
X45324Y110248D01*
X45269Y110230D01*
X45212Y110217D01*
X45155Y110207D01*
X45098Y110201D01*
X45040Y110199D01*
X42924Y110199D01*
X42866Y110201D01*
X42809Y110207D01*
X42752Y110217D01*
X42695Y110230D01*
X42640Y110248D01*
X42587Y110269D01*
X42534Y110294D01*
X42484Y110322D01*
X42436Y110354D01*
X42389Y110389D01*
X42346Y110427D01*
X42305Y110468D01*
X42267Y110511D01*
X42232Y110558D01*
X42200Y110606D01*
X42172Y110656D01*
X42147Y110709D01*
X42126Y110762D01*
X42108Y110817D01*
X42095Y110874D01*
X42085Y110931D01*
X42079Y110988D01*
X42077Y111046D01*
X42077Y111892D01*
X45887Y113256D02*
X45887Y114526D01*
X45885Y114581D01*
X45880Y114637D01*
X45871Y114691D01*
X45858Y114745D01*
X45842Y114798D01*
X45823Y114850D01*
X45800Y114901D01*
X45774Y114950D01*
X45744Y114997D01*
X45712Y115042D01*
X45677Y115084D01*
X45639Y115125D01*
X45598Y115163D01*
X45556Y115198D01*
X45511Y115230D01*
X45464Y115260D01*
X45415Y115286D01*
X45364Y115309D01*
X45312Y115328D01*
X45259Y115344D01*
X45205Y115357D01*
X45151Y115366D01*
X45095Y115371D01*
X45040Y115373D01*
X44617Y115373D01*
X44559Y115371D01*
X44502Y115365D01*
X44445Y115355D01*
X44388Y115342D01*
X44333Y115324D01*
X44280Y115303D01*
X44227Y115278D01*
X44177Y115250D01*
X44129Y115218D01*
X44082Y115183D01*
X44039Y115145D01*
X43998Y115104D01*
X43960Y115061D01*
X43925Y115014D01*
X43893Y114966D01*
X43865Y114916D01*
X43840Y114863D01*
X43819Y114810D01*
X43801Y114755D01*
X43788Y114698D01*
X43778Y114641D01*
X43772Y114584D01*
X43770Y114526D01*
X43770Y113256D01*
X42077Y113256D01*
X42077Y115373D01*
D11*
X53900Y299050D02*
X66600Y299050D01*
X53900Y299050D02*
X47550Y305400D01*
X47550Y318100D01*
X53900Y324450D01*
X72950Y318100D02*
X72950Y305400D01*
X66600Y299050D01*
X72950Y318100D02*
X66600Y324450D01*
X53900Y324450D01*
X47550Y305400D02*
X41200Y299050D01*
X28500Y299050D01*
X22150Y305400D01*
X22150Y318100D01*
X28500Y324450D01*
X41200Y324450D01*
X47550Y318100D01*
X136250Y297950D02*
X148950Y297950D01*
X136250Y297950D02*
X129900Y304300D01*
X129900Y317000D01*
X136250Y323350D01*
X155300Y317000D02*
X155300Y304300D01*
X148950Y297950D01*
X155300Y317000D02*
X148950Y323350D01*
X136250Y323350D01*
X129900Y304300D02*
X123550Y297950D01*
X110850Y297950D01*
X104500Y304300D01*
X104500Y317000D01*
X110850Y323350D01*
X123550Y323350D01*
X129900Y317000D01*
X250250Y299200D02*
X262950Y299200D01*
X250250Y299200D02*
X243900Y305550D01*
X243900Y318250D01*
X250250Y324600D01*
X269300Y318250D02*
X269300Y305550D01*
X262950Y299200D01*
X269300Y318250D02*
X262950Y324600D01*
X250250Y324600D01*
X243900Y305550D02*
X237550Y299200D01*
X224850Y299200D01*
X218500Y305550D01*
X218500Y318250D01*
X224850Y324600D01*
X237550Y324600D01*
X243900Y318250D01*
X350500Y300450D02*
X363200Y300450D01*
X350500Y300450D02*
X344150Y306800D01*
X344150Y319500D01*
X350500Y325850D01*
X369550Y319500D02*
X369550Y306800D01*
X363200Y300450D01*
X369550Y319500D02*
X363200Y325850D01*
X350500Y325850D01*
X344150Y306800D02*
X337800Y300450D01*
X325100Y300450D01*
X318750Y306800D01*
X318750Y319500D01*
X325100Y325850D01*
X337800Y325850D01*
X344150Y319500D01*
X435750Y297950D02*
X448450Y297950D01*
X435750Y297950D02*
X429400Y304300D01*
X429400Y317000D01*
X435750Y323350D01*
X454800Y317000D02*
X454800Y304300D01*
X448450Y297950D01*
X454800Y317000D02*
X448450Y323350D01*
X435750Y323350D01*
X429400Y304300D02*
X423050Y297950D01*
X410350Y297950D01*
X404000Y304300D01*
X404000Y317000D01*
X410350Y323350D01*
X423050Y323350D01*
X429400Y317000D01*
X143950Y32700D02*
X131250Y32700D01*
X124900Y39050D01*
X124900Y51750D02*
X131250Y58100D01*
X124900Y39050D02*
X118550Y32700D01*
X105850Y32700D01*
X99500Y39050D01*
X99500Y51750D02*
X105850Y58100D01*
X118550Y58100D01*
X124900Y51750D01*
X150300Y51750D02*
X150300Y39050D01*
X143950Y32700D01*
X150300Y51750D02*
X143950Y58100D01*
X131250Y58100D01*
X99500Y39050D02*
X93150Y32700D01*
X80450Y32700D01*
X74100Y39050D01*
X74100Y51750D02*
X80450Y58100D01*
X93150Y58100D01*
X99500Y51750D01*
X74100Y51750D02*
X74100Y39050D01*
D12*
X156015Y48575D02*
X159190Y51115D01*
X159190Y39685D01*
X156015Y39685D02*
X162365Y39685D01*
D13*
X109403Y24902D02*
X107850Y24902D01*
X109403Y24902D02*
X109480Y24900D01*
X109558Y24894D01*
X109634Y24885D01*
X109711Y24871D01*
X109786Y24854D01*
X109860Y24833D01*
X109934Y24808D01*
X110006Y24780D01*
X110076Y24748D01*
X110145Y24713D01*
X110212Y24674D01*
X110277Y24632D01*
X110340Y24587D01*
X110401Y24539D01*
X110459Y24488D01*
X110514Y24434D01*
X110567Y24377D01*
X110616Y24318D01*
X110663Y24256D01*
X110707Y24192D01*
X110747Y24126D01*
X110784Y24058D01*
X110818Y23988D01*
X110848Y23917D01*
X110874Y23844D01*
X110897Y23770D01*
X110916Y23695D01*
X110931Y23620D01*
X110943Y23543D01*
X110951Y23466D01*
X110955Y23389D01*
X110955Y23311D01*
X110951Y23234D01*
X110943Y23157D01*
X110931Y23080D01*
X110916Y23005D01*
X110897Y22930D01*
X110874Y22856D01*
X110848Y22783D01*
X110818Y22712D01*
X110784Y22642D01*
X110747Y22574D01*
X110707Y22508D01*
X110663Y22444D01*
X110616Y22382D01*
X110567Y22323D01*
X110514Y22266D01*
X110459Y22212D01*
X110401Y22161D01*
X110340Y22113D01*
X110277Y22068D01*
X110212Y22026D01*
X110145Y21987D01*
X110076Y21952D01*
X110006Y21920D01*
X109934Y21892D01*
X109860Y21867D01*
X109786Y21846D01*
X109711Y21829D01*
X109634Y21815D01*
X109558Y21806D01*
X109480Y21800D01*
X109403Y21798D01*
X107850Y21798D01*
X107850Y27386D01*
X109403Y27386D01*
X109473Y27384D01*
X109542Y27378D01*
X109611Y27368D01*
X109679Y27355D01*
X109747Y27337D01*
X109813Y27316D01*
X109878Y27291D01*
X109942Y27263D01*
X110004Y27231D01*
X110064Y27196D01*
X110122Y27157D01*
X110177Y27115D01*
X110231Y27070D01*
X110281Y27022D01*
X110329Y26972D01*
X110374Y26918D01*
X110416Y26863D01*
X110455Y26805D01*
X110490Y26745D01*
X110522Y26683D01*
X110550Y26619D01*
X110575Y26554D01*
X110596Y26488D01*
X110614Y26420D01*
X110627Y26352D01*
X110637Y26283D01*
X110643Y26214D01*
X110645Y26144D01*
X110643Y26074D01*
X110637Y26005D01*
X110627Y25936D01*
X110614Y25868D01*
X110596Y25800D01*
X110575Y25734D01*
X110550Y25669D01*
X110522Y25605D01*
X110490Y25543D01*
X110455Y25483D01*
X110416Y25425D01*
X110374Y25370D01*
X110329Y25316D01*
X110281Y25266D01*
X110231Y25218D01*
X110177Y25173D01*
X110122Y25131D01*
X110064Y25092D01*
X110004Y25057D01*
X109942Y25025D01*
X109878Y24997D01*
X109813Y24972D01*
X109747Y24951D01*
X109679Y24933D01*
X109611Y24920D01*
X109542Y24910D01*
X109473Y24904D01*
X109403Y24902D01*
X112761Y21798D02*
X114623Y27386D01*
X116486Y21798D01*
X116020Y23195D02*
X113226Y23195D01*
X119744Y21798D02*
X119744Y27386D01*
X118192Y27386D02*
X121296Y27386D01*
X53688Y253254D02*
X52446Y253254D01*
X52376Y253256D01*
X52307Y253262D01*
X52238Y253272D01*
X52170Y253285D01*
X52102Y253303D01*
X52036Y253324D01*
X51971Y253349D01*
X51907Y253377D01*
X51845Y253409D01*
X51785Y253444D01*
X51727Y253483D01*
X51672Y253525D01*
X51618Y253570D01*
X51568Y253618D01*
X51520Y253668D01*
X51475Y253722D01*
X51433Y253777D01*
X51394Y253835D01*
X51359Y253895D01*
X51327Y253957D01*
X51299Y254021D01*
X51274Y254086D01*
X51253Y254152D01*
X51235Y254220D01*
X51222Y254288D01*
X51212Y254357D01*
X51206Y254426D01*
X51204Y254496D01*
X51204Y257600D01*
X51206Y257670D01*
X51212Y257739D01*
X51222Y257808D01*
X51235Y257876D01*
X51253Y257944D01*
X51274Y258010D01*
X51299Y258075D01*
X51327Y258139D01*
X51359Y258201D01*
X51394Y258261D01*
X51433Y258319D01*
X51475Y258374D01*
X51520Y258428D01*
X51568Y258478D01*
X51618Y258526D01*
X51672Y258571D01*
X51727Y258613D01*
X51785Y258652D01*
X51845Y258687D01*
X51907Y258719D01*
X51971Y258747D01*
X52036Y258772D01*
X52102Y258793D01*
X52170Y258811D01*
X52238Y258824D01*
X52307Y258834D01*
X52376Y258840D01*
X52446Y258842D01*
X53688Y258842D01*
X55792Y257600D02*
X57344Y258842D01*
X57344Y253254D01*
X55792Y253254D02*
X58897Y253254D01*
X53338Y229504D02*
X52096Y229504D01*
X52026Y229506D01*
X51957Y229512D01*
X51888Y229522D01*
X51820Y229535D01*
X51752Y229553D01*
X51686Y229574D01*
X51621Y229599D01*
X51557Y229627D01*
X51495Y229659D01*
X51435Y229694D01*
X51377Y229733D01*
X51322Y229775D01*
X51268Y229820D01*
X51218Y229868D01*
X51170Y229918D01*
X51125Y229972D01*
X51083Y230027D01*
X51044Y230085D01*
X51009Y230145D01*
X50977Y230207D01*
X50949Y230271D01*
X50924Y230336D01*
X50903Y230402D01*
X50885Y230470D01*
X50872Y230538D01*
X50862Y230607D01*
X50856Y230676D01*
X50854Y230746D01*
X50854Y233850D01*
X50856Y233920D01*
X50862Y233989D01*
X50872Y234058D01*
X50885Y234126D01*
X50903Y234194D01*
X50924Y234260D01*
X50949Y234325D01*
X50977Y234389D01*
X51009Y234451D01*
X51044Y234511D01*
X51083Y234569D01*
X51125Y234624D01*
X51170Y234678D01*
X51218Y234728D01*
X51268Y234776D01*
X51322Y234821D01*
X51377Y234863D01*
X51435Y234902D01*
X51495Y234937D01*
X51557Y234969D01*
X51621Y234997D01*
X51686Y235022D01*
X51752Y235043D01*
X51820Y235061D01*
X51888Y235074D01*
X51957Y235084D01*
X52026Y235090D01*
X52096Y235092D01*
X53338Y235092D01*
X57150Y235092D02*
X57223Y235090D01*
X57296Y235084D01*
X57369Y235075D01*
X57440Y235061D01*
X57512Y235044D01*
X57582Y235024D01*
X57651Y234999D01*
X57718Y234971D01*
X57784Y234940D01*
X57849Y234905D01*
X57911Y234867D01*
X57971Y234825D01*
X58029Y234781D01*
X58085Y234733D01*
X58138Y234683D01*
X58188Y234630D01*
X58236Y234574D01*
X58280Y234516D01*
X58322Y234456D01*
X58360Y234394D01*
X58395Y234329D01*
X58426Y234263D01*
X58454Y234196D01*
X58479Y234127D01*
X58499Y234057D01*
X58516Y233985D01*
X58530Y233914D01*
X58539Y233841D01*
X58545Y233768D01*
X58547Y233695D01*
X57150Y235092D02*
X57066Y235090D01*
X56983Y235084D01*
X56900Y235075D01*
X56818Y235061D01*
X56736Y235044D01*
X56655Y235022D01*
X56575Y234997D01*
X56497Y234969D01*
X56419Y234937D01*
X56344Y234901D01*
X56270Y234862D01*
X56198Y234819D01*
X56128Y234773D01*
X56061Y234724D01*
X55995Y234671D01*
X55933Y234616D01*
X55873Y234558D01*
X55815Y234497D01*
X55761Y234434D01*
X55709Y234368D01*
X55661Y234300D01*
X55616Y234229D01*
X55574Y234157D01*
X55536Y234082D01*
X55501Y234006D01*
X55470Y233929D01*
X55442Y233850D01*
X58080Y232609D02*
X58134Y232662D01*
X58185Y232719D01*
X58233Y232778D01*
X58278Y232839D01*
X58319Y232902D01*
X58358Y232968D01*
X58393Y233035D01*
X58425Y233104D01*
X58453Y233175D01*
X58477Y233246D01*
X58498Y233319D01*
X58515Y233393D01*
X58529Y233468D01*
X58538Y233543D01*
X58544Y233619D01*
X58546Y233695D01*
X58081Y232608D02*
X55442Y229504D01*
X58547Y229504D01*
X52738Y205504D02*
X51496Y205504D01*
X51426Y205506D01*
X51357Y205512D01*
X51288Y205522D01*
X51220Y205535D01*
X51152Y205553D01*
X51086Y205574D01*
X51021Y205599D01*
X50957Y205627D01*
X50895Y205659D01*
X50835Y205694D01*
X50777Y205733D01*
X50722Y205775D01*
X50668Y205820D01*
X50618Y205868D01*
X50570Y205918D01*
X50525Y205972D01*
X50483Y206027D01*
X50444Y206085D01*
X50409Y206145D01*
X50377Y206207D01*
X50349Y206271D01*
X50324Y206336D01*
X50303Y206402D01*
X50285Y206470D01*
X50272Y206538D01*
X50262Y206607D01*
X50256Y206676D01*
X50254Y206746D01*
X50254Y209850D01*
X50256Y209920D01*
X50262Y209989D01*
X50272Y210058D01*
X50285Y210126D01*
X50303Y210194D01*
X50324Y210260D01*
X50349Y210325D01*
X50377Y210389D01*
X50409Y210451D01*
X50444Y210511D01*
X50483Y210569D01*
X50525Y210624D01*
X50570Y210678D01*
X50618Y210728D01*
X50668Y210776D01*
X50722Y210821D01*
X50777Y210863D01*
X50835Y210902D01*
X50895Y210937D01*
X50957Y210969D01*
X51021Y210997D01*
X51086Y211022D01*
X51152Y211043D01*
X51220Y211061D01*
X51288Y211074D01*
X51357Y211084D01*
X51426Y211090D01*
X51496Y211092D01*
X52738Y211092D01*
X54842Y205504D02*
X56394Y205504D01*
X56471Y205506D01*
X56549Y205512D01*
X56625Y205521D01*
X56702Y205535D01*
X56777Y205552D01*
X56851Y205573D01*
X56925Y205598D01*
X56997Y205626D01*
X57067Y205658D01*
X57136Y205693D01*
X57203Y205732D01*
X57268Y205774D01*
X57331Y205819D01*
X57392Y205867D01*
X57450Y205918D01*
X57505Y205972D01*
X57558Y206029D01*
X57607Y206088D01*
X57654Y206150D01*
X57698Y206214D01*
X57738Y206280D01*
X57775Y206348D01*
X57809Y206418D01*
X57839Y206489D01*
X57865Y206562D01*
X57888Y206636D01*
X57907Y206711D01*
X57922Y206786D01*
X57934Y206863D01*
X57942Y206940D01*
X57946Y207017D01*
X57946Y207095D01*
X57942Y207172D01*
X57934Y207249D01*
X57922Y207326D01*
X57907Y207401D01*
X57888Y207476D01*
X57865Y207550D01*
X57839Y207623D01*
X57809Y207694D01*
X57775Y207764D01*
X57738Y207832D01*
X57698Y207898D01*
X57654Y207962D01*
X57607Y208024D01*
X57558Y208083D01*
X57505Y208140D01*
X57450Y208194D01*
X57392Y208245D01*
X57331Y208293D01*
X57268Y208338D01*
X57203Y208380D01*
X57136Y208419D01*
X57067Y208454D01*
X56997Y208486D01*
X56925Y208514D01*
X56851Y208539D01*
X56777Y208560D01*
X56702Y208577D01*
X56625Y208591D01*
X56549Y208600D01*
X56471Y208606D01*
X56394Y208608D01*
X56705Y211092D02*
X54842Y211092D01*
X56705Y211092D02*
X56775Y211090D01*
X56844Y211084D01*
X56913Y211074D01*
X56981Y211061D01*
X57049Y211043D01*
X57115Y211022D01*
X57180Y210997D01*
X57244Y210969D01*
X57306Y210937D01*
X57366Y210902D01*
X57424Y210863D01*
X57479Y210821D01*
X57533Y210776D01*
X57583Y210728D01*
X57631Y210678D01*
X57676Y210624D01*
X57718Y210569D01*
X57757Y210511D01*
X57792Y210451D01*
X57824Y210389D01*
X57852Y210325D01*
X57877Y210260D01*
X57898Y210194D01*
X57916Y210126D01*
X57929Y210058D01*
X57939Y209989D01*
X57945Y209920D01*
X57947Y209850D01*
X57945Y209780D01*
X57939Y209711D01*
X57929Y209642D01*
X57916Y209574D01*
X57898Y209506D01*
X57877Y209440D01*
X57852Y209375D01*
X57824Y209311D01*
X57792Y209249D01*
X57757Y209189D01*
X57718Y209131D01*
X57676Y209076D01*
X57631Y209022D01*
X57583Y208972D01*
X57533Y208924D01*
X57479Y208879D01*
X57424Y208837D01*
X57366Y208798D01*
X57306Y208763D01*
X57244Y208731D01*
X57180Y208703D01*
X57115Y208678D01*
X57049Y208657D01*
X56981Y208639D01*
X56913Y208626D01*
X56844Y208616D01*
X56775Y208610D01*
X56705Y208608D01*
X55463Y208608D01*
D10*
X23037Y109392D02*
X23037Y108546D01*
X23035Y108488D01*
X23029Y108431D01*
X23019Y108374D01*
X23006Y108317D01*
X22988Y108262D01*
X22967Y108209D01*
X22942Y108156D01*
X22914Y108106D01*
X22882Y108058D01*
X22847Y108011D01*
X22809Y107968D01*
X22768Y107927D01*
X22725Y107889D01*
X22678Y107854D01*
X22630Y107822D01*
X22580Y107794D01*
X22527Y107769D01*
X22474Y107748D01*
X22419Y107730D01*
X22362Y107717D01*
X22305Y107707D01*
X22248Y107701D01*
X22190Y107699D01*
X20074Y107699D01*
X20016Y107701D01*
X19959Y107707D01*
X19902Y107717D01*
X19845Y107730D01*
X19790Y107748D01*
X19737Y107769D01*
X19684Y107794D01*
X19634Y107822D01*
X19586Y107854D01*
X19539Y107889D01*
X19496Y107927D01*
X19455Y107968D01*
X19417Y108011D01*
X19382Y108058D01*
X19350Y108106D01*
X19322Y108156D01*
X19297Y108209D01*
X19276Y108262D01*
X19258Y108317D01*
X19245Y108374D01*
X19235Y108431D01*
X19229Y108488D01*
X19227Y108546D01*
X19227Y109392D01*
X19227Y111603D02*
X22190Y110756D01*
X22190Y112873D01*
X21344Y112238D02*
X23037Y112238D01*
D13*
X37004Y54069D02*
X37004Y52375D01*
X37004Y54069D02*
X37006Y54150D01*
X37012Y54230D01*
X37021Y54310D01*
X37035Y54389D01*
X37052Y54468D01*
X37073Y54546D01*
X37097Y54623D01*
X37125Y54698D01*
X37157Y54772D01*
X37192Y54845D01*
X37231Y54916D01*
X37273Y54984D01*
X37318Y55051D01*
X37366Y55116D01*
X37418Y55178D01*
X37472Y55237D01*
X37529Y55294D01*
X37588Y55348D01*
X37650Y55400D01*
X37715Y55448D01*
X37782Y55493D01*
X37851Y55535D01*
X37921Y55574D01*
X37994Y55609D01*
X38068Y55641D01*
X38143Y55669D01*
X38220Y55693D01*
X38298Y55714D01*
X38377Y55731D01*
X38456Y55745D01*
X38536Y55754D01*
X38616Y55760D01*
X38697Y55762D01*
X42931Y55762D01*
X43012Y55760D01*
X43092Y55754D01*
X43172Y55745D01*
X43251Y55731D01*
X43330Y55714D01*
X43408Y55693D01*
X43485Y55669D01*
X43560Y55641D01*
X43634Y55609D01*
X43707Y55574D01*
X43777Y55535D01*
X43846Y55493D01*
X43913Y55448D01*
X43978Y55400D01*
X44040Y55348D01*
X44099Y55294D01*
X44156Y55237D01*
X44210Y55178D01*
X44262Y55116D01*
X44310Y55051D01*
X44355Y54984D01*
X44397Y54916D01*
X44436Y54845D01*
X44471Y54772D01*
X44503Y54698D01*
X44531Y54623D01*
X44555Y54546D01*
X44576Y54468D01*
X44593Y54389D01*
X44607Y54310D01*
X44616Y54230D01*
X44622Y54150D01*
X44624Y54069D01*
X44624Y52375D01*
X41237Y49647D02*
X41237Y47107D01*
X41235Y47026D01*
X41229Y46946D01*
X41220Y46866D01*
X41206Y46787D01*
X41189Y46708D01*
X41168Y46630D01*
X41144Y46553D01*
X41116Y46478D01*
X41084Y46404D01*
X41049Y46331D01*
X41010Y46261D01*
X40968Y46192D01*
X40923Y46125D01*
X40875Y46060D01*
X40823Y45998D01*
X40769Y45939D01*
X40712Y45882D01*
X40653Y45828D01*
X40591Y45776D01*
X40526Y45728D01*
X40459Y45683D01*
X40391Y45641D01*
X40320Y45602D01*
X40247Y45567D01*
X40173Y45535D01*
X40098Y45507D01*
X40021Y45483D01*
X39943Y45462D01*
X39864Y45445D01*
X39785Y45431D01*
X39705Y45422D01*
X39625Y45416D01*
X39544Y45414D01*
X39121Y45414D01*
X39121Y45413D02*
X39030Y45415D01*
X38939Y45421D01*
X38848Y45431D01*
X38758Y45444D01*
X38669Y45462D01*
X38580Y45483D01*
X38493Y45508D01*
X38406Y45537D01*
X38321Y45570D01*
X38238Y45606D01*
X38156Y45646D01*
X38076Y45689D01*
X37997Y45736D01*
X37921Y45786D01*
X37847Y45839D01*
X37776Y45895D01*
X37707Y45955D01*
X37640Y46017D01*
X37577Y46082D01*
X37516Y46150D01*
X37458Y46220D01*
X37403Y46293D01*
X37351Y46368D01*
X37303Y46445D01*
X37258Y46525D01*
X37216Y46606D01*
X37178Y46688D01*
X37144Y46773D01*
X37113Y46859D01*
X37086Y46946D01*
X37063Y47034D01*
X37044Y47123D01*
X37028Y47212D01*
X37016Y47303D01*
X37008Y47393D01*
X37004Y47484D01*
X37004Y47576D01*
X37008Y47667D01*
X37016Y47757D01*
X37028Y47848D01*
X37044Y47937D01*
X37063Y48026D01*
X37086Y48114D01*
X37113Y48201D01*
X37144Y48287D01*
X37178Y48372D01*
X37216Y48454D01*
X37258Y48535D01*
X37303Y48615D01*
X37351Y48692D01*
X37403Y48767D01*
X37458Y48840D01*
X37516Y48910D01*
X37577Y48978D01*
X37640Y49043D01*
X37707Y49105D01*
X37776Y49165D01*
X37847Y49221D01*
X37921Y49274D01*
X37997Y49324D01*
X38076Y49371D01*
X38156Y49414D01*
X38238Y49454D01*
X38321Y49490D01*
X38406Y49523D01*
X38493Y49552D01*
X38580Y49577D01*
X38669Y49598D01*
X38758Y49616D01*
X38848Y49629D01*
X38939Y49639D01*
X39030Y49645D01*
X39121Y49647D01*
X41237Y49647D01*
X41353Y49645D01*
X41468Y49639D01*
X41583Y49629D01*
X41698Y49615D01*
X41812Y49598D01*
X41926Y49576D01*
X42039Y49551D01*
X42151Y49521D01*
X42262Y49488D01*
X42371Y49451D01*
X42480Y49411D01*
X42586Y49367D01*
X42692Y49319D01*
X42795Y49267D01*
X42897Y49212D01*
X42997Y49154D01*
X43095Y49092D01*
X43190Y49027D01*
X43284Y48959D01*
X43374Y48887D01*
X43463Y48813D01*
X43549Y48735D01*
X43632Y48655D01*
X43712Y48572D01*
X43790Y48486D01*
X43864Y48398D01*
X43936Y48307D01*
X44004Y48213D01*
X44069Y48118D01*
X44131Y48020D01*
X44189Y47920D01*
X44244Y47818D01*
X44296Y47715D01*
X44344Y47609D01*
X44388Y47503D01*
X44428Y47394D01*
X44465Y47285D01*
X44498Y47174D01*
X44528Y47062D01*
X44553Y46949D01*
X44575Y46836D01*
X44592Y46721D01*
X44606Y46606D01*
X44616Y46491D01*
X44622Y46376D01*
X44624Y46260D01*
D10*
X72009Y83277D02*
X73307Y83277D01*
X72009Y83277D02*
X71939Y83279D01*
X71869Y83285D01*
X71799Y83294D01*
X71730Y83307D01*
X71662Y83324D01*
X71595Y83345D01*
X71529Y83369D01*
X71464Y83397D01*
X71401Y83428D01*
X71340Y83463D01*
X71281Y83501D01*
X71223Y83542D01*
X71169Y83586D01*
X71116Y83633D01*
X71067Y83682D01*
X71020Y83735D01*
X70976Y83789D01*
X70935Y83847D01*
X70897Y83906D01*
X70862Y83967D01*
X70831Y84030D01*
X70803Y84095D01*
X70779Y84161D01*
X70758Y84228D01*
X70741Y84296D01*
X70728Y84365D01*
X70719Y84435D01*
X70713Y84505D01*
X70711Y84575D01*
X70711Y87821D01*
X70713Y87891D01*
X70719Y87961D01*
X70728Y88031D01*
X70741Y88100D01*
X70758Y88168D01*
X70779Y88235D01*
X70803Y88301D01*
X70831Y88366D01*
X70862Y88429D01*
X70897Y88490D01*
X70935Y88549D01*
X70976Y88607D01*
X71020Y88661D01*
X71067Y88714D01*
X71116Y88763D01*
X71169Y88810D01*
X71223Y88854D01*
X71281Y88895D01*
X71340Y88933D01*
X71401Y88968D01*
X71464Y88999D01*
X71529Y89027D01*
X71595Y89051D01*
X71662Y89072D01*
X71730Y89089D01*
X71799Y89102D01*
X71869Y89111D01*
X71939Y89117D01*
X72009Y89119D01*
X73307Y89119D01*
X75295Y89119D02*
X75295Y88470D01*
X75295Y89119D02*
X78541Y89119D01*
X76918Y83277D01*
D14*
X225921Y53120D02*
X225921Y43300D01*
X225850Y43300D01*
X225850Y53300D02*
X235850Y53300D01*
X305850Y53300D02*
X305850Y43300D01*
X305850Y53300D02*
X295850Y53300D01*
X225850Y13300D02*
X225850Y3300D01*
X305850Y3300D02*
X305850Y13300D01*
D15*
X212294Y36509D02*
X208145Y36509D01*
X212294Y36509D02*
X212360Y36507D01*
X212427Y36502D01*
X212492Y36492D01*
X212558Y36479D01*
X212622Y36463D01*
X212685Y36443D01*
X212747Y36419D01*
X212808Y36392D01*
X212867Y36361D01*
X212924Y36327D01*
X212980Y36290D01*
X213033Y36250D01*
X213084Y36208D01*
X213132Y36162D01*
X213178Y36114D01*
X213220Y36063D01*
X213260Y36010D01*
X213297Y35954D01*
X213331Y35897D01*
X213362Y35838D01*
X213389Y35777D01*
X213413Y35715D01*
X213433Y35652D01*
X213449Y35588D01*
X213462Y35522D01*
X213472Y35457D01*
X213477Y35390D01*
X213479Y35324D01*
X213479Y34731D01*
X209330Y39186D02*
X208145Y40668D01*
X213479Y40668D01*
X213479Y39186D02*
X213479Y42150D01*
D16*
X21050Y44250D03*
D10*
X19513Y15427D02*
X23323Y15427D01*
X23323Y17120D01*
X23323Y18597D02*
X23323Y20290D01*
X23323Y18597D02*
X19513Y18597D01*
X19513Y20290D01*
X21206Y19867D02*
X21206Y18597D01*
X19513Y21760D02*
X23323Y21760D01*
X19513Y21760D02*
X19513Y22819D01*
X19515Y22883D01*
X19521Y22947D01*
X19530Y23010D01*
X19544Y23072D01*
X19561Y23134D01*
X19582Y23194D01*
X19606Y23253D01*
X19634Y23311D01*
X19666Y23366D01*
X19700Y23420D01*
X19738Y23471D01*
X19779Y23521D01*
X19823Y23567D01*
X19869Y23611D01*
X19919Y23652D01*
X19970Y23690D01*
X20024Y23724D01*
X20079Y23756D01*
X20137Y23784D01*
X20196Y23808D01*
X20256Y23829D01*
X20318Y23846D01*
X20380Y23860D01*
X20444Y23869D01*
X20507Y23875D01*
X20571Y23877D01*
X22265Y23877D01*
X22329Y23875D01*
X22393Y23869D01*
X22456Y23860D01*
X22518Y23846D01*
X22580Y23829D01*
X22640Y23808D01*
X22699Y23784D01*
X22757Y23756D01*
X22812Y23724D01*
X22866Y23690D01*
X22917Y23652D01*
X22967Y23611D01*
X23013Y23567D01*
X23057Y23521D01*
X23098Y23471D01*
X23136Y23420D01*
X23170Y23366D01*
X23202Y23311D01*
X23230Y23253D01*
X23254Y23194D01*
X23275Y23134D01*
X23292Y23072D01*
X23306Y23010D01*
X23315Y22947D01*
X23321Y22883D01*
X23323Y22819D01*
X23323Y21760D01*
X20360Y25540D02*
X19513Y26598D01*
X23323Y26598D01*
X23323Y25540D02*
X23323Y27656D01*
X47511Y282477D02*
X47511Y288319D01*
X49134Y288319D01*
X49214Y288317D01*
X49293Y288311D01*
X49372Y288301D01*
X49451Y288288D01*
X49528Y288270D01*
X49605Y288249D01*
X49681Y288224D01*
X49755Y288195D01*
X49828Y288163D01*
X49899Y288127D01*
X49968Y288088D01*
X50036Y288045D01*
X50101Y288000D01*
X50164Y287951D01*
X50224Y287899D01*
X50282Y287844D01*
X50337Y287786D01*
X50389Y287726D01*
X50438Y287663D01*
X50483Y287598D01*
X50526Y287530D01*
X50565Y287461D01*
X50601Y287390D01*
X50633Y287317D01*
X50662Y287243D01*
X50687Y287167D01*
X50708Y287090D01*
X50726Y287013D01*
X50739Y286934D01*
X50749Y286855D01*
X50755Y286776D01*
X50757Y286696D01*
X50755Y286616D01*
X50749Y286537D01*
X50739Y286458D01*
X50726Y286379D01*
X50708Y286302D01*
X50687Y286225D01*
X50662Y286149D01*
X50633Y286075D01*
X50601Y286002D01*
X50565Y285931D01*
X50526Y285862D01*
X50483Y285794D01*
X50438Y285729D01*
X50389Y285666D01*
X50337Y285606D01*
X50282Y285548D01*
X50224Y285493D01*
X50164Y285441D01*
X50101Y285392D01*
X50036Y285347D01*
X49968Y285304D01*
X49899Y285265D01*
X49828Y285229D01*
X49755Y285197D01*
X49681Y285168D01*
X49605Y285143D01*
X49528Y285122D01*
X49451Y285104D01*
X49372Y285091D01*
X49293Y285081D01*
X49214Y285075D01*
X49134Y285073D01*
X47511Y285073D01*
X49458Y285073D02*
X50757Y282477D01*
X52970Y287021D02*
X54593Y288319D01*
X54593Y282477D01*
X52970Y282477D02*
X56216Y282477D01*
X101511Y282477D02*
X101511Y288319D01*
X103134Y288319D01*
X103214Y288317D01*
X103293Y288311D01*
X103372Y288301D01*
X103451Y288288D01*
X103528Y288270D01*
X103605Y288249D01*
X103681Y288224D01*
X103755Y288195D01*
X103828Y288163D01*
X103899Y288127D01*
X103968Y288088D01*
X104036Y288045D01*
X104101Y288000D01*
X104164Y287951D01*
X104224Y287899D01*
X104282Y287844D01*
X104337Y287786D01*
X104389Y287726D01*
X104438Y287663D01*
X104483Y287598D01*
X104526Y287530D01*
X104565Y287461D01*
X104601Y287390D01*
X104633Y287317D01*
X104662Y287243D01*
X104687Y287167D01*
X104708Y287090D01*
X104726Y287013D01*
X104739Y286934D01*
X104749Y286855D01*
X104755Y286776D01*
X104757Y286696D01*
X104755Y286616D01*
X104749Y286537D01*
X104739Y286458D01*
X104726Y286379D01*
X104708Y286302D01*
X104687Y286225D01*
X104662Y286149D01*
X104633Y286075D01*
X104601Y286002D01*
X104565Y285931D01*
X104526Y285862D01*
X104483Y285794D01*
X104438Y285729D01*
X104389Y285666D01*
X104337Y285606D01*
X104282Y285548D01*
X104224Y285493D01*
X104164Y285441D01*
X104101Y285392D01*
X104036Y285347D01*
X103968Y285304D01*
X103899Y285265D01*
X103828Y285229D01*
X103755Y285197D01*
X103681Y285168D01*
X103605Y285143D01*
X103528Y285122D01*
X103451Y285104D01*
X103372Y285091D01*
X103293Y285081D01*
X103214Y285075D01*
X103134Y285073D01*
X101511Y285073D01*
X103458Y285073D02*
X104757Y282477D01*
X110217Y286859D02*
X110215Y286933D01*
X110210Y287007D01*
X110200Y287080D01*
X110187Y287153D01*
X110170Y287225D01*
X110150Y287296D01*
X110126Y287366D01*
X110099Y287435D01*
X110068Y287502D01*
X110033Y287568D01*
X109996Y287632D01*
X109955Y287694D01*
X109911Y287753D01*
X109865Y287811D01*
X109815Y287866D01*
X109763Y287918D01*
X109708Y287968D01*
X109650Y288014D01*
X109591Y288058D01*
X109529Y288099D01*
X109465Y288136D01*
X109399Y288171D01*
X109332Y288202D01*
X109263Y288229D01*
X109193Y288253D01*
X109122Y288273D01*
X109050Y288290D01*
X108977Y288303D01*
X108904Y288313D01*
X108830Y288318D01*
X108756Y288320D01*
X108756Y288319D02*
X108672Y288317D01*
X108588Y288311D01*
X108504Y288302D01*
X108421Y288289D01*
X108338Y288272D01*
X108257Y288251D01*
X108176Y288227D01*
X108096Y288199D01*
X108018Y288168D01*
X107941Y288133D01*
X107866Y288095D01*
X107793Y288053D01*
X107722Y288008D01*
X107653Y287960D01*
X107586Y287909D01*
X107521Y287855D01*
X107459Y287798D01*
X107399Y287739D01*
X107342Y287676D01*
X107288Y287612D01*
X107237Y287545D01*
X107190Y287475D01*
X107145Y287404D01*
X107103Y287331D01*
X107065Y287255D01*
X107030Y287179D01*
X106999Y287101D01*
X106971Y287021D01*
X109729Y285723D02*
X109782Y285776D01*
X109832Y285831D01*
X109880Y285889D01*
X109925Y285948D01*
X109967Y286010D01*
X110006Y286074D01*
X110041Y286140D01*
X110074Y286207D01*
X110103Y286275D01*
X110130Y286346D01*
X110152Y286417D01*
X110172Y286489D01*
X110188Y286562D01*
X110200Y286636D01*
X110209Y286710D01*
X110214Y286784D01*
X110216Y286859D01*
X109729Y285723D02*
X106970Y282477D01*
X110216Y282477D01*
X278531Y282311D02*
X284373Y282311D01*
X278531Y282311D02*
X278531Y283934D01*
X278533Y284014D01*
X278539Y284093D01*
X278549Y284172D01*
X278562Y284251D01*
X278580Y284328D01*
X278601Y284405D01*
X278626Y284481D01*
X278655Y284555D01*
X278687Y284628D01*
X278723Y284699D01*
X278762Y284768D01*
X278805Y284836D01*
X278850Y284901D01*
X278899Y284964D01*
X278951Y285024D01*
X279006Y285082D01*
X279064Y285137D01*
X279124Y285189D01*
X279187Y285238D01*
X279252Y285283D01*
X279320Y285326D01*
X279389Y285365D01*
X279460Y285401D01*
X279533Y285433D01*
X279607Y285462D01*
X279683Y285487D01*
X279760Y285508D01*
X279837Y285526D01*
X279916Y285539D01*
X279995Y285549D01*
X280074Y285555D01*
X280154Y285557D01*
X280234Y285555D01*
X280313Y285549D01*
X280392Y285539D01*
X280471Y285526D01*
X280548Y285508D01*
X280625Y285487D01*
X280701Y285462D01*
X280775Y285433D01*
X280848Y285401D01*
X280919Y285365D01*
X280988Y285326D01*
X281056Y285283D01*
X281121Y285238D01*
X281184Y285189D01*
X281244Y285137D01*
X281302Y285082D01*
X281357Y285024D01*
X281409Y284964D01*
X281458Y284901D01*
X281503Y284836D01*
X281546Y284768D01*
X281585Y284699D01*
X281621Y284628D01*
X281653Y284555D01*
X281682Y284481D01*
X281707Y284405D01*
X281728Y284328D01*
X281746Y284251D01*
X281759Y284172D01*
X281769Y284093D01*
X281775Y284014D01*
X281777Y283934D01*
X281777Y282311D01*
X281777Y284258D02*
X284373Y285557D01*
X284373Y287770D02*
X284373Y289393D01*
X284371Y289473D01*
X284365Y289552D01*
X284355Y289631D01*
X284342Y289710D01*
X284324Y289787D01*
X284303Y289864D01*
X284278Y289940D01*
X284249Y290014D01*
X284217Y290087D01*
X284181Y290158D01*
X284142Y290227D01*
X284099Y290295D01*
X284054Y290360D01*
X284005Y290423D01*
X283953Y290483D01*
X283898Y290541D01*
X283840Y290596D01*
X283780Y290648D01*
X283717Y290697D01*
X283652Y290742D01*
X283584Y290785D01*
X283515Y290824D01*
X283444Y290860D01*
X283371Y290892D01*
X283297Y290921D01*
X283221Y290946D01*
X283144Y290967D01*
X283067Y290985D01*
X282988Y290998D01*
X282909Y291008D01*
X282830Y291014D01*
X282750Y291016D01*
X282670Y291014D01*
X282591Y291008D01*
X282512Y290998D01*
X282433Y290985D01*
X282356Y290967D01*
X282279Y290946D01*
X282203Y290921D01*
X282129Y290892D01*
X282056Y290860D01*
X281985Y290824D01*
X281916Y290785D01*
X281848Y290742D01*
X281783Y290697D01*
X281720Y290648D01*
X281660Y290596D01*
X281602Y290541D01*
X281547Y290483D01*
X281495Y290423D01*
X281446Y290360D01*
X281401Y290295D01*
X281358Y290227D01*
X281319Y290158D01*
X281283Y290087D01*
X281251Y290014D01*
X281222Y289940D01*
X281197Y289864D01*
X281176Y289787D01*
X281158Y289710D01*
X281145Y289631D01*
X281135Y289552D01*
X281129Y289473D01*
X281127Y289393D01*
X278531Y289718D02*
X278531Y287770D01*
X278531Y289718D02*
X278533Y289788D01*
X278539Y289858D01*
X278548Y289928D01*
X278561Y289997D01*
X278578Y290065D01*
X278599Y290132D01*
X278623Y290198D01*
X278651Y290263D01*
X278682Y290326D01*
X278717Y290387D01*
X278755Y290446D01*
X278796Y290504D01*
X278840Y290558D01*
X278887Y290611D01*
X278936Y290660D01*
X278989Y290707D01*
X279043Y290751D01*
X279101Y290792D01*
X279160Y290830D01*
X279221Y290865D01*
X279284Y290896D01*
X279349Y290924D01*
X279415Y290948D01*
X279482Y290969D01*
X279550Y290986D01*
X279619Y290999D01*
X279689Y291008D01*
X279759Y291014D01*
X279829Y291016D01*
X279899Y291014D01*
X279969Y291008D01*
X280039Y290999D01*
X280108Y290986D01*
X280176Y290969D01*
X280243Y290948D01*
X280309Y290924D01*
X280374Y290896D01*
X280437Y290865D01*
X280498Y290830D01*
X280557Y290792D01*
X280615Y290751D01*
X280669Y290707D01*
X280722Y290660D01*
X280771Y290611D01*
X280818Y290558D01*
X280862Y290504D01*
X280903Y290446D01*
X280941Y290387D01*
X280976Y290326D01*
X281007Y290263D01*
X281035Y290198D01*
X281059Y290132D01*
X281080Y290065D01*
X281097Y289997D01*
X281110Y289928D01*
X281119Y289858D01*
X281125Y289788D01*
X281127Y289718D01*
X281127Y288420D01*
X381281Y281061D02*
X387123Y281061D01*
X381281Y281061D02*
X381281Y282684D01*
X381283Y282764D01*
X381289Y282843D01*
X381299Y282922D01*
X381312Y283001D01*
X381330Y283078D01*
X381351Y283155D01*
X381376Y283231D01*
X381405Y283305D01*
X381437Y283378D01*
X381473Y283449D01*
X381512Y283518D01*
X381555Y283586D01*
X381600Y283651D01*
X381649Y283714D01*
X381701Y283774D01*
X381756Y283832D01*
X381814Y283887D01*
X381874Y283939D01*
X381937Y283988D01*
X382002Y284033D01*
X382070Y284076D01*
X382139Y284115D01*
X382210Y284151D01*
X382283Y284183D01*
X382357Y284212D01*
X382433Y284237D01*
X382510Y284258D01*
X382587Y284276D01*
X382666Y284289D01*
X382745Y284299D01*
X382824Y284305D01*
X382904Y284307D01*
X382984Y284305D01*
X383063Y284299D01*
X383142Y284289D01*
X383221Y284276D01*
X383298Y284258D01*
X383375Y284237D01*
X383451Y284212D01*
X383525Y284183D01*
X383598Y284151D01*
X383669Y284115D01*
X383738Y284076D01*
X383806Y284033D01*
X383871Y283988D01*
X383934Y283939D01*
X383994Y283887D01*
X384052Y283832D01*
X384107Y283774D01*
X384159Y283714D01*
X384208Y283651D01*
X384253Y283586D01*
X384296Y283518D01*
X384335Y283449D01*
X384371Y283378D01*
X384403Y283305D01*
X384432Y283231D01*
X384457Y283155D01*
X384478Y283078D01*
X384496Y283001D01*
X384509Y282922D01*
X384519Y282843D01*
X384525Y282764D01*
X384527Y282684D01*
X384527Y281061D01*
X384527Y283008D02*
X387123Y284307D01*
X385825Y286520D02*
X381281Y287819D01*
X385825Y286520D02*
X385825Y289766D01*
X384527Y288792D02*
X387123Y288792D01*
X478623Y327547D02*
X478623Y333389D01*
X478623Y327547D02*
X477000Y327547D01*
X476920Y327549D01*
X476841Y327555D01*
X476762Y327565D01*
X476683Y327578D01*
X476606Y327596D01*
X476529Y327617D01*
X476453Y327642D01*
X476379Y327671D01*
X476306Y327703D01*
X476235Y327739D01*
X476166Y327778D01*
X476098Y327821D01*
X476033Y327866D01*
X475970Y327915D01*
X475910Y327967D01*
X475852Y328022D01*
X475797Y328080D01*
X475745Y328140D01*
X475696Y328203D01*
X475651Y328268D01*
X475608Y328336D01*
X475569Y328405D01*
X475533Y328476D01*
X475501Y328549D01*
X475472Y328623D01*
X475447Y328699D01*
X475426Y328776D01*
X475408Y328853D01*
X475395Y328932D01*
X475385Y329011D01*
X475379Y329090D01*
X475377Y329170D01*
X475379Y329250D01*
X475385Y329329D01*
X475395Y329408D01*
X475408Y329487D01*
X475426Y329564D01*
X475447Y329641D01*
X475472Y329717D01*
X475501Y329791D01*
X475533Y329864D01*
X475569Y329935D01*
X475608Y330004D01*
X475651Y330072D01*
X475696Y330137D01*
X475745Y330200D01*
X475797Y330260D01*
X475852Y330318D01*
X475910Y330373D01*
X475970Y330425D01*
X476033Y330474D01*
X476098Y330519D01*
X476166Y330562D01*
X476235Y330601D01*
X476306Y330637D01*
X476379Y330669D01*
X476453Y330698D01*
X476529Y330723D01*
X476606Y330744D01*
X476683Y330762D01*
X476762Y330775D01*
X476841Y330785D01*
X476920Y330791D01*
X477000Y330793D01*
X478623Y330793D01*
X476676Y330793D02*
X475377Y333389D01*
X473164Y333389D02*
X471216Y333389D01*
X471146Y333387D01*
X471076Y333381D01*
X471006Y333372D01*
X470937Y333359D01*
X470869Y333342D01*
X470802Y333321D01*
X470736Y333297D01*
X470671Y333269D01*
X470608Y333238D01*
X470547Y333203D01*
X470488Y333165D01*
X470430Y333124D01*
X470376Y333080D01*
X470323Y333033D01*
X470274Y332984D01*
X470227Y332931D01*
X470183Y332877D01*
X470142Y332819D01*
X470104Y332760D01*
X470069Y332699D01*
X470038Y332636D01*
X470010Y332571D01*
X469986Y332505D01*
X469965Y332438D01*
X469948Y332370D01*
X469935Y332301D01*
X469926Y332231D01*
X469920Y332161D01*
X469918Y332091D01*
X469918Y331442D01*
X469920Y331372D01*
X469926Y331302D01*
X469935Y331232D01*
X469948Y331163D01*
X469965Y331095D01*
X469986Y331028D01*
X470010Y330962D01*
X470038Y330897D01*
X470069Y330834D01*
X470104Y330773D01*
X470142Y330714D01*
X470183Y330656D01*
X470227Y330602D01*
X470274Y330549D01*
X470323Y330500D01*
X470376Y330453D01*
X470430Y330409D01*
X470488Y330368D01*
X470547Y330330D01*
X470608Y330295D01*
X470671Y330264D01*
X470736Y330236D01*
X470802Y330212D01*
X470869Y330191D01*
X470937Y330174D01*
X471006Y330161D01*
X471076Y330152D01*
X471146Y330146D01*
X471216Y330144D01*
X471216Y330143D02*
X473164Y330143D01*
X473164Y327547D01*
X469918Y327547D01*
X173243Y118069D02*
X173243Y112227D01*
X173243Y118069D02*
X174866Y118069D01*
X174946Y118067D01*
X175025Y118061D01*
X175104Y118051D01*
X175183Y118038D01*
X175260Y118020D01*
X175337Y117999D01*
X175413Y117974D01*
X175487Y117945D01*
X175560Y117913D01*
X175631Y117877D01*
X175700Y117838D01*
X175768Y117795D01*
X175833Y117750D01*
X175896Y117701D01*
X175956Y117649D01*
X176014Y117594D01*
X176069Y117536D01*
X176121Y117476D01*
X176170Y117413D01*
X176215Y117348D01*
X176258Y117280D01*
X176297Y117211D01*
X176333Y117140D01*
X176365Y117067D01*
X176394Y116993D01*
X176419Y116917D01*
X176440Y116840D01*
X176458Y116763D01*
X176471Y116684D01*
X176481Y116605D01*
X176487Y116526D01*
X176489Y116446D01*
X176487Y116366D01*
X176481Y116287D01*
X176471Y116208D01*
X176458Y116129D01*
X176440Y116052D01*
X176419Y115975D01*
X176394Y115899D01*
X176365Y115825D01*
X176333Y115752D01*
X176297Y115681D01*
X176258Y115612D01*
X176215Y115544D01*
X176170Y115479D01*
X176121Y115416D01*
X176069Y115356D01*
X176014Y115298D01*
X175956Y115243D01*
X175896Y115191D01*
X175833Y115142D01*
X175768Y115097D01*
X175700Y115054D01*
X175631Y115015D01*
X175560Y114979D01*
X175487Y114947D01*
X175413Y114918D01*
X175337Y114893D01*
X175260Y114872D01*
X175183Y114854D01*
X175104Y114841D01*
X175025Y114831D01*
X174946Y114825D01*
X174866Y114823D01*
X173243Y114823D01*
X175190Y114823D02*
X176489Y112227D01*
X178702Y115473D02*
X180650Y115473D01*
X180650Y115472D02*
X180720Y115470D01*
X180790Y115464D01*
X180860Y115455D01*
X180929Y115442D01*
X180997Y115425D01*
X181064Y115404D01*
X181130Y115380D01*
X181195Y115352D01*
X181258Y115321D01*
X181319Y115286D01*
X181378Y115248D01*
X181436Y115207D01*
X181490Y115163D01*
X181543Y115116D01*
X181592Y115067D01*
X181639Y115014D01*
X181683Y114960D01*
X181724Y114902D01*
X181762Y114843D01*
X181797Y114782D01*
X181828Y114719D01*
X181856Y114654D01*
X181880Y114588D01*
X181901Y114521D01*
X181918Y114453D01*
X181931Y114384D01*
X181940Y114314D01*
X181946Y114244D01*
X181948Y114174D01*
X181948Y113850D01*
X181946Y113770D01*
X181940Y113691D01*
X181930Y113612D01*
X181917Y113533D01*
X181899Y113456D01*
X181878Y113379D01*
X181853Y113303D01*
X181824Y113229D01*
X181792Y113156D01*
X181756Y113085D01*
X181717Y113016D01*
X181674Y112948D01*
X181629Y112883D01*
X181580Y112820D01*
X181528Y112760D01*
X181473Y112702D01*
X181415Y112647D01*
X181355Y112595D01*
X181292Y112546D01*
X181227Y112501D01*
X181159Y112458D01*
X181090Y112419D01*
X181019Y112383D01*
X180946Y112351D01*
X180872Y112322D01*
X180796Y112297D01*
X180719Y112276D01*
X180642Y112258D01*
X180563Y112245D01*
X180484Y112235D01*
X180405Y112229D01*
X180325Y112227D01*
X180245Y112229D01*
X180166Y112235D01*
X180087Y112245D01*
X180008Y112258D01*
X179931Y112276D01*
X179854Y112297D01*
X179778Y112322D01*
X179704Y112351D01*
X179631Y112383D01*
X179560Y112419D01*
X179491Y112458D01*
X179423Y112501D01*
X179358Y112546D01*
X179295Y112595D01*
X179235Y112647D01*
X179177Y112702D01*
X179122Y112760D01*
X179070Y112820D01*
X179021Y112883D01*
X178976Y112948D01*
X178933Y113016D01*
X178894Y113085D01*
X178858Y113156D01*
X178826Y113229D01*
X178797Y113303D01*
X178772Y113379D01*
X178751Y113456D01*
X178733Y113533D01*
X178720Y113612D01*
X178710Y113691D01*
X178704Y113770D01*
X178702Y113850D01*
X178702Y115473D01*
X178703Y115473D02*
X178705Y115572D01*
X178711Y115672D01*
X178720Y115771D01*
X178733Y115869D01*
X178750Y115967D01*
X178771Y116065D01*
X178796Y116161D01*
X178824Y116256D01*
X178856Y116350D01*
X178891Y116443D01*
X178930Y116535D01*
X178973Y116625D01*
X179018Y116713D01*
X179068Y116800D01*
X179120Y116884D01*
X179176Y116967D01*
X179234Y117047D01*
X179296Y117125D01*
X179361Y117200D01*
X179429Y117273D01*
X179499Y117343D01*
X179572Y117411D01*
X179647Y117476D01*
X179725Y117538D01*
X179805Y117596D01*
X179888Y117652D01*
X179972Y117704D01*
X180059Y117754D01*
X180147Y117799D01*
X180237Y117842D01*
X180329Y117881D01*
X180421Y117916D01*
X180516Y117948D01*
X180611Y117976D01*
X180707Y118001D01*
X180805Y118022D01*
X180903Y118039D01*
X181001Y118052D01*
X181100Y118061D01*
X181200Y118067D01*
X181299Y118069D01*
D13*
X39192Y77491D02*
X33604Y77491D01*
X33604Y79044D01*
X33606Y79121D01*
X33612Y79199D01*
X33621Y79275D01*
X33635Y79352D01*
X33652Y79427D01*
X33673Y79501D01*
X33698Y79575D01*
X33726Y79647D01*
X33758Y79717D01*
X33793Y79786D01*
X33832Y79853D01*
X33874Y79918D01*
X33919Y79981D01*
X33967Y80042D01*
X34018Y80100D01*
X34072Y80155D01*
X34129Y80208D01*
X34188Y80257D01*
X34250Y80304D01*
X34314Y80348D01*
X34380Y80388D01*
X34448Y80425D01*
X34518Y80459D01*
X34589Y80489D01*
X34662Y80515D01*
X34736Y80538D01*
X34811Y80557D01*
X34886Y80572D01*
X34963Y80584D01*
X35040Y80592D01*
X35117Y80596D01*
X35195Y80596D01*
X35272Y80592D01*
X35349Y80584D01*
X35426Y80572D01*
X35501Y80557D01*
X35576Y80538D01*
X35650Y80515D01*
X35723Y80489D01*
X35794Y80459D01*
X35864Y80425D01*
X35932Y80388D01*
X35998Y80348D01*
X36062Y80304D01*
X36124Y80257D01*
X36183Y80208D01*
X36240Y80155D01*
X36294Y80100D01*
X36345Y80042D01*
X36393Y79981D01*
X36438Y79918D01*
X36480Y79853D01*
X36519Y79786D01*
X36554Y79717D01*
X36586Y79647D01*
X36614Y79575D01*
X36639Y79501D01*
X36660Y79427D01*
X36677Y79352D01*
X36691Y79275D01*
X36700Y79199D01*
X36706Y79121D01*
X36708Y79044D01*
X36708Y77491D01*
X36708Y79354D02*
X39192Y80596D01*
X34225Y82942D02*
X33604Y82942D01*
X33604Y86046D01*
X39192Y84494D01*
D17*
X53900Y156400D03*
D18*
X51900Y158400D02*
X14900Y158400D01*
X14900Y190400D01*
X51900Y190400D01*
X51900Y158400D01*
D15*
X15334Y154989D02*
X15334Y151137D01*
X15333Y151137D02*
X15335Y151061D01*
X15341Y150985D01*
X15351Y150909D01*
X15364Y150834D01*
X15382Y150760D01*
X15403Y150686D01*
X15428Y150614D01*
X15457Y150544D01*
X15489Y150474D01*
X15525Y150407D01*
X15565Y150342D01*
X15607Y150278D01*
X15653Y150217D01*
X15702Y150159D01*
X15754Y150103D01*
X15808Y150049D01*
X15866Y149999D01*
X15925Y149952D01*
X15988Y149907D01*
X16052Y149866D01*
X16118Y149829D01*
X16187Y149795D01*
X16257Y149764D01*
X16328Y149737D01*
X16401Y149714D01*
X16475Y149695D01*
X16549Y149679D01*
X16625Y149667D01*
X16701Y149659D01*
X16777Y149655D01*
X16853Y149655D01*
X16929Y149659D01*
X17005Y149667D01*
X17081Y149679D01*
X17155Y149695D01*
X17229Y149714D01*
X17302Y149737D01*
X17373Y149764D01*
X17443Y149795D01*
X17512Y149829D01*
X17578Y149866D01*
X17642Y149907D01*
X17705Y149952D01*
X17764Y149999D01*
X17822Y150049D01*
X17876Y150103D01*
X17928Y150159D01*
X17977Y150217D01*
X18023Y150278D01*
X18065Y150342D01*
X18105Y150407D01*
X18141Y150474D01*
X18173Y150544D01*
X18202Y150614D01*
X18227Y150686D01*
X18248Y150760D01*
X18266Y150834D01*
X18279Y150909D01*
X18289Y150985D01*
X18295Y151061D01*
X18297Y151137D01*
X18297Y154989D01*
X21003Y153804D02*
X22485Y154989D01*
X22485Y149655D01*
X23966Y149655D02*
X21003Y149655D01*
D12*
X87680Y127250D02*
X87682Y127321D01*
X87688Y127392D01*
X87698Y127463D01*
X87712Y127533D01*
X87730Y127602D01*
X87751Y127669D01*
X87777Y127736D01*
X87806Y127801D01*
X87838Y127864D01*
X87875Y127926D01*
X87914Y127985D01*
X87957Y128042D01*
X88003Y128096D01*
X88052Y128148D01*
X88104Y128197D01*
X88158Y128243D01*
X88215Y128286D01*
X88274Y128325D01*
X88336Y128362D01*
X88399Y128394D01*
X88464Y128423D01*
X88531Y128449D01*
X88598Y128470D01*
X88667Y128488D01*
X88737Y128502D01*
X88808Y128512D01*
X88879Y128518D01*
X88950Y128520D01*
X89021Y128518D01*
X89092Y128512D01*
X89163Y128502D01*
X89233Y128488D01*
X89302Y128470D01*
X89369Y128449D01*
X89436Y128423D01*
X89501Y128394D01*
X89564Y128362D01*
X89626Y128325D01*
X89685Y128286D01*
X89742Y128243D01*
X89796Y128197D01*
X89848Y128148D01*
X89897Y128096D01*
X89943Y128042D01*
X89986Y127985D01*
X90025Y127926D01*
X90062Y127864D01*
X90094Y127801D01*
X90123Y127736D01*
X90149Y127669D01*
X90170Y127602D01*
X90188Y127533D01*
X90202Y127463D01*
X90212Y127392D01*
X90218Y127321D01*
X90220Y127250D01*
X90218Y127179D01*
X90212Y127108D01*
X90202Y127037D01*
X90188Y126967D01*
X90170Y126898D01*
X90149Y126831D01*
X90123Y126764D01*
X90094Y126699D01*
X90062Y126636D01*
X90025Y126574D01*
X89986Y126515D01*
X89943Y126458D01*
X89897Y126404D01*
X89848Y126352D01*
X89796Y126303D01*
X89742Y126257D01*
X89685Y126214D01*
X89626Y126175D01*
X89564Y126138D01*
X89501Y126106D01*
X89436Y126077D01*
X89369Y126051D01*
X89302Y126030D01*
X89233Y126012D01*
X89163Y125998D01*
X89092Y125988D01*
X89021Y125982D01*
X88950Y125980D01*
X88879Y125982D01*
X88808Y125988D01*
X88737Y125998D01*
X88667Y126012D01*
X88598Y126030D01*
X88531Y126051D01*
X88464Y126077D01*
X88399Y126106D01*
X88336Y126138D01*
X88274Y126175D01*
X88215Y126214D01*
X88158Y126257D01*
X88104Y126303D01*
X88052Y126352D01*
X88003Y126404D01*
X87957Y126458D01*
X87914Y126515D01*
X87875Y126574D01*
X87838Y126636D01*
X87806Y126699D01*
X87777Y126764D01*
X87751Y126831D01*
X87730Y126898D01*
X87712Y126967D01*
X87698Y127037D01*
X87688Y127108D01*
X87682Y127179D01*
X87680Y127250D01*
D13*
X126571Y110863D02*
X126571Y106827D01*
X126573Y106750D01*
X126579Y106672D01*
X126588Y106596D01*
X126602Y106519D01*
X126619Y106444D01*
X126640Y106370D01*
X126665Y106296D01*
X126693Y106224D01*
X126725Y106154D01*
X126760Y106085D01*
X126799Y106018D01*
X126841Y105953D01*
X126886Y105890D01*
X126934Y105829D01*
X126985Y105771D01*
X127039Y105716D01*
X127096Y105663D01*
X127155Y105614D01*
X127217Y105567D01*
X127281Y105523D01*
X127347Y105483D01*
X127415Y105446D01*
X127485Y105412D01*
X127556Y105382D01*
X127629Y105356D01*
X127703Y105333D01*
X127778Y105314D01*
X127853Y105299D01*
X127930Y105287D01*
X128007Y105279D01*
X128084Y105275D01*
X128162Y105275D01*
X128239Y105279D01*
X128316Y105287D01*
X128393Y105299D01*
X128468Y105314D01*
X128543Y105333D01*
X128617Y105356D01*
X128690Y105382D01*
X128761Y105412D01*
X128831Y105446D01*
X128899Y105483D01*
X128965Y105523D01*
X129029Y105567D01*
X129091Y105614D01*
X129150Y105663D01*
X129207Y105716D01*
X129261Y105771D01*
X129312Y105829D01*
X129360Y105890D01*
X129405Y105953D01*
X129447Y106018D01*
X129486Y106085D01*
X129521Y106154D01*
X129553Y106224D01*
X129581Y106296D01*
X129606Y106370D01*
X129627Y106444D01*
X129644Y106519D01*
X129658Y106596D01*
X129667Y106672D01*
X129673Y106750D01*
X129675Y106827D01*
X129675Y110863D01*
X133948Y110863D02*
X134021Y110861D01*
X134094Y110855D01*
X134167Y110846D01*
X134238Y110832D01*
X134310Y110815D01*
X134380Y110795D01*
X134449Y110770D01*
X134516Y110742D01*
X134582Y110711D01*
X134647Y110676D01*
X134709Y110638D01*
X134769Y110596D01*
X134827Y110552D01*
X134883Y110504D01*
X134936Y110454D01*
X134986Y110401D01*
X135034Y110345D01*
X135078Y110287D01*
X135120Y110227D01*
X135158Y110165D01*
X135193Y110100D01*
X135224Y110034D01*
X135252Y109967D01*
X135277Y109898D01*
X135297Y109828D01*
X135314Y109756D01*
X135328Y109685D01*
X135337Y109612D01*
X135343Y109539D01*
X135345Y109466D01*
X133948Y110863D02*
X133864Y110861D01*
X133781Y110855D01*
X133698Y110846D01*
X133616Y110832D01*
X133534Y110815D01*
X133453Y110793D01*
X133373Y110768D01*
X133295Y110740D01*
X133217Y110708D01*
X133142Y110672D01*
X133068Y110633D01*
X132996Y110590D01*
X132926Y110544D01*
X132859Y110495D01*
X132793Y110442D01*
X132731Y110387D01*
X132671Y110329D01*
X132613Y110268D01*
X132559Y110205D01*
X132507Y110139D01*
X132459Y110071D01*
X132414Y110000D01*
X132372Y109928D01*
X132334Y109853D01*
X132299Y109777D01*
X132268Y109700D01*
X132240Y109621D01*
X134878Y108380D02*
X134932Y108433D01*
X134983Y108490D01*
X135031Y108549D01*
X135076Y108610D01*
X135117Y108673D01*
X135156Y108739D01*
X135191Y108806D01*
X135223Y108875D01*
X135251Y108946D01*
X135275Y109017D01*
X135296Y109090D01*
X135313Y109164D01*
X135327Y109239D01*
X135336Y109314D01*
X135342Y109390D01*
X135344Y109466D01*
X134879Y108380D02*
X132240Y105275D01*
X135345Y105275D01*
M02*
