G04 EAGLE Gerber RS-274X export*
G75*
%MOMM*%
%FSLAX34Y34*%
%LPD*%
%INBottom Copper*%
%IPPOS*%
%AMOC8*
5,1,8,0,0,1.08239X$1,22.5*%
G01*
%ADD10C,1.524000*%
%ADD11C,0.756400*%
%ADD12C,0.152400*%

G36*
X489098Y15164D02*
X489098Y15164D01*
X489117Y15162D01*
X489219Y15184D01*
X489321Y15200D01*
X489338Y15210D01*
X489358Y15214D01*
X489447Y15267D01*
X489538Y15316D01*
X489552Y15330D01*
X489569Y15340D01*
X489636Y15419D01*
X489708Y15494D01*
X489716Y15512D01*
X489729Y15527D01*
X489768Y15623D01*
X489811Y15717D01*
X489813Y15737D01*
X489821Y15755D01*
X489839Y15922D01*
X489839Y338378D01*
X489836Y338398D01*
X489838Y338417D01*
X489816Y338519D01*
X489800Y338621D01*
X489790Y338638D01*
X489786Y338658D01*
X489733Y338747D01*
X489684Y338838D01*
X489670Y338852D01*
X489660Y338869D01*
X489581Y338936D01*
X489506Y339008D01*
X489488Y339016D01*
X489473Y339029D01*
X489377Y339068D01*
X489283Y339111D01*
X489263Y339113D01*
X489245Y339121D01*
X489078Y339139D01*
X10922Y339139D01*
X10902Y339136D01*
X10883Y339138D01*
X10781Y339116D01*
X10679Y339100D01*
X10662Y339090D01*
X10642Y339086D01*
X10553Y339033D01*
X10462Y338984D01*
X10448Y338970D01*
X10431Y338960D01*
X10364Y338881D01*
X10292Y338806D01*
X10284Y338788D01*
X10271Y338773D01*
X10232Y338677D01*
X10189Y338583D01*
X10187Y338563D01*
X10179Y338545D01*
X10161Y338378D01*
X10161Y15922D01*
X10164Y15902D01*
X10162Y15883D01*
X10184Y15781D01*
X10200Y15679D01*
X10210Y15662D01*
X10214Y15642D01*
X10267Y15553D01*
X10316Y15462D01*
X10330Y15448D01*
X10340Y15431D01*
X10419Y15364D01*
X10494Y15292D01*
X10512Y15284D01*
X10527Y15271D01*
X10623Y15232D01*
X10717Y15189D01*
X10737Y15187D01*
X10755Y15179D01*
X10922Y15161D01*
X489078Y15161D01*
X489098Y15164D01*
G37*
%LPC*%
G36*
X262827Y94077D02*
X262827Y94077D01*
X258813Y95740D01*
X255740Y98813D01*
X254077Y102827D01*
X254077Y262173D01*
X255740Y266187D01*
X258813Y269260D01*
X262827Y270923D01*
X392173Y270923D01*
X396187Y269260D01*
X399260Y266187D01*
X400923Y262173D01*
X400923Y102827D01*
X399260Y98813D01*
X396187Y95740D01*
X392173Y94077D01*
X262827Y94077D01*
G37*
%LPD*%
%LPC*%
G36*
X135276Y26095D02*
X135276Y26095D01*
X130981Y27874D01*
X127694Y31161D01*
X125915Y35456D01*
X125915Y55344D01*
X127694Y59639D01*
X130981Y62926D01*
X135276Y64705D01*
X139924Y64705D01*
X144219Y62926D01*
X145721Y61424D01*
X145737Y61412D01*
X145750Y61396D01*
X145837Y61340D01*
X145921Y61280D01*
X145940Y61274D01*
X145957Y61263D01*
X146057Y61238D01*
X146156Y61208D01*
X146176Y61208D01*
X146195Y61203D01*
X146298Y61211D01*
X146402Y61214D01*
X146421Y61221D01*
X146440Y61223D01*
X146535Y61263D01*
X146633Y61299D01*
X146648Y61311D01*
X146667Y61319D01*
X146798Y61424D01*
X172701Y87327D01*
X411435Y87327D01*
X411525Y87341D01*
X411616Y87349D01*
X411646Y87361D01*
X411678Y87366D01*
X411759Y87409D01*
X411843Y87445D01*
X411875Y87471D01*
X411895Y87482D01*
X411918Y87505D01*
X411974Y87550D01*
X413180Y88756D01*
X413233Y88830D01*
X413293Y88900D01*
X413305Y88930D01*
X413324Y88956D01*
X413351Y89043D01*
X413385Y89128D01*
X413389Y89169D01*
X413396Y89191D01*
X413395Y89223D01*
X413403Y89295D01*
X413403Y91561D01*
X414598Y94445D01*
X416805Y96652D01*
X419689Y97847D01*
X422811Y97847D01*
X425695Y96652D01*
X427902Y94445D01*
X429097Y91561D01*
X429097Y88439D01*
X427902Y85555D01*
X425695Y83348D01*
X422811Y82153D01*
X420545Y82153D01*
X420455Y82139D01*
X420364Y82131D01*
X420334Y82119D01*
X420302Y82114D01*
X420221Y82071D01*
X420137Y82035D01*
X420105Y82009D01*
X420085Y81998D01*
X420082Y81996D01*
X420062Y81975D01*
X420006Y81930D01*
X415749Y77673D01*
X177015Y77673D01*
X176925Y77659D01*
X176834Y77651D01*
X176804Y77639D01*
X176772Y77634D01*
X176691Y77591D01*
X176607Y77555D01*
X176575Y77529D01*
X176555Y77518D01*
X176532Y77495D01*
X176476Y77450D01*
X149508Y50482D01*
X149455Y50408D01*
X149395Y50338D01*
X149383Y50308D01*
X149364Y50282D01*
X149337Y50195D01*
X149303Y50110D01*
X149299Y50069D01*
X149292Y50047D01*
X149293Y50015D01*
X149285Y49943D01*
X149285Y35456D01*
X147506Y31161D01*
X144219Y27874D01*
X139924Y26095D01*
X135276Y26095D01*
G37*
%LPD*%
%LPC*%
G36*
X84689Y133403D02*
X84689Y133403D01*
X81805Y134598D01*
X79598Y136805D01*
X78403Y139689D01*
X78403Y142811D01*
X79598Y145695D01*
X81805Y147902D01*
X84689Y149097D01*
X87811Y149097D01*
X90695Y147902D01*
X92297Y146300D01*
X92371Y146247D01*
X92441Y146187D01*
X92471Y146175D01*
X92497Y146156D01*
X92584Y146129D01*
X92669Y146095D01*
X92710Y146091D01*
X92732Y146084D01*
X92764Y146085D01*
X92836Y146077D01*
X162685Y146077D01*
X162775Y146091D01*
X162866Y146099D01*
X162896Y146111D01*
X162928Y146116D01*
X163009Y146159D01*
X163093Y146195D01*
X163125Y146221D01*
X163145Y146232D01*
X163163Y146250D01*
X163164Y146251D01*
X163172Y146258D01*
X163224Y146300D01*
X223700Y206776D01*
X223753Y206850D01*
X223813Y206920D01*
X223825Y206950D01*
X223844Y206976D01*
X223871Y207063D01*
X223905Y207148D01*
X223909Y207189D01*
X223916Y207211D01*
X223915Y207243D01*
X223923Y207315D01*
X223923Y225914D01*
X223909Y226005D01*
X223901Y226095D01*
X223889Y226125D01*
X223884Y226157D01*
X223841Y226238D01*
X223805Y226322D01*
X223779Y226354D01*
X223768Y226375D01*
X223745Y226397D01*
X223700Y226453D01*
X222098Y228055D01*
X220903Y230939D01*
X220903Y234061D01*
X222098Y236945D01*
X224305Y239152D01*
X227189Y240347D01*
X230311Y240347D01*
X233195Y239152D01*
X235402Y236945D01*
X236597Y234061D01*
X236597Y230939D01*
X235402Y228055D01*
X233800Y226453D01*
X233747Y226379D01*
X233687Y226309D01*
X233675Y226279D01*
X233656Y226253D01*
X233629Y226166D01*
X233595Y226081D01*
X233591Y226040D01*
X233584Y226018D01*
X233585Y225986D01*
X233577Y225914D01*
X233577Y203001D01*
X166999Y136423D01*
X92836Y136423D01*
X92745Y136409D01*
X92655Y136401D01*
X92625Y136389D01*
X92593Y136384D01*
X92512Y136341D01*
X92428Y136305D01*
X92396Y136279D01*
X92375Y136268D01*
X92353Y136245D01*
X92297Y136200D01*
X90695Y134598D01*
X87811Y133403D01*
X84689Y133403D01*
G37*
%LPD*%
%LPC*%
G36*
X163439Y170903D02*
X163439Y170903D01*
X160555Y172098D01*
X158953Y173700D01*
X158879Y173753D01*
X158809Y173813D01*
X158779Y173825D01*
X158753Y173844D01*
X158666Y173871D01*
X158581Y173905D01*
X158540Y173909D01*
X158518Y173916D01*
X158486Y173915D01*
X158414Y173923D01*
X123001Y173923D01*
X83744Y213180D01*
X83670Y213233D01*
X83600Y213293D01*
X83570Y213305D01*
X83544Y213324D01*
X83457Y213351D01*
X83372Y213385D01*
X83331Y213389D01*
X83309Y213396D01*
X83277Y213395D01*
X83205Y213403D01*
X80939Y213403D01*
X78055Y214598D01*
X75848Y216805D01*
X74653Y219689D01*
X74653Y222811D01*
X75848Y225695D01*
X78055Y227902D01*
X80939Y229097D01*
X84061Y229097D01*
X86945Y227902D01*
X89152Y225695D01*
X90347Y222811D01*
X90347Y220545D01*
X90361Y220455D01*
X90369Y220364D01*
X90381Y220334D01*
X90386Y220302D01*
X90429Y220221D01*
X90465Y220137D01*
X90491Y220105D01*
X90502Y220085D01*
X90525Y220062D01*
X90570Y220006D01*
X126776Y183800D01*
X126850Y183747D01*
X126920Y183687D01*
X126950Y183675D01*
X126976Y183656D01*
X127063Y183629D01*
X127148Y183595D01*
X127189Y183591D01*
X127211Y183584D01*
X127243Y183585D01*
X127315Y183577D01*
X158414Y183577D01*
X158505Y183591D01*
X158595Y183599D01*
X158625Y183611D01*
X158657Y183616D01*
X158738Y183659D01*
X158822Y183695D01*
X158854Y183721D01*
X158875Y183732D01*
X158897Y183755D01*
X158953Y183800D01*
X160555Y185402D01*
X163439Y186597D01*
X166561Y186597D01*
X169445Y185402D01*
X171652Y183195D01*
X172847Y180311D01*
X172847Y177189D01*
X171652Y174305D01*
X169445Y172098D01*
X166561Y170903D01*
X163439Y170903D01*
G37*
%LPD*%
%LPC*%
G36*
X38439Y69653D02*
X38439Y69653D01*
X35555Y70848D01*
X33348Y73055D01*
X32153Y75939D01*
X32153Y79061D01*
X33348Y81945D01*
X35555Y84152D01*
X38439Y85347D01*
X40705Y85347D01*
X40795Y85361D01*
X40886Y85369D01*
X40916Y85381D01*
X40948Y85386D01*
X41029Y85429D01*
X41113Y85465D01*
X41145Y85491D01*
X41165Y85502D01*
X41188Y85525D01*
X41244Y85570D01*
X48001Y92327D01*
X119664Y92327D01*
X119755Y92341D01*
X119845Y92349D01*
X119875Y92361D01*
X119907Y92366D01*
X119988Y92409D01*
X120072Y92445D01*
X120104Y92471D01*
X120125Y92482D01*
X120147Y92505D01*
X120203Y92550D01*
X121805Y94152D01*
X124689Y95347D01*
X127811Y95347D01*
X130695Y94152D01*
X132902Y91945D01*
X134097Y89061D01*
X134097Y85939D01*
X132902Y83055D01*
X130695Y80848D01*
X127811Y79653D01*
X124689Y79653D01*
X121805Y80848D01*
X120203Y82450D01*
X120129Y82503D01*
X120059Y82563D01*
X120029Y82575D01*
X120003Y82594D01*
X119916Y82621D01*
X119831Y82655D01*
X119790Y82659D01*
X119768Y82666D01*
X119736Y82665D01*
X119664Y82673D01*
X52315Y82673D01*
X52225Y82659D01*
X52134Y82651D01*
X52104Y82639D01*
X52072Y82634D01*
X51991Y82591D01*
X51907Y82555D01*
X51875Y82529D01*
X51855Y82518D01*
X51832Y82495D01*
X51776Y82450D01*
X48070Y78744D01*
X48017Y78670D01*
X47957Y78600D01*
X47945Y78570D01*
X47926Y78544D01*
X47899Y78457D01*
X47865Y78372D01*
X47861Y78331D01*
X47854Y78309D01*
X47855Y78277D01*
X47847Y78205D01*
X47847Y75939D01*
X46652Y73055D01*
X44445Y70848D01*
X41561Y69653D01*
X38439Y69653D01*
G37*
%LPD*%
%LPC*%
G36*
X184689Y188403D02*
X184689Y188403D01*
X181805Y189598D01*
X179598Y191805D01*
X178403Y194689D01*
X178403Y196955D01*
X178389Y197045D01*
X178381Y197136D01*
X178369Y197166D01*
X178364Y197198D01*
X178321Y197279D01*
X178285Y197363D01*
X178259Y197395D01*
X178248Y197415D01*
X178225Y197438D01*
X178180Y197494D01*
X132673Y243001D01*
X132673Y254664D01*
X132659Y254755D01*
X132651Y254845D01*
X132639Y254875D01*
X132634Y254907D01*
X132591Y254988D01*
X132555Y255072D01*
X132529Y255104D01*
X132518Y255125D01*
X132495Y255147D01*
X132450Y255203D01*
X130848Y256805D01*
X129653Y259689D01*
X129653Y262811D01*
X130848Y265695D01*
X133055Y267902D01*
X135939Y269097D01*
X139061Y269097D01*
X141945Y267902D01*
X144152Y265695D01*
X145347Y262811D01*
X145347Y259689D01*
X144152Y256805D01*
X142550Y255203D01*
X142497Y255129D01*
X142437Y255059D01*
X142425Y255029D01*
X142406Y255003D01*
X142379Y254916D01*
X142345Y254831D01*
X142341Y254790D01*
X142334Y254768D01*
X142335Y254736D01*
X142327Y254664D01*
X142327Y247315D01*
X142328Y247306D01*
X142328Y247303D01*
X142332Y247285D01*
X142341Y247225D01*
X142349Y247134D01*
X142361Y247104D01*
X142366Y247072D01*
X142409Y246991D01*
X142445Y246907D01*
X142471Y246875D01*
X142482Y246855D01*
X142505Y246832D01*
X142550Y246776D01*
X185006Y204320D01*
X185080Y204267D01*
X185150Y204207D01*
X185180Y204195D01*
X185206Y204176D01*
X185293Y204149D01*
X185378Y204115D01*
X185419Y204111D01*
X185441Y204104D01*
X185473Y204105D01*
X185545Y204097D01*
X187811Y204097D01*
X190695Y202902D01*
X192902Y200695D01*
X194097Y197811D01*
X194097Y194689D01*
X192902Y191805D01*
X190695Y189598D01*
X187811Y188403D01*
X184689Y188403D01*
G37*
%LPD*%
%LPC*%
G36*
X439776Y291345D02*
X439776Y291345D01*
X435481Y293124D01*
X432194Y296411D01*
X430415Y300706D01*
X430415Y320594D01*
X432194Y324889D01*
X435481Y328176D01*
X439776Y329955D01*
X444424Y329955D01*
X448719Y328176D01*
X452006Y324889D01*
X453785Y320594D01*
X453785Y300706D01*
X452006Y296411D01*
X448719Y293124D01*
X444424Y291345D01*
X439776Y291345D01*
G37*
%LPD*%
%LPC*%
G36*
X414376Y291345D02*
X414376Y291345D01*
X410081Y293124D01*
X406794Y296411D01*
X405015Y300706D01*
X405015Y320594D01*
X406794Y324889D01*
X410081Y328176D01*
X414376Y329955D01*
X419024Y329955D01*
X423319Y328176D01*
X426606Y324889D01*
X428385Y320594D01*
X428385Y300706D01*
X426606Y296411D01*
X423319Y293124D01*
X419024Y291345D01*
X414376Y291345D01*
G37*
%LPD*%
%LPC*%
G36*
X140276Y291345D02*
X140276Y291345D01*
X135981Y293124D01*
X132694Y296411D01*
X130915Y300706D01*
X130915Y320594D01*
X132694Y324889D01*
X135981Y328176D01*
X140276Y329955D01*
X144924Y329955D01*
X149219Y328176D01*
X152506Y324889D01*
X154285Y320594D01*
X154285Y300706D01*
X152506Y296411D01*
X149219Y293124D01*
X144924Y291345D01*
X140276Y291345D01*
G37*
%LPD*%
%LPC*%
G36*
X114876Y291345D02*
X114876Y291345D01*
X110581Y293124D01*
X107294Y296411D01*
X105515Y300706D01*
X105515Y320594D01*
X107294Y324889D01*
X110581Y328176D01*
X114876Y329955D01*
X119524Y329955D01*
X123819Y328176D01*
X127106Y324889D01*
X128885Y320594D01*
X128885Y300706D01*
X127106Y296411D01*
X123819Y293124D01*
X119524Y291345D01*
X114876Y291345D01*
G37*
%LPD*%
%LPC*%
G36*
X32526Y292445D02*
X32526Y292445D01*
X28231Y294224D01*
X24944Y297511D01*
X23165Y301806D01*
X23165Y321694D01*
X24944Y325989D01*
X28231Y329276D01*
X32526Y331055D01*
X37174Y331055D01*
X41469Y329276D01*
X44756Y325989D01*
X46535Y321694D01*
X46535Y301806D01*
X44756Y297511D01*
X41469Y294224D01*
X37174Y292445D01*
X32526Y292445D01*
G37*
%LPD*%
%LPC*%
G36*
X57926Y292445D02*
X57926Y292445D01*
X53631Y294224D01*
X50344Y297511D01*
X48565Y301806D01*
X48565Y321694D01*
X50344Y325989D01*
X53631Y329276D01*
X57926Y331055D01*
X62574Y331055D01*
X66869Y329276D01*
X70156Y325989D01*
X71935Y321694D01*
X71935Y301806D01*
X70156Y297511D01*
X66869Y294224D01*
X62574Y292445D01*
X57926Y292445D01*
G37*
%LPD*%
%LPC*%
G36*
X228876Y292595D02*
X228876Y292595D01*
X224581Y294374D01*
X221294Y297661D01*
X219515Y301956D01*
X219515Y321844D01*
X221294Y326139D01*
X224581Y329426D01*
X228876Y331205D01*
X233524Y331205D01*
X237819Y329426D01*
X241106Y326139D01*
X242885Y321844D01*
X242885Y301956D01*
X241106Y297661D01*
X237819Y294374D01*
X233524Y292595D01*
X228876Y292595D01*
G37*
%LPD*%
%LPC*%
G36*
X254276Y292595D02*
X254276Y292595D01*
X249981Y294374D01*
X246694Y297661D01*
X244915Y301956D01*
X244915Y321844D01*
X246694Y326139D01*
X249981Y329426D01*
X254276Y331205D01*
X258924Y331205D01*
X263219Y329426D01*
X266506Y326139D01*
X268285Y321844D01*
X268285Y301956D01*
X266506Y297661D01*
X263219Y294374D01*
X258924Y292595D01*
X254276Y292595D01*
G37*
%LPD*%
%LPC*%
G36*
X329126Y293845D02*
X329126Y293845D01*
X324831Y295624D01*
X321544Y298911D01*
X319765Y303206D01*
X319765Y323094D01*
X321544Y327389D01*
X324831Y330676D01*
X329126Y332455D01*
X333774Y332455D01*
X338069Y330676D01*
X341356Y327389D01*
X343135Y323094D01*
X343135Y303206D01*
X341356Y298911D01*
X338069Y295624D01*
X333774Y293845D01*
X329126Y293845D01*
G37*
%LPD*%
%LPC*%
G36*
X354526Y293845D02*
X354526Y293845D01*
X350231Y295624D01*
X346944Y298911D01*
X345165Y303206D01*
X345165Y323094D01*
X346944Y327389D01*
X350231Y330676D01*
X354526Y332455D01*
X359174Y332455D01*
X363469Y330676D01*
X366756Y327389D01*
X368535Y323094D01*
X368535Y303206D01*
X366756Y298911D01*
X363469Y295624D01*
X359174Y293845D01*
X354526Y293845D01*
G37*
%LPD*%
%LPC*%
G36*
X109876Y26095D02*
X109876Y26095D01*
X105581Y27874D01*
X102294Y31161D01*
X100515Y35456D01*
X100515Y55344D01*
X102294Y59639D01*
X105581Y62926D01*
X109876Y64705D01*
X114524Y64705D01*
X118819Y62926D01*
X122106Y59639D01*
X123885Y55344D01*
X123885Y35456D01*
X122106Y31161D01*
X118819Y27874D01*
X114524Y26095D01*
X109876Y26095D01*
G37*
%LPD*%
%LPC*%
G36*
X84476Y26095D02*
X84476Y26095D01*
X80181Y27874D01*
X76894Y31161D01*
X75115Y35456D01*
X75115Y55344D01*
X76894Y59639D01*
X80181Y62926D01*
X84476Y64705D01*
X89124Y64705D01*
X93419Y62926D01*
X96706Y59639D01*
X98485Y55344D01*
X98485Y35456D01*
X96706Y31161D01*
X93419Y27874D01*
X89124Y26095D01*
X84476Y26095D01*
G37*
%LPD*%
D10*
X60250Y319370D02*
X60250Y304130D01*
X34850Y304130D02*
X34850Y319370D01*
X142600Y318270D02*
X142600Y303030D01*
X117200Y303030D02*
X117200Y318270D01*
X256600Y319520D02*
X256600Y304280D01*
X231200Y304280D02*
X231200Y319520D01*
X356850Y320770D02*
X356850Y305530D01*
X331450Y305530D02*
X331450Y320770D01*
X442100Y318270D02*
X442100Y303030D01*
X416700Y303030D02*
X416700Y318270D01*
X137600Y53020D02*
X137600Y37780D01*
X112200Y37780D02*
X112200Y53020D01*
X86800Y53020D02*
X86800Y37780D01*
D11*
X86250Y141250D03*
D12*
X165000Y141250D01*
X228750Y205000D01*
X228750Y232500D01*
D11*
X228750Y232500D03*
X40000Y77500D03*
D12*
X50000Y87500D01*
X126250Y87500D01*
D11*
X126250Y87500D03*
X372500Y40000D03*
X145000Y216250D03*
D12*
X117500Y243750D01*
D11*
X117500Y243750D03*
X433750Y127500D03*
X145000Y192500D03*
X421250Y90000D03*
D12*
X413750Y82500D01*
X174700Y82500D01*
X137600Y45400D01*
D11*
X137500Y261250D03*
D12*
X137500Y245000D01*
X186250Y196250D01*
D11*
X186250Y196250D03*
X82500Y221250D03*
D12*
X125000Y178750D01*
X165000Y178750D01*
D11*
X165000Y178750D03*
M02*
