M48
;GenerationSoftware,Autodesk,EAGLE,9.2.0*%
;CreationDate,2019-01-14T19:12:20Z*%
FMAT,2
ICI,OFF
METRIC,TZ,000.000
T2C0.350
T1C1.016
%
G90
M71
T1
X6025Y31175
X3485Y31175
X14260Y31065
X11720Y31065
X25660Y31190
X23120Y31190
X35685Y31315
X33145Y31315
X44210Y31065
X41670Y31065
X13760Y4540
X11220Y4540
X8680Y4540
T2
X8625Y14125
X22875Y23250
X4000Y7750
X12625Y8750
X37250Y4000
X14500Y21625
X11750Y24375
X43375Y12750
X14500Y19250
X42125Y9000
X13750Y26125
X18625Y19625
X8250Y22125
X16500Y17875
M30