G04 EAGLE Gerber RS-274X export*
G75*
%MOMM*%
%FSLAX34Y34*%
%LPD*%
%INSolderpaste Top*%
%IPPOS*%
%AMOC8*
5,1,8,0,0,1.08239X$1,22.5*%
G01*
%ADD10R,1.000000X1.100000*%
%ADD11R,1.100000X1.000000*%
%ADD12R,1.447800X0.965200*%
%ADD13R,0.965200X1.447800*%
%ADD14R,0.400000X1.450000*%
%ADD15R,1.800000X1.500000*%
%ADD16R,1.500000X0.700000*%
%ADD17R,0.800000X0.800000*%
%ADD18R,1.005600X1.199997*%
%ADD19R,1.199997X1.005600*%
%ADD20R,1.778000X0.914400*%
%ADD21R,0.914400X1.778000*%
%ADD22R,0.270000X0.450000*%
%ADD23R,0.450000X0.270000*%
%ADD24R,1.200000X0.600000*%


D10*
X43100Y141400D03*
X43100Y124400D03*
D11*
X22550Y252900D03*
X39550Y252900D03*
X23450Y230400D03*
X40450Y230400D03*
X22850Y206400D03*
X39850Y206400D03*
D10*
X21500Y138900D03*
X21500Y121900D03*
D12*
X55600Y59005D03*
X55600Y42495D03*
D13*
X87595Y77000D03*
X104105Y77000D03*
D14*
X265850Y50550D03*
X259350Y50550D03*
X252850Y50550D03*
X272350Y50550D03*
X278850Y50550D03*
D15*
X229010Y23300D03*
D16*
X265850Y23300D03*
D15*
X302690Y23300D03*
D17*
X21050Y50500D03*
X21050Y35500D03*
D18*
X65372Y283700D03*
X82428Y283700D03*
X120622Y283700D03*
X137678Y283700D03*
D19*
X281900Y301422D03*
X281900Y318478D03*
X384650Y305172D03*
X384650Y322228D03*
X473850Y318028D03*
X473850Y300972D03*
D18*
X165128Y114500D03*
X148072Y114500D03*
D11*
X22000Y92200D03*
X22000Y75200D03*
D20*
X250350Y153500D03*
X250350Y206000D03*
X250350Y127250D03*
X250350Y179750D03*
X250350Y232250D03*
X250350Y101000D03*
X405350Y179750D03*
X405350Y153500D03*
X405350Y127250D03*
X405350Y206000D03*
X405350Y232250D03*
X405350Y101000D03*
D21*
X273350Y86500D03*
X301350Y86500D03*
X327850Y86500D03*
X354350Y86500D03*
X382350Y86500D03*
D22*
X48450Y162150D03*
D23*
X48150Y167950D03*
X48150Y172250D03*
X48150Y176550D03*
X48150Y180850D03*
D22*
X48450Y186650D03*
X44150Y186650D03*
X39850Y186650D03*
X35550Y186650D03*
X31250Y186650D03*
X26950Y186650D03*
X22650Y186650D03*
X18350Y186650D03*
D23*
X18650Y180850D03*
X18650Y176550D03*
X18650Y172250D03*
X18650Y167950D03*
D22*
X18350Y162150D03*
X22650Y162150D03*
X26950Y162150D03*
X31250Y162150D03*
X35550Y162150D03*
X39850Y162150D03*
X44150Y162150D03*
D24*
X114710Y117700D03*
X114710Y98700D03*
X88590Y117700D03*
X88590Y108200D03*
X88590Y98700D03*
M02*
