G04 EAGLE Gerber RS-274X export*
G75*
%MOMM*%
%FSLAX34Y34*%
%LPD*%
%INTop Copper*%
%IPPOS*%
%AMOC8*
5,1,8,0,0,1.08239X$1,22.5*%
G01*
%ADD10C,0.130000*%
%ADD11C,0.152400*%
%ADD12R,1.000000X1.100000*%
%ADD13C,1.524000*%
%ADD14R,1.100000X1.000000*%
%ADD15R,1.447800X0.965200*%
%ADD16R,0.965200X1.447800*%
%ADD17R,0.400000X1.450000*%
%ADD18R,1.800000X1.500000*%
%ADD19R,2.500000X1.500000*%
%ADD20R,0.800000X0.800000*%
%ADD21R,1.005600X1.199997*%
%ADD22R,1.199997X1.005600*%
%ADD23R,1.778000X0.914400*%
%ADD24R,0.914400X1.778000*%
%ADD25R,0.270000X0.450000*%
%ADD26R,0.450000X0.270000*%
%ADD27R,1.200000X0.600000*%
%ADD28C,0.756400*%

G36*
X217734Y15164D02*
X217734Y15164D01*
X217753Y15162D01*
X217855Y15184D01*
X217957Y15200D01*
X217974Y15210D01*
X217994Y15214D01*
X218083Y15267D01*
X218174Y15316D01*
X218188Y15330D01*
X218205Y15340D01*
X218272Y15419D01*
X218344Y15494D01*
X218352Y15512D01*
X218365Y15527D01*
X218404Y15623D01*
X218447Y15717D01*
X218449Y15737D01*
X218457Y15755D01*
X218475Y15922D01*
X218475Y31432D01*
X219368Y32325D01*
X238632Y32325D01*
X239525Y31432D01*
X239525Y15922D01*
X239528Y15902D01*
X239526Y15883D01*
X239548Y15781D01*
X239564Y15679D01*
X239574Y15662D01*
X239578Y15642D01*
X239631Y15553D01*
X239680Y15462D01*
X239694Y15448D01*
X239704Y15431D01*
X239783Y15364D01*
X239858Y15292D01*
X239876Y15284D01*
X239891Y15271D01*
X239987Y15232D01*
X240081Y15189D01*
X240101Y15187D01*
X240119Y15179D01*
X240286Y15161D01*
X251064Y15161D01*
X251084Y15164D01*
X251103Y15162D01*
X251205Y15184D01*
X251307Y15200D01*
X251324Y15210D01*
X251344Y15214D01*
X251433Y15267D01*
X251524Y15316D01*
X251538Y15330D01*
X251555Y15340D01*
X251622Y15419D01*
X251694Y15494D01*
X251702Y15512D01*
X251715Y15527D01*
X251754Y15623D01*
X251797Y15717D01*
X251799Y15737D01*
X251807Y15755D01*
X251825Y15922D01*
X251825Y31432D01*
X252718Y32325D01*
X278982Y32325D01*
X279875Y31432D01*
X279875Y15922D01*
X279878Y15902D01*
X279876Y15883D01*
X279898Y15781D01*
X279914Y15679D01*
X279924Y15662D01*
X279928Y15642D01*
X279981Y15553D01*
X280030Y15462D01*
X280044Y15448D01*
X280054Y15431D01*
X280133Y15364D01*
X280208Y15292D01*
X280226Y15284D01*
X280241Y15271D01*
X280337Y15232D01*
X280431Y15189D01*
X280451Y15187D01*
X280469Y15179D01*
X280636Y15161D01*
X291414Y15161D01*
X291434Y15164D01*
X291453Y15162D01*
X291555Y15184D01*
X291657Y15200D01*
X291674Y15210D01*
X291694Y15214D01*
X291783Y15267D01*
X291874Y15316D01*
X291888Y15330D01*
X291905Y15340D01*
X291972Y15419D01*
X292044Y15494D01*
X292052Y15512D01*
X292065Y15527D01*
X292104Y15623D01*
X292147Y15717D01*
X292149Y15737D01*
X292157Y15755D01*
X292175Y15922D01*
X292175Y31432D01*
X293068Y32325D01*
X312332Y32325D01*
X313225Y31432D01*
X313225Y15922D01*
X313228Y15902D01*
X313226Y15883D01*
X313248Y15781D01*
X313264Y15679D01*
X313274Y15662D01*
X313278Y15642D01*
X313331Y15553D01*
X313380Y15462D01*
X313394Y15448D01*
X313404Y15431D01*
X313483Y15364D01*
X313558Y15292D01*
X313576Y15284D01*
X313591Y15271D01*
X313687Y15232D01*
X313781Y15189D01*
X313801Y15187D01*
X313819Y15179D01*
X313986Y15161D01*
X489078Y15161D01*
X489098Y15164D01*
X489117Y15162D01*
X489219Y15184D01*
X489321Y15200D01*
X489338Y15210D01*
X489358Y15214D01*
X489447Y15267D01*
X489538Y15316D01*
X489552Y15330D01*
X489569Y15340D01*
X489636Y15419D01*
X489708Y15494D01*
X489716Y15512D01*
X489729Y15527D01*
X489768Y15623D01*
X489811Y15717D01*
X489813Y15737D01*
X489821Y15755D01*
X489839Y15922D01*
X489839Y338378D01*
X489836Y338398D01*
X489838Y338417D01*
X489816Y338519D01*
X489800Y338621D01*
X489790Y338638D01*
X489786Y338658D01*
X489733Y338747D01*
X489684Y338838D01*
X489670Y338852D01*
X489660Y338869D01*
X489581Y338936D01*
X489506Y339008D01*
X489488Y339016D01*
X489473Y339029D01*
X489377Y339068D01*
X489283Y339111D01*
X489263Y339113D01*
X489245Y339121D01*
X489078Y339139D01*
X10922Y339139D01*
X10902Y339136D01*
X10883Y339138D01*
X10781Y339116D01*
X10679Y339100D01*
X10662Y339090D01*
X10642Y339086D01*
X10553Y339033D01*
X10462Y338984D01*
X10448Y338970D01*
X10431Y338960D01*
X10364Y338881D01*
X10292Y338806D01*
X10284Y338788D01*
X10271Y338773D01*
X10232Y338677D01*
X10189Y338583D01*
X10187Y338563D01*
X10179Y338545D01*
X10161Y338378D01*
X10161Y15922D01*
X10164Y15902D01*
X10162Y15883D01*
X10184Y15781D01*
X10200Y15679D01*
X10210Y15662D01*
X10214Y15642D01*
X10267Y15553D01*
X10316Y15462D01*
X10330Y15448D01*
X10340Y15431D01*
X10419Y15364D01*
X10494Y15292D01*
X10512Y15284D01*
X10527Y15271D01*
X10623Y15232D01*
X10717Y15189D01*
X10737Y15187D01*
X10755Y15179D01*
X10922Y15161D01*
X217714Y15161D01*
X217734Y15164D01*
G37*
%LPC*%
G36*
X240828Y121153D02*
X240828Y121153D01*
X239935Y122046D01*
X239935Y124202D01*
X239932Y124222D01*
X239934Y124241D01*
X239912Y124343D01*
X239896Y124445D01*
X239886Y124462D01*
X239882Y124482D01*
X239829Y124571D01*
X239780Y124662D01*
X239766Y124676D01*
X239756Y124693D01*
X239677Y124760D01*
X239602Y124832D01*
X239584Y124840D01*
X239569Y124853D01*
X239473Y124892D01*
X239379Y124935D01*
X239359Y124937D01*
X239341Y124945D01*
X239174Y124963D01*
X206803Y124963D01*
X166326Y165440D01*
X166252Y165493D01*
X166182Y165553D01*
X166152Y165565D01*
X166126Y165584D01*
X166039Y165611D01*
X165954Y165645D01*
X165913Y165649D01*
X165891Y165656D01*
X165859Y165655D01*
X165787Y165663D01*
X52086Y165663D01*
X52066Y165660D01*
X52047Y165662D01*
X51945Y165640D01*
X51843Y165624D01*
X51826Y165614D01*
X51806Y165610D01*
X51717Y165557D01*
X51626Y165508D01*
X51612Y165494D01*
X51595Y165484D01*
X51528Y165405D01*
X51456Y165330D01*
X51448Y165312D01*
X51435Y165297D01*
X51396Y165201D01*
X51353Y165107D01*
X51351Y165087D01*
X51343Y165069D01*
X51325Y164902D01*
X51325Y162825D01*
X51327Y162812D01*
X51326Y162804D01*
X51335Y162760D01*
X51339Y162734D01*
X51347Y162644D01*
X51359Y162614D01*
X51364Y162582D01*
X51407Y162501D01*
X51443Y162417D01*
X51469Y162385D01*
X51480Y162364D01*
X51503Y162342D01*
X51548Y162286D01*
X70074Y143760D01*
X70148Y143707D01*
X70218Y143647D01*
X70248Y143635D01*
X70274Y143616D01*
X70361Y143589D01*
X70446Y143555D01*
X70487Y143551D01*
X70509Y143544D01*
X70541Y143545D01*
X70613Y143537D01*
X80717Y143537D01*
X80807Y143551D01*
X80898Y143559D01*
X80927Y143571D01*
X80959Y143576D01*
X81040Y143619D01*
X81124Y143655D01*
X81156Y143681D01*
X81177Y143692D01*
X81199Y143715D01*
X81255Y143760D01*
X84052Y146557D01*
X88448Y146557D01*
X91557Y143448D01*
X91557Y139052D01*
X88448Y135943D01*
X84052Y135943D01*
X81255Y138740D01*
X81181Y138793D01*
X81111Y138853D01*
X81081Y138865D01*
X81055Y138884D01*
X80968Y138911D01*
X80883Y138945D01*
X80842Y138949D01*
X80820Y138956D01*
X80788Y138955D01*
X80717Y138963D01*
X68403Y138963D01*
X49214Y158152D01*
X49140Y158205D01*
X49070Y158265D01*
X49040Y158277D01*
X49014Y158296D01*
X48927Y158323D01*
X48842Y158357D01*
X48801Y158361D01*
X48779Y158368D01*
X48747Y158367D01*
X48675Y158375D01*
X47198Y158375D01*
X47178Y158372D01*
X47159Y158374D01*
X47057Y158352D01*
X46955Y158336D01*
X46938Y158326D01*
X46918Y158322D01*
X46829Y158269D01*
X46738Y158220D01*
X46724Y158206D01*
X46707Y158196D01*
X46640Y158117D01*
X46568Y158042D01*
X46560Y158024D01*
X46547Y158009D01*
X46508Y157913D01*
X46465Y157819D01*
X46463Y157799D01*
X46455Y157781D01*
X46437Y157614D01*
X46437Y149186D01*
X46440Y149166D01*
X46438Y149147D01*
X46460Y149045D01*
X46476Y148943D01*
X46486Y148926D01*
X46490Y148906D01*
X46543Y148817D01*
X46592Y148726D01*
X46606Y148712D01*
X46616Y148695D01*
X46695Y148628D01*
X46770Y148556D01*
X46788Y148548D01*
X46803Y148535D01*
X46899Y148496D01*
X46993Y148453D01*
X47013Y148451D01*
X47031Y148443D01*
X47198Y148425D01*
X48732Y148425D01*
X49625Y147532D01*
X49625Y135268D01*
X48732Y134375D01*
X37468Y134375D01*
X36575Y135268D01*
X36575Y147532D01*
X37468Y148425D01*
X41102Y148425D01*
X41122Y148428D01*
X41141Y148426D01*
X41243Y148448D01*
X41345Y148464D01*
X41362Y148474D01*
X41382Y148478D01*
X41471Y148531D01*
X41562Y148580D01*
X41576Y148594D01*
X41593Y148604D01*
X41660Y148683D01*
X41732Y148758D01*
X41740Y148776D01*
X41753Y148791D01*
X41792Y148887D01*
X41835Y148981D01*
X41837Y149001D01*
X41845Y149019D01*
X41863Y149186D01*
X41863Y157614D01*
X41860Y157634D01*
X41862Y157653D01*
X41840Y157755D01*
X41824Y157857D01*
X41814Y157874D01*
X41810Y157894D01*
X41757Y157983D01*
X41708Y158074D01*
X41694Y158088D01*
X41684Y158105D01*
X41605Y158172D01*
X41530Y158244D01*
X41512Y158252D01*
X41497Y158265D01*
X41401Y158304D01*
X41307Y158347D01*
X41287Y158349D01*
X41269Y158357D01*
X41102Y158375D01*
X34298Y158375D01*
X34278Y158372D01*
X34259Y158374D01*
X34157Y158352D01*
X34055Y158336D01*
X34038Y158326D01*
X34018Y158322D01*
X33929Y158269D01*
X33838Y158220D01*
X33824Y158206D01*
X33807Y158196D01*
X33740Y158117D01*
X33668Y158042D01*
X33660Y158024D01*
X33647Y158009D01*
X33608Y157913D01*
X33565Y157819D01*
X33563Y157799D01*
X33555Y157781D01*
X33537Y157614D01*
X33537Y151453D01*
X28108Y146024D01*
X28097Y146008D01*
X28081Y145996D01*
X28025Y145908D01*
X27965Y145825D01*
X27959Y145806D01*
X27948Y145789D01*
X27923Y145688D01*
X27892Y145590D01*
X27893Y145570D01*
X27888Y145550D01*
X27896Y145447D01*
X27899Y145344D01*
X27906Y145325D01*
X27907Y145305D01*
X27948Y145210D01*
X27983Y145113D01*
X27996Y145097D01*
X28004Y145079D01*
X28025Y145052D01*
X28025Y132768D01*
X27132Y131875D01*
X15868Y131875D01*
X14975Y132768D01*
X14975Y145032D01*
X15868Y145925D01*
X21225Y145925D01*
X21316Y145939D01*
X21406Y145947D01*
X21436Y145959D01*
X21468Y145964D01*
X21549Y146007D01*
X21633Y146043D01*
X21665Y146069D01*
X21686Y146080D01*
X21708Y146103D01*
X21764Y146148D01*
X28740Y153124D01*
X28793Y153198D01*
X28853Y153268D01*
X28865Y153298D01*
X28884Y153324D01*
X28911Y153411D01*
X28945Y153496D01*
X28949Y153537D01*
X28956Y153559D01*
X28955Y153591D01*
X28963Y153663D01*
X28963Y156598D01*
X28960Y156618D01*
X28962Y156637D01*
X28940Y156739D01*
X28924Y156841D01*
X28914Y156858D01*
X28910Y156878D01*
X28857Y156967D01*
X28808Y157058D01*
X28794Y157072D01*
X28784Y157089D01*
X28705Y157156D01*
X28630Y157228D01*
X28612Y157236D01*
X28597Y157249D01*
X28501Y157288D01*
X28407Y157331D01*
X28387Y157333D01*
X28369Y157341D01*
X28202Y157359D01*
X27711Y157359D01*
X27711Y158406D01*
X27701Y158468D01*
X27701Y158531D01*
X27681Y158588D01*
X27672Y158649D01*
X27642Y158704D01*
X27622Y158764D01*
X27585Y158812D01*
X27557Y158866D01*
X27511Y158909D01*
X27473Y158959D01*
X27422Y158993D01*
X27378Y159035D01*
X27321Y159062D01*
X27269Y159097D01*
X27210Y159113D01*
X27155Y159139D01*
X27093Y159146D01*
X27032Y159163D01*
X26971Y159159D01*
X26911Y159166D01*
X26849Y159153D01*
X26787Y159149D01*
X26730Y159127D01*
X26670Y159114D01*
X26616Y159082D01*
X26558Y159058D01*
X26512Y159019D01*
X26459Y158988D01*
X26418Y158940D01*
X26371Y158899D01*
X26321Y158826D01*
X26299Y158801D01*
X26299Y158800D01*
X26293Y158784D01*
X26276Y158760D01*
X26244Y158665D01*
X26207Y158572D01*
X26204Y158543D01*
X26198Y158527D01*
X26198Y158494D01*
X26189Y158405D01*
X26189Y157359D01*
X25266Y157359D01*
X24997Y157431D01*
X24883Y157443D01*
X24769Y157457D01*
X24759Y157455D01*
X24752Y157456D01*
X24731Y157451D01*
X24603Y157431D01*
X24334Y157359D01*
X23411Y157359D01*
X23411Y158405D01*
X23411Y158410D01*
X23411Y158415D01*
X23400Y158481D01*
X23398Y158546D01*
X23380Y158595D01*
X23372Y158648D01*
X23369Y158653D01*
X23368Y158658D01*
X23325Y158748D01*
X23314Y158777D01*
X23306Y158788D01*
X23296Y158809D01*
X23273Y158835D01*
X23257Y158865D01*
X23206Y158914D01*
X23161Y158970D01*
X23146Y158980D01*
X23133Y158994D01*
X23103Y159011D01*
X23078Y159035D01*
X23015Y159064D01*
X22955Y159103D01*
X22937Y159108D01*
X22920Y159117D01*
X22886Y159124D01*
X22855Y159138D01*
X22786Y159146D01*
X22716Y159164D01*
X22698Y159163D01*
X22679Y159166D01*
X22644Y159162D01*
X22611Y159166D01*
X22610Y159166D01*
X22543Y159151D01*
X22471Y159146D01*
X22454Y159138D01*
X22435Y159136D01*
X22403Y159120D01*
X22370Y159113D01*
X22311Y159078D01*
X22244Y159050D01*
X22230Y159037D01*
X22214Y159029D01*
X22188Y159005D01*
X22159Y158987D01*
X22114Y158934D01*
X22060Y158887D01*
X22048Y158868D01*
X22037Y158858D01*
X22023Y158829D01*
X22020Y158825D01*
X21999Y158800D01*
X21991Y158779D01*
X21969Y158746D01*
X21952Y158690D01*
X21925Y158639D01*
X21920Y158605D01*
X21907Y158572D01*
X21903Y158533D01*
X21896Y158511D01*
X21897Y158478D01*
X21889Y158405D01*
X21889Y157359D01*
X20965Y157359D01*
X20697Y157431D01*
X20583Y157443D01*
X20469Y157457D01*
X20459Y157455D01*
X20452Y157456D01*
X20431Y157451D01*
X20303Y157431D01*
X20035Y157359D01*
X19111Y157359D01*
X19111Y158405D01*
X19095Y158504D01*
X19085Y158604D01*
X19074Y158631D01*
X19072Y158648D01*
X19071Y158649D01*
X19056Y158677D01*
X19024Y158760D01*
X19023Y158761D01*
X18986Y158811D01*
X18956Y158866D01*
X18912Y158908D01*
X18875Y158957D01*
X18823Y158992D01*
X18778Y159035D01*
X18723Y159061D01*
X18672Y159096D01*
X18612Y159113D01*
X18555Y159139D01*
X18494Y159146D01*
X18435Y159162D01*
X18373Y159159D01*
X18310Y159166D01*
X18251Y159153D01*
X18190Y159150D01*
X18131Y159127D01*
X18070Y159114D01*
X18018Y159083D01*
X17961Y159060D01*
X17913Y159020D01*
X17859Y158988D01*
X17819Y158941D01*
X17772Y158902D01*
X17740Y158849D01*
X17699Y158801D01*
X17676Y158744D01*
X17644Y158692D01*
X17631Y158631D01*
X17607Y158573D01*
X17597Y158484D01*
X17590Y158452D01*
X17592Y158435D01*
X17589Y158406D01*
X17589Y157359D01*
X16666Y157359D01*
X16019Y157532D01*
X15440Y157867D01*
X14967Y158340D01*
X14632Y158919D01*
X14459Y159566D01*
X14459Y161389D01*
X18350Y161389D01*
X18369Y161392D01*
X18389Y161390D01*
X18490Y161412D01*
X18592Y161428D01*
X18610Y161438D01*
X18629Y161442D01*
X18719Y161495D01*
X18810Y161543D01*
X18823Y161558D01*
X18841Y161568D01*
X18908Y161647D01*
X18979Y161722D01*
X18988Y161740D01*
X19001Y161755D01*
X19039Y161851D01*
X19083Y161945D01*
X19085Y161965D01*
X19092Y161983D01*
X19111Y162150D01*
X19108Y162170D01*
X19110Y162189D01*
X19110Y162190D01*
X19088Y162291D01*
X19071Y162393D01*
X19062Y162410D01*
X19058Y162430D01*
X19004Y162519D01*
X18956Y162610D01*
X18942Y162624D01*
X18931Y162641D01*
X18853Y162708D01*
X18778Y162780D01*
X18760Y162788D01*
X18745Y162801D01*
X18648Y162840D01*
X18555Y162883D01*
X18535Y162885D01*
X18516Y162893D01*
X18350Y162911D01*
X14459Y162911D01*
X14459Y164676D01*
X14441Y164790D01*
X14425Y164903D01*
X14421Y164912D01*
X14420Y164919D01*
X14409Y164939D01*
X14357Y165057D01*
X14032Y165619D01*
X13859Y166266D01*
X13859Y167189D01*
X14906Y167189D01*
X14968Y167199D01*
X15031Y167199D01*
X15089Y167218D01*
X15149Y167228D01*
X15204Y167258D01*
X15264Y167278D01*
X15312Y167315D01*
X15366Y167343D01*
X15409Y167389D01*
X15459Y167427D01*
X15493Y167478D01*
X15535Y167522D01*
X15562Y167579D01*
X15597Y167631D01*
X15613Y167690D01*
X15639Y167745D01*
X15646Y167807D01*
X15663Y167868D01*
X15659Y167929D01*
X15666Y167989D01*
X15653Y168051D01*
X15649Y168113D01*
X15627Y168170D01*
X15614Y168230D01*
X15582Y168284D01*
X15558Y168342D01*
X15519Y168388D01*
X15488Y168441D01*
X15440Y168482D01*
X15399Y168529D01*
X15326Y168579D01*
X15301Y168601D01*
X15300Y168601D01*
X15284Y168607D01*
X15261Y168623D01*
X15260Y168624D01*
X15165Y168655D01*
X15072Y168693D01*
X15043Y168696D01*
X15027Y168702D01*
X14994Y168702D01*
X14905Y168711D01*
X13859Y168711D01*
X13859Y169635D01*
X13931Y169903D01*
X13943Y170017D01*
X13957Y170131D01*
X13955Y170141D01*
X13956Y170148D01*
X13951Y170169D01*
X13931Y170297D01*
X13859Y170565D01*
X13859Y171489D01*
X14905Y171489D01*
X14994Y171503D01*
X15080Y171509D01*
X15096Y171516D01*
X15115Y171518D01*
X15135Y171526D01*
X15148Y171528D01*
X15176Y171543D01*
X15270Y171582D01*
X15287Y171595D01*
X15307Y171603D01*
X15334Y171627D01*
X15365Y171643D01*
X15411Y171691D01*
X15464Y171733D01*
X15476Y171751D01*
X15492Y171765D01*
X15511Y171796D01*
X15535Y171822D01*
X15562Y171881D01*
X15600Y171938D01*
X15606Y171959D01*
X15616Y171977D01*
X15624Y172013D01*
X15638Y172045D01*
X15646Y172109D01*
X15663Y172176D01*
X15662Y172197D01*
X15666Y172218D01*
X15662Y172255D01*
X15666Y172290D01*
X15652Y172353D01*
X15647Y172421D01*
X15639Y172441D01*
X15637Y172462D01*
X15621Y172496D01*
X15613Y172530D01*
X15580Y172586D01*
X15554Y172649D01*
X15540Y172665D01*
X15531Y172684D01*
X15505Y172711D01*
X15487Y172741D01*
X15437Y172784D01*
X15393Y172835D01*
X15375Y172846D01*
X15360Y172861D01*
X15319Y172885D01*
X15300Y172901D01*
X15271Y172913D01*
X15215Y172946D01*
X15197Y172950D01*
X15181Y172960D01*
X15125Y172971D01*
X15072Y172993D01*
X15007Y173000D01*
X14977Y173008D01*
X14958Y173007D01*
X14941Y173010D01*
X14928Y173009D01*
X14905Y173011D01*
X13859Y173011D01*
X13859Y173935D01*
X13931Y174203D01*
X13943Y174317D01*
X13957Y174431D01*
X13955Y174441D01*
X13956Y174448D01*
X13951Y174469D01*
X13931Y174597D01*
X13859Y174865D01*
X13859Y175789D01*
X14905Y175789D01*
X14940Y175794D01*
X14974Y175792D01*
X15030Y175806D01*
X15088Y175811D01*
X15126Y175825D01*
X15148Y175828D01*
X15177Y175844D01*
X15182Y175846D01*
X15213Y175853D01*
X15224Y175861D01*
X15246Y175869D01*
X15303Y175911D01*
X15365Y175943D01*
X15389Y175968D01*
X15419Y175988D01*
X15430Y176002D01*
X15445Y176013D01*
X15487Y176071D01*
X15535Y176122D01*
X15549Y176153D01*
X15571Y176181D01*
X15578Y176198D01*
X15588Y176213D01*
X15609Y176282D01*
X15638Y176345D01*
X15642Y176378D01*
X15654Y176412D01*
X15655Y176431D01*
X15660Y176449D01*
X15658Y176521D01*
X15666Y176590D01*
X15658Y176622D01*
X15659Y176658D01*
X15654Y176676D01*
X15653Y176694D01*
X15628Y176762D01*
X15613Y176830D01*
X15596Y176859D01*
X15585Y176893D01*
X15574Y176908D01*
X15568Y176925D01*
X15523Y176981D01*
X15487Y177041D01*
X15461Y177063D01*
X15441Y177091D01*
X15423Y177106D01*
X15414Y177117D01*
X15387Y177134D01*
X15309Y177196D01*
X15304Y177198D01*
X15300Y177201D01*
X15251Y177221D01*
X15206Y177249D01*
X15143Y177265D01*
X15082Y177291D01*
X15077Y177291D01*
X15072Y177293D01*
X14998Y177301D01*
X14968Y177309D01*
X14946Y177307D01*
X14905Y177311D01*
X13859Y177311D01*
X13859Y178234D01*
X13931Y178503D01*
X13943Y178617D01*
X13957Y178731D01*
X13955Y178741D01*
X13956Y178748D01*
X13951Y178769D01*
X13931Y178897D01*
X13859Y179166D01*
X13859Y180089D01*
X14905Y180089D01*
X15013Y180106D01*
X15120Y180120D01*
X15137Y180126D01*
X15148Y180128D01*
X15174Y180142D01*
X15275Y180184D01*
X15276Y180185D01*
X15318Y180218D01*
X15365Y180243D01*
X15366Y180244D01*
X15414Y180294D01*
X15468Y180337D01*
X15498Y180383D01*
X15535Y180422D01*
X15565Y180485D01*
X15603Y180543D01*
X15616Y180596D01*
X15639Y180645D01*
X15647Y180714D01*
X15664Y180782D01*
X15660Y180836D01*
X15666Y180890D01*
X15651Y180958D01*
X15646Y181027D01*
X15625Y181077D01*
X15614Y181130D01*
X15578Y181190D01*
X15551Y181254D01*
X15515Y181295D01*
X15488Y181341D01*
X15435Y181386D01*
X15389Y181439D01*
X15342Y181466D01*
X15301Y181501D01*
X15236Y181527D01*
X15176Y181562D01*
X15123Y181573D01*
X15073Y181593D01*
X14964Y181605D01*
X14935Y181611D01*
X14924Y181609D01*
X14906Y181611D01*
X13859Y181611D01*
X13859Y182534D01*
X14032Y183181D01*
X14367Y183760D01*
X14840Y184233D01*
X15095Y184380D01*
X15147Y184423D01*
X15205Y184458D01*
X15241Y184500D01*
X15285Y184536D01*
X15321Y184593D01*
X15365Y184645D01*
X15386Y184697D01*
X15416Y184744D01*
X15432Y184810D01*
X15457Y184873D01*
X15466Y184951D01*
X15473Y184983D01*
X15471Y185004D01*
X15475Y185039D01*
X15475Y189532D01*
X16368Y190425D01*
X29504Y190425D01*
X29574Y190436D01*
X29646Y190438D01*
X29695Y190456D01*
X29746Y190464D01*
X29810Y190498D01*
X29877Y190523D01*
X29918Y190555D01*
X29964Y190580D01*
X30013Y190632D01*
X30069Y190676D01*
X30097Y190720D01*
X30133Y190758D01*
X30163Y190823D01*
X30202Y190883D01*
X30215Y190934D01*
X30237Y190981D01*
X30245Y191052D01*
X30262Y191122D01*
X30258Y191174D01*
X30264Y191225D01*
X30249Y191296D01*
X30243Y191367D01*
X30223Y191415D01*
X30212Y191466D01*
X30175Y191527D01*
X30147Y191593D01*
X30102Y191649D01*
X30085Y191677D01*
X30068Y191692D01*
X30042Y191724D01*
X22126Y199640D01*
X22114Y199652D01*
X22040Y199705D01*
X21970Y199765D01*
X21940Y199777D01*
X21914Y199796D01*
X21827Y199823D01*
X21742Y199857D01*
X21701Y199861D01*
X21679Y199868D01*
X21647Y199867D01*
X21575Y199875D01*
X16718Y199875D01*
X15825Y200768D01*
X15825Y212032D01*
X16718Y212925D01*
X20402Y212925D01*
X20422Y212928D01*
X20441Y212926D01*
X20543Y212948D01*
X20645Y212964D01*
X20662Y212974D01*
X20682Y212978D01*
X20771Y213031D01*
X20862Y213080D01*
X20876Y213094D01*
X20893Y213104D01*
X20960Y213183D01*
X21032Y213258D01*
X21040Y213276D01*
X21053Y213291D01*
X21092Y213387D01*
X21135Y213481D01*
X21137Y213501D01*
X21145Y213519D01*
X21163Y213686D01*
X21163Y223114D01*
X21160Y223134D01*
X21162Y223153D01*
X21140Y223255D01*
X21124Y223357D01*
X21114Y223374D01*
X21110Y223394D01*
X21057Y223483D01*
X21008Y223574D01*
X20994Y223588D01*
X20984Y223605D01*
X20905Y223672D01*
X20830Y223744D01*
X20812Y223752D01*
X20797Y223765D01*
X20701Y223804D01*
X20607Y223847D01*
X20587Y223849D01*
X20569Y223857D01*
X20402Y223875D01*
X17318Y223875D01*
X16425Y224768D01*
X16425Y236032D01*
X17318Y236925D01*
X20402Y236925D01*
X20422Y236928D01*
X20441Y236926D01*
X20543Y236948D01*
X20645Y236964D01*
X20662Y236974D01*
X20682Y236978D01*
X20771Y237031D01*
X20862Y237080D01*
X20876Y237094D01*
X20893Y237104D01*
X20960Y237183D01*
X21032Y237258D01*
X21040Y237276D01*
X21053Y237291D01*
X21092Y237387D01*
X21135Y237481D01*
X21137Y237501D01*
X21145Y237519D01*
X21163Y237686D01*
X21163Y245614D01*
X21160Y245634D01*
X21162Y245653D01*
X21140Y245755D01*
X21124Y245857D01*
X21114Y245874D01*
X21110Y245894D01*
X21057Y245983D01*
X21008Y246074D01*
X20994Y246088D01*
X20984Y246105D01*
X20905Y246172D01*
X20830Y246244D01*
X20812Y246252D01*
X20797Y246265D01*
X20701Y246304D01*
X20607Y246347D01*
X20587Y246349D01*
X20569Y246357D01*
X20402Y246375D01*
X16418Y246375D01*
X15525Y247268D01*
X15525Y258532D01*
X16418Y259425D01*
X19502Y259425D01*
X19522Y259428D01*
X19541Y259426D01*
X19643Y259448D01*
X19745Y259464D01*
X19762Y259474D01*
X19782Y259478D01*
X19871Y259531D01*
X19962Y259580D01*
X19976Y259594D01*
X19993Y259604D01*
X20060Y259683D01*
X20132Y259758D01*
X20140Y259776D01*
X20153Y259791D01*
X20192Y259887D01*
X20235Y259981D01*
X20237Y260001D01*
X20245Y260019D01*
X20263Y260186D01*
X20263Y300397D01*
X25482Y305616D01*
X25535Y305690D01*
X25595Y305760D01*
X25607Y305790D01*
X25626Y305816D01*
X25653Y305903D01*
X25687Y305988D01*
X25691Y306029D01*
X25698Y306051D01*
X25697Y306083D01*
X25705Y306155D01*
X25705Y321189D01*
X27097Y324550D01*
X29670Y327123D01*
X32464Y328280D01*
X32520Y328314D01*
X32580Y328340D01*
X32645Y328392D01*
X32673Y328409D01*
X32685Y328425D01*
X32711Y328445D01*
X40303Y336037D01*
X112847Y336037D01*
X116662Y332222D01*
X116678Y332211D01*
X116690Y332195D01*
X116778Y332139D01*
X116861Y332079D01*
X116880Y332073D01*
X116897Y332062D01*
X116998Y332037D01*
X117097Y332006D01*
X117116Y332007D01*
X117136Y332002D01*
X117239Y332010D01*
X117342Y332013D01*
X117361Y332020D01*
X117381Y332021D01*
X117476Y332061D01*
X117573Y332097D01*
X117589Y332110D01*
X117607Y332117D01*
X117738Y332222D01*
X119618Y334102D01*
X121181Y335665D01*
X226319Y335665D01*
X231337Y330647D01*
X231353Y330636D01*
X231365Y330620D01*
X231453Y330564D01*
X231536Y330504D01*
X231555Y330498D01*
X231572Y330487D01*
X231673Y330462D01*
X231772Y330431D01*
X231791Y330432D01*
X231811Y330427D01*
X231914Y330435D01*
X232017Y330438D01*
X232036Y330445D01*
X232056Y330446D01*
X232151Y330486D01*
X232248Y330522D01*
X232264Y330535D01*
X232282Y330542D01*
X232413Y330647D01*
X236240Y334474D01*
X237803Y336037D01*
X327197Y336037D01*
X328760Y334474D01*
X331337Y331897D01*
X331353Y331886D01*
X331365Y331870D01*
X331453Y331814D01*
X331536Y331754D01*
X331555Y331748D01*
X331572Y331737D01*
X331673Y331712D01*
X331772Y331681D01*
X331791Y331682D01*
X331811Y331677D01*
X331914Y331685D01*
X332017Y331688D01*
X332036Y331695D01*
X332056Y331696D01*
X332151Y331736D01*
X332248Y331772D01*
X332264Y331785D01*
X332282Y331792D01*
X332413Y331897D01*
X336553Y336037D01*
X417647Y336037D01*
X418987Y334697D01*
X418987Y327730D01*
X419006Y327615D01*
X419023Y327499D01*
X419025Y327493D01*
X419026Y327487D01*
X419081Y327384D01*
X419134Y327279D01*
X419139Y327275D01*
X419142Y327270D01*
X419226Y327190D01*
X419310Y327107D01*
X419316Y327104D01*
X419320Y327100D01*
X419337Y327092D01*
X419457Y327026D01*
X421880Y326023D01*
X424453Y323450D01*
X425845Y320089D01*
X425845Y301211D01*
X424453Y297850D01*
X421880Y295277D01*
X418519Y293885D01*
X414881Y293885D01*
X411520Y295277D01*
X408947Y297850D01*
X407555Y301211D01*
X407555Y320089D01*
X408947Y323450D01*
X411520Y326023D01*
X413943Y327026D01*
X414043Y327088D01*
X414143Y327148D01*
X414147Y327153D01*
X414152Y327156D01*
X414227Y327246D01*
X414303Y327335D01*
X414305Y327341D01*
X414309Y327345D01*
X414351Y327454D01*
X414395Y327563D01*
X414396Y327570D01*
X414397Y327575D01*
X414398Y327593D01*
X414413Y327730D01*
X414413Y330702D01*
X414410Y330722D01*
X414412Y330741D01*
X414390Y330843D01*
X414374Y330945D01*
X414364Y330962D01*
X414360Y330982D01*
X414307Y331071D01*
X414258Y331162D01*
X414244Y331176D01*
X414234Y331193D01*
X414155Y331260D01*
X414080Y331332D01*
X414062Y331340D01*
X414047Y331353D01*
X413951Y331392D01*
X413857Y331435D01*
X413837Y331437D01*
X413819Y331445D01*
X413652Y331463D01*
X338763Y331463D01*
X338672Y331449D01*
X338582Y331441D01*
X338552Y331429D01*
X338520Y331424D01*
X338439Y331381D01*
X338355Y331345D01*
X338323Y331319D01*
X338302Y331308D01*
X338280Y331285D01*
X338224Y331240D01*
X336607Y329623D01*
X336595Y329606D01*
X336579Y329594D01*
X336523Y329507D01*
X336463Y329423D01*
X336457Y329404D01*
X336446Y329387D01*
X336421Y329287D01*
X336391Y329188D01*
X336391Y329168D01*
X336386Y329149D01*
X336394Y329046D01*
X336397Y328942D01*
X336404Y328923D01*
X336405Y328903D01*
X336446Y328809D01*
X336481Y328711D01*
X336494Y328695D01*
X336502Y328677D01*
X336607Y328546D01*
X339203Y325950D01*
X340595Y322589D01*
X340595Y303711D01*
X339203Y300350D01*
X336630Y297777D01*
X333269Y296385D01*
X329631Y296385D01*
X326270Y297777D01*
X323697Y300350D01*
X322305Y303711D01*
X322305Y322589D01*
X323697Y325950D01*
X326270Y328523D01*
X326613Y328665D01*
X326652Y328689D01*
X326695Y328705D01*
X326756Y328753D01*
X326822Y328794D01*
X326851Y328830D01*
X326887Y328858D01*
X326929Y328924D01*
X326979Y328984D01*
X326995Y329026D01*
X327020Y329065D01*
X327039Y329141D01*
X327067Y329213D01*
X327069Y329259D01*
X327080Y329304D01*
X327074Y329381D01*
X327077Y329459D01*
X327065Y329503D01*
X327061Y329549D01*
X327031Y329620D01*
X327009Y329695D01*
X326983Y329733D01*
X326965Y329775D01*
X326879Y329882D01*
X326869Y329897D01*
X326865Y329900D01*
X326860Y329906D01*
X325526Y331240D01*
X325452Y331293D01*
X325382Y331353D01*
X325352Y331365D01*
X325326Y331384D01*
X325239Y331411D01*
X325154Y331445D01*
X325113Y331449D01*
X325091Y331456D01*
X325059Y331455D01*
X324988Y331463D01*
X240012Y331463D01*
X239922Y331449D01*
X239831Y331441D01*
X239802Y331429D01*
X239770Y331424D01*
X239689Y331381D01*
X239605Y331345D01*
X239573Y331319D01*
X239552Y331308D01*
X239530Y331285D01*
X239474Y331240D01*
X236482Y328248D01*
X236470Y328231D01*
X236454Y328219D01*
X236398Y328132D01*
X236338Y328048D01*
X236332Y328029D01*
X236321Y328012D01*
X236296Y327912D01*
X236266Y327813D01*
X236266Y327793D01*
X236261Y327774D01*
X236269Y327671D01*
X236272Y327567D01*
X236279Y327548D01*
X236280Y327528D01*
X236321Y327434D01*
X236356Y327336D01*
X236369Y327320D01*
X236377Y327302D01*
X236482Y327171D01*
X238953Y324700D01*
X240345Y321339D01*
X240345Y302461D01*
X238953Y299100D01*
X236380Y296527D01*
X233019Y295135D01*
X229381Y295135D01*
X226020Y296527D01*
X223447Y299100D01*
X222055Y302461D01*
X222055Y321339D01*
X223447Y324700D01*
X226020Y327273D01*
X226540Y327488D01*
X226579Y327512D01*
X226622Y327528D01*
X226683Y327576D01*
X226749Y327617D01*
X226778Y327653D01*
X226814Y327681D01*
X226856Y327747D01*
X226906Y327807D01*
X226922Y327850D01*
X226947Y327888D01*
X226966Y327964D01*
X226994Y328036D01*
X226996Y328082D01*
X227007Y328127D01*
X227001Y328204D01*
X227004Y328282D01*
X226991Y328326D01*
X226988Y328372D01*
X226957Y328444D01*
X226936Y328518D01*
X226909Y328556D01*
X226891Y328598D01*
X226806Y328705D01*
X226795Y328721D01*
X226791Y328723D01*
X226787Y328729D01*
X224648Y330868D01*
X224574Y330921D01*
X224504Y330981D01*
X224474Y330993D01*
X224448Y331012D01*
X224361Y331039D01*
X224276Y331073D01*
X224235Y331077D01*
X224213Y331084D01*
X224181Y331083D01*
X224109Y331091D01*
X123391Y331091D01*
X123300Y331077D01*
X123210Y331069D01*
X123180Y331057D01*
X123148Y331052D01*
X123067Y331009D01*
X122983Y330973D01*
X122951Y330947D01*
X122930Y330936D01*
X122920Y330925D01*
X122919Y330925D01*
X122906Y330911D01*
X122852Y330868D01*
X120093Y328109D01*
X120066Y328072D01*
X120032Y328041D01*
X119995Y327972D01*
X119950Y327909D01*
X119936Y327866D01*
X119914Y327825D01*
X119900Y327749D01*
X119877Y327674D01*
X119878Y327628D01*
X119870Y327583D01*
X119881Y327506D01*
X119884Y327428D01*
X119899Y327385D01*
X119906Y327340D01*
X119941Y327271D01*
X119968Y327197D01*
X119997Y327162D01*
X120017Y327121D01*
X120073Y327066D01*
X120122Y327005D01*
X120160Y326981D01*
X120193Y326948D01*
X120313Y326882D01*
X120329Y326872D01*
X120333Y326871D01*
X120340Y326868D01*
X122380Y326023D01*
X124953Y323450D01*
X126345Y320089D01*
X126345Y301211D01*
X124953Y297850D01*
X122380Y295277D01*
X119019Y293885D01*
X115381Y293885D01*
X112020Y295277D01*
X109447Y297850D01*
X108055Y301211D01*
X108055Y320089D01*
X109447Y323450D01*
X112020Y326023D01*
X114060Y326868D01*
X114099Y326892D01*
X114142Y326907D01*
X114203Y326956D01*
X114269Y326997D01*
X114298Y327033D01*
X114334Y327061D01*
X114376Y327127D01*
X114426Y327187D01*
X114442Y327229D01*
X114467Y327268D01*
X114486Y327344D01*
X114514Y327416D01*
X114516Y327462D01*
X114527Y327507D01*
X114521Y327584D01*
X114524Y327662D01*
X114512Y327706D01*
X114508Y327752D01*
X114478Y327823D01*
X114456Y327898D01*
X114430Y327936D01*
X114412Y327978D01*
X114326Y328085D01*
X114316Y328100D01*
X114312Y328103D01*
X114307Y328109D01*
X111176Y331240D01*
X111102Y331293D01*
X111032Y331353D01*
X111002Y331365D01*
X110976Y331384D01*
X110889Y331411D01*
X110804Y331445D01*
X110763Y331449D01*
X110741Y331456D01*
X110709Y331455D01*
X110637Y331463D01*
X42513Y331463D01*
X42422Y331449D01*
X42332Y331441D01*
X42302Y331429D01*
X42270Y331424D01*
X42189Y331381D01*
X42105Y331345D01*
X42073Y331319D01*
X42052Y331308D01*
X42030Y331285D01*
X41974Y331240D01*
X39299Y328565D01*
X39272Y328527D01*
X39238Y328496D01*
X39225Y328473D01*
X39215Y328463D01*
X39198Y328424D01*
X39155Y328365D01*
X39142Y328321D01*
X39119Y328281D01*
X39112Y328240D01*
X39112Y328239D01*
X39112Y328237D01*
X39106Y328204D01*
X39083Y328130D01*
X39084Y328084D01*
X39076Y328039D01*
X39087Y327962D01*
X39089Y327884D01*
X39105Y327841D01*
X39112Y327796D01*
X39147Y327726D01*
X39174Y327653D01*
X39202Y327617D01*
X39223Y327576D01*
X39279Y327522D01*
X39327Y327461D01*
X39366Y327436D01*
X39399Y327404D01*
X39518Y327338D01*
X39534Y327328D01*
X39539Y327327D01*
X39546Y327323D01*
X40030Y327123D01*
X42603Y324550D01*
X43995Y321189D01*
X43995Y302311D01*
X42603Y298950D01*
X40030Y296377D01*
X36669Y294985D01*
X33031Y294985D01*
X29670Y296377D01*
X27097Y298950D01*
X27002Y299180D01*
X26978Y299219D01*
X26962Y299262D01*
X26914Y299323D01*
X26873Y299389D01*
X26837Y299418D01*
X26809Y299454D01*
X26743Y299496D01*
X26683Y299546D01*
X26640Y299562D01*
X26602Y299587D01*
X26526Y299606D01*
X26454Y299634D01*
X26408Y299636D01*
X26363Y299647D01*
X26286Y299641D01*
X26208Y299644D01*
X26164Y299631D01*
X26118Y299628D01*
X26046Y299597D01*
X25972Y299576D01*
X25934Y299550D01*
X25892Y299532D01*
X25785Y299446D01*
X25770Y299435D01*
X25767Y299431D01*
X25761Y299427D01*
X25060Y298726D01*
X25006Y298652D01*
X24947Y298582D01*
X24935Y298552D01*
X24916Y298526D01*
X24889Y298439D01*
X24855Y298354D01*
X24851Y298313D01*
X24844Y298291D01*
X24845Y298259D01*
X24837Y298187D01*
X24837Y260186D01*
X24840Y260166D01*
X24838Y260147D01*
X24860Y260045D01*
X24876Y259943D01*
X24886Y259926D01*
X24890Y259906D01*
X24943Y259817D01*
X24992Y259726D01*
X25006Y259712D01*
X25016Y259695D01*
X25095Y259628D01*
X25170Y259556D01*
X25188Y259548D01*
X25203Y259535D01*
X25299Y259496D01*
X25393Y259453D01*
X25413Y259451D01*
X25431Y259443D01*
X25598Y259425D01*
X28682Y259425D01*
X29575Y258532D01*
X29575Y247268D01*
X28682Y246375D01*
X26498Y246375D01*
X26478Y246372D01*
X26459Y246374D01*
X26357Y246352D01*
X26255Y246336D01*
X26238Y246326D01*
X26218Y246322D01*
X26129Y246269D01*
X26038Y246220D01*
X26024Y246206D01*
X26007Y246196D01*
X25940Y246117D01*
X25868Y246042D01*
X25860Y246024D01*
X25847Y246009D01*
X25808Y245913D01*
X25765Y245819D01*
X25763Y245799D01*
X25755Y245781D01*
X25737Y245614D01*
X25737Y237686D01*
X25740Y237666D01*
X25738Y237647D01*
X25760Y237545D01*
X25776Y237443D01*
X25786Y237426D01*
X25790Y237406D01*
X25843Y237317D01*
X25892Y237226D01*
X25906Y237212D01*
X25916Y237195D01*
X25995Y237128D01*
X26070Y237056D01*
X26088Y237048D01*
X26103Y237035D01*
X26199Y236996D01*
X26293Y236953D01*
X26313Y236951D01*
X26331Y236943D01*
X26498Y236925D01*
X29582Y236925D01*
X30475Y236032D01*
X30475Y224768D01*
X29582Y223875D01*
X26498Y223875D01*
X26478Y223872D01*
X26459Y223874D01*
X26357Y223852D01*
X26255Y223836D01*
X26238Y223826D01*
X26218Y223822D01*
X26129Y223769D01*
X26038Y223720D01*
X26024Y223706D01*
X26007Y223696D01*
X25940Y223617D01*
X25868Y223542D01*
X25860Y223524D01*
X25847Y223509D01*
X25808Y223413D01*
X25765Y223319D01*
X25763Y223299D01*
X25755Y223281D01*
X25737Y223114D01*
X25737Y213686D01*
X25740Y213666D01*
X25738Y213647D01*
X25760Y213545D01*
X25776Y213443D01*
X25786Y213426D01*
X25790Y213406D01*
X25843Y213317D01*
X25892Y213226D01*
X25906Y213212D01*
X25916Y213195D01*
X25995Y213128D01*
X26070Y213056D01*
X26088Y213048D01*
X26103Y213035D01*
X26199Y212996D01*
X26293Y212953D01*
X26313Y212951D01*
X26331Y212943D01*
X26498Y212925D01*
X28982Y212925D01*
X29875Y212032D01*
X29875Y200768D01*
X29208Y200102D01*
X29197Y200086D01*
X29181Y200073D01*
X29125Y199986D01*
X29065Y199902D01*
X29059Y199883D01*
X29048Y199867D01*
X29023Y199766D01*
X28992Y199667D01*
X28993Y199647D01*
X28988Y199628D01*
X28996Y199525D01*
X28999Y199421D01*
X29006Y199403D01*
X29007Y199383D01*
X29048Y199288D01*
X29083Y199190D01*
X29096Y199175D01*
X29104Y199156D01*
X29208Y199026D01*
X31974Y196260D01*
X32048Y196207D01*
X32118Y196147D01*
X32148Y196135D01*
X32174Y196116D01*
X32261Y196089D01*
X32346Y196055D01*
X32387Y196051D01*
X32409Y196044D01*
X32441Y196045D01*
X32513Y196037D01*
X36230Y196037D01*
X41619Y190648D01*
X41693Y190595D01*
X41763Y190535D01*
X41793Y190523D01*
X41819Y190504D01*
X41906Y190477D01*
X41991Y190443D01*
X42032Y190439D01*
X42054Y190432D01*
X42086Y190433D01*
X42157Y190425D01*
X42339Y190425D01*
X42429Y190439D01*
X42520Y190447D01*
X42549Y190459D01*
X42581Y190464D01*
X42662Y190507D01*
X42746Y190543D01*
X42778Y190569D01*
X42799Y190580D01*
X42821Y190603D01*
X42877Y190648D01*
X44932Y192703D01*
X47668Y192703D01*
X49723Y190648D01*
X49797Y190595D01*
X49867Y190535D01*
X49897Y190523D01*
X49923Y190504D01*
X50010Y190477D01*
X50095Y190443D01*
X50136Y190439D01*
X50158Y190432D01*
X50190Y190433D01*
X50261Y190425D01*
X50432Y190425D01*
X51357Y189499D01*
X51364Y189455D01*
X51374Y189438D01*
X51378Y189418D01*
X51431Y189329D01*
X51480Y189238D01*
X51494Y189224D01*
X51504Y189207D01*
X51583Y189140D01*
X51658Y189068D01*
X51676Y189060D01*
X51691Y189047D01*
X51787Y189008D01*
X51881Y188965D01*
X51901Y188963D01*
X51919Y188955D01*
X52086Y188937D01*
X82887Y188937D01*
X82978Y188951D01*
X83068Y188959D01*
X83098Y188971D01*
X83130Y188976D01*
X83211Y189019D01*
X83295Y189055D01*
X83327Y189081D01*
X83348Y189092D01*
X83370Y189115D01*
X83426Y189160D01*
X128803Y234537D01*
X222967Y234537D01*
X223057Y234551D01*
X223148Y234559D01*
X223177Y234571D01*
X223209Y234576D01*
X223290Y234619D01*
X223374Y234655D01*
X223406Y234681D01*
X223427Y234692D01*
X223449Y234715D01*
X223505Y234760D01*
X226552Y237807D01*
X230948Y237807D01*
X233995Y234760D01*
X234069Y234707D01*
X234139Y234647D01*
X234169Y234635D01*
X234195Y234616D01*
X234282Y234589D01*
X234367Y234555D01*
X234408Y234551D01*
X234430Y234544D01*
X234462Y234545D01*
X234533Y234537D01*
X239174Y234537D01*
X239194Y234540D01*
X239213Y234538D01*
X239315Y234560D01*
X239417Y234576D01*
X239434Y234586D01*
X239454Y234590D01*
X239543Y234643D01*
X239634Y234692D01*
X239648Y234706D01*
X239665Y234716D01*
X239732Y234795D01*
X239804Y234870D01*
X239812Y234888D01*
X239825Y234903D01*
X239864Y234999D01*
X239907Y235093D01*
X239909Y235113D01*
X239917Y235131D01*
X239935Y235298D01*
X239935Y237454D01*
X240828Y238347D01*
X259872Y238347D01*
X260765Y237454D01*
X260765Y227046D01*
X259872Y226153D01*
X240828Y226153D01*
X239935Y227046D01*
X239935Y229202D01*
X239932Y229222D01*
X239934Y229241D01*
X239912Y229343D01*
X239896Y229445D01*
X239886Y229462D01*
X239882Y229482D01*
X239829Y229571D01*
X239780Y229662D01*
X239766Y229676D01*
X239756Y229693D01*
X239677Y229760D01*
X239602Y229832D01*
X239584Y229840D01*
X239569Y229853D01*
X239473Y229892D01*
X239379Y229935D01*
X239359Y229937D01*
X239341Y229945D01*
X239174Y229963D01*
X234033Y229963D01*
X233943Y229949D01*
X233852Y229941D01*
X233823Y229929D01*
X233791Y229924D01*
X233710Y229881D01*
X233626Y229845D01*
X233594Y229819D01*
X233573Y229808D01*
X233551Y229785D01*
X233495Y229740D01*
X230948Y227193D01*
X226552Y227193D01*
X224005Y229740D01*
X223931Y229793D01*
X223861Y229853D01*
X223831Y229865D01*
X223805Y229884D01*
X223718Y229911D01*
X223633Y229945D01*
X223592Y229949D01*
X223570Y229956D01*
X223538Y229955D01*
X223467Y229963D01*
X131013Y229963D01*
X130922Y229949D01*
X130832Y229941D01*
X130802Y229929D01*
X130770Y229924D01*
X130689Y229881D01*
X130605Y229845D01*
X130573Y229819D01*
X130552Y229808D01*
X130530Y229785D01*
X130474Y229740D01*
X85097Y184363D01*
X52231Y184363D01*
X52160Y184352D01*
X52088Y184350D01*
X52039Y184332D01*
X51988Y184324D01*
X51925Y184290D01*
X51857Y184265D01*
X51817Y184233D01*
X51771Y184208D01*
X51721Y184157D01*
X51665Y184112D01*
X51637Y184068D01*
X51601Y184030D01*
X51571Y183965D01*
X51532Y183905D01*
X51520Y183854D01*
X51498Y183807D01*
X51490Y183736D01*
X51472Y183666D01*
X51476Y183614D01*
X51471Y183563D01*
X51486Y183492D01*
X51491Y183421D01*
X51512Y183373D01*
X51523Y183322D01*
X51560Y183261D01*
X51588Y183195D01*
X51633Y183139D01*
X51649Y183111D01*
X51667Y183096D01*
X51693Y183064D01*
X51925Y182832D01*
X51925Y179598D01*
X51928Y179578D01*
X51926Y179559D01*
X51948Y179457D01*
X51964Y179355D01*
X51974Y179338D01*
X51978Y179318D01*
X52031Y179229D01*
X52080Y179138D01*
X52094Y179124D01*
X52104Y179107D01*
X52183Y179040D01*
X52258Y178968D01*
X52276Y178960D01*
X52291Y178947D01*
X52387Y178908D01*
X52481Y178865D01*
X52501Y178863D01*
X52519Y178855D01*
X52686Y178837D01*
X92787Y178837D01*
X92878Y178851D01*
X92968Y178859D01*
X92998Y178871D01*
X93030Y178876D01*
X93111Y178919D01*
X93195Y178955D01*
X93227Y178981D01*
X93248Y178992D01*
X93270Y179015D01*
X93326Y179060D01*
X122553Y208287D01*
X239174Y208287D01*
X239194Y208290D01*
X239213Y208288D01*
X239315Y208310D01*
X239417Y208326D01*
X239434Y208336D01*
X239454Y208340D01*
X239543Y208393D01*
X239634Y208442D01*
X239648Y208456D01*
X239665Y208466D01*
X239732Y208545D01*
X239804Y208620D01*
X239812Y208638D01*
X239825Y208653D01*
X239864Y208749D01*
X239907Y208843D01*
X239909Y208863D01*
X239917Y208881D01*
X239935Y209048D01*
X239935Y211204D01*
X240828Y212097D01*
X259872Y212097D01*
X260765Y211204D01*
X260765Y200796D01*
X259872Y199903D01*
X240828Y199903D01*
X239935Y200796D01*
X239935Y202952D01*
X239932Y202972D01*
X239934Y202991D01*
X239912Y203093D01*
X239896Y203195D01*
X239886Y203212D01*
X239882Y203232D01*
X239829Y203321D01*
X239780Y203412D01*
X239766Y203426D01*
X239756Y203443D01*
X239677Y203510D01*
X239602Y203582D01*
X239584Y203590D01*
X239569Y203603D01*
X239473Y203642D01*
X239379Y203685D01*
X239359Y203687D01*
X239341Y203695D01*
X239174Y203713D01*
X124763Y203713D01*
X124672Y203699D01*
X124582Y203691D01*
X124552Y203679D01*
X124520Y203674D01*
X124439Y203631D01*
X124355Y203595D01*
X124323Y203569D01*
X124302Y203558D01*
X124280Y203535D01*
X124224Y203490D01*
X94997Y174263D01*
X52686Y174263D01*
X52666Y174260D01*
X52647Y174262D01*
X52545Y174240D01*
X52443Y174224D01*
X52426Y174214D01*
X52406Y174210D01*
X52317Y174157D01*
X52226Y174108D01*
X52212Y174094D01*
X52195Y174084D01*
X52128Y174005D01*
X52056Y173930D01*
X52048Y173912D01*
X52035Y173897D01*
X51996Y173801D01*
X51953Y173707D01*
X51951Y173687D01*
X51943Y173669D01*
X51925Y173502D01*
X51925Y170998D01*
X51928Y170978D01*
X51926Y170959D01*
X51948Y170857D01*
X51964Y170755D01*
X51974Y170738D01*
X51978Y170718D01*
X52031Y170629D01*
X52080Y170538D01*
X52094Y170524D01*
X52104Y170507D01*
X52183Y170440D01*
X52258Y170368D01*
X52276Y170360D01*
X52291Y170347D01*
X52387Y170308D01*
X52481Y170265D01*
X52501Y170263D01*
X52519Y170255D01*
X52686Y170237D01*
X167997Y170237D01*
X208474Y129760D01*
X208548Y129707D01*
X208618Y129647D01*
X208648Y129635D01*
X208674Y129616D01*
X208761Y129589D01*
X208846Y129555D01*
X208887Y129551D01*
X208909Y129544D01*
X208941Y129545D01*
X209013Y129537D01*
X239174Y129537D01*
X239194Y129540D01*
X239213Y129538D01*
X239315Y129560D01*
X239417Y129576D01*
X239434Y129586D01*
X239454Y129590D01*
X239543Y129643D01*
X239634Y129692D01*
X239648Y129706D01*
X239665Y129716D01*
X239732Y129795D01*
X239804Y129870D01*
X239812Y129888D01*
X239825Y129903D01*
X239864Y129999D01*
X239907Y130093D01*
X239909Y130113D01*
X239917Y130131D01*
X239935Y130298D01*
X239935Y132454D01*
X240828Y133347D01*
X259872Y133347D01*
X260765Y132454D01*
X260765Y122046D01*
X259872Y121153D01*
X240828Y121153D01*
G37*
%LPD*%
%LPC*%
G36*
X291403Y65213D02*
X291403Y65213D01*
X280080Y76536D01*
X280064Y76547D01*
X280052Y76563D01*
X279965Y76619D01*
X279881Y76679D01*
X279862Y76685D01*
X279845Y76696D01*
X279744Y76721D01*
X279646Y76752D01*
X279626Y76751D01*
X279606Y76756D01*
X279503Y76748D01*
X279400Y76745D01*
X279381Y76738D01*
X279361Y76737D01*
X279266Y76696D01*
X279169Y76661D01*
X279153Y76648D01*
X279135Y76640D01*
X279004Y76536D01*
X278554Y76085D01*
X268146Y76085D01*
X267253Y76978D01*
X267253Y96022D01*
X268146Y96915D01*
X278554Y96915D01*
X279447Y96022D01*
X279447Y83952D01*
X279461Y83862D01*
X279469Y83771D01*
X279481Y83742D01*
X279486Y83710D01*
X279529Y83629D01*
X279565Y83545D01*
X279591Y83513D01*
X279602Y83492D01*
X279625Y83470D01*
X279670Y83414D01*
X293074Y70010D01*
X293148Y69957D01*
X293218Y69897D01*
X293248Y69885D01*
X293274Y69866D01*
X293361Y69839D01*
X293446Y69805D01*
X293487Y69801D01*
X293509Y69794D01*
X293541Y69795D01*
X293613Y69787D01*
X448737Y69787D01*
X448828Y69801D01*
X448918Y69809D01*
X448948Y69821D01*
X448980Y69826D01*
X449061Y69869D01*
X449145Y69905D01*
X449177Y69931D01*
X449198Y69942D01*
X449220Y69965D01*
X449276Y70010D01*
X471340Y92074D01*
X471393Y92148D01*
X471453Y92218D01*
X471465Y92248D01*
X471484Y92274D01*
X471511Y92361D01*
X471545Y92446D01*
X471549Y92487D01*
X471556Y92509D01*
X471555Y92541D01*
X471563Y92613D01*
X471563Y293658D01*
X471560Y293678D01*
X471562Y293698D01*
X471540Y293798D01*
X471524Y293901D01*
X471514Y293918D01*
X471510Y293938D01*
X471457Y294027D01*
X471408Y294118D01*
X471394Y294132D01*
X471384Y294149D01*
X471305Y294216D01*
X471230Y294288D01*
X471212Y294296D01*
X471197Y294309D01*
X471101Y294348D01*
X471007Y294391D01*
X470987Y294393D01*
X470969Y294401D01*
X470802Y294419D01*
X467218Y294419D01*
X466325Y295312D01*
X466325Y297924D01*
X466322Y297944D01*
X466324Y297964D01*
X466302Y298065D01*
X466286Y298167D01*
X466276Y298184D01*
X466272Y298204D01*
X466219Y298293D01*
X466170Y298384D01*
X466156Y298398D01*
X466146Y298415D01*
X466067Y298482D01*
X465992Y298554D01*
X465974Y298562D01*
X465959Y298575D01*
X465863Y298614D01*
X465769Y298657D01*
X465749Y298659D01*
X465731Y298667D01*
X465564Y298685D01*
X459331Y298685D01*
X452544Y305472D01*
X452486Y305514D01*
X452434Y305563D01*
X452387Y305585D01*
X452345Y305615D01*
X452276Y305636D01*
X452211Y305667D01*
X452159Y305672D01*
X452109Y305688D01*
X452038Y305686D01*
X451967Y305694D01*
X451916Y305683D01*
X451864Y305681D01*
X451796Y305657D01*
X451726Y305642D01*
X451681Y305615D01*
X451633Y305597D01*
X451577Y305552D01*
X451515Y305515D01*
X451481Y305476D01*
X451441Y305443D01*
X451402Y305383D01*
X451355Y305328D01*
X451336Y305280D01*
X451308Y305236D01*
X451290Y305167D01*
X451263Y305100D01*
X451255Y305029D01*
X451247Y304998D01*
X451249Y304974D01*
X451245Y304934D01*
X451245Y301211D01*
X449853Y297850D01*
X447280Y295277D01*
X443919Y293885D01*
X440281Y293885D01*
X436920Y295277D01*
X434347Y297850D01*
X432955Y301211D01*
X432955Y320089D01*
X434347Y323450D01*
X436920Y326023D01*
X440281Y327415D01*
X443919Y327415D01*
X447280Y326023D01*
X449853Y323450D01*
X451245Y320089D01*
X451245Y313554D01*
X451247Y313541D01*
X451246Y313531D01*
X451257Y313480D01*
X451259Y313464D01*
X451267Y313373D01*
X451279Y313344D01*
X451284Y313312D01*
X451327Y313231D01*
X451363Y313147D01*
X451389Y313115D01*
X451400Y313094D01*
X451423Y313072D01*
X451468Y313016D01*
X461002Y303482D01*
X461076Y303429D01*
X461146Y303369D01*
X461176Y303357D01*
X461202Y303338D01*
X461289Y303311D01*
X461374Y303277D01*
X461415Y303273D01*
X461437Y303266D01*
X461469Y303267D01*
X461540Y303259D01*
X465564Y303259D01*
X465584Y303262D01*
X465604Y303260D01*
X465705Y303282D01*
X465807Y303299D01*
X465824Y303308D01*
X465844Y303312D01*
X465933Y303365D01*
X466024Y303414D01*
X466038Y303428D01*
X466055Y303438D01*
X466122Y303517D01*
X466194Y303592D01*
X466202Y303610D01*
X466215Y303625D01*
X466254Y303721D01*
X466297Y303815D01*
X466299Y303835D01*
X466307Y303853D01*
X466325Y304020D01*
X466325Y306632D01*
X467218Y307525D01*
X480482Y307525D01*
X481375Y306632D01*
X481375Y295312D01*
X480482Y294419D01*
X476898Y294419D01*
X476878Y294416D01*
X476859Y294418D01*
X476757Y294396D01*
X476655Y294380D01*
X476638Y294370D01*
X476618Y294366D01*
X476529Y294313D01*
X476438Y294264D01*
X476424Y294250D01*
X476407Y294240D01*
X476340Y294161D01*
X476268Y294086D01*
X476260Y294068D01*
X476247Y294053D01*
X476208Y293957D01*
X476165Y293863D01*
X476163Y293843D01*
X476155Y293825D01*
X476137Y293658D01*
X476137Y90403D01*
X450947Y65213D01*
X291403Y65213D01*
G37*
%LPD*%
%LPC*%
G36*
X395828Y173653D02*
X395828Y173653D01*
X394935Y174546D01*
X394935Y184954D01*
X395828Y185847D01*
X414872Y185847D01*
X415765Y184954D01*
X415765Y182798D01*
X415768Y182778D01*
X415766Y182759D01*
X415788Y182657D01*
X415804Y182555D01*
X415814Y182538D01*
X415818Y182518D01*
X415871Y182429D01*
X415920Y182338D01*
X415934Y182324D01*
X415944Y182307D01*
X416023Y182240D01*
X416098Y182168D01*
X416116Y182160D01*
X416131Y182147D01*
X416227Y182108D01*
X416321Y182065D01*
X416341Y182063D01*
X416359Y182055D01*
X416526Y182037D01*
X432237Y182037D01*
X432328Y182051D01*
X432418Y182059D01*
X432448Y182071D01*
X432480Y182076D01*
X432561Y182119D01*
X432645Y182155D01*
X432677Y182181D01*
X432698Y182192D01*
X432720Y182215D01*
X432776Y182260D01*
X448740Y198224D01*
X448793Y198298D01*
X448853Y198368D01*
X448865Y198398D01*
X448884Y198424D01*
X448911Y198511D01*
X448945Y198596D01*
X448949Y198637D01*
X448956Y198659D01*
X448955Y198691D01*
X448963Y198763D01*
X448963Y268737D01*
X448949Y268828D01*
X448941Y268918D01*
X448929Y268948D01*
X448924Y268980D01*
X448881Y269061D01*
X448845Y269145D01*
X448819Y269177D01*
X448808Y269198D01*
X448785Y269220D01*
X448740Y269276D01*
X440526Y277490D01*
X440452Y277543D01*
X440382Y277603D01*
X440352Y277615D01*
X440326Y277634D01*
X440239Y277661D01*
X440154Y277695D01*
X440113Y277699D01*
X440091Y277706D01*
X440059Y277705D01*
X439987Y277713D01*
X330303Y277713D01*
X307713Y300303D01*
X307713Y304987D01*
X307699Y305078D01*
X307691Y305168D01*
X307679Y305198D01*
X307674Y305230D01*
X307631Y305311D01*
X307595Y305395D01*
X307569Y305427D01*
X307558Y305448D01*
X307535Y305470D01*
X307490Y305526D01*
X298026Y314990D01*
X297952Y315043D01*
X297882Y315103D01*
X297852Y315115D01*
X297826Y315134D01*
X297739Y315161D01*
X297654Y315195D01*
X297613Y315199D01*
X297591Y315206D01*
X297559Y315205D01*
X297487Y315213D01*
X290186Y315213D01*
X290166Y315210D01*
X290146Y315212D01*
X290045Y315190D01*
X289943Y315174D01*
X289926Y315164D01*
X289906Y315160D01*
X289817Y315107D01*
X289726Y315058D01*
X289712Y315044D01*
X289695Y315034D01*
X289628Y314955D01*
X289556Y314880D01*
X289548Y314862D01*
X289535Y314847D01*
X289496Y314751D01*
X289453Y314657D01*
X289451Y314637D01*
X289443Y314619D01*
X289425Y314452D01*
X289425Y312818D01*
X288532Y311925D01*
X275268Y311925D01*
X274375Y312818D01*
X274375Y315430D01*
X274372Y315450D01*
X274374Y315469D01*
X274352Y315571D01*
X274336Y315673D01*
X274326Y315690D01*
X274322Y315710D01*
X274269Y315799D01*
X274220Y315890D01*
X274206Y315904D01*
X274196Y315921D01*
X274117Y315988D01*
X274042Y316059D01*
X274024Y316068D01*
X274009Y316081D01*
X273913Y316120D01*
X273819Y316163D01*
X273799Y316165D01*
X273781Y316173D01*
X273614Y316191D01*
X266506Y316191D01*
X266486Y316188D01*
X266467Y316190D01*
X266365Y316168D01*
X266263Y316151D01*
X266246Y316142D01*
X266226Y316138D01*
X266137Y316085D01*
X266046Y316036D01*
X266032Y316022D01*
X266015Y316012D01*
X265948Y315933D01*
X265876Y315858D01*
X265868Y315840D01*
X265855Y315825D01*
X265816Y315729D01*
X265773Y315635D01*
X265771Y315615D01*
X265763Y315597D01*
X265745Y315430D01*
X265745Y302461D01*
X264353Y299100D01*
X261780Y296527D01*
X258419Y295135D01*
X254781Y295135D01*
X251420Y296527D01*
X248847Y299100D01*
X247455Y302461D01*
X247455Y321339D01*
X248847Y324700D01*
X251420Y327273D01*
X254781Y328665D01*
X258419Y328665D01*
X261780Y327273D01*
X264353Y324700D01*
X265788Y321235D01*
X265849Y321135D01*
X265909Y321035D01*
X265914Y321031D01*
X265918Y321026D01*
X266007Y320951D01*
X266096Y320875D01*
X266102Y320873D01*
X266107Y320869D01*
X266215Y320827D01*
X266325Y320783D01*
X266332Y320782D01*
X266337Y320781D01*
X266355Y320780D01*
X266491Y320765D01*
X273614Y320765D01*
X273634Y320768D01*
X273654Y320766D01*
X273755Y320788D01*
X273857Y320804D01*
X273874Y320814D01*
X273894Y320818D01*
X273983Y320871D01*
X274074Y320920D01*
X274088Y320934D01*
X274105Y320944D01*
X274172Y321023D01*
X274244Y321098D01*
X274252Y321116D01*
X274265Y321131D01*
X274304Y321227D01*
X274347Y321321D01*
X274349Y321341D01*
X274357Y321359D01*
X274375Y321526D01*
X274375Y324138D01*
X275268Y325031D01*
X288532Y325031D01*
X289425Y324138D01*
X289425Y320548D01*
X289428Y320528D01*
X289426Y320509D01*
X289448Y320407D01*
X289464Y320305D01*
X289474Y320288D01*
X289478Y320268D01*
X289531Y320179D01*
X289580Y320088D01*
X289594Y320074D01*
X289604Y320057D01*
X289683Y319990D01*
X289758Y319918D01*
X289776Y319910D01*
X289791Y319897D01*
X289887Y319858D01*
X289981Y319815D01*
X290001Y319813D01*
X290019Y319805D01*
X290186Y319787D01*
X299697Y319787D01*
X312287Y307197D01*
X312287Y302513D01*
X312301Y302422D01*
X312309Y302332D01*
X312321Y302302D01*
X312326Y302270D01*
X312369Y302189D01*
X312405Y302105D01*
X312431Y302073D01*
X312442Y302052D01*
X312465Y302030D01*
X312510Y301974D01*
X331974Y282510D01*
X332048Y282457D01*
X332118Y282397D01*
X332148Y282385D01*
X332174Y282366D01*
X332261Y282339D01*
X332346Y282305D01*
X332387Y282301D01*
X332409Y282294D01*
X332441Y282295D01*
X332513Y282287D01*
X442197Y282287D01*
X453537Y270947D01*
X453537Y196553D01*
X434447Y177463D01*
X416526Y177463D01*
X416506Y177460D01*
X416487Y177462D01*
X416385Y177440D01*
X416283Y177424D01*
X416266Y177414D01*
X416246Y177410D01*
X416157Y177357D01*
X416066Y177308D01*
X416052Y177294D01*
X416035Y177284D01*
X415968Y177205D01*
X415896Y177130D01*
X415888Y177112D01*
X415875Y177097D01*
X415836Y177001D01*
X415793Y176907D01*
X415791Y176887D01*
X415783Y176869D01*
X415765Y176702D01*
X415765Y174546D01*
X414872Y173653D01*
X395828Y173653D01*
G37*
%LPD*%
%LPC*%
G36*
X395828Y147403D02*
X395828Y147403D01*
X394935Y148296D01*
X394935Y158704D01*
X395828Y159597D01*
X414872Y159597D01*
X415765Y158704D01*
X415765Y156548D01*
X415768Y156528D01*
X415766Y156509D01*
X415788Y156407D01*
X415804Y156305D01*
X415814Y156288D01*
X415818Y156268D01*
X415871Y156179D01*
X415920Y156088D01*
X415934Y156074D01*
X415944Y156057D01*
X416023Y155990D01*
X416098Y155918D01*
X416116Y155910D01*
X416131Y155897D01*
X416227Y155858D01*
X416321Y155815D01*
X416341Y155813D01*
X416359Y155805D01*
X416526Y155787D01*
X447237Y155787D01*
X447328Y155801D01*
X447418Y155809D01*
X447448Y155821D01*
X447480Y155826D01*
X447561Y155869D01*
X447645Y155905D01*
X447677Y155931D01*
X447698Y155942D01*
X447720Y155965D01*
X447776Y156010D01*
X462490Y170724D01*
X462543Y170798D01*
X462603Y170868D01*
X462615Y170898D01*
X462634Y170924D01*
X462661Y171011D01*
X462695Y171096D01*
X462699Y171137D01*
X462706Y171159D01*
X462705Y171191D01*
X462713Y171263D01*
X462713Y276237D01*
X462699Y276328D01*
X462691Y276418D01*
X462679Y276448D01*
X462674Y276480D01*
X462631Y276561D01*
X462595Y276645D01*
X462569Y276677D01*
X462558Y276698D01*
X462535Y276720D01*
X462490Y276776D01*
X454276Y284990D01*
X454202Y285043D01*
X454132Y285103D01*
X454102Y285115D01*
X454076Y285134D01*
X453989Y285161D01*
X453904Y285195D01*
X453863Y285199D01*
X453841Y285206D01*
X453809Y285205D01*
X453737Y285213D01*
X405303Y285213D01*
X400213Y290303D01*
X400213Y306237D01*
X400199Y306328D01*
X400191Y306418D01*
X400179Y306448D01*
X400174Y306480D01*
X400131Y306561D01*
X400095Y306645D01*
X400069Y306677D01*
X400058Y306698D01*
X400035Y306720D01*
X399990Y306776D01*
X393474Y313292D01*
X393416Y313334D01*
X393364Y313383D01*
X393317Y313405D01*
X393275Y313435D01*
X393206Y313456D01*
X393141Y313487D01*
X393089Y313492D01*
X393039Y313508D01*
X392968Y313506D01*
X392896Y313514D01*
X392846Y313503D01*
X392794Y313501D01*
X392726Y313477D01*
X392656Y313462D01*
X392611Y313435D01*
X392563Y313417D01*
X392506Y313372D01*
X392445Y313335D01*
X392411Y313296D01*
X392370Y313263D01*
X392332Y313203D01*
X392285Y313148D01*
X392266Y313100D01*
X392237Y313056D01*
X392220Y312987D01*
X392193Y312920D01*
X392185Y312849D01*
X392177Y312818D01*
X392179Y312795D01*
X392175Y312754D01*
X392175Y311568D01*
X391282Y310675D01*
X378018Y310675D01*
X377125Y311568D01*
X377125Y314180D01*
X377122Y314200D01*
X377124Y314219D01*
X377102Y314321D01*
X377086Y314423D01*
X377076Y314440D01*
X377072Y314460D01*
X377019Y314549D01*
X376970Y314640D01*
X376956Y314654D01*
X376946Y314671D01*
X376867Y314738D01*
X376792Y314809D01*
X376774Y314818D01*
X376759Y314831D01*
X376663Y314870D01*
X376569Y314913D01*
X376549Y314915D01*
X376531Y314923D01*
X376364Y314941D01*
X366756Y314941D01*
X366736Y314938D01*
X366717Y314940D01*
X366615Y314918D01*
X366513Y314901D01*
X366496Y314892D01*
X366476Y314888D01*
X366387Y314835D01*
X366296Y314786D01*
X366282Y314772D01*
X366265Y314762D01*
X366198Y314683D01*
X366126Y314608D01*
X366118Y314590D01*
X366105Y314575D01*
X366066Y314479D01*
X366023Y314385D01*
X366021Y314365D01*
X366013Y314347D01*
X365995Y314180D01*
X365995Y303711D01*
X364603Y300350D01*
X362030Y297777D01*
X358669Y296385D01*
X355031Y296385D01*
X351670Y297777D01*
X349097Y300350D01*
X347705Y303711D01*
X347705Y322589D01*
X349097Y325950D01*
X351670Y328523D01*
X355031Y329915D01*
X358669Y329915D01*
X362030Y328523D01*
X364603Y325950D01*
X365995Y322589D01*
X365995Y320276D01*
X365998Y320256D01*
X365996Y320236D01*
X366018Y320135D01*
X366034Y320033D01*
X366044Y320016D01*
X366048Y319996D01*
X366101Y319907D01*
X366150Y319816D01*
X366164Y319802D01*
X366174Y319785D01*
X366253Y319718D01*
X366328Y319646D01*
X366346Y319638D01*
X366361Y319625D01*
X366457Y319586D01*
X366551Y319543D01*
X366571Y319541D01*
X366589Y319533D01*
X366756Y319515D01*
X376364Y319515D01*
X376384Y319518D01*
X376404Y319516D01*
X376505Y319538D01*
X376607Y319554D01*
X376624Y319564D01*
X376644Y319568D01*
X376733Y319621D01*
X376824Y319670D01*
X376838Y319684D01*
X376855Y319694D01*
X376922Y319773D01*
X376994Y319848D01*
X377002Y319866D01*
X377015Y319881D01*
X377054Y319977D01*
X377097Y320071D01*
X377099Y320091D01*
X377107Y320109D01*
X377125Y320276D01*
X377125Y322888D01*
X378018Y323781D01*
X391282Y323781D01*
X392175Y322888D01*
X392175Y319298D01*
X392178Y319278D01*
X392176Y319259D01*
X392198Y319157D01*
X392214Y319055D01*
X392224Y319038D01*
X392228Y319018D01*
X392281Y318929D01*
X392330Y318838D01*
X392344Y318824D01*
X392354Y318807D01*
X392433Y318740D01*
X392508Y318668D01*
X392526Y318660D01*
X392541Y318647D01*
X392637Y318608D01*
X392731Y318565D01*
X392751Y318563D01*
X392769Y318555D01*
X392936Y318537D01*
X394697Y318537D01*
X404787Y308447D01*
X404787Y292513D01*
X404801Y292422D01*
X404809Y292332D01*
X404821Y292302D01*
X404826Y292270D01*
X404869Y292189D01*
X404905Y292105D01*
X404931Y292073D01*
X404942Y292052D01*
X404965Y292030D01*
X405010Y291974D01*
X406974Y290010D01*
X407048Y289957D01*
X407118Y289897D01*
X407148Y289885D01*
X407174Y289866D01*
X407261Y289839D01*
X407346Y289805D01*
X407387Y289801D01*
X407409Y289794D01*
X407441Y289795D01*
X407513Y289787D01*
X455947Y289787D01*
X467287Y278447D01*
X467287Y169053D01*
X449447Y151213D01*
X416526Y151213D01*
X416506Y151210D01*
X416487Y151212D01*
X416385Y151190D01*
X416283Y151174D01*
X416266Y151164D01*
X416246Y151160D01*
X416157Y151107D01*
X416066Y151058D01*
X416052Y151044D01*
X416035Y151034D01*
X415968Y150955D01*
X415896Y150880D01*
X415888Y150862D01*
X415875Y150847D01*
X415836Y150751D01*
X415793Y150657D01*
X415791Y150637D01*
X415783Y150619D01*
X415765Y150452D01*
X415765Y148296D01*
X414872Y147403D01*
X395828Y147403D01*
G37*
%LPD*%
%LPC*%
G36*
X276516Y40759D02*
X276516Y40759D01*
X275869Y40932D01*
X275290Y41267D01*
X275005Y41552D01*
X274931Y41605D01*
X274861Y41665D01*
X274831Y41677D01*
X274805Y41696D01*
X274718Y41723D01*
X274633Y41757D01*
X274592Y41761D01*
X274570Y41768D01*
X274538Y41767D01*
X274466Y41775D01*
X269718Y41775D01*
X269638Y41855D01*
X269622Y41867D01*
X269610Y41883D01*
X269522Y41939D01*
X269439Y41999D01*
X269420Y42005D01*
X269403Y42016D01*
X269302Y42041D01*
X269203Y42071D01*
X269183Y42071D01*
X269164Y42076D01*
X269061Y42068D01*
X268958Y42065D01*
X268939Y42058D01*
X268919Y42057D01*
X268824Y42016D01*
X268727Y41981D01*
X268711Y41968D01*
X268693Y41960D01*
X268562Y41855D01*
X268482Y41775D01*
X263218Y41775D01*
X263138Y41855D01*
X263122Y41867D01*
X263110Y41883D01*
X263023Y41939D01*
X262939Y41999D01*
X262920Y42005D01*
X262903Y42016D01*
X262802Y42041D01*
X262704Y42071D01*
X262684Y42071D01*
X262664Y42076D01*
X262561Y42068D01*
X262458Y42065D01*
X262439Y42058D01*
X262419Y42057D01*
X262324Y42016D01*
X262227Y41981D01*
X262211Y41968D01*
X262193Y41960D01*
X262062Y41855D01*
X261982Y41775D01*
X256718Y41775D01*
X256638Y41855D01*
X256622Y41867D01*
X256610Y41883D01*
X256523Y41939D01*
X256439Y41999D01*
X256420Y42005D01*
X256403Y42016D01*
X256302Y42041D01*
X256204Y42071D01*
X256184Y42071D01*
X256164Y42076D01*
X256061Y42068D01*
X255958Y42065D01*
X255939Y42058D01*
X255919Y42057D01*
X255824Y42016D01*
X255727Y41981D01*
X255711Y41968D01*
X255693Y41960D01*
X255562Y41855D01*
X255482Y41775D01*
X250218Y41775D01*
X249325Y42668D01*
X249325Y58432D01*
X250340Y59447D01*
X250393Y59521D01*
X250453Y59590D01*
X250465Y59620D01*
X250484Y59646D01*
X250511Y59733D01*
X250545Y59818D01*
X250549Y59859D01*
X250556Y59881D01*
X250555Y59914D01*
X250563Y59985D01*
X250563Y60888D01*
X250549Y60978D01*
X250541Y61069D01*
X250529Y61098D01*
X250524Y61130D01*
X250481Y61211D01*
X250445Y61295D01*
X250419Y61327D01*
X250408Y61348D01*
X250385Y61370D01*
X250340Y61426D01*
X239276Y72490D01*
X239202Y72543D01*
X239132Y72603D01*
X239102Y72615D01*
X239076Y72634D01*
X238989Y72661D01*
X238904Y72695D01*
X238863Y72699D01*
X238841Y72706D01*
X238809Y72705D01*
X238738Y72713D01*
X217803Y72713D01*
X194326Y96190D01*
X194252Y96243D01*
X194182Y96303D01*
X194152Y96315D01*
X194126Y96334D01*
X194039Y96361D01*
X193954Y96395D01*
X193913Y96399D01*
X193891Y96406D01*
X193859Y96405D01*
X193787Y96413D01*
X157512Y96413D01*
X157422Y96399D01*
X157331Y96391D01*
X157302Y96379D01*
X157270Y96374D01*
X157189Y96331D01*
X157105Y96295D01*
X157073Y96269D01*
X157052Y96258D01*
X157030Y96235D01*
X156974Y96190D01*
X147560Y86776D01*
X145774Y84990D01*
X137060Y76276D01*
X135497Y74713D01*
X111217Y74713D01*
X111197Y74710D01*
X111178Y74712D01*
X111076Y74690D01*
X110974Y74674D01*
X110957Y74664D01*
X110937Y74660D01*
X110848Y74607D01*
X110757Y74558D01*
X110743Y74544D01*
X110726Y74534D01*
X110659Y74455D01*
X110587Y74380D01*
X110579Y74362D01*
X110566Y74347D01*
X110527Y74251D01*
X110484Y74157D01*
X110482Y74137D01*
X110474Y74119D01*
X110456Y73952D01*
X110456Y69129D01*
X109563Y68236D01*
X98647Y68236D01*
X97754Y69129D01*
X97754Y84871D01*
X98647Y85764D01*
X109563Y85764D01*
X110456Y84871D01*
X110456Y80048D01*
X110459Y80028D01*
X110457Y80009D01*
X110479Y79907D01*
X110495Y79805D01*
X110505Y79788D01*
X110509Y79768D01*
X110562Y79679D01*
X110611Y79588D01*
X110625Y79574D01*
X110635Y79557D01*
X110714Y79490D01*
X110789Y79418D01*
X110807Y79410D01*
X110822Y79397D01*
X110918Y79358D01*
X111012Y79315D01*
X111032Y79313D01*
X111050Y79305D01*
X111217Y79287D01*
X133287Y79287D01*
X133378Y79301D01*
X133468Y79309D01*
X133498Y79321D01*
X133530Y79326D01*
X133611Y79369D01*
X133695Y79405D01*
X133727Y79431D01*
X133748Y79442D01*
X133770Y79465D01*
X133826Y79510D01*
X138230Y83914D01*
X138272Y83972D01*
X138321Y84024D01*
X138343Y84071D01*
X138373Y84113D01*
X138394Y84182D01*
X138425Y84247D01*
X138430Y84299D01*
X138446Y84349D01*
X138444Y84420D01*
X138452Y84491D01*
X138441Y84542D01*
X138439Y84594D01*
X138415Y84662D01*
X138400Y84732D01*
X138373Y84777D01*
X138355Y84825D01*
X138310Y84881D01*
X138273Y84943D01*
X138234Y84977D01*
X138201Y85017D01*
X138141Y85056D01*
X138086Y85103D01*
X138038Y85122D01*
X137994Y85150D01*
X137925Y85168D01*
X137858Y85195D01*
X137787Y85203D01*
X137756Y85211D01*
X137732Y85209D01*
X137692Y85213D01*
X131783Y85213D01*
X131693Y85199D01*
X131602Y85191D01*
X131573Y85179D01*
X131541Y85174D01*
X131460Y85131D01*
X131376Y85095D01*
X131344Y85069D01*
X131323Y85058D01*
X131308Y85042D01*
X131306Y85041D01*
X131297Y85032D01*
X131245Y84990D01*
X128448Y82193D01*
X124052Y82193D01*
X120943Y85302D01*
X120943Y89698D01*
X124052Y92807D01*
X128448Y92807D01*
X131245Y90010D01*
X131319Y89957D01*
X131389Y89897D01*
X131419Y89885D01*
X131445Y89866D01*
X131532Y89839D01*
X131617Y89805D01*
X131658Y89801D01*
X131680Y89794D01*
X131712Y89795D01*
X131783Y89787D01*
X143788Y89787D01*
X143878Y89801D01*
X143969Y89809D01*
X143998Y89821D01*
X144030Y89826D01*
X144111Y89869D01*
X144195Y89905D01*
X144227Y89931D01*
X144248Y89942D01*
X144270Y89965D01*
X144326Y90010D01*
X149430Y95114D01*
X149472Y95172D01*
X149521Y95224D01*
X149543Y95271D01*
X149573Y95313D01*
X149594Y95382D01*
X149625Y95447D01*
X149630Y95499D01*
X149646Y95549D01*
X149644Y95620D01*
X149652Y95691D01*
X149641Y95742D01*
X149639Y95794D01*
X149615Y95862D01*
X149600Y95932D01*
X149573Y95976D01*
X149555Y96025D01*
X149510Y96081D01*
X149473Y96143D01*
X149434Y96177D01*
X149401Y96217D01*
X149341Y96256D01*
X149286Y96303D01*
X149238Y96322D01*
X149194Y96350D01*
X149125Y96368D01*
X149058Y96395D01*
X148987Y96403D01*
X148956Y96411D01*
X148932Y96409D01*
X148892Y96413D01*
X122996Y96413D01*
X122976Y96410D01*
X122957Y96412D01*
X122855Y96390D01*
X122753Y96374D01*
X122736Y96364D01*
X122716Y96360D01*
X122627Y96307D01*
X122536Y96258D01*
X122522Y96244D01*
X122505Y96234D01*
X122438Y96155D01*
X122366Y96080D01*
X122358Y96062D01*
X122345Y96047D01*
X122306Y95951D01*
X122263Y95857D01*
X122261Y95837D01*
X122253Y95819D01*
X122235Y95652D01*
X122235Y95068D01*
X121342Y94175D01*
X108078Y94175D01*
X107185Y95068D01*
X107185Y102332D01*
X108078Y103225D01*
X121342Y103225D01*
X122235Y102332D01*
X122235Y101748D01*
X122238Y101728D01*
X122236Y101709D01*
X122258Y101607D01*
X122274Y101505D01*
X122284Y101488D01*
X122288Y101468D01*
X122341Y101379D01*
X122390Y101288D01*
X122404Y101274D01*
X122414Y101257D01*
X122493Y101190D01*
X122568Y101118D01*
X122586Y101110D01*
X122601Y101097D01*
X122697Y101058D01*
X122791Y101015D01*
X122811Y101013D01*
X122829Y101005D01*
X122996Y100987D01*
X195997Y100987D01*
X219474Y77510D01*
X219548Y77457D01*
X219618Y77397D01*
X219648Y77385D01*
X219674Y77366D01*
X219761Y77339D01*
X219846Y77305D01*
X219887Y77301D01*
X219909Y77294D01*
X219941Y77295D01*
X220013Y77287D01*
X240947Y77287D01*
X242510Y75724D01*
X253574Y64660D01*
X255137Y63097D01*
X255137Y59985D01*
X255151Y59895D01*
X255159Y59804D01*
X255171Y59774D01*
X255176Y59742D01*
X255219Y59661D01*
X255255Y59577D01*
X255281Y59545D01*
X255292Y59525D01*
X255315Y59503D01*
X255360Y59447D01*
X255562Y59245D01*
X255578Y59233D01*
X255590Y59217D01*
X255678Y59161D01*
X255762Y59101D01*
X255781Y59095D01*
X255797Y59084D01*
X255898Y59059D01*
X255997Y59029D01*
X256017Y59029D01*
X256036Y59024D01*
X256139Y59032D01*
X256242Y59035D01*
X256261Y59042D01*
X256281Y59043D01*
X256376Y59084D01*
X256474Y59120D01*
X256489Y59132D01*
X256507Y59140D01*
X256638Y59245D01*
X256718Y59325D01*
X261982Y59325D01*
X262062Y59245D01*
X262078Y59233D01*
X262090Y59217D01*
X262178Y59161D01*
X262261Y59101D01*
X262280Y59095D01*
X262297Y59084D01*
X262398Y59059D01*
X262497Y59029D01*
X262517Y59029D01*
X262536Y59024D01*
X262639Y59032D01*
X262742Y59035D01*
X262761Y59042D01*
X262781Y59043D01*
X262876Y59084D01*
X262973Y59119D01*
X262989Y59132D01*
X263007Y59140D01*
X263138Y59245D01*
X263218Y59325D01*
X268482Y59325D01*
X268562Y59245D01*
X268578Y59233D01*
X268590Y59217D01*
X268677Y59161D01*
X268761Y59101D01*
X268780Y59095D01*
X268797Y59084D01*
X268898Y59059D01*
X268996Y59029D01*
X269016Y59029D01*
X269036Y59024D01*
X269139Y59032D01*
X269242Y59035D01*
X269261Y59042D01*
X269281Y59043D01*
X269376Y59084D01*
X269473Y59119D01*
X269489Y59132D01*
X269507Y59140D01*
X269638Y59245D01*
X269718Y59325D01*
X274466Y59325D01*
X274556Y59339D01*
X274647Y59347D01*
X274677Y59359D01*
X274709Y59364D01*
X274790Y59407D01*
X274874Y59443D01*
X274906Y59469D01*
X274926Y59480D01*
X274949Y59503D01*
X275005Y59548D01*
X275290Y59833D01*
X275869Y60168D01*
X276516Y60341D01*
X277851Y60341D01*
X277851Y50788D01*
X277854Y50769D01*
X277852Y50749D01*
X277874Y50647D01*
X277890Y50545D01*
X277891Y50544D01*
X277879Y50517D01*
X277877Y50497D01*
X277869Y50479D01*
X277851Y50312D01*
X277851Y40759D01*
X276516Y40759D01*
G37*
%LPD*%
%LPC*%
G36*
X84981Y28635D02*
X84981Y28635D01*
X81620Y30027D01*
X79047Y32600D01*
X77655Y35961D01*
X77655Y50995D01*
X77641Y51086D01*
X77633Y51176D01*
X77621Y51206D01*
X77616Y51238D01*
X77573Y51319D01*
X77537Y51403D01*
X77511Y51435D01*
X77500Y51456D01*
X77477Y51478D01*
X77432Y51534D01*
X72471Y56495D01*
X72397Y56548D01*
X72327Y56608D01*
X72297Y56620D01*
X72271Y56639D01*
X72184Y56666D01*
X72099Y56700D01*
X72058Y56704D01*
X72036Y56711D01*
X72004Y56710D01*
X71932Y56718D01*
X65125Y56718D01*
X65105Y56715D01*
X65086Y56717D01*
X64984Y56695D01*
X64882Y56679D01*
X64865Y56669D01*
X64845Y56665D01*
X64756Y56612D01*
X64665Y56563D01*
X64651Y56549D01*
X64634Y56539D01*
X64567Y56460D01*
X64495Y56385D01*
X64487Y56367D01*
X64474Y56352D01*
X64435Y56256D01*
X64392Y56162D01*
X64390Y56142D01*
X64382Y56124D01*
X64364Y55957D01*
X64364Y53547D01*
X63471Y52654D01*
X47729Y52654D01*
X46836Y53547D01*
X46836Y64463D01*
X47729Y65356D01*
X58401Y65356D01*
X58492Y65370D01*
X58582Y65378D01*
X58612Y65390D01*
X58644Y65395D01*
X58725Y65438D01*
X58809Y65474D01*
X58841Y65500D01*
X58862Y65511D01*
X58884Y65534D01*
X58940Y65579D01*
X72648Y79287D01*
X80483Y79287D01*
X80503Y79290D01*
X80522Y79288D01*
X80624Y79310D01*
X80726Y79326D01*
X80743Y79336D01*
X80763Y79340D01*
X80852Y79393D01*
X80943Y79442D01*
X80957Y79456D01*
X80974Y79466D01*
X81041Y79545D01*
X81113Y79620D01*
X81121Y79638D01*
X81134Y79653D01*
X81173Y79749D01*
X81216Y79843D01*
X81218Y79863D01*
X81226Y79881D01*
X81244Y80048D01*
X81244Y84871D01*
X82137Y85764D01*
X85542Y85764D01*
X85562Y85767D01*
X85581Y85765D01*
X85683Y85787D01*
X85785Y85803D01*
X85802Y85813D01*
X85822Y85817D01*
X85911Y85870D01*
X86002Y85919D01*
X86016Y85933D01*
X86033Y85943D01*
X86100Y86022D01*
X86172Y86097D01*
X86180Y86115D01*
X86193Y86130D01*
X86232Y86226D01*
X86275Y86320D01*
X86277Y86340D01*
X86285Y86358D01*
X86303Y86525D01*
X86303Y93414D01*
X86300Y93434D01*
X86302Y93453D01*
X86280Y93555D01*
X86264Y93657D01*
X86254Y93674D01*
X86250Y93694D01*
X86197Y93783D01*
X86148Y93874D01*
X86134Y93888D01*
X86124Y93905D01*
X86045Y93972D01*
X85970Y94044D01*
X85952Y94052D01*
X85937Y94065D01*
X85841Y94104D01*
X85747Y94147D01*
X85727Y94149D01*
X85709Y94157D01*
X85542Y94175D01*
X81958Y94175D01*
X81065Y95068D01*
X81065Y102386D01*
X81070Y102393D01*
X81076Y102412D01*
X81087Y102429D01*
X81113Y102529D01*
X81143Y102628D01*
X81142Y102648D01*
X81147Y102667D01*
X81139Y102770D01*
X81137Y102874D01*
X81130Y102893D01*
X81128Y102913D01*
X81088Y103008D01*
X81052Y103105D01*
X81040Y103121D01*
X81032Y103139D01*
X80927Y103270D01*
X80557Y103640D01*
X80222Y104219D01*
X80049Y104866D01*
X80049Y106701D01*
X87852Y106701D01*
X87871Y106704D01*
X87891Y106702D01*
X87993Y106724D01*
X88095Y106740D01*
X88112Y106750D01*
X88132Y106754D01*
X88221Y106807D01*
X88312Y106856D01*
X88326Y106870D01*
X88343Y106880D01*
X88410Y106959D01*
X88481Y107034D01*
X88490Y107052D01*
X88503Y107067D01*
X88541Y107163D01*
X88585Y107257D01*
X88587Y107277D01*
X88594Y107295D01*
X88607Y107219D01*
X88616Y107202D01*
X88620Y107182D01*
X88673Y107093D01*
X88722Y107002D01*
X88736Y106988D01*
X88746Y106971D01*
X88825Y106904D01*
X88900Y106832D01*
X88918Y106824D01*
X88933Y106811D01*
X89030Y106772D01*
X89123Y106729D01*
X89143Y106727D01*
X89161Y106719D01*
X89328Y106701D01*
X97131Y106701D01*
X97131Y104866D01*
X96958Y104219D01*
X96623Y103640D01*
X96253Y103270D01*
X96241Y103254D01*
X96226Y103241D01*
X96170Y103154D01*
X96109Y103070D01*
X96104Y103051D01*
X96093Y103034D01*
X96067Y102934D01*
X96037Y102835D01*
X96038Y102815D01*
X96033Y102796D01*
X96041Y102693D01*
X96043Y102589D01*
X96050Y102570D01*
X96052Y102550D01*
X96092Y102455D01*
X96115Y102394D01*
X96115Y95068D01*
X95222Y94175D01*
X91638Y94175D01*
X91618Y94172D01*
X91599Y94174D01*
X91497Y94152D01*
X91395Y94136D01*
X91378Y94126D01*
X91358Y94122D01*
X91269Y94069D01*
X91178Y94020D01*
X91164Y94006D01*
X91147Y93996D01*
X91080Y93917D01*
X91008Y93842D01*
X91000Y93824D01*
X90987Y93809D01*
X90948Y93713D01*
X90905Y93619D01*
X90903Y93599D01*
X90895Y93581D01*
X90877Y93414D01*
X90877Y86525D01*
X90880Y86505D01*
X90878Y86486D01*
X90900Y86384D01*
X90916Y86282D01*
X90926Y86265D01*
X90930Y86245D01*
X90983Y86156D01*
X91032Y86065D01*
X91046Y86051D01*
X91056Y86034D01*
X91135Y85967D01*
X91210Y85895D01*
X91228Y85887D01*
X91243Y85874D01*
X91339Y85835D01*
X91433Y85792D01*
X91453Y85790D01*
X91471Y85782D01*
X91638Y85764D01*
X93053Y85764D01*
X93946Y84871D01*
X93946Y69129D01*
X93053Y68236D01*
X82137Y68236D01*
X81244Y69129D01*
X81244Y73952D01*
X81241Y73972D01*
X81243Y73991D01*
X81221Y74093D01*
X81205Y74195D01*
X81195Y74212D01*
X81191Y74232D01*
X81138Y74321D01*
X81089Y74412D01*
X81075Y74426D01*
X81065Y74443D01*
X80986Y74510D01*
X80911Y74582D01*
X80893Y74590D01*
X80878Y74603D01*
X80782Y74642D01*
X80688Y74685D01*
X80668Y74687D01*
X80650Y74695D01*
X80483Y74713D01*
X74858Y74713D01*
X74767Y74699D01*
X74677Y74691D01*
X74647Y74679D01*
X74615Y74674D01*
X74534Y74631D01*
X74450Y74595D01*
X74418Y74569D01*
X74397Y74558D01*
X74375Y74535D01*
X74319Y74490D01*
X64587Y64758D01*
X64534Y64684D01*
X64474Y64614D01*
X64462Y64584D01*
X64443Y64558D01*
X64416Y64471D01*
X64382Y64386D01*
X64378Y64345D01*
X64371Y64323D01*
X64372Y64291D01*
X64364Y64219D01*
X64364Y62053D01*
X64367Y62033D01*
X64365Y62014D01*
X64387Y61912D01*
X64403Y61810D01*
X64413Y61793D01*
X64417Y61773D01*
X64470Y61684D01*
X64519Y61593D01*
X64533Y61579D01*
X64543Y61562D01*
X64622Y61495D01*
X64697Y61423D01*
X64715Y61415D01*
X64730Y61402D01*
X64826Y61363D01*
X64920Y61320D01*
X64940Y61318D01*
X64958Y61310D01*
X65125Y61292D01*
X74142Y61292D01*
X75705Y59729D01*
X77711Y57723D01*
X77748Y57696D01*
X77779Y57663D01*
X77847Y57625D01*
X77910Y57580D01*
X77954Y57566D01*
X77995Y57544D01*
X78071Y57530D01*
X78145Y57507D01*
X78191Y57509D01*
X78237Y57500D01*
X78314Y57512D01*
X78391Y57514D01*
X78434Y57529D01*
X78480Y57536D01*
X78549Y57571D01*
X78622Y57598D01*
X78658Y57627D01*
X78699Y57648D01*
X78754Y57703D01*
X78814Y57752D01*
X78839Y57791D01*
X78871Y57823D01*
X78937Y57943D01*
X78947Y57959D01*
X78949Y57964D01*
X78952Y57970D01*
X79047Y58200D01*
X81620Y60773D01*
X84981Y62165D01*
X88619Y62165D01*
X91980Y60773D01*
X94553Y58200D01*
X95945Y54839D01*
X95945Y35961D01*
X94553Y32600D01*
X91980Y30027D01*
X88619Y28635D01*
X84981Y28635D01*
G37*
%LPD*%
%LPC*%
G36*
X80302Y215943D02*
X80302Y215943D01*
X77193Y219052D01*
X77193Y223448D01*
X79918Y226173D01*
X79971Y226247D01*
X80031Y226317D01*
X80043Y226347D01*
X80062Y226373D01*
X80089Y226460D01*
X80123Y226545D01*
X80127Y226586D01*
X80134Y226608D01*
X80133Y226640D01*
X80141Y226711D01*
X80141Y275414D01*
X80138Y275434D01*
X80140Y275454D01*
X80118Y275555D01*
X80101Y275657D01*
X80092Y275674D01*
X80088Y275694D01*
X80035Y275783D01*
X79986Y275874D01*
X79972Y275888D01*
X79962Y275905D01*
X79883Y275972D01*
X79808Y276044D01*
X79790Y276052D01*
X79775Y276065D01*
X79679Y276104D01*
X79585Y276147D01*
X79565Y276149D01*
X79547Y276157D01*
X79380Y276175D01*
X76768Y276175D01*
X75875Y277068D01*
X75875Y290332D01*
X76617Y291073D01*
X76628Y291089D01*
X76644Y291102D01*
X76700Y291189D01*
X76760Y291273D01*
X76766Y291292D01*
X76777Y291308D01*
X76802Y291409D01*
X76833Y291508D01*
X76832Y291528D01*
X76837Y291547D01*
X76829Y291650D01*
X76826Y291754D01*
X76819Y291772D01*
X76818Y291792D01*
X76777Y291887D01*
X76742Y291985D01*
X76729Y292000D01*
X76721Y292019D01*
X76617Y292149D01*
X69339Y299427D01*
X69302Y299454D01*
X69271Y299487D01*
X69203Y299525D01*
X69140Y299570D01*
X69096Y299584D01*
X69055Y299606D01*
X68979Y299620D01*
X68905Y299643D01*
X68859Y299641D01*
X68813Y299650D01*
X68736Y299638D01*
X68659Y299636D01*
X68615Y299621D01*
X68570Y299614D01*
X68501Y299579D01*
X68428Y299552D01*
X68392Y299523D01*
X68351Y299502D01*
X68296Y299447D01*
X68236Y299398D01*
X68211Y299359D01*
X68179Y299327D01*
X68113Y299207D01*
X68103Y299191D01*
X68101Y299186D01*
X68098Y299180D01*
X68003Y298950D01*
X65430Y296377D01*
X62069Y294985D01*
X58431Y294985D01*
X55070Y296377D01*
X52497Y298950D01*
X51105Y302311D01*
X51105Y321189D01*
X52497Y324550D01*
X55070Y327123D01*
X58431Y328515D01*
X62069Y328515D01*
X65430Y327123D01*
X68003Y324550D01*
X69395Y321189D01*
X69395Y306155D01*
X69409Y306064D01*
X69417Y305974D01*
X69429Y305944D01*
X69434Y305912D01*
X69477Y305831D01*
X69513Y305747D01*
X69539Y305715D01*
X69550Y305694D01*
X69573Y305672D01*
X69618Y305616D01*
X83152Y292082D01*
X83786Y291448D01*
X83860Y291394D01*
X83930Y291335D01*
X83960Y291323D01*
X83986Y291304D01*
X84073Y291277D01*
X84158Y291243D01*
X84199Y291239D01*
X84221Y291232D01*
X84253Y291233D01*
X84325Y291225D01*
X88088Y291225D01*
X88981Y290332D01*
X88981Y277068D01*
X88088Y276175D01*
X85476Y276175D01*
X85456Y276172D01*
X85436Y276174D01*
X85335Y276152D01*
X85233Y276136D01*
X85216Y276126D01*
X85196Y276122D01*
X85107Y276069D01*
X85016Y276020D01*
X85002Y276006D01*
X84985Y275996D01*
X84918Y275917D01*
X84846Y275842D01*
X84838Y275824D01*
X84825Y275809D01*
X84786Y275713D01*
X84743Y275619D01*
X84741Y275599D01*
X84733Y275581D01*
X84715Y275414D01*
X84715Y226855D01*
X84729Y226765D01*
X84737Y226674D01*
X84749Y226645D01*
X84754Y226613D01*
X84797Y226532D01*
X84833Y226448D01*
X84859Y226416D01*
X84870Y226395D01*
X84893Y226373D01*
X84938Y226317D01*
X87807Y223448D01*
X87807Y219052D01*
X84698Y215943D01*
X80302Y215943D01*
G37*
%LPD*%
%LPC*%
G36*
X135302Y255943D02*
X135302Y255943D01*
X132193Y259052D01*
X132193Y263448D01*
X135168Y266423D01*
X135221Y266497D01*
X135281Y266567D01*
X135293Y266597D01*
X135312Y266623D01*
X135339Y266710D01*
X135373Y266795D01*
X135377Y266836D01*
X135384Y266858D01*
X135383Y266890D01*
X135391Y266961D01*
X135391Y275414D01*
X135388Y275434D01*
X135390Y275454D01*
X135368Y275555D01*
X135351Y275657D01*
X135342Y275674D01*
X135338Y275694D01*
X135285Y275783D01*
X135236Y275874D01*
X135222Y275888D01*
X135212Y275905D01*
X135133Y275972D01*
X135058Y276044D01*
X135040Y276052D01*
X135025Y276065D01*
X134929Y276104D01*
X134835Y276147D01*
X134815Y276149D01*
X134797Y276157D01*
X134630Y276175D01*
X132018Y276175D01*
X131125Y277068D01*
X131125Y290332D01*
X132018Y291225D01*
X134630Y291225D01*
X134650Y291228D01*
X134669Y291226D01*
X134771Y291248D01*
X134873Y291264D01*
X134890Y291274D01*
X134910Y291278D01*
X134999Y291331D01*
X135090Y291380D01*
X135104Y291394D01*
X135121Y291404D01*
X135188Y291483D01*
X135259Y291558D01*
X135268Y291576D01*
X135281Y291591D01*
X135320Y291687D01*
X135363Y291781D01*
X135365Y291801D01*
X135373Y291819D01*
X135391Y291986D01*
X135391Y296991D01*
X135376Y297081D01*
X135369Y297172D01*
X135357Y297202D01*
X135351Y297234D01*
X135309Y297314D01*
X135273Y297398D01*
X135247Y297430D01*
X135236Y297451D01*
X135213Y297473D01*
X135168Y297529D01*
X134847Y297850D01*
X133455Y301211D01*
X133455Y320089D01*
X134847Y323450D01*
X137420Y326023D01*
X140781Y327415D01*
X144419Y327415D01*
X147780Y326023D01*
X150353Y323450D01*
X151745Y320089D01*
X151745Y301211D01*
X150353Y297850D01*
X147780Y295277D01*
X144419Y293885D01*
X140726Y293885D01*
X140706Y293882D01*
X140686Y293884D01*
X140585Y293862D01*
X140483Y293846D01*
X140466Y293836D01*
X140446Y293832D01*
X140357Y293779D01*
X140266Y293730D01*
X140252Y293716D01*
X140235Y293706D01*
X140168Y293627D01*
X140096Y293552D01*
X140088Y293534D01*
X140075Y293519D01*
X140036Y293423D01*
X139993Y293329D01*
X139991Y293309D01*
X139983Y293291D01*
X139965Y293124D01*
X139965Y291986D01*
X139968Y291966D01*
X139966Y291946D01*
X139988Y291845D01*
X140004Y291743D01*
X140014Y291726D01*
X140018Y291706D01*
X140071Y291617D01*
X140120Y291526D01*
X140134Y291512D01*
X140144Y291495D01*
X140223Y291428D01*
X140298Y291356D01*
X140316Y291348D01*
X140331Y291335D01*
X140427Y291296D01*
X140521Y291253D01*
X140541Y291251D01*
X140559Y291243D01*
X140726Y291225D01*
X143338Y291225D01*
X144231Y290332D01*
X144231Y277068D01*
X143338Y276175D01*
X140726Y276175D01*
X140706Y276172D01*
X140686Y276174D01*
X140585Y276152D01*
X140483Y276136D01*
X140466Y276126D01*
X140446Y276122D01*
X140357Y276069D01*
X140266Y276020D01*
X140252Y276006D01*
X140235Y275996D01*
X140168Y275917D01*
X140096Y275842D01*
X140088Y275824D01*
X140075Y275809D01*
X140036Y275713D01*
X139993Y275619D01*
X139991Y275599D01*
X139983Y275581D01*
X139965Y275414D01*
X139965Y266605D01*
X139979Y266515D01*
X139987Y266424D01*
X139999Y266395D01*
X140004Y266363D01*
X140047Y266282D01*
X140083Y266198D01*
X140109Y266166D01*
X140120Y266145D01*
X140143Y266123D01*
X140188Y266067D01*
X142807Y263448D01*
X142807Y259052D01*
X139698Y255943D01*
X135302Y255943D01*
G37*
%LPD*%
%LPC*%
G36*
X16418Y29975D02*
X16418Y29975D01*
X15525Y30868D01*
X15525Y40132D01*
X16418Y41025D01*
X23026Y41025D01*
X23116Y41039D01*
X23207Y41047D01*
X23236Y41059D01*
X23268Y41064D01*
X23349Y41107D01*
X23433Y41143D01*
X23465Y41169D01*
X23486Y41180D01*
X23502Y41197D01*
X23504Y41198D01*
X23512Y41206D01*
X23564Y41248D01*
X25992Y43676D01*
X26034Y43734D01*
X26083Y43786D01*
X26105Y43833D01*
X26135Y43875D01*
X26156Y43944D01*
X26187Y44009D01*
X26192Y44061D01*
X26208Y44111D01*
X26206Y44182D01*
X26214Y44253D01*
X26203Y44304D01*
X26201Y44356D01*
X26177Y44424D01*
X26162Y44494D01*
X26135Y44538D01*
X26117Y44587D01*
X26072Y44643D01*
X26035Y44705D01*
X25996Y44739D01*
X25963Y44779D01*
X25903Y44818D01*
X25848Y44865D01*
X25800Y44884D01*
X25756Y44912D01*
X25687Y44930D01*
X25620Y44957D01*
X25549Y44965D01*
X25518Y44973D01*
X25494Y44971D01*
X25454Y44975D01*
X16418Y44975D01*
X15525Y45868D01*
X15525Y55132D01*
X16418Y56025D01*
X18952Y56025D01*
X18972Y56028D01*
X18991Y56026D01*
X19093Y56048D01*
X19195Y56064D01*
X19212Y56074D01*
X19232Y56078D01*
X19321Y56131D01*
X19412Y56180D01*
X19426Y56194D01*
X19443Y56204D01*
X19510Y56283D01*
X19582Y56358D01*
X19590Y56376D01*
X19603Y56391D01*
X19642Y56487D01*
X19685Y56581D01*
X19687Y56601D01*
X19695Y56619D01*
X19713Y56786D01*
X19713Y67914D01*
X19710Y67934D01*
X19712Y67953D01*
X19690Y68055D01*
X19674Y68157D01*
X19664Y68174D01*
X19660Y68194D01*
X19607Y68283D01*
X19558Y68374D01*
X19544Y68388D01*
X19534Y68405D01*
X19455Y68472D01*
X19380Y68544D01*
X19362Y68552D01*
X19347Y68565D01*
X19251Y68604D01*
X19157Y68647D01*
X19137Y68649D01*
X19119Y68657D01*
X18952Y68675D01*
X15868Y68675D01*
X14975Y69568D01*
X14975Y80832D01*
X15868Y81725D01*
X28132Y81725D01*
X29025Y80832D01*
X29025Y69568D01*
X28132Y68675D01*
X25048Y68675D01*
X25028Y68672D01*
X25009Y68674D01*
X24907Y68652D01*
X24805Y68636D01*
X24788Y68626D01*
X24768Y68622D01*
X24679Y68569D01*
X24588Y68520D01*
X24574Y68506D01*
X24557Y68496D01*
X24490Y68417D01*
X24418Y68342D01*
X24410Y68324D01*
X24397Y68309D01*
X24358Y68213D01*
X24315Y68119D01*
X24313Y68099D01*
X24305Y68081D01*
X24287Y67914D01*
X24287Y56786D01*
X24290Y56766D01*
X24288Y56747D01*
X24310Y56645D01*
X24326Y56543D01*
X24336Y56526D01*
X24340Y56506D01*
X24393Y56417D01*
X24442Y56326D01*
X24456Y56312D01*
X24466Y56295D01*
X24545Y56228D01*
X24620Y56156D01*
X24638Y56148D01*
X24653Y56135D01*
X24749Y56096D01*
X24843Y56053D01*
X24863Y56051D01*
X24881Y56043D01*
X25048Y56025D01*
X25682Y56025D01*
X26575Y55132D01*
X26575Y46096D01*
X26586Y46026D01*
X26588Y45954D01*
X26606Y45905D01*
X26614Y45854D01*
X26648Y45790D01*
X26673Y45723D01*
X26705Y45682D01*
X26730Y45636D01*
X26782Y45587D01*
X26826Y45531D01*
X26870Y45503D01*
X26908Y45467D01*
X26973Y45437D01*
X27033Y45398D01*
X27084Y45385D01*
X27131Y45363D01*
X27202Y45355D01*
X27272Y45338D01*
X27324Y45342D01*
X27375Y45336D01*
X27446Y45351D01*
X27517Y45357D01*
X27565Y45377D01*
X27616Y45388D01*
X27677Y45425D01*
X27743Y45453D01*
X27799Y45498D01*
X27827Y45515D01*
X27842Y45532D01*
X27874Y45558D01*
X37490Y55174D01*
X37543Y55248D01*
X37603Y55318D01*
X37615Y55348D01*
X37634Y55374D01*
X37661Y55461D01*
X37695Y55546D01*
X37699Y55587D01*
X37706Y55609D01*
X37705Y55641D01*
X37713Y55713D01*
X37713Y71967D01*
X37699Y72057D01*
X37691Y72148D01*
X37679Y72177D01*
X37674Y72209D01*
X37631Y72290D01*
X37595Y72374D01*
X37569Y72406D01*
X37558Y72427D01*
X37535Y72449D01*
X37490Y72505D01*
X34693Y75302D01*
X34693Y79698D01*
X37802Y82807D01*
X42198Y82807D01*
X45307Y79698D01*
X45307Y75302D01*
X42510Y72505D01*
X42457Y72431D01*
X42397Y72361D01*
X42385Y72331D01*
X42366Y72305D01*
X42339Y72218D01*
X42305Y72133D01*
X42301Y72092D01*
X42294Y72070D01*
X42295Y72038D01*
X42287Y71967D01*
X42287Y53503D01*
X40724Y51940D01*
X26798Y38014D01*
X26745Y37940D01*
X26685Y37870D01*
X26673Y37840D01*
X26654Y37814D01*
X26627Y37727D01*
X26593Y37642D01*
X26589Y37601D01*
X26582Y37579D01*
X26583Y37547D01*
X26575Y37476D01*
X26575Y30868D01*
X25682Y29975D01*
X16418Y29975D01*
G37*
%LPD*%
%LPC*%
G36*
X240828Y147403D02*
X240828Y147403D01*
X239935Y148296D01*
X239935Y150452D01*
X239932Y150472D01*
X239934Y150491D01*
X239912Y150593D01*
X239896Y150695D01*
X239886Y150712D01*
X239882Y150732D01*
X239829Y150821D01*
X239780Y150912D01*
X239766Y150926D01*
X239756Y150943D01*
X239677Y151010D01*
X239602Y151082D01*
X239584Y151090D01*
X239569Y151103D01*
X239473Y151142D01*
X239379Y151185D01*
X239359Y151187D01*
X239341Y151195D01*
X239174Y151213D01*
X201803Y151213D01*
X176776Y176240D01*
X176702Y176293D01*
X176632Y176353D01*
X176602Y176365D01*
X176576Y176384D01*
X176489Y176411D01*
X176404Y176445D01*
X176363Y176449D01*
X176341Y176456D01*
X176309Y176455D01*
X176237Y176463D01*
X170533Y176463D01*
X170443Y176449D01*
X170352Y176441D01*
X170323Y176429D01*
X170291Y176424D01*
X170210Y176381D01*
X170126Y176345D01*
X170094Y176319D01*
X170073Y176308D01*
X170051Y176285D01*
X169995Y176240D01*
X167198Y173443D01*
X162802Y173443D01*
X159693Y176552D01*
X159693Y180948D01*
X162802Y184057D01*
X167198Y184057D01*
X169995Y181260D01*
X170069Y181207D01*
X170139Y181147D01*
X170169Y181135D01*
X170195Y181116D01*
X170282Y181089D01*
X170367Y181055D01*
X170408Y181051D01*
X170430Y181044D01*
X170462Y181045D01*
X170533Y181037D01*
X178447Y181037D01*
X203474Y156010D01*
X203548Y155957D01*
X203618Y155897D01*
X203648Y155885D01*
X203674Y155866D01*
X203761Y155839D01*
X203846Y155805D01*
X203887Y155801D01*
X203909Y155794D01*
X203941Y155795D01*
X204013Y155787D01*
X239174Y155787D01*
X239194Y155790D01*
X239213Y155788D01*
X239315Y155810D01*
X239417Y155826D01*
X239434Y155836D01*
X239454Y155840D01*
X239543Y155893D01*
X239634Y155942D01*
X239648Y155956D01*
X239665Y155966D01*
X239732Y156045D01*
X239804Y156120D01*
X239812Y156138D01*
X239825Y156153D01*
X239864Y156249D01*
X239907Y156343D01*
X239909Y156363D01*
X239917Y156381D01*
X239935Y156548D01*
X239935Y158704D01*
X240828Y159597D01*
X259872Y159597D01*
X260765Y158704D01*
X260765Y148296D01*
X259872Y147403D01*
X240828Y147403D01*
G37*
%LPD*%
%LPC*%
G36*
X15868Y85675D02*
X15868Y85675D01*
X14975Y86568D01*
X14975Y97832D01*
X15868Y98725D01*
X28132Y98725D01*
X29025Y97832D01*
X29025Y95248D01*
X29028Y95228D01*
X29026Y95209D01*
X29048Y95107D01*
X29064Y95005D01*
X29074Y94988D01*
X29078Y94968D01*
X29131Y94879D01*
X29180Y94788D01*
X29194Y94774D01*
X29204Y94757D01*
X29283Y94690D01*
X29358Y94618D01*
X29376Y94610D01*
X29391Y94597D01*
X29487Y94558D01*
X29581Y94515D01*
X29601Y94513D01*
X29619Y94505D01*
X29786Y94487D01*
X43437Y94487D01*
X43528Y94501D01*
X43618Y94509D01*
X43648Y94521D01*
X43680Y94526D01*
X43761Y94569D01*
X43845Y94605D01*
X43877Y94631D01*
X43898Y94642D01*
X43920Y94665D01*
X43976Y94710D01*
X69253Y119987D01*
X80304Y119987D01*
X80324Y119990D01*
X80343Y119988D01*
X80445Y120010D01*
X80547Y120026D01*
X80564Y120036D01*
X80584Y120040D01*
X80673Y120093D01*
X80764Y120142D01*
X80778Y120156D01*
X80795Y120166D01*
X80862Y120245D01*
X80934Y120320D01*
X80942Y120338D01*
X80955Y120353D01*
X80994Y120449D01*
X81037Y120543D01*
X81039Y120563D01*
X81047Y120581D01*
X81065Y120748D01*
X81065Y121332D01*
X81958Y122225D01*
X95222Y122225D01*
X96115Y121332D01*
X96115Y114014D01*
X96110Y114007D01*
X96104Y113988D01*
X96093Y113971D01*
X96067Y113871D01*
X96037Y113772D01*
X96038Y113752D01*
X96033Y113733D01*
X96041Y113630D01*
X96043Y113526D01*
X96050Y113507D01*
X96052Y113487D01*
X96092Y113392D01*
X96128Y113295D01*
X96140Y113279D01*
X96148Y113261D01*
X96253Y113130D01*
X96623Y112760D01*
X96958Y112181D01*
X97131Y111534D01*
X97131Y109699D01*
X89328Y109699D01*
X89309Y109696D01*
X89289Y109698D01*
X89187Y109676D01*
X89085Y109660D01*
X89068Y109650D01*
X89048Y109646D01*
X88959Y109593D01*
X88868Y109544D01*
X88854Y109530D01*
X88837Y109520D01*
X88770Y109441D01*
X88699Y109366D01*
X88690Y109348D01*
X88677Y109333D01*
X88639Y109237D01*
X88595Y109143D01*
X88593Y109123D01*
X88586Y109105D01*
X88573Y109181D01*
X88564Y109198D01*
X88560Y109218D01*
X88507Y109307D01*
X88458Y109398D01*
X88444Y109412D01*
X88434Y109429D01*
X88355Y109496D01*
X88280Y109568D01*
X88262Y109576D01*
X88247Y109589D01*
X88150Y109628D01*
X88057Y109671D01*
X88037Y109673D01*
X88019Y109681D01*
X87852Y109699D01*
X80049Y109699D01*
X80049Y111534D01*
X80222Y112181D01*
X80557Y112760D01*
X80927Y113130D01*
X80939Y113146D01*
X80954Y113159D01*
X81010Y113246D01*
X81071Y113330D01*
X81076Y113349D01*
X81087Y113366D01*
X81113Y113466D01*
X81143Y113565D01*
X81142Y113585D01*
X81147Y113604D01*
X81139Y113707D01*
X81137Y113811D01*
X81130Y113830D01*
X81128Y113850D01*
X81088Y113945D01*
X81065Y114006D01*
X81065Y114652D01*
X81062Y114672D01*
X81064Y114691D01*
X81042Y114793D01*
X81026Y114895D01*
X81016Y114912D01*
X81012Y114932D01*
X80959Y115021D01*
X80910Y115112D01*
X80896Y115126D01*
X80886Y115143D01*
X80807Y115210D01*
X80732Y115282D01*
X80714Y115290D01*
X80699Y115303D01*
X80603Y115342D01*
X80509Y115385D01*
X80489Y115387D01*
X80471Y115395D01*
X80304Y115413D01*
X71463Y115413D01*
X71372Y115399D01*
X71282Y115391D01*
X71252Y115379D01*
X71220Y115374D01*
X71139Y115331D01*
X71055Y115295D01*
X71023Y115269D01*
X71002Y115258D01*
X70980Y115235D01*
X70924Y115190D01*
X45647Y89913D01*
X29786Y89913D01*
X29766Y89910D01*
X29747Y89912D01*
X29645Y89890D01*
X29543Y89874D01*
X29526Y89864D01*
X29506Y89860D01*
X29417Y89807D01*
X29326Y89758D01*
X29312Y89744D01*
X29295Y89734D01*
X29228Y89655D01*
X29156Y89580D01*
X29148Y89562D01*
X29135Y89547D01*
X29096Y89451D01*
X29053Y89357D01*
X29051Y89337D01*
X29043Y89319D01*
X29025Y89152D01*
X29025Y86568D01*
X28132Y85675D01*
X15868Y85675D01*
G37*
%LPD*%
%LPC*%
G36*
X240828Y173653D02*
X240828Y173653D01*
X239935Y174546D01*
X239935Y176702D01*
X239932Y176722D01*
X239934Y176741D01*
X239912Y176843D01*
X239896Y176945D01*
X239886Y176962D01*
X239882Y176982D01*
X239829Y177071D01*
X239780Y177162D01*
X239766Y177176D01*
X239756Y177193D01*
X239677Y177260D01*
X239602Y177332D01*
X239584Y177340D01*
X239569Y177353D01*
X239473Y177392D01*
X239379Y177435D01*
X239359Y177437D01*
X239341Y177445D01*
X239174Y177463D01*
X201803Y177463D01*
X188546Y190720D01*
X188472Y190773D01*
X188402Y190833D01*
X188372Y190845D01*
X188346Y190864D01*
X188259Y190891D01*
X188174Y190925D01*
X188133Y190929D01*
X188111Y190936D01*
X188079Y190935D01*
X188007Y190943D01*
X184052Y190943D01*
X180943Y194052D01*
X180943Y198448D01*
X184052Y201557D01*
X188448Y201557D01*
X191557Y198448D01*
X191557Y194493D01*
X191571Y194402D01*
X191579Y194312D01*
X191591Y194282D01*
X191596Y194250D01*
X191639Y194169D01*
X191675Y194085D01*
X191701Y194053D01*
X191712Y194032D01*
X191735Y194010D01*
X191780Y193954D01*
X203474Y182260D01*
X203548Y182207D01*
X203618Y182147D01*
X203648Y182135D01*
X203674Y182116D01*
X203761Y182089D01*
X203846Y182055D01*
X203887Y182051D01*
X203909Y182044D01*
X203941Y182045D01*
X204013Y182037D01*
X239174Y182037D01*
X239194Y182040D01*
X239213Y182038D01*
X239315Y182060D01*
X239417Y182076D01*
X239434Y182086D01*
X239454Y182090D01*
X239543Y182143D01*
X239634Y182192D01*
X239648Y182206D01*
X239665Y182216D01*
X239732Y182295D01*
X239804Y182370D01*
X239812Y182388D01*
X239825Y182403D01*
X239864Y182499D01*
X239907Y182593D01*
X239909Y182613D01*
X239917Y182631D01*
X239935Y182798D01*
X239935Y184954D01*
X240828Y185847D01*
X259872Y185847D01*
X260765Y184954D01*
X260765Y174546D01*
X259872Y173653D01*
X240828Y173653D01*
G37*
%LPD*%
%LPC*%
G36*
X110381Y28635D02*
X110381Y28635D01*
X107020Y30027D01*
X104447Y32600D01*
X103055Y35961D01*
X103055Y54839D01*
X104447Y58200D01*
X107020Y60773D01*
X110381Y62165D01*
X114019Y62165D01*
X117380Y60773D01*
X119953Y58200D01*
X121345Y54839D01*
X121345Y35961D01*
X119953Y32600D01*
X117380Y30027D01*
X114019Y28635D01*
X110381Y28635D01*
G37*
%LPD*%
%LPC*%
G36*
X135781Y28635D02*
X135781Y28635D01*
X132420Y30027D01*
X129847Y32600D01*
X128455Y35961D01*
X128455Y54839D01*
X129847Y58200D01*
X132420Y60773D01*
X135781Y62165D01*
X139419Y62165D01*
X142780Y60773D01*
X145353Y58200D01*
X146745Y54839D01*
X146745Y35961D01*
X145353Y32600D01*
X142780Y30027D01*
X139419Y28635D01*
X135781Y28635D01*
G37*
%LPD*%
%LPC*%
G36*
X142412Y106975D02*
X142412Y106975D01*
X141519Y107868D01*
X141519Y114652D01*
X141516Y114672D01*
X141518Y114691D01*
X141496Y114793D01*
X141480Y114895D01*
X141470Y114912D01*
X141466Y114932D01*
X141413Y115021D01*
X141364Y115112D01*
X141350Y115126D01*
X141340Y115143D01*
X141261Y115210D01*
X141186Y115282D01*
X141168Y115290D01*
X141153Y115303D01*
X141057Y115342D01*
X140963Y115385D01*
X140943Y115387D01*
X140925Y115395D01*
X140758Y115413D01*
X122996Y115413D01*
X122976Y115410D01*
X122957Y115412D01*
X122855Y115390D01*
X122753Y115374D01*
X122736Y115364D01*
X122716Y115360D01*
X122627Y115307D01*
X122536Y115258D01*
X122522Y115244D01*
X122505Y115234D01*
X122438Y115155D01*
X122366Y115080D01*
X122358Y115062D01*
X122345Y115047D01*
X122306Y114951D01*
X122263Y114857D01*
X122261Y114837D01*
X122253Y114819D01*
X122235Y114652D01*
X122235Y114068D01*
X121342Y113175D01*
X108078Y113175D01*
X107185Y114068D01*
X107185Y121332D01*
X108078Y122225D01*
X121342Y122225D01*
X122235Y121332D01*
X122235Y120748D01*
X122238Y120728D01*
X122236Y120709D01*
X122258Y120607D01*
X122274Y120505D01*
X122284Y120488D01*
X122288Y120468D01*
X122341Y120379D01*
X122390Y120288D01*
X122404Y120274D01*
X122414Y120257D01*
X122493Y120190D01*
X122568Y120118D01*
X122586Y120110D01*
X122601Y120097D01*
X122697Y120058D01*
X122791Y120015D01*
X122811Y120013D01*
X122829Y120005D01*
X122996Y119987D01*
X140758Y119987D01*
X140778Y119990D01*
X140798Y119988D01*
X140899Y120010D01*
X141001Y120026D01*
X141018Y120036D01*
X141038Y120040D01*
X141127Y120093D01*
X141218Y120142D01*
X141232Y120156D01*
X141249Y120166D01*
X141316Y120245D01*
X141388Y120320D01*
X141396Y120338D01*
X141409Y120353D01*
X141448Y120449D01*
X141491Y120543D01*
X141493Y120563D01*
X141501Y120581D01*
X141519Y120748D01*
X141519Y121132D01*
X142412Y122025D01*
X153732Y122025D01*
X154625Y121132D01*
X154625Y107868D01*
X153732Y106975D01*
X142412Y106975D01*
G37*
%LPD*%
%LPC*%
G36*
X419052Y84693D02*
X419052Y84693D01*
X416255Y87490D01*
X416181Y87543D01*
X416111Y87603D01*
X416081Y87615D01*
X416055Y87634D01*
X415968Y87661D01*
X415883Y87695D01*
X415842Y87699D01*
X415820Y87706D01*
X415788Y87705D01*
X415717Y87713D01*
X415403Y87713D01*
X408436Y94680D01*
X408362Y94733D01*
X408292Y94793D01*
X408262Y94805D01*
X408236Y94824D01*
X408149Y94851D01*
X408064Y94885D01*
X408023Y94889D01*
X408001Y94896D01*
X407969Y94895D01*
X407897Y94903D01*
X395828Y94903D01*
X394935Y95796D01*
X394935Y106204D01*
X395828Y107097D01*
X414872Y107097D01*
X415765Y106204D01*
X415765Y95796D01*
X415314Y95346D01*
X415303Y95330D01*
X415287Y95317D01*
X415231Y95230D01*
X415171Y95146D01*
X415165Y95127D01*
X415154Y95111D01*
X415129Y95010D01*
X415098Y94911D01*
X415099Y94891D01*
X415094Y94872D01*
X415102Y94769D01*
X415105Y94665D01*
X415112Y94647D01*
X415113Y94627D01*
X415154Y94532D01*
X415189Y94434D01*
X415202Y94419D01*
X415210Y94401D01*
X415314Y94270D01*
X416126Y93458D01*
X416142Y93446D01*
X416155Y93430D01*
X416242Y93374D01*
X416326Y93314D01*
X416345Y93308D01*
X416362Y93297D01*
X416462Y93272D01*
X416561Y93242D01*
X416581Y93242D01*
X416600Y93237D01*
X416703Y93245D01*
X416807Y93248D01*
X416826Y93255D01*
X416846Y93257D01*
X416940Y93297D01*
X417038Y93333D01*
X417054Y93345D01*
X417072Y93353D01*
X417203Y93458D01*
X419052Y95307D01*
X423448Y95307D01*
X426557Y92198D01*
X426557Y87802D01*
X423448Y84693D01*
X419052Y84693D01*
G37*
%LPD*%
%LPC*%
G36*
X395828Y199903D02*
X395828Y199903D01*
X394935Y200796D01*
X394935Y211204D01*
X395828Y212097D01*
X414872Y212097D01*
X415765Y211204D01*
X415765Y200796D01*
X414872Y199903D01*
X395828Y199903D01*
G37*
%LPD*%
%LPC*%
G36*
X349146Y76085D02*
X349146Y76085D01*
X348253Y76978D01*
X348253Y96022D01*
X349146Y96915D01*
X359554Y96915D01*
X360447Y96022D01*
X360447Y76978D01*
X359554Y76085D01*
X349146Y76085D01*
G37*
%LPD*%
%LPC*%
G36*
X322646Y76085D02*
X322646Y76085D01*
X321753Y76978D01*
X321753Y96022D01*
X322646Y96915D01*
X333054Y96915D01*
X333947Y96022D01*
X333947Y76978D01*
X333054Y76085D01*
X322646Y76085D01*
G37*
%LPD*%
%LPC*%
G36*
X296146Y76085D02*
X296146Y76085D01*
X295253Y76978D01*
X295253Y96022D01*
X296146Y96915D01*
X306554Y96915D01*
X307447Y96022D01*
X307447Y76978D01*
X306554Y76085D01*
X296146Y76085D01*
G37*
%LPD*%
%LPC*%
G36*
X395828Y226153D02*
X395828Y226153D01*
X394935Y227046D01*
X394935Y237454D01*
X395828Y238347D01*
X414872Y238347D01*
X415765Y237454D01*
X415765Y227046D01*
X414872Y226153D01*
X395828Y226153D01*
G37*
%LPD*%
%LPC*%
G36*
X395828Y121153D02*
X395828Y121153D01*
X394935Y122046D01*
X394935Y132454D01*
X395828Y133347D01*
X414872Y133347D01*
X415765Y132454D01*
X415765Y122046D01*
X414872Y121153D01*
X395828Y121153D01*
G37*
%LPD*%
%LPC*%
G36*
X377146Y76085D02*
X377146Y76085D01*
X376253Y76978D01*
X376253Y96022D01*
X377146Y96915D01*
X387554Y96915D01*
X388447Y96022D01*
X388447Y76978D01*
X387554Y76085D01*
X377146Y76085D01*
G37*
%LPD*%
%LPC*%
G36*
X251873Y102523D02*
X251873Y102523D01*
X251873Y108113D01*
X259574Y108113D01*
X260221Y107940D01*
X260800Y107605D01*
X261273Y107132D01*
X261608Y106553D01*
X261781Y105906D01*
X261781Y102523D01*
X251873Y102523D01*
G37*
%LPD*%
%LPC*%
G36*
X238919Y102523D02*
X238919Y102523D01*
X238919Y105906D01*
X239092Y106553D01*
X239427Y107132D01*
X239900Y107605D01*
X240479Y107940D01*
X241126Y108113D01*
X248827Y108113D01*
X248827Y102523D01*
X238919Y102523D01*
G37*
%LPD*%
%LPC*%
G36*
X251873Y93887D02*
X251873Y93887D01*
X251873Y99477D01*
X261781Y99477D01*
X261781Y96093D01*
X261608Y95447D01*
X261273Y94868D01*
X260800Y94395D01*
X260221Y94060D01*
X259574Y93887D01*
X251873Y93887D01*
G37*
%LPD*%
%LPC*%
G36*
X241126Y93887D02*
X241126Y93887D01*
X240479Y94060D01*
X239900Y94395D01*
X239427Y94868D01*
X239092Y95447D01*
X238919Y96094D01*
X238919Y99477D01*
X248827Y99477D01*
X248827Y93887D01*
X241126Y93887D01*
G37*
%LPD*%
%LPC*%
G36*
X57123Y44018D02*
X57123Y44018D01*
X57123Y49862D01*
X63173Y49862D01*
X63820Y49689D01*
X64399Y49354D01*
X64872Y48881D01*
X65207Y48302D01*
X65380Y47655D01*
X65380Y44018D01*
X57123Y44018D01*
G37*
%LPD*%
%LPC*%
G36*
X45820Y44018D02*
X45820Y44018D01*
X45820Y47655D01*
X45993Y48302D01*
X46328Y48881D01*
X46801Y49354D01*
X47380Y49689D01*
X48027Y49862D01*
X54077Y49862D01*
X54077Y44018D01*
X45820Y44018D01*
G37*
%LPD*%
%LPC*%
G36*
X57123Y35128D02*
X57123Y35128D01*
X57123Y40972D01*
X65380Y40972D01*
X65380Y37335D01*
X65207Y36688D01*
X64872Y36109D01*
X64399Y35636D01*
X63820Y35301D01*
X63173Y35128D01*
X57123Y35128D01*
G37*
%LPD*%
%LPC*%
G36*
X48027Y35128D02*
X48027Y35128D01*
X47380Y35301D01*
X46801Y35636D01*
X46328Y36109D01*
X45993Y36688D01*
X45820Y37335D01*
X45820Y40972D01*
X54077Y40972D01*
X54077Y35128D01*
X48027Y35128D01*
G37*
%LPD*%
%LPC*%
G36*
X475373Y319551D02*
X475373Y319551D01*
X475373Y325597D01*
X480184Y325597D01*
X480831Y325424D01*
X481410Y325089D01*
X481883Y324616D01*
X482218Y324037D01*
X482391Y323390D01*
X482391Y319551D01*
X475373Y319551D01*
G37*
%LPD*%
%LPC*%
G36*
X283423Y302945D02*
X283423Y302945D01*
X283423Y308991D01*
X288234Y308991D01*
X288881Y308818D01*
X289460Y308483D01*
X289933Y308010D01*
X290268Y307431D01*
X290441Y306785D01*
X290441Y302945D01*
X283423Y302945D01*
G37*
%LPD*%
%LPC*%
G36*
X386173Y301695D02*
X386173Y301695D01*
X386173Y307741D01*
X390984Y307741D01*
X391631Y307568D01*
X392210Y307233D01*
X392683Y306760D01*
X393018Y306181D01*
X393191Y305535D01*
X393191Y301695D01*
X386173Y301695D01*
G37*
%LPD*%
%LPC*%
G36*
X66895Y285223D02*
X66895Y285223D01*
X66895Y292241D01*
X70735Y292241D01*
X71381Y292068D01*
X71960Y291733D01*
X72433Y291260D01*
X72768Y290681D01*
X72941Y290034D01*
X72941Y285223D01*
X66895Y285223D01*
G37*
%LPD*%
%LPC*%
G36*
X122145Y285223D02*
X122145Y285223D01*
X122145Y292241D01*
X125985Y292241D01*
X126631Y292068D01*
X127210Y291733D01*
X127683Y291260D01*
X128018Y290681D01*
X128191Y290034D01*
X128191Y285223D01*
X122145Y285223D01*
G37*
%LPD*%
%LPC*%
G36*
X166651Y116023D02*
X166651Y116023D01*
X166651Y123041D01*
X170490Y123041D01*
X171137Y122868D01*
X171716Y122533D01*
X172189Y122060D01*
X172524Y121481D01*
X172697Y120834D01*
X172697Y116023D01*
X166651Y116023D01*
G37*
%LPD*%
%LPC*%
G36*
X122145Y275159D02*
X122145Y275159D01*
X122145Y282177D01*
X128191Y282177D01*
X128191Y277366D01*
X128018Y276719D01*
X127683Y276140D01*
X127210Y275667D01*
X126631Y275332D01*
X125985Y275159D01*
X122145Y275159D01*
G37*
%LPD*%
%LPC*%
G36*
X376109Y301695D02*
X376109Y301695D01*
X376109Y305535D01*
X376282Y306181D01*
X376617Y306760D01*
X377090Y307233D01*
X377669Y307568D01*
X378316Y307741D01*
X383127Y307741D01*
X383127Y301695D01*
X376109Y301695D01*
G37*
%LPD*%
%LPC*%
G36*
X166651Y105959D02*
X166651Y105959D01*
X166651Y112977D01*
X172697Y112977D01*
X172697Y108166D01*
X172524Y107519D01*
X172189Y106940D01*
X171716Y106467D01*
X171137Y106132D01*
X170490Y105959D01*
X166651Y105959D01*
G37*
%LPD*%
%LPC*%
G36*
X273359Y302945D02*
X273359Y302945D01*
X273359Y306785D01*
X273532Y307431D01*
X273867Y308010D01*
X274340Y308483D01*
X274919Y308818D01*
X275566Y308991D01*
X280377Y308991D01*
X280377Y302945D01*
X273359Y302945D01*
G37*
%LPD*%
%LPC*%
G36*
X66895Y275159D02*
X66895Y275159D01*
X66895Y282177D01*
X72941Y282177D01*
X72941Y277366D01*
X72768Y276719D01*
X72433Y276140D01*
X71960Y275667D01*
X71381Y275332D01*
X70735Y275159D01*
X66895Y275159D01*
G37*
%LPD*%
%LPC*%
G36*
X465309Y319551D02*
X465309Y319551D01*
X465309Y323390D01*
X465482Y324037D01*
X465817Y324616D01*
X466290Y325089D01*
X466869Y325424D01*
X467516Y325597D01*
X472327Y325597D01*
X472327Y319551D01*
X465309Y319551D01*
G37*
%LPD*%
%LPC*%
G36*
X57803Y285223D02*
X57803Y285223D01*
X57803Y290034D01*
X57976Y290681D01*
X58311Y291260D01*
X58784Y291733D01*
X59363Y292068D01*
X60010Y292241D01*
X63849Y292241D01*
X63849Y285223D01*
X57803Y285223D01*
G37*
%LPD*%
%LPC*%
G36*
X113053Y285223D02*
X113053Y285223D01*
X113053Y290034D01*
X113226Y290681D01*
X113561Y291260D01*
X114034Y291733D01*
X114613Y292068D01*
X115260Y292241D01*
X119099Y292241D01*
X119099Y285223D01*
X113053Y285223D01*
G37*
%LPD*%
%LPC*%
G36*
X157559Y116023D02*
X157559Y116023D01*
X157559Y120834D01*
X157732Y121481D01*
X158067Y122060D01*
X158540Y122533D01*
X159119Y122868D01*
X159765Y123041D01*
X163605Y123041D01*
X163605Y116023D01*
X157559Y116023D01*
G37*
%LPD*%
%LPC*%
G36*
X283423Y293853D02*
X283423Y293853D01*
X283423Y299899D01*
X290441Y299899D01*
X290441Y296059D01*
X290268Y295413D01*
X289933Y294834D01*
X289460Y294361D01*
X288881Y294026D01*
X288234Y293853D01*
X283423Y293853D01*
G37*
%LPD*%
%LPC*%
G36*
X475373Y310459D02*
X475373Y310459D01*
X475373Y316505D01*
X482391Y316505D01*
X482391Y312665D01*
X482218Y312019D01*
X481883Y311440D01*
X481410Y310967D01*
X480831Y310632D01*
X480184Y310459D01*
X475373Y310459D01*
G37*
%LPD*%
%LPC*%
G36*
X386173Y292603D02*
X386173Y292603D01*
X386173Y298649D01*
X393191Y298649D01*
X393191Y294810D01*
X393018Y294163D01*
X392683Y293584D01*
X392210Y293111D01*
X391631Y292776D01*
X390984Y292603D01*
X386173Y292603D01*
G37*
%LPD*%
%LPC*%
G36*
X275566Y293853D02*
X275566Y293853D01*
X274919Y294026D01*
X274340Y294361D01*
X273867Y294834D01*
X273532Y295413D01*
X273359Y296059D01*
X273359Y299899D01*
X280377Y299899D01*
X280377Y293853D01*
X275566Y293853D01*
G37*
%LPD*%
%LPC*%
G36*
X378316Y292603D02*
X378316Y292603D01*
X377669Y292776D01*
X377090Y293111D01*
X376617Y293584D01*
X376282Y294163D01*
X376109Y294810D01*
X376109Y298649D01*
X383127Y298649D01*
X383127Y292603D01*
X378316Y292603D01*
G37*
%LPD*%
%LPC*%
G36*
X60010Y275159D02*
X60010Y275159D01*
X59363Y275332D01*
X58784Y275667D01*
X58311Y276140D01*
X57976Y276719D01*
X57803Y277366D01*
X57803Y282177D01*
X63849Y282177D01*
X63849Y275159D01*
X60010Y275159D01*
G37*
%LPD*%
%LPC*%
G36*
X159765Y105959D02*
X159765Y105959D01*
X159119Y106132D01*
X158540Y106467D01*
X158067Y106940D01*
X157732Y107519D01*
X157559Y108166D01*
X157559Y112977D01*
X163605Y112977D01*
X163605Y105959D01*
X159765Y105959D01*
G37*
%LPD*%
%LPC*%
G36*
X115260Y275159D02*
X115260Y275159D01*
X114613Y275332D01*
X114034Y275667D01*
X113561Y276140D01*
X113226Y276719D01*
X113053Y277366D01*
X113053Y282177D01*
X119099Y282177D01*
X119099Y275159D01*
X115260Y275159D01*
G37*
%LPD*%
%LPC*%
G36*
X467516Y310459D02*
X467516Y310459D01*
X466869Y310632D01*
X466290Y310967D01*
X465817Y311440D01*
X465482Y312019D01*
X465309Y312665D01*
X465309Y316505D01*
X472327Y316505D01*
X472327Y310459D01*
X467516Y310459D01*
G37*
%LPD*%
%LPC*%
G36*
X41973Y231923D02*
X41973Y231923D01*
X41973Y237941D01*
X46284Y237941D01*
X46931Y237768D01*
X47510Y237433D01*
X47983Y236960D01*
X48318Y236381D01*
X48491Y235734D01*
X48491Y231923D01*
X41973Y231923D01*
G37*
%LPD*%
%LPC*%
G36*
X41373Y207923D02*
X41373Y207923D01*
X41373Y213941D01*
X45684Y213941D01*
X46331Y213768D01*
X46910Y213433D01*
X47383Y212960D01*
X47718Y212381D01*
X47891Y211734D01*
X47891Y207923D01*
X41373Y207923D01*
G37*
%LPD*%
%LPC*%
G36*
X41073Y254423D02*
X41073Y254423D01*
X41073Y260441D01*
X45384Y260441D01*
X46031Y260268D01*
X46610Y259933D01*
X47083Y259460D01*
X47418Y258881D01*
X47591Y258234D01*
X47591Y254423D01*
X41073Y254423D01*
G37*
%LPD*%
%LPC*%
G36*
X23023Y123423D02*
X23023Y123423D01*
X23023Y129941D01*
X26835Y129941D01*
X27481Y129768D01*
X28060Y129433D01*
X28533Y128960D01*
X28868Y128381D01*
X29041Y127734D01*
X29041Y123423D01*
X23023Y123423D01*
G37*
%LPD*%
%LPC*%
G36*
X44623Y125923D02*
X44623Y125923D01*
X44623Y132441D01*
X48435Y132441D01*
X49081Y132268D01*
X49660Y131933D01*
X50133Y131460D01*
X50468Y130881D01*
X50641Y130234D01*
X50641Y125923D01*
X44623Y125923D01*
G37*
%LPD*%
%LPC*%
G36*
X44623Y116359D02*
X44623Y116359D01*
X44623Y122877D01*
X50641Y122877D01*
X50641Y118566D01*
X50468Y117919D01*
X50133Y117340D01*
X49660Y116867D01*
X49081Y116532D01*
X48434Y116359D01*
X44623Y116359D01*
G37*
%LPD*%
%LPC*%
G36*
X32409Y231923D02*
X32409Y231923D01*
X32409Y235734D01*
X32582Y236381D01*
X32917Y236960D01*
X33390Y237433D01*
X33969Y237768D01*
X34616Y237941D01*
X38927Y237941D01*
X38927Y231923D01*
X32409Y231923D01*
G37*
%LPD*%
%LPC*%
G36*
X31509Y254423D02*
X31509Y254423D01*
X31509Y258234D01*
X31682Y258881D01*
X32017Y259460D01*
X32490Y259933D01*
X33069Y260268D01*
X33716Y260441D01*
X38027Y260441D01*
X38027Y254423D01*
X31509Y254423D01*
G37*
%LPD*%
%LPC*%
G36*
X23023Y113859D02*
X23023Y113859D01*
X23023Y120377D01*
X29041Y120377D01*
X29041Y116066D01*
X28868Y115419D01*
X28533Y114840D01*
X28060Y114367D01*
X27481Y114032D01*
X26834Y113859D01*
X23023Y113859D01*
G37*
%LPD*%
%LPC*%
G36*
X31809Y207923D02*
X31809Y207923D01*
X31809Y211734D01*
X31982Y212381D01*
X32317Y212960D01*
X32790Y213433D01*
X33369Y213768D01*
X34016Y213941D01*
X38327Y213941D01*
X38327Y207923D01*
X31809Y207923D01*
G37*
%LPD*%
%LPC*%
G36*
X13959Y123423D02*
X13959Y123423D01*
X13959Y127734D01*
X14132Y128381D01*
X14467Y128960D01*
X14940Y129433D01*
X15519Y129768D01*
X16166Y129941D01*
X19977Y129941D01*
X19977Y123423D01*
X13959Y123423D01*
G37*
%LPD*%
%LPC*%
G36*
X35559Y125923D02*
X35559Y125923D01*
X35559Y130234D01*
X35732Y130881D01*
X36067Y131460D01*
X36540Y131933D01*
X37119Y132268D01*
X37766Y132441D01*
X41577Y132441D01*
X41577Y125923D01*
X35559Y125923D01*
G37*
%LPD*%
%LPC*%
G36*
X41373Y198859D02*
X41373Y198859D01*
X41373Y204877D01*
X47891Y204877D01*
X47891Y201065D01*
X47718Y200419D01*
X47383Y199840D01*
X46910Y199367D01*
X46331Y199032D01*
X45684Y198859D01*
X41373Y198859D01*
G37*
%LPD*%
%LPC*%
G36*
X41973Y222859D02*
X41973Y222859D01*
X41973Y228877D01*
X48491Y228877D01*
X48491Y225065D01*
X48318Y224419D01*
X47983Y223840D01*
X47510Y223367D01*
X46931Y223032D01*
X46284Y222859D01*
X41973Y222859D01*
G37*
%LPD*%
%LPC*%
G36*
X41073Y245359D02*
X41073Y245359D01*
X41073Y251377D01*
X47591Y251377D01*
X47591Y247565D01*
X47418Y246919D01*
X47083Y246340D01*
X46610Y245867D01*
X46031Y245532D01*
X45384Y245359D01*
X41073Y245359D01*
G37*
%LPD*%
%LPC*%
G36*
X16166Y113859D02*
X16166Y113859D01*
X15519Y114032D01*
X14940Y114367D01*
X14467Y114840D01*
X14132Y115419D01*
X13959Y116066D01*
X13959Y120377D01*
X19977Y120377D01*
X19977Y113859D01*
X16166Y113859D01*
G37*
%LPD*%
%LPC*%
G36*
X34016Y198859D02*
X34016Y198859D01*
X33369Y199032D01*
X32790Y199367D01*
X32317Y199840D01*
X31982Y200419D01*
X31809Y201066D01*
X31809Y204877D01*
X38327Y204877D01*
X38327Y198859D01*
X34016Y198859D01*
G37*
%LPD*%
%LPC*%
G36*
X34616Y222859D02*
X34616Y222859D01*
X33969Y223032D01*
X33390Y223367D01*
X32917Y223840D01*
X32582Y224419D01*
X32409Y225066D01*
X32409Y228877D01*
X38927Y228877D01*
X38927Y222859D01*
X34616Y222859D01*
G37*
%LPD*%
%LPC*%
G36*
X33716Y245359D02*
X33716Y245359D01*
X33069Y245532D01*
X32490Y245867D01*
X32017Y246340D01*
X31682Y246919D01*
X31509Y247566D01*
X31509Y251377D01*
X38027Y251377D01*
X38027Y245359D01*
X33716Y245359D01*
G37*
%LPD*%
%LPC*%
G36*
X37766Y116359D02*
X37766Y116359D01*
X37119Y116532D01*
X36540Y116867D01*
X36067Y117340D01*
X35732Y117919D01*
X35559Y118566D01*
X35559Y122877D01*
X41577Y122877D01*
X41577Y116359D01*
X37766Y116359D01*
G37*
%LPD*%
%LPC*%
G36*
X279849Y51549D02*
X279849Y51549D01*
X279849Y60341D01*
X281184Y60341D01*
X281831Y60168D01*
X282410Y59833D01*
X282883Y59360D01*
X283218Y58781D01*
X283391Y58134D01*
X283391Y51549D01*
X279849Y51549D01*
G37*
%LPD*%
%LPC*%
G36*
X279849Y40759D02*
X279849Y40759D01*
X279849Y49551D01*
X283391Y49551D01*
X283391Y42966D01*
X283218Y42319D01*
X282883Y41740D01*
X282410Y41267D01*
X281831Y40932D01*
X281184Y40759D01*
X279849Y40759D01*
G37*
%LPD*%
%LPC*%
G36*
X43099Y124399D02*
X43099Y124399D01*
X43099Y124401D01*
X43101Y124401D01*
X43101Y124399D01*
X43099Y124399D01*
G37*
%LPD*%
%LPC*%
G36*
X21499Y121899D02*
X21499Y121899D01*
X21499Y121901D01*
X21501Y121901D01*
X21501Y121899D01*
X21499Y121899D01*
G37*
%LPD*%
%LPC*%
G36*
X40449Y230399D02*
X40449Y230399D01*
X40449Y230401D01*
X40451Y230401D01*
X40451Y230399D01*
X40449Y230399D01*
G37*
%LPD*%
%LPC*%
G36*
X165127Y114499D02*
X165127Y114499D01*
X165127Y114501D01*
X165129Y114501D01*
X165129Y114499D01*
X165127Y114499D01*
G37*
%LPD*%
%LPC*%
G36*
X120621Y283699D02*
X120621Y283699D01*
X120621Y283701D01*
X120623Y283701D01*
X120623Y283699D01*
X120621Y283699D01*
G37*
%LPD*%
%LPC*%
G36*
X65371Y283699D02*
X65371Y283699D01*
X65371Y283701D01*
X65373Y283701D01*
X65373Y283699D01*
X65371Y283699D01*
G37*
%LPD*%
%LPC*%
G36*
X39549Y252899D02*
X39549Y252899D01*
X39549Y252901D01*
X39551Y252901D01*
X39551Y252899D01*
X39549Y252899D01*
G37*
%LPD*%
%LPC*%
G36*
X384649Y300171D02*
X384649Y300171D01*
X384649Y300173D01*
X384651Y300173D01*
X384651Y300171D01*
X384649Y300171D01*
G37*
%LPD*%
%LPC*%
G36*
X39849Y206399D02*
X39849Y206399D01*
X39849Y206401D01*
X39851Y206401D01*
X39851Y206399D01*
X39849Y206399D01*
G37*
%LPD*%
%LPC*%
G36*
X250349Y100999D02*
X250349Y100999D01*
X250349Y101001D01*
X250351Y101001D01*
X250351Y100999D01*
X250349Y100999D01*
G37*
%LPD*%
%LPC*%
G36*
X55599Y42494D02*
X55599Y42494D01*
X55599Y42496D01*
X55601Y42496D01*
X55601Y42494D01*
X55599Y42494D01*
G37*
%LPD*%
%LPC*%
G36*
X281899Y301421D02*
X281899Y301421D01*
X281899Y301423D01*
X281901Y301423D01*
X281901Y301421D01*
X281899Y301421D01*
G37*
%LPD*%
%LPC*%
G36*
X473849Y318027D02*
X473849Y318027D01*
X473849Y318029D01*
X473851Y318029D01*
X473851Y318027D01*
X473849Y318027D01*
G37*
%LPD*%
D10*
X0Y349300D02*
X0Y408250D01*
X500000Y408250D02*
X500000Y349300D01*
X499350Y388750D02*
X650Y388750D01*
X26000Y391942D01*
X26000Y385558D01*
X650Y388750D01*
X26000Y390050D01*
X26000Y387450D02*
X650Y388750D01*
X26000Y391350D01*
X26000Y386150D02*
X650Y388750D01*
X474000Y391942D02*
X499350Y388750D01*
X474000Y391942D02*
X474000Y385558D01*
X499350Y388750D01*
X474000Y390050D01*
X474000Y387450D02*
X499350Y388750D01*
X474000Y391350D01*
X474000Y386150D02*
X499350Y388750D01*
D11*
X224360Y395257D02*
X218941Y395257D01*
X224360Y395257D02*
X224478Y395259D01*
X224596Y395265D01*
X224714Y395274D01*
X224831Y395288D01*
X224948Y395305D01*
X225065Y395326D01*
X225180Y395351D01*
X225295Y395380D01*
X225409Y395413D01*
X225521Y395449D01*
X225632Y395489D01*
X225742Y395532D01*
X225851Y395579D01*
X225958Y395629D01*
X226063Y395684D01*
X226166Y395741D01*
X226267Y395802D01*
X226367Y395866D01*
X226464Y395933D01*
X226559Y396003D01*
X226651Y396077D01*
X226742Y396153D01*
X226829Y396233D01*
X226914Y396315D01*
X226996Y396400D01*
X227076Y396487D01*
X227152Y396578D01*
X227226Y396670D01*
X227296Y396765D01*
X227363Y396862D01*
X227427Y396962D01*
X227488Y397063D01*
X227545Y397166D01*
X227600Y397271D01*
X227650Y397378D01*
X227697Y397487D01*
X227740Y397597D01*
X227780Y397708D01*
X227816Y397820D01*
X227849Y397934D01*
X227878Y398049D01*
X227903Y398164D01*
X227924Y398281D01*
X227941Y398398D01*
X227955Y398515D01*
X227964Y398633D01*
X227970Y398751D01*
X227972Y398869D01*
X227972Y400676D01*
X227970Y400794D01*
X227964Y400912D01*
X227955Y401030D01*
X227941Y401147D01*
X227924Y401264D01*
X227903Y401381D01*
X227878Y401496D01*
X227849Y401611D01*
X227816Y401725D01*
X227780Y401837D01*
X227740Y401948D01*
X227697Y402058D01*
X227650Y402167D01*
X227600Y402274D01*
X227545Y402379D01*
X227488Y402482D01*
X227427Y402583D01*
X227363Y402683D01*
X227296Y402780D01*
X227226Y402875D01*
X227152Y402967D01*
X227076Y403058D01*
X226996Y403145D01*
X226914Y403230D01*
X226829Y403312D01*
X226742Y403392D01*
X226651Y403468D01*
X226559Y403542D01*
X226464Y403612D01*
X226367Y403679D01*
X226267Y403743D01*
X226166Y403804D01*
X226063Y403861D01*
X225958Y403916D01*
X225851Y403966D01*
X225742Y404013D01*
X225632Y404056D01*
X225521Y404096D01*
X225409Y404132D01*
X225295Y404165D01*
X225180Y404194D01*
X225065Y404219D01*
X224948Y404240D01*
X224831Y404257D01*
X224714Y404271D01*
X224596Y404280D01*
X224478Y404286D01*
X224360Y404288D01*
X218941Y404288D01*
X218941Y411513D01*
X227972Y411513D01*
X235928Y409255D02*
X235791Y408966D01*
X235661Y408674D01*
X235538Y408378D01*
X235423Y408080D01*
X235314Y407779D01*
X235213Y407476D01*
X235119Y407170D01*
X235032Y406863D01*
X234953Y406553D01*
X234881Y406241D01*
X234817Y405928D01*
X234760Y405613D01*
X234710Y405297D01*
X234668Y404980D01*
X234634Y404662D01*
X234607Y404344D01*
X234588Y404024D01*
X234577Y403705D01*
X234573Y403385D01*
X235927Y409256D02*
X235966Y409364D01*
X236009Y409471D01*
X236055Y409576D01*
X236106Y409680D01*
X236159Y409782D01*
X236216Y409882D01*
X236277Y409980D01*
X236341Y410075D01*
X236408Y410169D01*
X236479Y410260D01*
X236552Y410349D01*
X236629Y410435D01*
X236708Y410518D01*
X236790Y410599D01*
X236875Y410677D01*
X236963Y410751D01*
X237053Y410823D01*
X237145Y410891D01*
X237240Y410957D01*
X237337Y411019D01*
X237436Y411077D01*
X237538Y411133D01*
X237640Y411184D01*
X237745Y411232D01*
X237851Y411277D01*
X237959Y411318D01*
X238068Y411355D01*
X238178Y411388D01*
X238290Y411417D01*
X238402Y411443D01*
X238515Y411465D01*
X238629Y411482D01*
X238743Y411496D01*
X238858Y411506D01*
X238973Y411512D01*
X239088Y411514D01*
X239088Y411513D02*
X239203Y411511D01*
X239318Y411505D01*
X239433Y411495D01*
X239547Y411481D01*
X239661Y411464D01*
X239774Y411442D01*
X239886Y411416D01*
X239998Y411387D01*
X240108Y411354D01*
X240217Y411317D01*
X240325Y411276D01*
X240431Y411231D01*
X240536Y411183D01*
X240638Y411132D01*
X240739Y411076D01*
X240839Y411018D01*
X240936Y410956D01*
X241030Y410891D01*
X241123Y410822D01*
X241213Y410750D01*
X241301Y410676D01*
X241386Y410598D01*
X241468Y410517D01*
X241547Y410434D01*
X241624Y410348D01*
X241697Y410259D01*
X241768Y410168D01*
X241835Y410074D01*
X241899Y409979D01*
X241960Y409881D01*
X242017Y409781D01*
X242070Y409679D01*
X242121Y409575D01*
X242167Y409470D01*
X242210Y409363D01*
X242249Y409255D01*
X242248Y409255D02*
X242385Y408966D01*
X242515Y408674D01*
X242638Y408378D01*
X242753Y408080D01*
X242862Y407779D01*
X242963Y407476D01*
X243057Y407170D01*
X243144Y406863D01*
X243223Y406553D01*
X243295Y406241D01*
X243359Y405928D01*
X243416Y405613D01*
X243466Y405297D01*
X243508Y404980D01*
X243542Y404662D01*
X243569Y404344D01*
X243588Y404024D01*
X243599Y403705D01*
X243603Y403385D01*
X234573Y403385D02*
X234577Y403065D01*
X234588Y402746D01*
X234607Y402426D01*
X234634Y402108D01*
X234668Y401790D01*
X234710Y401473D01*
X234760Y401157D01*
X234817Y400842D01*
X234881Y400529D01*
X234953Y400217D01*
X235032Y399907D01*
X235119Y399600D01*
X235213Y399294D01*
X235314Y398991D01*
X235423Y398690D01*
X235538Y398392D01*
X235661Y398096D01*
X235791Y397804D01*
X235928Y397515D01*
X235927Y397515D02*
X235966Y397407D01*
X236009Y397300D01*
X236055Y397195D01*
X236106Y397091D01*
X236159Y396989D01*
X236216Y396889D01*
X236277Y396791D01*
X236341Y396696D01*
X236408Y396602D01*
X236479Y396511D01*
X236552Y396422D01*
X236629Y396336D01*
X236708Y396253D01*
X236790Y396172D01*
X236875Y396094D01*
X236963Y396020D01*
X237053Y395948D01*
X237146Y395879D01*
X237240Y395814D01*
X237337Y395752D01*
X237437Y395694D01*
X237538Y395638D01*
X237640Y395587D01*
X237745Y395539D01*
X237851Y395494D01*
X237959Y395453D01*
X238068Y395416D01*
X238178Y395383D01*
X238290Y395354D01*
X238402Y395328D01*
X238515Y395306D01*
X238629Y395289D01*
X238743Y395275D01*
X238858Y395265D01*
X238973Y395259D01*
X239088Y395257D01*
X242248Y397515D02*
X242385Y397804D01*
X242515Y398096D01*
X242638Y398392D01*
X242753Y398690D01*
X242862Y398991D01*
X242963Y399294D01*
X243057Y399600D01*
X243144Y399907D01*
X243223Y400217D01*
X243295Y400529D01*
X243359Y400842D01*
X243416Y401157D01*
X243466Y401473D01*
X243508Y401790D01*
X243542Y402108D01*
X243569Y402426D01*
X243588Y402746D01*
X243599Y403065D01*
X243603Y403385D01*
X242249Y397515D02*
X242210Y397407D01*
X242167Y397300D01*
X242121Y397195D01*
X242070Y397091D01*
X242017Y396989D01*
X241960Y396889D01*
X241899Y396791D01*
X241835Y396696D01*
X241768Y396602D01*
X241697Y396511D01*
X241624Y396422D01*
X241547Y396336D01*
X241468Y396253D01*
X241386Y396172D01*
X241301Y396094D01*
X241213Y396020D01*
X241123Y395948D01*
X241030Y395879D01*
X240936Y395814D01*
X240839Y395752D01*
X240739Y395694D01*
X240638Y395638D01*
X240535Y395587D01*
X240431Y395539D01*
X240325Y395494D01*
X240217Y395453D01*
X240108Y395416D01*
X239998Y395383D01*
X239886Y395354D01*
X239774Y395328D01*
X239661Y395306D01*
X239547Y395289D01*
X239433Y395275D01*
X239318Y395265D01*
X239203Y395259D01*
X239088Y395257D01*
X235476Y398869D02*
X242701Y407901D01*
X249578Y396160D02*
X249578Y395257D01*
X249578Y396160D02*
X250481Y396160D01*
X250481Y395257D01*
X249578Y395257D01*
X256456Y403385D02*
X256460Y403705D01*
X256471Y404024D01*
X256490Y404344D01*
X256517Y404662D01*
X256551Y404980D01*
X256593Y405297D01*
X256643Y405613D01*
X256700Y405928D01*
X256764Y406241D01*
X256836Y406553D01*
X256915Y406863D01*
X257002Y407170D01*
X257096Y407476D01*
X257197Y407779D01*
X257306Y408080D01*
X257421Y408378D01*
X257544Y408674D01*
X257674Y408966D01*
X257811Y409255D01*
X257811Y409256D02*
X257850Y409364D01*
X257893Y409471D01*
X257939Y409576D01*
X257990Y409680D01*
X258043Y409782D01*
X258100Y409882D01*
X258161Y409980D01*
X258225Y410075D01*
X258292Y410169D01*
X258363Y410260D01*
X258436Y410349D01*
X258513Y410435D01*
X258592Y410518D01*
X258674Y410599D01*
X258759Y410677D01*
X258847Y410751D01*
X258937Y410823D01*
X259029Y410891D01*
X259124Y410957D01*
X259221Y411019D01*
X259320Y411077D01*
X259422Y411133D01*
X259524Y411184D01*
X259629Y411232D01*
X259735Y411277D01*
X259843Y411318D01*
X259952Y411355D01*
X260062Y411388D01*
X260174Y411417D01*
X260286Y411443D01*
X260399Y411465D01*
X260513Y411482D01*
X260627Y411496D01*
X260742Y411506D01*
X260857Y411512D01*
X260972Y411514D01*
X260972Y411513D02*
X261087Y411511D01*
X261202Y411505D01*
X261317Y411495D01*
X261431Y411481D01*
X261545Y411464D01*
X261658Y411442D01*
X261770Y411416D01*
X261882Y411387D01*
X261992Y411354D01*
X262101Y411317D01*
X262209Y411276D01*
X262315Y411231D01*
X262420Y411183D01*
X262522Y411132D01*
X262623Y411076D01*
X262723Y411018D01*
X262820Y410956D01*
X262914Y410891D01*
X263007Y410822D01*
X263097Y410750D01*
X263185Y410676D01*
X263270Y410598D01*
X263352Y410517D01*
X263431Y410434D01*
X263508Y410348D01*
X263581Y410259D01*
X263652Y410168D01*
X263719Y410074D01*
X263783Y409979D01*
X263844Y409881D01*
X263901Y409781D01*
X263954Y409679D01*
X264005Y409575D01*
X264051Y409470D01*
X264094Y409363D01*
X264133Y409255D01*
X264132Y409255D02*
X264269Y408966D01*
X264399Y408674D01*
X264522Y408378D01*
X264637Y408080D01*
X264746Y407779D01*
X264847Y407476D01*
X264941Y407170D01*
X265028Y406863D01*
X265107Y406553D01*
X265179Y406241D01*
X265243Y405928D01*
X265300Y405613D01*
X265350Y405297D01*
X265392Y404980D01*
X265426Y404662D01*
X265453Y404344D01*
X265472Y404024D01*
X265483Y403705D01*
X265487Y403385D01*
X256457Y403385D02*
X256461Y403065D01*
X256472Y402746D01*
X256491Y402426D01*
X256518Y402108D01*
X256552Y401790D01*
X256594Y401473D01*
X256644Y401157D01*
X256701Y400842D01*
X256765Y400529D01*
X256837Y400217D01*
X256916Y399907D01*
X257003Y399600D01*
X257097Y399294D01*
X257198Y398991D01*
X257307Y398690D01*
X257422Y398392D01*
X257545Y398096D01*
X257675Y397804D01*
X257812Y397515D01*
X257811Y397515D02*
X257850Y397407D01*
X257893Y397300D01*
X257939Y397195D01*
X257990Y397091D01*
X258043Y396989D01*
X258100Y396889D01*
X258161Y396791D01*
X258225Y396696D01*
X258292Y396602D01*
X258363Y396511D01*
X258436Y396422D01*
X258513Y396336D01*
X258592Y396253D01*
X258674Y396172D01*
X258759Y396094D01*
X258847Y396020D01*
X258937Y395948D01*
X259030Y395879D01*
X259124Y395814D01*
X259221Y395752D01*
X259321Y395694D01*
X259422Y395638D01*
X259524Y395587D01*
X259629Y395539D01*
X259735Y395494D01*
X259843Y395453D01*
X259952Y395416D01*
X260062Y395383D01*
X260174Y395354D01*
X260286Y395328D01*
X260399Y395306D01*
X260513Y395289D01*
X260627Y395275D01*
X260742Y395265D01*
X260857Y395259D01*
X260972Y395257D01*
X264132Y397515D02*
X264269Y397804D01*
X264399Y398096D01*
X264522Y398392D01*
X264637Y398690D01*
X264746Y398991D01*
X264847Y399294D01*
X264941Y399600D01*
X265028Y399907D01*
X265107Y400217D01*
X265179Y400529D01*
X265243Y400842D01*
X265300Y401157D01*
X265350Y401473D01*
X265392Y401790D01*
X265426Y402108D01*
X265453Y402426D01*
X265472Y402746D01*
X265483Y403065D01*
X265487Y403385D01*
X264133Y397515D02*
X264094Y397407D01*
X264051Y397300D01*
X264005Y397195D01*
X263954Y397091D01*
X263901Y396989D01*
X263844Y396889D01*
X263783Y396791D01*
X263719Y396696D01*
X263652Y396602D01*
X263581Y396511D01*
X263508Y396422D01*
X263431Y396336D01*
X263352Y396253D01*
X263270Y396172D01*
X263185Y396094D01*
X263097Y396020D01*
X263007Y395948D01*
X262914Y395879D01*
X262820Y395814D01*
X262723Y395752D01*
X262623Y395694D01*
X262522Y395638D01*
X262419Y395587D01*
X262315Y395539D01*
X262209Y395494D01*
X262101Y395453D01*
X261992Y395416D01*
X261882Y395383D01*
X261770Y395354D01*
X261658Y395328D01*
X261545Y395306D01*
X261431Y395289D01*
X261317Y395275D01*
X261202Y395265D01*
X261087Y395259D01*
X260972Y395257D01*
X257359Y398869D02*
X264584Y407901D01*
X272088Y403385D02*
X272092Y403705D01*
X272103Y404024D01*
X272122Y404344D01*
X272149Y404662D01*
X272183Y404980D01*
X272225Y405297D01*
X272275Y405613D01*
X272332Y405928D01*
X272396Y406241D01*
X272468Y406553D01*
X272547Y406863D01*
X272634Y407170D01*
X272728Y407476D01*
X272829Y407779D01*
X272938Y408080D01*
X273053Y408378D01*
X273176Y408674D01*
X273306Y408966D01*
X273443Y409255D01*
X273442Y409256D02*
X273481Y409364D01*
X273524Y409471D01*
X273570Y409576D01*
X273621Y409680D01*
X273674Y409782D01*
X273731Y409882D01*
X273792Y409980D01*
X273856Y410075D01*
X273923Y410169D01*
X273994Y410260D01*
X274067Y410349D01*
X274144Y410435D01*
X274223Y410518D01*
X274305Y410599D01*
X274390Y410677D01*
X274478Y410751D01*
X274568Y410823D01*
X274660Y410891D01*
X274755Y410957D01*
X274852Y411019D01*
X274951Y411077D01*
X275053Y411133D01*
X275155Y411184D01*
X275260Y411232D01*
X275366Y411277D01*
X275474Y411318D01*
X275583Y411355D01*
X275693Y411388D01*
X275805Y411417D01*
X275917Y411443D01*
X276030Y411465D01*
X276144Y411482D01*
X276258Y411496D01*
X276373Y411506D01*
X276488Y411512D01*
X276603Y411514D01*
X276603Y411513D02*
X276718Y411511D01*
X276833Y411505D01*
X276948Y411495D01*
X277062Y411481D01*
X277176Y411464D01*
X277289Y411442D01*
X277401Y411416D01*
X277513Y411387D01*
X277623Y411354D01*
X277732Y411317D01*
X277840Y411276D01*
X277946Y411231D01*
X278051Y411183D01*
X278153Y411132D01*
X278254Y411076D01*
X278354Y411018D01*
X278451Y410956D01*
X278545Y410891D01*
X278638Y410822D01*
X278728Y410750D01*
X278816Y410676D01*
X278901Y410598D01*
X278983Y410517D01*
X279062Y410434D01*
X279139Y410348D01*
X279212Y410259D01*
X279283Y410168D01*
X279350Y410074D01*
X279414Y409979D01*
X279475Y409881D01*
X279532Y409781D01*
X279585Y409679D01*
X279636Y409575D01*
X279682Y409470D01*
X279725Y409363D01*
X279764Y409255D01*
X279763Y409255D02*
X279900Y408966D01*
X280030Y408674D01*
X280153Y408378D01*
X280268Y408080D01*
X280377Y407779D01*
X280478Y407476D01*
X280572Y407170D01*
X280659Y406863D01*
X280738Y406553D01*
X280810Y406241D01*
X280874Y405928D01*
X280931Y405613D01*
X280981Y405297D01*
X281023Y404980D01*
X281057Y404662D01*
X281084Y404344D01*
X281103Y404024D01*
X281114Y403705D01*
X281118Y403385D01*
X272088Y403385D02*
X272092Y403065D01*
X272103Y402746D01*
X272122Y402426D01*
X272149Y402108D01*
X272183Y401790D01*
X272225Y401473D01*
X272275Y401157D01*
X272332Y400842D01*
X272396Y400529D01*
X272468Y400217D01*
X272547Y399907D01*
X272634Y399600D01*
X272728Y399294D01*
X272829Y398991D01*
X272938Y398690D01*
X273053Y398392D01*
X273176Y398096D01*
X273306Y397804D01*
X273443Y397515D01*
X273442Y397515D02*
X273481Y397407D01*
X273524Y397300D01*
X273570Y397195D01*
X273621Y397091D01*
X273674Y396989D01*
X273731Y396889D01*
X273792Y396791D01*
X273856Y396696D01*
X273923Y396602D01*
X273994Y396511D01*
X274067Y396422D01*
X274144Y396336D01*
X274223Y396253D01*
X274305Y396172D01*
X274390Y396094D01*
X274478Y396020D01*
X274568Y395948D01*
X274661Y395879D01*
X274755Y395814D01*
X274852Y395752D01*
X274952Y395694D01*
X275053Y395638D01*
X275155Y395587D01*
X275260Y395539D01*
X275366Y395494D01*
X275474Y395453D01*
X275583Y395416D01*
X275693Y395383D01*
X275805Y395354D01*
X275917Y395328D01*
X276030Y395306D01*
X276144Y395289D01*
X276258Y395275D01*
X276373Y395265D01*
X276488Y395259D01*
X276603Y395257D01*
X279763Y397515D02*
X279900Y397804D01*
X280030Y398096D01*
X280153Y398392D01*
X280268Y398690D01*
X280377Y398991D01*
X280478Y399294D01*
X280572Y399600D01*
X280659Y399907D01*
X280738Y400217D01*
X280810Y400529D01*
X280874Y400842D01*
X280931Y401157D01*
X280981Y401473D01*
X281023Y401790D01*
X281057Y402108D01*
X281084Y402426D01*
X281103Y402746D01*
X281114Y403065D01*
X281118Y403385D01*
X279764Y397515D02*
X279725Y397407D01*
X279682Y397300D01*
X279636Y397195D01*
X279585Y397091D01*
X279532Y396989D01*
X279475Y396889D01*
X279414Y396791D01*
X279350Y396696D01*
X279283Y396602D01*
X279212Y396511D01*
X279139Y396422D01*
X279062Y396336D01*
X278983Y396253D01*
X278901Y396172D01*
X278816Y396094D01*
X278728Y396020D01*
X278638Y395948D01*
X278545Y395879D01*
X278451Y395814D01*
X278354Y395752D01*
X278254Y395694D01*
X278153Y395638D01*
X278050Y395587D01*
X277946Y395539D01*
X277840Y395494D01*
X277732Y395453D01*
X277623Y395416D01*
X277513Y395383D01*
X277401Y395354D01*
X277289Y395328D01*
X277176Y395306D01*
X277062Y395289D01*
X276948Y395275D01*
X276833Y395265D01*
X276718Y395259D01*
X276603Y395257D01*
X272991Y398869D02*
X280215Y407901D01*
D10*
X0Y0D02*
X0Y-45750D01*
X225000Y-45750D02*
X225000Y0D01*
X224350Y-26250D02*
X650Y-26250D01*
X26000Y-23058D01*
X26000Y-29442D01*
X650Y-26250D01*
X26000Y-24950D01*
X26000Y-27550D02*
X650Y-26250D01*
X26000Y-23650D01*
X26000Y-28850D02*
X650Y-26250D01*
X199000Y-23058D02*
X224350Y-26250D01*
X199000Y-23058D02*
X199000Y-29442D01*
X224350Y-26250D01*
X199000Y-24950D01*
X199000Y-27550D02*
X224350Y-26250D01*
X199000Y-23650D01*
X199000Y-28850D02*
X224350Y-26250D01*
D11*
X90472Y-7551D02*
X90470Y-7426D01*
X90464Y-7301D01*
X90455Y-7176D01*
X90441Y-7052D01*
X90424Y-6928D01*
X90403Y-6804D01*
X90378Y-6682D01*
X90349Y-6560D01*
X90317Y-6439D01*
X90281Y-6319D01*
X90241Y-6200D01*
X90198Y-6083D01*
X90151Y-5967D01*
X90100Y-5852D01*
X90046Y-5740D01*
X89988Y-5628D01*
X89928Y-5519D01*
X89863Y-5412D01*
X89796Y-5306D01*
X89725Y-5203D01*
X89651Y-5102D01*
X89574Y-5003D01*
X89494Y-4907D01*
X89411Y-4813D01*
X89326Y-4722D01*
X89237Y-4633D01*
X89146Y-4548D01*
X89052Y-4465D01*
X88956Y-4385D01*
X88857Y-4308D01*
X88756Y-4234D01*
X88653Y-4163D01*
X88547Y-4096D01*
X88440Y-4031D01*
X88331Y-3971D01*
X88219Y-3913D01*
X88107Y-3859D01*
X87992Y-3808D01*
X87876Y-3761D01*
X87759Y-3718D01*
X87640Y-3678D01*
X87520Y-3642D01*
X87399Y-3610D01*
X87277Y-3581D01*
X87155Y-3556D01*
X87031Y-3535D01*
X86907Y-3518D01*
X86783Y-3504D01*
X86658Y-3495D01*
X86533Y-3489D01*
X86408Y-3487D01*
X86265Y-3489D01*
X86123Y-3495D01*
X85980Y-3505D01*
X85838Y-3518D01*
X85697Y-3536D01*
X85555Y-3557D01*
X85415Y-3582D01*
X85275Y-3611D01*
X85136Y-3644D01*
X84998Y-3681D01*
X84861Y-3721D01*
X84726Y-3765D01*
X84591Y-3813D01*
X84458Y-3865D01*
X84326Y-3920D01*
X84196Y-3979D01*
X84068Y-4041D01*
X83941Y-4107D01*
X83816Y-4176D01*
X83693Y-4248D01*
X83572Y-4324D01*
X83454Y-4403D01*
X83337Y-4486D01*
X83223Y-4571D01*
X83111Y-4660D01*
X83002Y-4751D01*
X82895Y-4846D01*
X82790Y-4943D01*
X82689Y-5044D01*
X82590Y-5147D01*
X82494Y-5252D01*
X82401Y-5361D01*
X82311Y-5472D01*
X82224Y-5585D01*
X82140Y-5700D01*
X82060Y-5818D01*
X81982Y-5938D01*
X81908Y-6060D01*
X81838Y-6184D01*
X81770Y-6310D01*
X81707Y-6438D01*
X81646Y-6567D01*
X81589Y-6698D01*
X81536Y-6830D01*
X81487Y-6964D01*
X81441Y-7099D01*
X89117Y-10712D02*
X89211Y-10620D01*
X89301Y-10526D01*
X89389Y-10429D01*
X89474Y-10329D01*
X89556Y-10227D01*
X89634Y-10122D01*
X89710Y-10015D01*
X89782Y-9906D01*
X89851Y-9795D01*
X89917Y-9681D01*
X89979Y-9566D01*
X90038Y-9449D01*
X90093Y-9330D01*
X90144Y-9210D01*
X90192Y-9088D01*
X90237Y-8965D01*
X90277Y-8841D01*
X90314Y-8715D01*
X90347Y-8588D01*
X90376Y-8461D01*
X90402Y-8332D01*
X90423Y-8203D01*
X90441Y-8073D01*
X90454Y-7943D01*
X90464Y-7813D01*
X90470Y-7682D01*
X90472Y-7551D01*
X89118Y-10712D02*
X81441Y-19743D01*
X90472Y-19743D01*
X106104Y-7551D02*
X106102Y-7426D01*
X106096Y-7301D01*
X106087Y-7176D01*
X106073Y-7052D01*
X106056Y-6928D01*
X106035Y-6804D01*
X106010Y-6682D01*
X105981Y-6560D01*
X105949Y-6439D01*
X105913Y-6319D01*
X105873Y-6200D01*
X105830Y-6083D01*
X105783Y-5967D01*
X105732Y-5852D01*
X105678Y-5740D01*
X105620Y-5628D01*
X105560Y-5519D01*
X105495Y-5412D01*
X105428Y-5306D01*
X105357Y-5203D01*
X105283Y-5102D01*
X105206Y-5003D01*
X105126Y-4907D01*
X105043Y-4813D01*
X104958Y-4722D01*
X104869Y-4633D01*
X104778Y-4548D01*
X104684Y-4465D01*
X104588Y-4385D01*
X104489Y-4308D01*
X104388Y-4234D01*
X104285Y-4163D01*
X104179Y-4096D01*
X104072Y-4031D01*
X103963Y-3971D01*
X103851Y-3913D01*
X103739Y-3859D01*
X103624Y-3808D01*
X103508Y-3761D01*
X103391Y-3718D01*
X103272Y-3678D01*
X103152Y-3642D01*
X103031Y-3610D01*
X102909Y-3581D01*
X102787Y-3556D01*
X102663Y-3535D01*
X102539Y-3518D01*
X102415Y-3504D01*
X102290Y-3495D01*
X102165Y-3489D01*
X102040Y-3487D01*
X101897Y-3489D01*
X101755Y-3495D01*
X101612Y-3505D01*
X101470Y-3518D01*
X101329Y-3536D01*
X101187Y-3557D01*
X101047Y-3582D01*
X100907Y-3611D01*
X100768Y-3644D01*
X100630Y-3681D01*
X100493Y-3721D01*
X100358Y-3765D01*
X100223Y-3813D01*
X100090Y-3865D01*
X99958Y-3920D01*
X99828Y-3979D01*
X99700Y-4041D01*
X99573Y-4107D01*
X99448Y-4176D01*
X99325Y-4248D01*
X99204Y-4324D01*
X99086Y-4403D01*
X98969Y-4486D01*
X98855Y-4571D01*
X98743Y-4660D01*
X98634Y-4751D01*
X98527Y-4846D01*
X98422Y-4943D01*
X98321Y-5044D01*
X98222Y-5147D01*
X98126Y-5252D01*
X98033Y-5361D01*
X97943Y-5472D01*
X97856Y-5585D01*
X97772Y-5700D01*
X97692Y-5818D01*
X97614Y-5938D01*
X97540Y-6060D01*
X97470Y-6184D01*
X97402Y-6310D01*
X97339Y-6438D01*
X97278Y-6567D01*
X97221Y-6698D01*
X97168Y-6830D01*
X97119Y-6964D01*
X97073Y-7099D01*
X104749Y-10712D02*
X104843Y-10620D01*
X104933Y-10526D01*
X105021Y-10429D01*
X105106Y-10329D01*
X105188Y-10227D01*
X105266Y-10122D01*
X105342Y-10015D01*
X105414Y-9906D01*
X105483Y-9795D01*
X105549Y-9681D01*
X105611Y-9566D01*
X105670Y-9449D01*
X105725Y-9330D01*
X105776Y-9210D01*
X105824Y-9088D01*
X105869Y-8965D01*
X105909Y-8841D01*
X105946Y-8715D01*
X105979Y-8588D01*
X106008Y-8461D01*
X106034Y-8332D01*
X106055Y-8203D01*
X106073Y-8073D01*
X106086Y-7943D01*
X106096Y-7813D01*
X106102Y-7682D01*
X106104Y-7551D01*
X104749Y-10712D02*
X97073Y-19743D01*
X106104Y-19743D01*
X112078Y-19743D02*
X112078Y-18840D01*
X112981Y-18840D01*
X112981Y-19743D01*
X112078Y-19743D01*
X118956Y-19743D02*
X124375Y-19743D01*
X124493Y-19741D01*
X124611Y-19735D01*
X124729Y-19726D01*
X124846Y-19712D01*
X124963Y-19695D01*
X125080Y-19674D01*
X125195Y-19649D01*
X125310Y-19620D01*
X125424Y-19587D01*
X125536Y-19551D01*
X125647Y-19511D01*
X125757Y-19468D01*
X125866Y-19421D01*
X125973Y-19371D01*
X126078Y-19316D01*
X126181Y-19259D01*
X126282Y-19198D01*
X126382Y-19134D01*
X126479Y-19067D01*
X126574Y-18997D01*
X126666Y-18923D01*
X126757Y-18847D01*
X126844Y-18767D01*
X126929Y-18685D01*
X127011Y-18600D01*
X127091Y-18513D01*
X127167Y-18422D01*
X127241Y-18330D01*
X127311Y-18235D01*
X127378Y-18138D01*
X127442Y-18038D01*
X127503Y-17937D01*
X127560Y-17834D01*
X127615Y-17729D01*
X127665Y-17622D01*
X127712Y-17513D01*
X127755Y-17403D01*
X127795Y-17292D01*
X127831Y-17180D01*
X127864Y-17066D01*
X127893Y-16951D01*
X127918Y-16836D01*
X127939Y-16719D01*
X127956Y-16602D01*
X127970Y-16485D01*
X127979Y-16367D01*
X127985Y-16249D01*
X127987Y-16131D01*
X127987Y-14324D01*
X127985Y-14206D01*
X127979Y-14088D01*
X127970Y-13970D01*
X127956Y-13853D01*
X127939Y-13736D01*
X127918Y-13619D01*
X127893Y-13504D01*
X127864Y-13389D01*
X127831Y-13275D01*
X127795Y-13163D01*
X127755Y-13052D01*
X127712Y-12942D01*
X127665Y-12833D01*
X127615Y-12726D01*
X127560Y-12621D01*
X127503Y-12518D01*
X127442Y-12417D01*
X127378Y-12317D01*
X127311Y-12220D01*
X127241Y-12125D01*
X127167Y-12033D01*
X127091Y-11942D01*
X127011Y-11855D01*
X126929Y-11770D01*
X126844Y-11688D01*
X126757Y-11608D01*
X126666Y-11532D01*
X126574Y-11458D01*
X126479Y-11388D01*
X126382Y-11321D01*
X126282Y-11257D01*
X126181Y-11196D01*
X126078Y-11139D01*
X125973Y-11084D01*
X125866Y-11034D01*
X125757Y-10987D01*
X125647Y-10944D01*
X125536Y-10904D01*
X125424Y-10868D01*
X125310Y-10835D01*
X125195Y-10806D01*
X125080Y-10781D01*
X124963Y-10760D01*
X124846Y-10743D01*
X124729Y-10729D01*
X124611Y-10720D01*
X124493Y-10714D01*
X124375Y-10712D01*
X118956Y-10712D01*
X118956Y-3487D01*
X127987Y-3487D01*
X135943Y-5745D02*
X135806Y-6034D01*
X135676Y-6326D01*
X135553Y-6622D01*
X135438Y-6920D01*
X135329Y-7221D01*
X135228Y-7524D01*
X135134Y-7830D01*
X135047Y-8137D01*
X134968Y-8447D01*
X134896Y-8759D01*
X134832Y-9072D01*
X134775Y-9387D01*
X134725Y-9703D01*
X134683Y-10020D01*
X134649Y-10338D01*
X134622Y-10656D01*
X134603Y-10976D01*
X134592Y-11295D01*
X134588Y-11615D01*
X135943Y-5744D02*
X135982Y-5636D01*
X136025Y-5529D01*
X136071Y-5424D01*
X136121Y-5321D01*
X136175Y-5219D01*
X136232Y-5119D01*
X136293Y-5021D01*
X136357Y-4925D01*
X136424Y-4832D01*
X136494Y-4741D01*
X136568Y-4652D01*
X136644Y-4566D01*
X136724Y-4483D01*
X136806Y-4402D01*
X136891Y-4324D01*
X136978Y-4250D01*
X137069Y-4178D01*
X137161Y-4109D01*
X137256Y-4044D01*
X137353Y-3982D01*
X137452Y-3923D01*
X137553Y-3868D01*
X137656Y-3817D01*
X137761Y-3769D01*
X137867Y-3724D01*
X137974Y-3683D01*
X138083Y-3646D01*
X138194Y-3613D01*
X138305Y-3584D01*
X138417Y-3558D01*
X138530Y-3536D01*
X138644Y-3519D01*
X138758Y-3505D01*
X138873Y-3495D01*
X138988Y-3489D01*
X139103Y-3487D01*
X139218Y-3489D01*
X139333Y-3495D01*
X139448Y-3505D01*
X139562Y-3519D01*
X139676Y-3536D01*
X139789Y-3558D01*
X139901Y-3584D01*
X140013Y-3613D01*
X140123Y-3646D01*
X140232Y-3683D01*
X140340Y-3724D01*
X140446Y-3769D01*
X140551Y-3817D01*
X140653Y-3868D01*
X140755Y-3924D01*
X140854Y-3982D01*
X140951Y-4044D01*
X141046Y-4110D01*
X141138Y-4178D01*
X141228Y-4250D01*
X141316Y-4324D01*
X141401Y-4402D01*
X141483Y-4483D01*
X141562Y-4566D01*
X141639Y-4652D01*
X141712Y-4741D01*
X141783Y-4832D01*
X141850Y-4926D01*
X141914Y-5021D01*
X141975Y-5119D01*
X142032Y-5219D01*
X142085Y-5321D01*
X142136Y-5425D01*
X142182Y-5530D01*
X142225Y-5637D01*
X142264Y-5745D01*
X142263Y-5745D02*
X142400Y-6034D01*
X142530Y-6326D01*
X142653Y-6622D01*
X142768Y-6920D01*
X142877Y-7221D01*
X142978Y-7524D01*
X143072Y-7830D01*
X143159Y-8137D01*
X143238Y-8447D01*
X143310Y-8759D01*
X143374Y-9072D01*
X143431Y-9387D01*
X143481Y-9703D01*
X143523Y-10020D01*
X143557Y-10338D01*
X143584Y-10656D01*
X143603Y-10976D01*
X143614Y-11295D01*
X143618Y-11615D01*
X134588Y-11615D02*
X134592Y-11935D01*
X134603Y-12254D01*
X134622Y-12574D01*
X134649Y-12892D01*
X134683Y-13210D01*
X134725Y-13527D01*
X134775Y-13843D01*
X134832Y-14158D01*
X134896Y-14471D01*
X134968Y-14783D01*
X135047Y-15093D01*
X135134Y-15400D01*
X135228Y-15706D01*
X135329Y-16009D01*
X135438Y-16310D01*
X135553Y-16608D01*
X135676Y-16904D01*
X135806Y-17196D01*
X135943Y-17485D01*
X135942Y-17486D02*
X135981Y-17594D01*
X136024Y-17701D01*
X136070Y-17806D01*
X136121Y-17910D01*
X136174Y-18012D01*
X136231Y-18112D01*
X136292Y-18210D01*
X136356Y-18305D01*
X136423Y-18399D01*
X136494Y-18490D01*
X136567Y-18579D01*
X136644Y-18665D01*
X136723Y-18748D01*
X136805Y-18829D01*
X136890Y-18907D01*
X136978Y-18981D01*
X137068Y-19053D01*
X137161Y-19122D01*
X137255Y-19187D01*
X137352Y-19249D01*
X137452Y-19307D01*
X137553Y-19363D01*
X137655Y-19414D01*
X137760Y-19462D01*
X137866Y-19507D01*
X137974Y-19548D01*
X138083Y-19585D01*
X138193Y-19618D01*
X138305Y-19647D01*
X138417Y-19673D01*
X138530Y-19695D01*
X138644Y-19712D01*
X138758Y-19726D01*
X138873Y-19736D01*
X138988Y-19742D01*
X139103Y-19744D01*
X142263Y-17485D02*
X142400Y-17196D01*
X142530Y-16904D01*
X142653Y-16608D01*
X142768Y-16310D01*
X142877Y-16009D01*
X142978Y-15706D01*
X143072Y-15400D01*
X143159Y-15093D01*
X143238Y-14783D01*
X143310Y-14471D01*
X143374Y-14158D01*
X143431Y-13843D01*
X143481Y-13527D01*
X143523Y-13210D01*
X143557Y-12892D01*
X143584Y-12574D01*
X143603Y-12254D01*
X143614Y-11935D01*
X143618Y-11615D01*
X142264Y-17485D02*
X142225Y-17593D01*
X142182Y-17700D01*
X142136Y-17805D01*
X142085Y-17909D01*
X142032Y-18011D01*
X141975Y-18111D01*
X141914Y-18209D01*
X141850Y-18304D01*
X141783Y-18398D01*
X141712Y-18489D01*
X141639Y-18578D01*
X141562Y-18664D01*
X141483Y-18747D01*
X141401Y-18828D01*
X141316Y-18906D01*
X141228Y-18980D01*
X141138Y-19052D01*
X141045Y-19121D01*
X140951Y-19186D01*
X140854Y-19248D01*
X140754Y-19306D01*
X140653Y-19362D01*
X140550Y-19413D01*
X140446Y-19461D01*
X140340Y-19506D01*
X140232Y-19547D01*
X140123Y-19584D01*
X140013Y-19617D01*
X139901Y-19646D01*
X139789Y-19672D01*
X139676Y-19694D01*
X139562Y-19711D01*
X139448Y-19725D01*
X139333Y-19735D01*
X139218Y-19741D01*
X139103Y-19743D01*
X135491Y-16131D02*
X142715Y-7099D01*
D10*
X500000Y0D02*
X500293Y-45749D01*
X305293Y-46999D02*
X305000Y-1250D01*
X305818Y-27495D02*
X499518Y-26253D01*
X474148Y-23223D01*
X474189Y-29608D01*
X499518Y-26253D01*
X474160Y-25116D01*
X474177Y-27716D02*
X499518Y-26253D01*
X474152Y-23816D01*
X474185Y-29016D02*
X499518Y-26253D01*
X331147Y-24140D02*
X305818Y-27495D01*
X331147Y-24140D02*
X331188Y-30525D01*
X305818Y-27495D01*
X331159Y-26032D01*
X331176Y-28632D02*
X305818Y-27495D01*
X331151Y-24732D01*
X331184Y-29932D02*
X305818Y-27495D01*
D11*
X371480Y-7922D02*
X375970Y-4279D01*
X376083Y-20534D01*
X371568Y-20566D02*
X380599Y-20503D01*
X390761Y-13207D02*
X396179Y-13169D01*
X390761Y-13207D02*
X390643Y-13206D01*
X390525Y-13201D01*
X390407Y-13192D01*
X390289Y-13179D01*
X390172Y-13163D01*
X390056Y-13142D01*
X389940Y-13118D01*
X389825Y-13090D01*
X389711Y-13059D01*
X389599Y-13023D01*
X389487Y-12984D01*
X389377Y-12942D01*
X389268Y-12895D01*
X389161Y-12845D01*
X389055Y-12792D01*
X388951Y-12735D01*
X388850Y-12675D01*
X388750Y-12612D01*
X388652Y-12545D01*
X388557Y-12476D01*
X388464Y-12403D01*
X388373Y-12327D01*
X388285Y-12248D01*
X388199Y-12167D01*
X388116Y-12082D01*
X388036Y-11995D01*
X387959Y-11906D01*
X387885Y-11813D01*
X387814Y-11719D01*
X387746Y-11622D01*
X387681Y-11523D01*
X387620Y-11422D01*
X387562Y-11319D01*
X387507Y-11215D01*
X387456Y-11108D01*
X387408Y-11000D01*
X387364Y-10890D01*
X387323Y-10779D01*
X387286Y-10667D01*
X387253Y-10554D01*
X387223Y-10439D01*
X387197Y-10324D01*
X387175Y-10207D01*
X387157Y-10091D01*
X387143Y-9973D01*
X387132Y-9856D01*
X387126Y-9737D01*
X387123Y-9619D01*
X387117Y-8716D01*
X387116Y-8716D02*
X387117Y-8583D01*
X387122Y-8449D01*
X387131Y-8315D01*
X387144Y-8182D01*
X387161Y-8049D01*
X387182Y-7917D01*
X387206Y-7786D01*
X387235Y-7655D01*
X387268Y-7525D01*
X387304Y-7396D01*
X387344Y-7268D01*
X387388Y-7142D01*
X387435Y-7017D01*
X387487Y-6893D01*
X387542Y-6771D01*
X387600Y-6651D01*
X387662Y-6532D01*
X387728Y-6416D01*
X387797Y-6301D01*
X387869Y-6188D01*
X387945Y-6078D01*
X388023Y-5970D01*
X388105Y-5864D01*
X388191Y-5761D01*
X388279Y-5660D01*
X388370Y-5562D01*
X388464Y-5467D01*
X388561Y-5374D01*
X388660Y-5285D01*
X388762Y-5198D01*
X388867Y-5115D01*
X388974Y-5034D01*
X389083Y-4957D01*
X389195Y-4883D01*
X389308Y-4813D01*
X389424Y-4745D01*
X389542Y-4682D01*
X389661Y-4622D01*
X389783Y-4565D01*
X389906Y-4512D01*
X390030Y-4463D01*
X390156Y-4417D01*
X390283Y-4375D01*
X390411Y-4337D01*
X390541Y-4303D01*
X390671Y-4272D01*
X390802Y-4246D01*
X390934Y-4223D01*
X391067Y-4205D01*
X391200Y-4190D01*
X391333Y-4179D01*
X391467Y-4172D01*
X391600Y-4169D01*
X391734Y-4170D01*
X391868Y-4175D01*
X392002Y-4184D01*
X392135Y-4197D01*
X392268Y-4214D01*
X392400Y-4235D01*
X392531Y-4259D01*
X392662Y-4288D01*
X392792Y-4320D01*
X392921Y-4357D01*
X393048Y-4397D01*
X393175Y-4441D01*
X393300Y-4488D01*
X393424Y-4540D01*
X393546Y-4594D01*
X393666Y-4653D01*
X393785Y-4715D01*
X393901Y-4781D01*
X394016Y-4850D01*
X394129Y-4922D01*
X394239Y-4997D01*
X394347Y-5076D01*
X394453Y-5158D01*
X394556Y-5244D01*
X394657Y-5332D01*
X394755Y-5423D01*
X394850Y-5517D01*
X394943Y-5614D01*
X395032Y-5713D01*
X395119Y-5815D01*
X395202Y-5920D01*
X395283Y-6027D01*
X395360Y-6136D01*
X395434Y-6248D01*
X395504Y-6361D01*
X395571Y-6477D01*
X395635Y-6595D01*
X395695Y-6714D01*
X395752Y-6836D01*
X395805Y-6958D01*
X395854Y-7083D01*
X395900Y-7209D01*
X395942Y-7336D01*
X395980Y-7464D01*
X396014Y-7594D01*
X396045Y-7724D01*
X396071Y-7855D01*
X396094Y-7987D01*
X396112Y-8119D01*
X396127Y-8252D01*
X396138Y-8386D01*
X396145Y-8520D01*
X396148Y-8653D01*
X396179Y-13169D01*
X396180Y-13169D02*
X396179Y-13346D01*
X396174Y-13523D01*
X396164Y-13700D01*
X396150Y-13877D01*
X396132Y-14053D01*
X396109Y-14229D01*
X396082Y-14404D01*
X396051Y-14579D01*
X396015Y-14753D01*
X395976Y-14926D01*
X395932Y-15097D01*
X395883Y-15268D01*
X395831Y-15437D01*
X395774Y-15605D01*
X395714Y-15772D01*
X395649Y-15937D01*
X395580Y-16101D01*
X395508Y-16262D01*
X395431Y-16422D01*
X395350Y-16580D01*
X395266Y-16736D01*
X395178Y-16890D01*
X395086Y-17042D01*
X394990Y-17191D01*
X394891Y-17338D01*
X394788Y-17482D01*
X394682Y-17624D01*
X394572Y-17763D01*
X394459Y-17900D01*
X394342Y-18034D01*
X394222Y-18164D01*
X394099Y-18292D01*
X393973Y-18417D01*
X393844Y-18538D01*
X393712Y-18657D01*
X393577Y-18772D01*
X393440Y-18884D01*
X393299Y-18992D01*
X393156Y-19097D01*
X393011Y-19198D01*
X392863Y-19296D01*
X392713Y-19390D01*
X392560Y-19480D01*
X392405Y-19567D01*
X392248Y-19650D01*
X392090Y-19729D01*
X391929Y-19804D01*
X391766Y-19875D01*
X391602Y-19942D01*
X391436Y-20004D01*
X391269Y-20063D01*
X391101Y-20118D01*
X390931Y-20169D01*
X390759Y-20215D01*
X390587Y-20257D01*
X390414Y-20295D01*
X390240Y-20329D01*
X390065Y-20358D01*
X389889Y-20383D01*
X389713Y-20404D01*
X389537Y-20421D01*
X389360Y-20433D01*
X389183Y-20440D01*
X389005Y-20444D01*
X402204Y-20352D02*
X402198Y-19449D01*
X403101Y-19442D01*
X403107Y-20345D01*
X402204Y-20352D01*
X409082Y-20304D02*
X414500Y-20266D01*
X414618Y-20263D01*
X414736Y-20257D01*
X414854Y-20246D01*
X414971Y-20232D01*
X415088Y-20214D01*
X415204Y-20192D01*
X415320Y-20166D01*
X415434Y-20136D01*
X415548Y-20103D01*
X415660Y-20066D01*
X415771Y-20026D01*
X415881Y-19981D01*
X415989Y-19934D01*
X416095Y-19882D01*
X416200Y-19828D01*
X416303Y-19769D01*
X416404Y-19708D01*
X416503Y-19643D01*
X416599Y-19575D01*
X416694Y-19504D01*
X416786Y-19430D01*
X416875Y-19353D01*
X416962Y-19273D01*
X417047Y-19190D01*
X417128Y-19105D01*
X417207Y-19017D01*
X417283Y-18926D01*
X417356Y-18833D01*
X417426Y-18737D01*
X417492Y-18640D01*
X417556Y-18540D01*
X417616Y-18438D01*
X417672Y-18334D01*
X417726Y-18229D01*
X417775Y-18122D01*
X417822Y-18013D01*
X417864Y-17903D01*
X417903Y-17791D01*
X417939Y-17678D01*
X417970Y-17564D01*
X417998Y-17450D01*
X418022Y-17334D01*
X418043Y-17217D01*
X418059Y-17100D01*
X418072Y-16983D01*
X418081Y-16865D01*
X418086Y-16747D01*
X418087Y-16629D01*
X418088Y-16628D02*
X418075Y-14822D01*
X418072Y-14704D01*
X418066Y-14586D01*
X418055Y-14468D01*
X418041Y-14351D01*
X418023Y-14234D01*
X418001Y-14118D01*
X417975Y-14002D01*
X417945Y-13888D01*
X417912Y-13774D01*
X417875Y-13662D01*
X417835Y-13551D01*
X417790Y-13441D01*
X417743Y-13333D01*
X417691Y-13227D01*
X417637Y-13122D01*
X417578Y-13019D01*
X417517Y-12918D01*
X417452Y-12819D01*
X417384Y-12723D01*
X417313Y-12628D01*
X417239Y-12536D01*
X417162Y-12447D01*
X417082Y-12360D01*
X416999Y-12275D01*
X416914Y-12194D01*
X416826Y-12115D01*
X416735Y-12039D01*
X416642Y-11966D01*
X416546Y-11896D01*
X416449Y-11830D01*
X416349Y-11766D01*
X416247Y-11706D01*
X416143Y-11650D01*
X416038Y-11596D01*
X415931Y-11547D01*
X415822Y-11500D01*
X415712Y-11458D01*
X415600Y-11419D01*
X415487Y-11383D01*
X415373Y-11352D01*
X415259Y-11324D01*
X415143Y-11300D01*
X415026Y-11279D01*
X414909Y-11263D01*
X414792Y-11250D01*
X414674Y-11241D01*
X414556Y-11236D01*
X414438Y-11235D01*
X414437Y-11235D02*
X409019Y-11273D01*
X408968Y-4048D01*
X417999Y-3985D01*
X425970Y-6188D02*
X425835Y-6478D01*
X425708Y-6771D01*
X425587Y-7067D01*
X425473Y-7366D01*
X425367Y-7668D01*
X425268Y-7972D01*
X425176Y-8278D01*
X425091Y-8586D01*
X425014Y-8897D01*
X424944Y-9209D01*
X424882Y-9523D01*
X424827Y-9838D01*
X424780Y-10154D01*
X424741Y-10471D01*
X424708Y-10789D01*
X424684Y-11108D01*
X424667Y-11428D01*
X424658Y-11747D01*
X424656Y-12067D01*
X425970Y-6188D02*
X426009Y-6079D01*
X426051Y-5972D01*
X426097Y-5866D01*
X426146Y-5762D01*
X426199Y-5660D01*
X426255Y-5560D01*
X426315Y-5462D01*
X426379Y-5365D01*
X426445Y-5271D01*
X426515Y-5180D01*
X426588Y-5091D01*
X426664Y-5004D01*
X426742Y-4920D01*
X426824Y-4839D01*
X426908Y-4761D01*
X426995Y-4685D01*
X427085Y-4613D01*
X427177Y-4544D01*
X427271Y-4478D01*
X427368Y-4415D01*
X427467Y-4356D01*
X427567Y-4300D01*
X427670Y-4248D01*
X427774Y-4199D01*
X427880Y-4154D01*
X427987Y-4112D01*
X428096Y-4075D01*
X428206Y-4041D01*
X428317Y-4010D01*
X428429Y-3984D01*
X428542Y-3962D01*
X428656Y-3943D01*
X428770Y-3928D01*
X428885Y-3918D01*
X429000Y-3911D01*
X429115Y-3908D01*
X429230Y-3909D01*
X429345Y-3914D01*
X429460Y-3924D01*
X429574Y-3937D01*
X429688Y-3954D01*
X429801Y-3974D01*
X429913Y-3999D01*
X430025Y-4028D01*
X430135Y-4060D01*
X430245Y-4097D01*
X430353Y-4137D01*
X430459Y-4180D01*
X430564Y-4228D01*
X430667Y-4279D01*
X430769Y-4333D01*
X430868Y-4391D01*
X430966Y-4452D01*
X431061Y-4517D01*
X431154Y-4585D01*
X431244Y-4656D01*
X431333Y-4730D01*
X431418Y-4807D01*
X431501Y-4887D01*
X431581Y-4970D01*
X431658Y-5055D01*
X431732Y-5143D01*
X431803Y-5234D01*
X431871Y-5327D01*
X431935Y-5422D01*
X431997Y-5520D01*
X432055Y-5619D01*
X432109Y-5721D01*
X432160Y-5824D01*
X432207Y-5929D01*
X432251Y-6035D01*
X432291Y-6143D01*
X432292Y-6143D02*
X432431Y-6431D01*
X432563Y-6723D01*
X432687Y-7017D01*
X432805Y-7314D01*
X432916Y-7614D01*
X433019Y-7917D01*
X433115Y-8222D01*
X433204Y-8529D01*
X433286Y-8839D01*
X433360Y-9150D01*
X433426Y-9463D01*
X433486Y-9777D01*
X433537Y-10092D01*
X433581Y-10409D01*
X433618Y-10727D01*
X433647Y-11045D01*
X433668Y-11365D01*
X433682Y-11684D01*
X433688Y-12004D01*
X424656Y-12067D02*
X424662Y-12386D01*
X424676Y-12706D01*
X424697Y-13025D01*
X424726Y-13344D01*
X424763Y-13661D01*
X424807Y-13978D01*
X424859Y-14294D01*
X424918Y-14608D01*
X424984Y-14921D01*
X425058Y-15232D01*
X425140Y-15541D01*
X425229Y-15848D01*
X425325Y-16153D01*
X425428Y-16456D01*
X425539Y-16756D01*
X425657Y-17053D01*
X425781Y-17348D01*
X425913Y-17639D01*
X426052Y-17927D01*
X426052Y-17928D02*
X426092Y-18036D01*
X426136Y-18142D01*
X426183Y-18247D01*
X426234Y-18350D01*
X426288Y-18452D01*
X426346Y-18551D01*
X426408Y-18649D01*
X426472Y-18744D01*
X426540Y-18837D01*
X426611Y-18928D01*
X426685Y-19016D01*
X426762Y-19101D01*
X426842Y-19184D01*
X426925Y-19264D01*
X427010Y-19341D01*
X427099Y-19415D01*
X427189Y-19486D01*
X427282Y-19554D01*
X427377Y-19619D01*
X427475Y-19680D01*
X427574Y-19738D01*
X427676Y-19792D01*
X427779Y-19843D01*
X427884Y-19891D01*
X427990Y-19934D01*
X428098Y-19974D01*
X428208Y-20011D01*
X428318Y-20043D01*
X428430Y-20072D01*
X428542Y-20097D01*
X428655Y-20117D01*
X428769Y-20134D01*
X428883Y-20147D01*
X428998Y-20157D01*
X429113Y-20162D01*
X429228Y-20163D01*
X432373Y-17883D02*
X432508Y-17593D01*
X432635Y-17300D01*
X432756Y-17004D01*
X432870Y-16705D01*
X432976Y-16403D01*
X433075Y-16099D01*
X433167Y-15793D01*
X433252Y-15484D01*
X433329Y-15174D01*
X433399Y-14862D01*
X433461Y-14548D01*
X433516Y-14233D01*
X433563Y-13917D01*
X433602Y-13599D01*
X433635Y-13281D01*
X433659Y-12962D01*
X433676Y-12643D01*
X433685Y-12323D01*
X433687Y-12003D01*
X432373Y-17883D02*
X432334Y-17992D01*
X432292Y-18099D01*
X432246Y-18205D01*
X432197Y-18309D01*
X432144Y-18411D01*
X432088Y-18511D01*
X432028Y-18609D01*
X431964Y-18706D01*
X431898Y-18800D01*
X431828Y-18891D01*
X431755Y-18980D01*
X431679Y-19067D01*
X431601Y-19151D01*
X431519Y-19232D01*
X431435Y-19310D01*
X431347Y-19386D01*
X431258Y-19458D01*
X431166Y-19527D01*
X431071Y-19593D01*
X430975Y-19656D01*
X430876Y-19715D01*
X430776Y-19771D01*
X430673Y-19823D01*
X430569Y-19872D01*
X430463Y-19917D01*
X430355Y-19959D01*
X430247Y-19996D01*
X430137Y-20030D01*
X430026Y-20061D01*
X429914Y-20087D01*
X429801Y-20109D01*
X429687Y-20128D01*
X429573Y-20143D01*
X429458Y-20153D01*
X429343Y-20160D01*
X429228Y-20163D01*
X425591Y-16576D02*
X432752Y-7495D01*
D10*
X500000Y349300D02*
X552000Y349300D01*
X552000Y0D02*
X500000Y0D01*
X532500Y650D02*
X532500Y348650D01*
X529308Y323300D01*
X535692Y323300D01*
X532500Y348650D01*
X531200Y323300D01*
X533800Y323300D02*
X532500Y348650D01*
X529900Y323300D01*
X535100Y323300D02*
X532500Y348650D01*
X529308Y26000D02*
X532500Y650D01*
X529308Y26000D02*
X535692Y26000D01*
X532500Y650D01*
X531200Y26000D01*
X533800Y26000D02*
X532500Y650D01*
X529900Y26000D01*
X535100Y26000D02*
X532500Y650D01*
D11*
X525993Y143591D02*
X525993Y148107D01*
X525991Y148240D01*
X525985Y148372D01*
X525975Y148504D01*
X525962Y148636D01*
X525944Y148768D01*
X525923Y148898D01*
X525898Y149029D01*
X525869Y149158D01*
X525836Y149286D01*
X525800Y149414D01*
X525760Y149540D01*
X525716Y149665D01*
X525668Y149789D01*
X525617Y149911D01*
X525562Y150032D01*
X525504Y150151D01*
X525442Y150269D01*
X525377Y150384D01*
X525308Y150498D01*
X525237Y150609D01*
X525161Y150718D01*
X525083Y150825D01*
X525002Y150930D01*
X524917Y151032D01*
X524830Y151132D01*
X524740Y151229D01*
X524647Y151324D01*
X524551Y151415D01*
X524453Y151504D01*
X524352Y151590D01*
X524248Y151673D01*
X524142Y151753D01*
X524034Y151829D01*
X523924Y151903D01*
X523811Y151973D01*
X523697Y152040D01*
X523580Y152103D01*
X523462Y152163D01*
X523342Y152220D01*
X523220Y152273D01*
X523097Y152322D01*
X522973Y152368D01*
X522847Y152410D01*
X522720Y152448D01*
X522592Y152483D01*
X522463Y152514D01*
X522334Y152541D01*
X522203Y152564D01*
X522072Y152584D01*
X521940Y152599D01*
X521808Y152611D01*
X521676Y152619D01*
X521543Y152623D01*
X521411Y152623D01*
X521278Y152619D01*
X521146Y152611D01*
X521014Y152599D01*
X520882Y152584D01*
X520751Y152564D01*
X520620Y152541D01*
X520491Y152514D01*
X520362Y152483D01*
X520234Y152448D01*
X520107Y152410D01*
X519981Y152368D01*
X519857Y152322D01*
X519734Y152273D01*
X519612Y152220D01*
X519492Y152163D01*
X519374Y152103D01*
X519257Y152040D01*
X519143Y151973D01*
X519030Y151903D01*
X518920Y151829D01*
X518812Y151753D01*
X518706Y151673D01*
X518602Y151590D01*
X518501Y151504D01*
X518403Y151415D01*
X518307Y151324D01*
X518214Y151229D01*
X518124Y151132D01*
X518037Y151032D01*
X517952Y150930D01*
X517871Y150825D01*
X517793Y150718D01*
X517717Y150609D01*
X517646Y150498D01*
X517577Y150384D01*
X517512Y150269D01*
X517450Y150151D01*
X517392Y150032D01*
X517337Y149911D01*
X517286Y149789D01*
X517238Y149665D01*
X517194Y149540D01*
X517154Y149414D01*
X517118Y149286D01*
X517085Y149158D01*
X517056Y149029D01*
X517031Y148898D01*
X517010Y148768D01*
X516992Y148636D01*
X516979Y148504D01*
X516969Y148372D01*
X516963Y148240D01*
X516961Y148107D01*
X509737Y149010D02*
X509737Y143591D01*
X509737Y149010D02*
X509739Y149129D01*
X509745Y149249D01*
X509755Y149368D01*
X509769Y149486D01*
X509786Y149605D01*
X509808Y149722D01*
X509833Y149839D01*
X509863Y149954D01*
X509896Y150069D01*
X509933Y150183D01*
X509973Y150295D01*
X510018Y150406D01*
X510066Y150515D01*
X510117Y150623D01*
X510172Y150729D01*
X510231Y150833D01*
X510293Y150935D01*
X510358Y151035D01*
X510427Y151133D01*
X510499Y151229D01*
X510574Y151322D01*
X510651Y151412D01*
X510732Y151500D01*
X510816Y151585D01*
X510903Y151667D01*
X510992Y151747D01*
X511084Y151823D01*
X511178Y151897D01*
X511275Y151967D01*
X511373Y152034D01*
X511474Y152098D01*
X511578Y152158D01*
X511683Y152215D01*
X511790Y152268D01*
X511898Y152318D01*
X512008Y152364D01*
X512120Y152406D01*
X512233Y152445D01*
X512347Y152480D01*
X512462Y152511D01*
X512579Y152539D01*
X512696Y152562D01*
X512813Y152582D01*
X512932Y152598D01*
X513051Y152610D01*
X513170Y152618D01*
X513289Y152622D01*
X513409Y152622D01*
X513528Y152618D01*
X513647Y152610D01*
X513766Y152598D01*
X513885Y152582D01*
X514002Y152562D01*
X514119Y152539D01*
X514236Y152511D01*
X514351Y152480D01*
X514465Y152445D01*
X514578Y152406D01*
X514690Y152364D01*
X514800Y152318D01*
X514908Y152268D01*
X515015Y152215D01*
X515120Y152158D01*
X515224Y152098D01*
X515325Y152034D01*
X515423Y151967D01*
X515520Y151897D01*
X515614Y151823D01*
X515706Y151747D01*
X515795Y151667D01*
X515882Y151585D01*
X515966Y151500D01*
X516047Y151412D01*
X516124Y151322D01*
X516199Y151229D01*
X516271Y151133D01*
X516340Y151035D01*
X516405Y150935D01*
X516467Y150833D01*
X516526Y150729D01*
X516581Y150623D01*
X516632Y150515D01*
X516680Y150406D01*
X516725Y150295D01*
X516765Y150183D01*
X516802Y150069D01*
X516835Y149954D01*
X516865Y149839D01*
X516890Y149722D01*
X516912Y149605D01*
X516929Y149486D01*
X516943Y149368D01*
X516953Y149249D01*
X516959Y149129D01*
X516961Y149010D01*
X516962Y149010D02*
X516962Y145398D01*
X522381Y159223D02*
X509737Y162835D01*
X522381Y159223D02*
X522381Y168254D01*
X525993Y165544D02*
X518768Y165544D01*
X525090Y174228D02*
X525993Y174228D01*
X525090Y174228D02*
X525090Y175131D01*
X525993Y175131D01*
X525993Y174228D01*
X518768Y184719D02*
X518768Y190137D01*
X518768Y184719D02*
X518766Y184601D01*
X518760Y184483D01*
X518751Y184365D01*
X518737Y184248D01*
X518720Y184131D01*
X518699Y184014D01*
X518674Y183899D01*
X518645Y183784D01*
X518612Y183670D01*
X518576Y183558D01*
X518536Y183447D01*
X518493Y183337D01*
X518446Y183228D01*
X518396Y183121D01*
X518341Y183016D01*
X518284Y182913D01*
X518223Y182812D01*
X518159Y182712D01*
X518092Y182615D01*
X518022Y182520D01*
X517948Y182428D01*
X517872Y182337D01*
X517792Y182250D01*
X517710Y182165D01*
X517625Y182083D01*
X517538Y182003D01*
X517447Y181927D01*
X517355Y181853D01*
X517260Y181783D01*
X517163Y181716D01*
X517063Y181652D01*
X516962Y181591D01*
X516859Y181534D01*
X516754Y181479D01*
X516647Y181429D01*
X516538Y181382D01*
X516428Y181339D01*
X516317Y181299D01*
X516205Y181263D01*
X516091Y181230D01*
X515976Y181201D01*
X515861Y181176D01*
X515744Y181155D01*
X515627Y181138D01*
X515510Y181124D01*
X515392Y181115D01*
X515274Y181109D01*
X515156Y181107D01*
X515156Y181106D02*
X514253Y181106D01*
X514120Y181108D01*
X513988Y181114D01*
X513856Y181124D01*
X513724Y181137D01*
X513592Y181155D01*
X513462Y181176D01*
X513331Y181201D01*
X513202Y181230D01*
X513074Y181263D01*
X512946Y181299D01*
X512820Y181339D01*
X512695Y181383D01*
X512571Y181431D01*
X512449Y181482D01*
X512328Y181537D01*
X512209Y181595D01*
X512091Y181657D01*
X511976Y181722D01*
X511862Y181791D01*
X511751Y181862D01*
X511642Y181938D01*
X511535Y182016D01*
X511430Y182097D01*
X511328Y182182D01*
X511228Y182269D01*
X511131Y182359D01*
X511036Y182452D01*
X510945Y182548D01*
X510856Y182646D01*
X510770Y182747D01*
X510687Y182851D01*
X510607Y182957D01*
X510531Y183065D01*
X510457Y183175D01*
X510387Y183288D01*
X510320Y183402D01*
X510257Y183519D01*
X510197Y183637D01*
X510140Y183757D01*
X510087Y183879D01*
X510038Y184002D01*
X509992Y184126D01*
X509950Y184252D01*
X509912Y184379D01*
X509877Y184507D01*
X509846Y184636D01*
X509819Y184765D01*
X509796Y184896D01*
X509776Y185027D01*
X509761Y185159D01*
X509749Y185291D01*
X509741Y185423D01*
X509737Y185556D01*
X509737Y185688D01*
X509741Y185821D01*
X509749Y185953D01*
X509761Y186085D01*
X509776Y186217D01*
X509796Y186348D01*
X509819Y186479D01*
X509846Y186608D01*
X509877Y186737D01*
X509912Y186865D01*
X509950Y186992D01*
X509992Y187118D01*
X510038Y187242D01*
X510087Y187365D01*
X510140Y187487D01*
X510197Y187607D01*
X510257Y187725D01*
X510320Y187842D01*
X510387Y187956D01*
X510457Y188069D01*
X510531Y188179D01*
X510607Y188287D01*
X510687Y188393D01*
X510770Y188497D01*
X510856Y188598D01*
X510945Y188696D01*
X511036Y188792D01*
X511131Y188885D01*
X511228Y188975D01*
X511328Y189062D01*
X511430Y189147D01*
X511535Y189228D01*
X511642Y189306D01*
X511751Y189382D01*
X511862Y189453D01*
X511976Y189522D01*
X512091Y189587D01*
X512209Y189649D01*
X512328Y189707D01*
X512449Y189762D01*
X512571Y189813D01*
X512695Y189861D01*
X512820Y189905D01*
X512946Y189945D01*
X513074Y189981D01*
X513202Y190014D01*
X513331Y190043D01*
X513462Y190068D01*
X513592Y190089D01*
X513724Y190107D01*
X513856Y190120D01*
X513988Y190130D01*
X514120Y190136D01*
X514253Y190138D01*
X514253Y190137D02*
X518768Y190137D01*
X518943Y190135D01*
X519117Y190129D01*
X519291Y190118D01*
X519465Y190103D01*
X519639Y190084D01*
X519812Y190061D01*
X519984Y190034D01*
X520156Y190002D01*
X520327Y189967D01*
X520497Y189927D01*
X520666Y189883D01*
X520834Y189835D01*
X521001Y189783D01*
X521166Y189727D01*
X521330Y189667D01*
X521493Y189604D01*
X521653Y189536D01*
X521813Y189464D01*
X521970Y189389D01*
X522126Y189309D01*
X522279Y189226D01*
X522431Y189140D01*
X522580Y189049D01*
X522727Y188955D01*
X522872Y188858D01*
X523015Y188757D01*
X523155Y188653D01*
X523292Y188545D01*
X523427Y188434D01*
X523559Y188320D01*
X523688Y188203D01*
X523815Y188082D01*
X523938Y187959D01*
X524059Y187832D01*
X524176Y187703D01*
X524290Y187571D01*
X524401Y187436D01*
X524509Y187299D01*
X524613Y187159D01*
X524714Y187016D01*
X524811Y186871D01*
X524905Y186724D01*
X524996Y186575D01*
X525082Y186423D01*
X525165Y186270D01*
X525245Y186114D01*
X525320Y185957D01*
X525392Y185797D01*
X525460Y185637D01*
X525523Y185474D01*
X525583Y185310D01*
X525639Y185145D01*
X525691Y184978D01*
X525739Y184810D01*
X525783Y184641D01*
X525823Y184471D01*
X525858Y184300D01*
X525890Y184128D01*
X525917Y183956D01*
X525940Y183783D01*
X525959Y183609D01*
X525974Y183435D01*
X525985Y183261D01*
X525991Y183087D01*
X525993Y182912D01*
X525993Y196737D02*
X525993Y201253D01*
X525991Y201386D01*
X525985Y201518D01*
X525975Y201650D01*
X525962Y201782D01*
X525944Y201914D01*
X525923Y202044D01*
X525898Y202175D01*
X525869Y202304D01*
X525836Y202432D01*
X525800Y202560D01*
X525760Y202686D01*
X525716Y202811D01*
X525668Y202935D01*
X525617Y203057D01*
X525562Y203178D01*
X525504Y203297D01*
X525442Y203415D01*
X525377Y203530D01*
X525308Y203644D01*
X525237Y203755D01*
X525161Y203864D01*
X525083Y203971D01*
X525002Y204076D01*
X524917Y204178D01*
X524830Y204278D01*
X524740Y204375D01*
X524647Y204470D01*
X524551Y204561D01*
X524453Y204650D01*
X524352Y204736D01*
X524248Y204819D01*
X524142Y204899D01*
X524034Y204975D01*
X523924Y205049D01*
X523811Y205119D01*
X523697Y205186D01*
X523580Y205249D01*
X523462Y205309D01*
X523342Y205366D01*
X523220Y205419D01*
X523097Y205468D01*
X522973Y205514D01*
X522847Y205556D01*
X522720Y205594D01*
X522592Y205629D01*
X522463Y205660D01*
X522334Y205687D01*
X522203Y205710D01*
X522072Y205730D01*
X521940Y205745D01*
X521808Y205757D01*
X521676Y205765D01*
X521543Y205769D01*
X521411Y205769D01*
X521278Y205765D01*
X521146Y205757D01*
X521014Y205745D01*
X520882Y205730D01*
X520751Y205710D01*
X520620Y205687D01*
X520491Y205660D01*
X520362Y205629D01*
X520234Y205594D01*
X520107Y205556D01*
X519981Y205514D01*
X519857Y205468D01*
X519734Y205419D01*
X519612Y205366D01*
X519492Y205309D01*
X519374Y205249D01*
X519257Y205186D01*
X519143Y205119D01*
X519030Y205049D01*
X518920Y204975D01*
X518812Y204899D01*
X518706Y204819D01*
X518602Y204736D01*
X518501Y204650D01*
X518403Y204561D01*
X518307Y204470D01*
X518214Y204375D01*
X518124Y204278D01*
X518037Y204178D01*
X517952Y204076D01*
X517871Y203971D01*
X517793Y203864D01*
X517717Y203755D01*
X517646Y203644D01*
X517577Y203530D01*
X517512Y203415D01*
X517450Y203297D01*
X517392Y203178D01*
X517337Y203057D01*
X517286Y202935D01*
X517238Y202811D01*
X517194Y202686D01*
X517154Y202560D01*
X517118Y202432D01*
X517085Y202304D01*
X517056Y202175D01*
X517031Y202044D01*
X517010Y201914D01*
X516992Y201782D01*
X516979Y201650D01*
X516969Y201518D01*
X516963Y201386D01*
X516961Y201253D01*
X509737Y202156D02*
X509737Y196737D01*
X509737Y202156D02*
X509739Y202275D01*
X509745Y202395D01*
X509755Y202514D01*
X509769Y202632D01*
X509786Y202751D01*
X509808Y202868D01*
X509833Y202985D01*
X509863Y203100D01*
X509896Y203215D01*
X509933Y203329D01*
X509973Y203441D01*
X510018Y203552D01*
X510066Y203661D01*
X510117Y203769D01*
X510172Y203875D01*
X510231Y203979D01*
X510293Y204081D01*
X510358Y204181D01*
X510427Y204279D01*
X510499Y204375D01*
X510574Y204468D01*
X510651Y204558D01*
X510732Y204646D01*
X510816Y204731D01*
X510903Y204813D01*
X510992Y204893D01*
X511084Y204969D01*
X511178Y205043D01*
X511275Y205113D01*
X511373Y205180D01*
X511474Y205244D01*
X511578Y205304D01*
X511683Y205361D01*
X511790Y205414D01*
X511898Y205464D01*
X512008Y205510D01*
X512120Y205552D01*
X512233Y205591D01*
X512347Y205626D01*
X512462Y205657D01*
X512579Y205685D01*
X512696Y205708D01*
X512813Y205728D01*
X512932Y205744D01*
X513051Y205756D01*
X513170Y205764D01*
X513289Y205768D01*
X513409Y205768D01*
X513528Y205764D01*
X513647Y205756D01*
X513766Y205744D01*
X513885Y205728D01*
X514002Y205708D01*
X514119Y205685D01*
X514236Y205657D01*
X514351Y205626D01*
X514465Y205591D01*
X514578Y205552D01*
X514690Y205510D01*
X514800Y205464D01*
X514908Y205414D01*
X515015Y205361D01*
X515120Y205304D01*
X515224Y205244D01*
X515325Y205180D01*
X515423Y205113D01*
X515520Y205043D01*
X515614Y204969D01*
X515706Y204893D01*
X515795Y204813D01*
X515882Y204731D01*
X515966Y204646D01*
X516047Y204558D01*
X516124Y204468D01*
X516199Y204375D01*
X516271Y204279D01*
X516340Y204181D01*
X516405Y204081D01*
X516467Y203979D01*
X516526Y203875D01*
X516581Y203769D01*
X516632Y203661D01*
X516680Y203552D01*
X516725Y203441D01*
X516765Y203329D01*
X516802Y203215D01*
X516835Y203100D01*
X516865Y202985D01*
X516890Y202868D01*
X516912Y202751D01*
X516929Y202632D01*
X516943Y202514D01*
X516953Y202395D01*
X516959Y202275D01*
X516961Y202156D01*
X516962Y202156D02*
X516962Y198544D01*
D12*
X43100Y141400D03*
X43100Y124400D03*
D13*
X60250Y304130D02*
X60250Y319370D01*
X34850Y319370D02*
X34850Y304130D01*
X142600Y303030D02*
X142600Y318270D01*
X117200Y318270D02*
X117200Y303030D01*
X256600Y304280D02*
X256600Y319520D01*
X231200Y319520D02*
X231200Y304280D01*
X356850Y305530D02*
X356850Y320770D01*
X331450Y320770D02*
X331450Y305530D01*
X442100Y303030D02*
X442100Y318270D01*
X416700Y318270D02*
X416700Y303030D01*
X137600Y53020D02*
X137600Y37780D01*
X112200Y37780D02*
X112200Y53020D01*
X86800Y53020D02*
X86800Y37780D01*
D14*
X22550Y252900D03*
X39550Y252900D03*
X23450Y230400D03*
X40450Y230400D03*
X22850Y206400D03*
X39850Y206400D03*
D12*
X21500Y138900D03*
X21500Y121900D03*
D15*
X55600Y59005D03*
X55600Y42495D03*
D16*
X87595Y77000D03*
X104105Y77000D03*
D17*
X265850Y50550D03*
X259350Y50550D03*
X252850Y50550D03*
X272350Y50550D03*
X278850Y50550D03*
D18*
X229000Y23300D03*
D19*
X265850Y23300D03*
D18*
X302700Y23300D03*
D20*
X21050Y50500D03*
X21050Y35500D03*
D21*
X65372Y283700D03*
X82428Y283700D03*
X120622Y283700D03*
X137678Y283700D03*
D22*
X281900Y301422D03*
X281900Y318478D03*
X384650Y300172D03*
X384650Y317228D03*
X473850Y318028D03*
X473850Y300972D03*
D21*
X165128Y114500D03*
X148072Y114500D03*
D14*
X22000Y92200D03*
X22000Y75200D03*
D23*
X250350Y153500D03*
X250350Y206000D03*
X250350Y127250D03*
X250350Y179750D03*
X250350Y232250D03*
X250350Y101000D03*
X405350Y179750D03*
X405350Y153500D03*
X405350Y127250D03*
X405350Y206000D03*
X405350Y232250D03*
X405350Y101000D03*
D24*
X273350Y86500D03*
X301350Y86500D03*
X327850Y86500D03*
X354350Y86500D03*
X382350Y86500D03*
D25*
X48450Y162150D03*
D26*
X48150Y167950D03*
X48150Y172250D03*
X48150Y176550D03*
X48150Y180850D03*
D25*
X48450Y186650D03*
X44150Y186650D03*
X39850Y186650D03*
X35550Y186650D03*
X31250Y186650D03*
X26950Y186650D03*
X22650Y186650D03*
X18350Y186650D03*
D26*
X18650Y180850D03*
X18650Y176550D03*
X18650Y172250D03*
X18650Y167950D03*
D25*
X18350Y162150D03*
X22650Y162150D03*
X26950Y162150D03*
X31250Y162150D03*
X35550Y162150D03*
X39850Y162150D03*
X44150Y162150D03*
D27*
X114710Y117700D03*
X114710Y98700D03*
X88590Y117700D03*
X88590Y108200D03*
X88590Y98700D03*
D11*
X23450Y252000D02*
X22550Y252900D01*
X23450Y252000D02*
X23450Y230400D01*
X23450Y207000D01*
X22850Y206400D01*
X39850Y186650D02*
X40984Y186650D01*
X40984Y183384D01*
X43016Y183384D01*
X43016Y186650D01*
X44150Y186650D01*
X36684Y162150D02*
X35550Y162150D01*
X36684Y162150D02*
X36684Y165416D01*
X38716Y165416D01*
X38716Y162150D01*
X39850Y162150D01*
X48150Y172250D02*
X48150Y172914D01*
X48150Y180548D02*
X48150Y180850D01*
X43614Y174253D02*
X44953Y172914D01*
X43614Y174253D02*
X43614Y178847D01*
X47486Y172914D02*
X48150Y172250D01*
X47486Y172914D02*
X44953Y172914D01*
X47562Y180262D02*
X48150Y180850D01*
X44259Y179491D02*
X43614Y178847D01*
X44259Y179491D02*
X45029Y180262D01*
X47562Y180262D01*
X39850Y186650D02*
X39186Y187314D01*
X39186Y189847D01*
X35283Y193750D01*
X31250Y193750D01*
X22850Y202150D01*
X22850Y206400D01*
X38716Y173949D02*
X38716Y165416D01*
X38716Y173949D02*
X43614Y178847D01*
X22550Y252900D02*
X22550Y299450D01*
X34850Y311750D01*
X35000Y311900D01*
X117200Y310650D02*
X117200Y328450D01*
X122128Y333378D01*
X34850Y327350D02*
X34850Y311750D01*
X111900Y333750D02*
X117200Y328450D01*
X41250Y333750D02*
X34850Y327350D01*
X41250Y333750D02*
X111900Y333750D01*
X231200Y326200D02*
X231200Y311900D01*
X231875Y326875D02*
X225372Y333378D01*
X122128Y333378D01*
X331250Y313350D02*
X331450Y313150D01*
X331250Y313350D02*
X331250Y328750D01*
X326250Y333750D01*
X238750Y333750D02*
X231875Y326875D01*
X231200Y326200D01*
X238750Y333750D02*
X326250Y333750D01*
X331450Y327700D02*
X331450Y313150D01*
X331450Y327700D02*
X337500Y333750D01*
X416700Y333750D01*
X416700Y310650D01*
X250350Y232250D02*
X229000Y232250D01*
X228750Y232500D01*
X228000Y232500D01*
X227750Y232250D01*
X129750Y232250D01*
X84150Y186650D02*
X48450Y186650D01*
X84150Y186650D02*
X129750Y232250D01*
X45284Y187784D02*
X44150Y186650D01*
X48450Y162150D02*
X69350Y141250D01*
X86250Y141250D01*
D28*
X86250Y141250D03*
X228750Y232500D03*
D11*
X44259Y182141D02*
X43016Y183384D01*
X44259Y182141D02*
X44259Y179491D01*
X47316Y189821D02*
X46721Y190416D01*
X45879Y190416D01*
X45284Y189821D01*
X47316Y189821D02*
X47316Y187784D01*
X45284Y187784D02*
X45284Y189821D01*
X47316Y187784D02*
X48450Y186650D01*
X44150Y162150D02*
X44150Y142450D01*
X43100Y141400D01*
X31250Y152400D02*
X31250Y162150D01*
X31250Y152400D02*
X21500Y142650D01*
X21500Y138900D01*
X252850Y62150D02*
X252850Y50550D01*
X252850Y62150D02*
X240000Y75000D01*
X218750Y75000D01*
X195050Y98700D02*
X156250Y98700D01*
X195050Y98700D02*
X218750Y75000D01*
X156250Y98700D02*
X145050Y87500D01*
X134550Y77000D01*
X104105Y77000D01*
X114710Y98700D02*
X156250Y98700D01*
X40000Y54450D02*
X21050Y35500D01*
X40000Y54450D02*
X40000Y77500D01*
D28*
X40000Y77500D03*
X126250Y87500D03*
D11*
X145050Y87500D01*
X22000Y75200D02*
X21250Y74450D01*
X22000Y75200D02*
X22000Y51450D01*
X21050Y50500D01*
X70200Y117700D02*
X88590Y117700D01*
X44700Y92200D02*
X22000Y92200D01*
X44700Y92200D02*
X70200Y117700D01*
X73195Y59005D02*
X86800Y45400D01*
X73195Y59005D02*
X55600Y59005D01*
X73595Y77000D01*
X87595Y77000D01*
X88590Y77995D01*
X88590Y98700D01*
X144872Y117700D02*
X148072Y114500D01*
X144872Y117700D02*
X114710Y117700D01*
X11650Y180850D02*
X11250Y181250D01*
X11650Y180850D02*
X18650Y180850D01*
X11550Y176550D02*
X11250Y176250D01*
X11550Y176550D02*
X18650Y176550D01*
X12250Y172250D02*
X11250Y171250D01*
X12250Y172250D02*
X18650Y172250D01*
X12950Y167950D02*
X11250Y166250D01*
X12950Y167950D02*
X18650Y167950D01*
X18350Y162150D02*
X18750Y161750D01*
X18750Y156250D01*
X22650Y157350D02*
X22650Y162150D01*
X22650Y157350D02*
X23750Y156250D01*
X26950Y156800D02*
X26950Y162150D01*
X26950Y156800D02*
X28202Y155548D01*
X28202Y155000D01*
D28*
X372500Y40000D03*
D11*
X416350Y90000D02*
X421250Y90000D01*
X416350Y90000D02*
X405350Y101000D01*
D28*
X421250Y90000D03*
D11*
X250350Y206000D02*
X123500Y206000D01*
X94050Y176550D02*
X48150Y176550D01*
X94050Y176550D02*
X123500Y206000D01*
X167050Y167950D02*
X48150Y167950D01*
X207750Y127250D02*
X250350Y127250D01*
X207750Y127250D02*
X167050Y167950D01*
X442100Y310650D02*
X450600Y310650D01*
X460278Y300972D02*
X473850Y300972D01*
X460278Y300972D02*
X450600Y310650D01*
X473850Y300972D02*
X473850Y91350D01*
X450000Y67500D01*
X292350Y67500D01*
X273350Y86500D01*
X137678Y305728D02*
X142600Y310650D01*
X137678Y305728D02*
X137678Y283700D01*
X137678Y261428D01*
X137500Y261250D01*
D28*
X137500Y261250D03*
X186250Y196250D03*
D11*
X202750Y179750D02*
X250350Y179750D01*
X202750Y179750D02*
X186250Y196250D01*
X82428Y289572D02*
X60250Y311750D01*
X82428Y289572D02*
X82428Y283700D01*
X82428Y221322D01*
X82500Y221250D01*
D28*
X82500Y221250D03*
X165000Y178750D03*
D11*
X177500Y178750D01*
X202750Y153500D02*
X250350Y153500D01*
X202750Y153500D02*
X177500Y178750D01*
X356850Y313150D02*
X360928Y317228D01*
X384650Y317228D01*
X385628Y316250D01*
X393750Y316250D01*
X402500Y307500D01*
X402500Y291250D01*
X406250Y287500D01*
X455000Y287500D02*
X465000Y277500D01*
X465000Y170000D01*
X448500Y153500D02*
X405350Y153500D01*
X406250Y287500D02*
X455000Y287500D01*
X465000Y170000D02*
X448500Y153500D01*
X412250Y179750D02*
X406250Y179750D01*
X405350Y179750D01*
X263178Y318478D02*
X256600Y311900D01*
X263178Y318478D02*
X281900Y318478D01*
X282878Y317500D01*
X298750Y317500D01*
X310000Y306250D01*
X310000Y301250D01*
X331250Y280000D01*
X441250Y280000D01*
X451250Y270000D01*
X451250Y197500D01*
X433500Y179750D01*
X412250Y179750D01*
M02*
