G04 EAGLE Gerber RS-274X export*
G75*
%MOMM*%
%FSLAX34Y34*%
%LPD*%
%INTop Copper*%
%IPPOS*%
%AMOC8*
5,1,8,0,0,1.08239X$1,22.5*%
G01*
%ADD10R,1.000000X1.100000*%
%ADD11C,1.524000*%
%ADD12R,1.100000X1.000000*%
%ADD13R,1.447800X0.965200*%
%ADD14R,0.965200X1.447800*%
%ADD15R,0.400000X1.450000*%
%ADD16R,1.800000X1.500000*%
%ADD17R,2.500000X1.500000*%
%ADD18R,0.800000X0.800000*%
%ADD19R,1.005600X1.199997*%
%ADD20R,1.199997X1.005600*%
%ADD21R,1.778000X0.914400*%
%ADD22R,0.914400X1.778000*%
%ADD23R,0.270000X0.450000*%
%ADD24R,0.450000X0.270000*%
%ADD25R,1.200000X0.600000*%
%ADD26C,0.152400*%
%ADD27C,0.756400*%

G36*
X215194Y15164D02*
X215194Y15164D01*
X215213Y15162D01*
X215315Y15184D01*
X215417Y15200D01*
X215434Y15210D01*
X215454Y15214D01*
X215543Y15267D01*
X215634Y15316D01*
X215648Y15330D01*
X215665Y15340D01*
X215732Y15419D01*
X215804Y15494D01*
X215812Y15512D01*
X215825Y15527D01*
X215864Y15623D01*
X215907Y15717D01*
X215909Y15737D01*
X215917Y15755D01*
X215935Y15922D01*
X215935Y32484D01*
X218316Y34865D01*
X239684Y34865D01*
X242065Y32484D01*
X242065Y15922D01*
X242068Y15902D01*
X242066Y15883D01*
X242088Y15781D01*
X242104Y15679D01*
X242114Y15662D01*
X242118Y15642D01*
X242171Y15553D01*
X242220Y15462D01*
X242234Y15448D01*
X242244Y15431D01*
X242323Y15364D01*
X242398Y15292D01*
X242416Y15284D01*
X242431Y15271D01*
X242527Y15232D01*
X242621Y15189D01*
X242641Y15187D01*
X242659Y15179D01*
X242826Y15161D01*
X248524Y15161D01*
X248544Y15164D01*
X248563Y15162D01*
X248665Y15184D01*
X248767Y15200D01*
X248784Y15210D01*
X248804Y15214D01*
X248893Y15267D01*
X248984Y15316D01*
X248998Y15330D01*
X249015Y15340D01*
X249082Y15419D01*
X249154Y15494D01*
X249162Y15512D01*
X249175Y15527D01*
X249214Y15623D01*
X249257Y15717D01*
X249259Y15737D01*
X249267Y15755D01*
X249285Y15922D01*
X249285Y32484D01*
X251666Y34865D01*
X280034Y34865D01*
X282415Y32484D01*
X282415Y15922D01*
X282418Y15902D01*
X282416Y15883D01*
X282438Y15781D01*
X282454Y15679D01*
X282464Y15662D01*
X282468Y15642D01*
X282521Y15553D01*
X282570Y15462D01*
X282584Y15448D01*
X282594Y15431D01*
X282673Y15364D01*
X282748Y15292D01*
X282766Y15284D01*
X282781Y15271D01*
X282877Y15232D01*
X282971Y15189D01*
X282991Y15187D01*
X283009Y15179D01*
X283176Y15161D01*
X288874Y15161D01*
X288894Y15164D01*
X288913Y15162D01*
X289015Y15184D01*
X289117Y15200D01*
X289134Y15210D01*
X289154Y15214D01*
X289243Y15267D01*
X289334Y15316D01*
X289348Y15330D01*
X289365Y15340D01*
X289432Y15419D01*
X289504Y15494D01*
X289512Y15512D01*
X289525Y15527D01*
X289564Y15623D01*
X289607Y15717D01*
X289609Y15737D01*
X289617Y15755D01*
X289635Y15922D01*
X289635Y32484D01*
X292016Y34865D01*
X313384Y34865D01*
X315765Y32484D01*
X315765Y15922D01*
X315768Y15902D01*
X315766Y15883D01*
X315788Y15781D01*
X315804Y15679D01*
X315814Y15662D01*
X315818Y15642D01*
X315871Y15553D01*
X315920Y15462D01*
X315934Y15448D01*
X315944Y15431D01*
X316023Y15364D01*
X316098Y15292D01*
X316116Y15284D01*
X316131Y15271D01*
X316227Y15232D01*
X316321Y15189D01*
X316341Y15187D01*
X316359Y15179D01*
X316526Y15161D01*
X489078Y15161D01*
X489098Y15164D01*
X489117Y15162D01*
X489219Y15184D01*
X489321Y15200D01*
X489338Y15210D01*
X489358Y15214D01*
X489447Y15267D01*
X489538Y15316D01*
X489552Y15330D01*
X489569Y15340D01*
X489636Y15419D01*
X489708Y15494D01*
X489716Y15512D01*
X489729Y15527D01*
X489768Y15623D01*
X489811Y15717D01*
X489813Y15737D01*
X489821Y15755D01*
X489839Y15922D01*
X489839Y338378D01*
X489836Y338398D01*
X489838Y338417D01*
X489816Y338519D01*
X489800Y338621D01*
X489790Y338638D01*
X489786Y338658D01*
X489733Y338747D01*
X489684Y338838D01*
X489670Y338852D01*
X489660Y338869D01*
X489581Y338936D01*
X489506Y339008D01*
X489488Y339016D01*
X489473Y339029D01*
X489377Y339068D01*
X489283Y339111D01*
X489263Y339113D01*
X489245Y339121D01*
X489078Y339139D01*
X419975Y339139D01*
X419904Y339128D01*
X419832Y339126D01*
X419783Y339108D01*
X419732Y339100D01*
X419668Y339066D01*
X419601Y339041D01*
X419560Y339009D01*
X419514Y338984D01*
X419465Y338932D01*
X419409Y338888D01*
X419381Y338844D01*
X419345Y338806D01*
X419315Y338741D01*
X419276Y338681D01*
X419263Y338630D01*
X419241Y338583D01*
X419234Y338512D01*
X419216Y338442D01*
X419220Y338390D01*
X419214Y338339D01*
X419230Y338268D01*
X419235Y338197D01*
X419256Y338149D01*
X419267Y338098D01*
X419303Y338037D01*
X419331Y337971D01*
X419376Y337915D01*
X419393Y337887D01*
X419411Y337872D01*
X419436Y337840D01*
X421527Y335749D01*
X421527Y329427D01*
X421546Y329312D01*
X421563Y329196D01*
X421565Y329190D01*
X421566Y329184D01*
X421621Y329081D01*
X421674Y328977D01*
X421679Y328972D01*
X421682Y328967D01*
X421766Y328887D01*
X421850Y328804D01*
X421856Y328801D01*
X421860Y328797D01*
X421877Y328790D01*
X421997Y328724D01*
X423319Y328176D01*
X426606Y324889D01*
X428385Y320594D01*
X428385Y300706D01*
X426606Y296411D01*
X423821Y293626D01*
X423779Y293568D01*
X423730Y293516D01*
X423708Y293469D01*
X423677Y293427D01*
X423656Y293358D01*
X423626Y293293D01*
X423620Y293241D01*
X423605Y293191D01*
X423607Y293120D01*
X423599Y293049D01*
X423610Y292998D01*
X423611Y292946D01*
X423636Y292878D01*
X423651Y292808D01*
X423678Y292763D01*
X423696Y292715D01*
X423741Y292659D01*
X423777Y292597D01*
X423817Y292563D01*
X423850Y292523D01*
X423910Y292484D01*
X423964Y292437D01*
X424013Y292418D01*
X424056Y292390D01*
X424126Y292372D01*
X424193Y292345D01*
X424264Y292337D01*
X424295Y292329D01*
X424318Y292331D01*
X424359Y292327D01*
X434441Y292327D01*
X434511Y292338D01*
X434583Y292340D01*
X434632Y292358D01*
X434684Y292366D01*
X434747Y292400D01*
X434814Y292425D01*
X434855Y292457D01*
X434901Y292482D01*
X434950Y292534D01*
X435006Y292578D01*
X435034Y292622D01*
X435070Y292660D01*
X435100Y292725D01*
X435139Y292785D01*
X435152Y292836D01*
X435174Y292883D01*
X435182Y292954D01*
X435199Y293024D01*
X435195Y293076D01*
X435201Y293127D01*
X435186Y293198D01*
X435180Y293269D01*
X435160Y293317D01*
X435149Y293368D01*
X435112Y293429D01*
X435084Y293495D01*
X435039Y293551D01*
X435023Y293579D01*
X435005Y293594D01*
X434979Y293626D01*
X432194Y296411D01*
X430415Y300706D01*
X430415Y320594D01*
X432194Y324889D01*
X435481Y328176D01*
X439776Y329955D01*
X444424Y329955D01*
X448719Y328176D01*
X452006Y324889D01*
X453785Y320594D01*
X453785Y314607D01*
X453799Y314517D01*
X453807Y314426D01*
X453819Y314396D01*
X453824Y314364D01*
X453867Y314283D01*
X453903Y314199D01*
X453929Y314167D01*
X453940Y314147D01*
X453963Y314124D01*
X454008Y314068D01*
X462054Y306022D01*
X462128Y305969D01*
X462198Y305909D01*
X462228Y305897D01*
X462254Y305878D01*
X462341Y305851D01*
X462426Y305817D01*
X462467Y305813D01*
X462489Y305806D01*
X462521Y305807D01*
X462593Y305799D01*
X463024Y305799D01*
X463044Y305802D01*
X463064Y305800D01*
X463165Y305822D01*
X463267Y305839D01*
X463284Y305848D01*
X463304Y305852D01*
X463393Y305905D01*
X463484Y305954D01*
X463498Y305968D01*
X463515Y305978D01*
X463582Y306057D01*
X463654Y306132D01*
X463662Y306150D01*
X463675Y306165D01*
X463714Y306261D01*
X463757Y306355D01*
X463759Y306375D01*
X463767Y306393D01*
X463785Y306560D01*
X463785Y307684D01*
X466141Y310039D01*
X466153Y310056D01*
X466168Y310068D01*
X466224Y310155D01*
X466284Y310239D01*
X466290Y310258D01*
X466301Y310275D01*
X466326Y310375D01*
X466357Y310474D01*
X466356Y310494D01*
X466361Y310513D01*
X466353Y310616D01*
X466350Y310720D01*
X466344Y310739D01*
X466342Y310759D01*
X466302Y310854D01*
X466266Y310951D01*
X466254Y310967D01*
X466246Y310985D01*
X466141Y311116D01*
X465817Y311440D01*
X465482Y312019D01*
X465309Y312665D01*
X465309Y316505D01*
X473088Y316505D01*
X473108Y316508D01*
X473127Y316506D01*
X473229Y316528D01*
X473331Y316545D01*
X473348Y316554D01*
X473368Y316558D01*
X473457Y316611D01*
X473548Y316660D01*
X473562Y316674D01*
X473579Y316684D01*
X473646Y316763D01*
X473717Y316838D01*
X473726Y316856D01*
X473739Y316871D01*
X473778Y316967D01*
X473821Y317061D01*
X473823Y317081D01*
X473831Y317099D01*
X473849Y317266D01*
X473849Y318029D01*
X473851Y318029D01*
X473851Y317266D01*
X473854Y317246D01*
X473852Y317227D01*
X473874Y317125D01*
X473891Y317023D01*
X473900Y317006D01*
X473904Y316986D01*
X473957Y316897D01*
X474006Y316806D01*
X474020Y316792D01*
X474030Y316775D01*
X474109Y316708D01*
X474184Y316637D01*
X474202Y316628D01*
X474217Y316615D01*
X474313Y316576D01*
X474407Y316533D01*
X474427Y316531D01*
X474445Y316523D01*
X474612Y316505D01*
X482391Y316505D01*
X482391Y312665D01*
X482218Y312019D01*
X481883Y311440D01*
X481559Y311116D01*
X481547Y311100D01*
X481532Y311087D01*
X481476Y311000D01*
X481416Y310916D01*
X481410Y310897D01*
X481399Y310880D01*
X481374Y310780D01*
X481343Y310681D01*
X481344Y310661D01*
X481339Y310642D01*
X481347Y310539D01*
X481350Y310435D01*
X481356Y310416D01*
X481358Y310397D01*
X481398Y310302D01*
X481434Y310204D01*
X481446Y310189D01*
X481454Y310170D01*
X481559Y310039D01*
X483915Y307684D01*
X483915Y294260D01*
X481534Y291879D01*
X479438Y291879D01*
X479418Y291876D01*
X479399Y291878D01*
X479297Y291856D01*
X479195Y291840D01*
X479178Y291830D01*
X479158Y291826D01*
X479069Y291773D01*
X478978Y291724D01*
X478964Y291710D01*
X478947Y291700D01*
X478880Y291621D01*
X478808Y291546D01*
X478800Y291528D01*
X478787Y291513D01*
X478748Y291417D01*
X478705Y291323D01*
X478703Y291303D01*
X478695Y291285D01*
X478677Y291118D01*
X478677Y89351D01*
X451999Y62673D01*
X290351Y62673D01*
X279702Y73322D01*
X279628Y73375D01*
X279558Y73435D01*
X279528Y73447D01*
X279502Y73466D01*
X279415Y73493D01*
X279330Y73527D01*
X279289Y73531D01*
X279267Y73538D01*
X279235Y73537D01*
X279163Y73545D01*
X267094Y73545D01*
X264713Y75926D01*
X264713Y93316D01*
X264710Y93336D01*
X264712Y93355D01*
X264690Y93457D01*
X264674Y93559D01*
X264664Y93576D01*
X264660Y93596D01*
X264607Y93685D01*
X264558Y93776D01*
X264544Y93790D01*
X264534Y93807D01*
X264455Y93874D01*
X264380Y93946D01*
X264362Y93954D01*
X264347Y93967D01*
X264251Y94006D01*
X264157Y94049D01*
X264137Y94051D01*
X264119Y94059D01*
X263952Y94077D01*
X262827Y94077D01*
X261639Y94569D01*
X261526Y94596D01*
X261412Y94625D01*
X261406Y94624D01*
X261400Y94626D01*
X261284Y94615D01*
X261167Y94606D01*
X261161Y94603D01*
X261155Y94603D01*
X261048Y94555D01*
X260940Y94509D01*
X260935Y94505D01*
X260930Y94503D01*
X260917Y94490D01*
X260809Y94404D01*
X260800Y94395D01*
X260221Y94060D01*
X259574Y93887D01*
X251873Y93887D01*
X251873Y100238D01*
X251870Y100258D01*
X251872Y100277D01*
X251850Y100379D01*
X251833Y100481D01*
X251824Y100498D01*
X251820Y100518D01*
X251767Y100607D01*
X251718Y100698D01*
X251704Y100712D01*
X251694Y100729D01*
X251615Y100796D01*
X251540Y100867D01*
X251522Y100876D01*
X251507Y100889D01*
X251411Y100928D01*
X251317Y100971D01*
X251297Y100973D01*
X251279Y100981D01*
X251112Y100999D01*
X250349Y100999D01*
X250349Y101001D01*
X251112Y101001D01*
X251132Y101004D01*
X251151Y101002D01*
X251253Y101024D01*
X251355Y101041D01*
X251372Y101050D01*
X251392Y101054D01*
X251481Y101107D01*
X251572Y101156D01*
X251586Y101170D01*
X251603Y101180D01*
X251670Y101259D01*
X251741Y101334D01*
X251750Y101352D01*
X251763Y101367D01*
X251802Y101463D01*
X251845Y101557D01*
X251847Y101577D01*
X251855Y101595D01*
X251873Y101762D01*
X251873Y108113D01*
X253316Y108113D01*
X253336Y108116D01*
X253355Y108114D01*
X253457Y108136D01*
X253559Y108152D01*
X253576Y108162D01*
X253596Y108166D01*
X253685Y108219D01*
X253776Y108268D01*
X253790Y108282D01*
X253807Y108292D01*
X253874Y108371D01*
X253946Y108446D01*
X253954Y108464D01*
X253967Y108479D01*
X254006Y108575D01*
X254049Y108669D01*
X254051Y108689D01*
X254059Y108707D01*
X254077Y108874D01*
X254077Y117852D01*
X254074Y117872D01*
X254076Y117891D01*
X254054Y117993D01*
X254038Y118095D01*
X254028Y118112D01*
X254024Y118132D01*
X253971Y118221D01*
X253922Y118312D01*
X253908Y118326D01*
X253898Y118343D01*
X253819Y118410D01*
X253744Y118482D01*
X253726Y118490D01*
X253711Y118503D01*
X253615Y118542D01*
X253521Y118585D01*
X253501Y118587D01*
X253483Y118595D01*
X253316Y118613D01*
X239776Y118613D01*
X237395Y120994D01*
X237395Y121662D01*
X237392Y121682D01*
X237394Y121701D01*
X237372Y121803D01*
X237356Y121905D01*
X237346Y121922D01*
X237342Y121942D01*
X237289Y122031D01*
X237240Y122122D01*
X237226Y122136D01*
X237216Y122153D01*
X237137Y122220D01*
X237062Y122292D01*
X237044Y122300D01*
X237029Y122313D01*
X236933Y122352D01*
X236839Y122395D01*
X236819Y122397D01*
X236801Y122405D01*
X236634Y122423D01*
X205751Y122423D01*
X165274Y162900D01*
X165200Y162953D01*
X165130Y163013D01*
X165100Y163025D01*
X165074Y163044D01*
X164987Y163071D01*
X164902Y163105D01*
X164861Y163109D01*
X164839Y163116D01*
X164807Y163115D01*
X164735Y163123D01*
X56141Y163123D01*
X56070Y163112D01*
X55998Y163110D01*
X55949Y163092D01*
X55898Y163084D01*
X55834Y163050D01*
X55767Y163025D01*
X55726Y162993D01*
X55680Y162968D01*
X55631Y162916D01*
X55575Y162872D01*
X55547Y162828D01*
X55511Y162790D01*
X55481Y162725D01*
X55442Y162665D01*
X55429Y162614D01*
X55407Y162567D01*
X55400Y162496D01*
X55382Y162426D01*
X55386Y162374D01*
X55380Y162323D01*
X55396Y162252D01*
X55401Y162181D01*
X55422Y162133D01*
X55433Y162082D01*
X55469Y162021D01*
X55497Y161955D01*
X55542Y161899D01*
X55559Y161871D01*
X55577Y161856D01*
X55602Y161824D01*
X71126Y146300D01*
X71200Y146247D01*
X71270Y146187D01*
X71300Y146175D01*
X71326Y146156D01*
X71413Y146129D01*
X71498Y146095D01*
X71539Y146091D01*
X71561Y146084D01*
X71593Y146085D01*
X71665Y146077D01*
X79664Y146077D01*
X79755Y146091D01*
X79845Y146099D01*
X79875Y146111D01*
X79907Y146116D01*
X79988Y146159D01*
X80072Y146195D01*
X80104Y146221D01*
X80125Y146232D01*
X80142Y146250D01*
X80144Y146251D01*
X80151Y146258D01*
X80203Y146300D01*
X81805Y147902D01*
X84689Y149097D01*
X87811Y149097D01*
X90695Y147902D01*
X92902Y145695D01*
X94097Y142811D01*
X94097Y139689D01*
X92902Y136805D01*
X90695Y134598D01*
X87811Y133403D01*
X84689Y133403D01*
X81805Y134598D01*
X80203Y136200D01*
X80129Y136253D01*
X80059Y136313D01*
X80029Y136325D01*
X80003Y136344D01*
X79916Y136371D01*
X79831Y136405D01*
X79790Y136409D01*
X79768Y136416D01*
X79736Y136415D01*
X79664Y136423D01*
X67351Y136423D01*
X64300Y139474D01*
X50276Y153498D01*
X50218Y153540D01*
X50166Y153589D01*
X50119Y153611D01*
X50077Y153641D01*
X50008Y153662D01*
X49943Y153693D01*
X49891Y153698D01*
X49841Y153714D01*
X49770Y153712D01*
X49699Y153720D01*
X49648Y153709D01*
X49596Y153707D01*
X49528Y153683D01*
X49458Y153667D01*
X49413Y153641D01*
X49365Y153623D01*
X49309Y153578D01*
X49247Y153541D01*
X49213Y153502D01*
X49173Y153469D01*
X49134Y153409D01*
X49087Y153354D01*
X49068Y153306D01*
X49040Y153262D01*
X49022Y153193D01*
X49011Y153164D01*
X49005Y153152D01*
X49005Y153149D01*
X48995Y153126D01*
X48987Y153055D01*
X48979Y153024D01*
X48981Y153000D01*
X48977Y152959D01*
X48977Y151726D01*
X48980Y151706D01*
X48978Y151687D01*
X49000Y151585D01*
X49016Y151483D01*
X49026Y151466D01*
X49030Y151446D01*
X49083Y151357D01*
X49132Y151266D01*
X49146Y151252D01*
X49156Y151235D01*
X49235Y151168D01*
X49310Y151096D01*
X49328Y151088D01*
X49343Y151075D01*
X49439Y151036D01*
X49533Y150993D01*
X49553Y150991D01*
X49571Y150983D01*
X49738Y150965D01*
X49784Y150965D01*
X52165Y148584D01*
X52165Y134216D01*
X50281Y132332D01*
X50255Y132297D01*
X50223Y132267D01*
X50184Y132198D01*
X50137Y132133D01*
X50124Y132091D01*
X50103Y132053D01*
X50088Y131974D01*
X50065Y131898D01*
X50066Y131854D01*
X50058Y131811D01*
X50069Y131732D01*
X50071Y131652D01*
X50086Y131611D01*
X50093Y131567D01*
X50151Y131434D01*
X50156Y131421D01*
X50158Y131418D01*
X50160Y131414D01*
X50468Y130881D01*
X50641Y130234D01*
X50641Y125923D01*
X43862Y125923D01*
X43842Y125920D01*
X43823Y125922D01*
X43721Y125900D01*
X43619Y125883D01*
X43602Y125874D01*
X43582Y125870D01*
X43493Y125817D01*
X43402Y125768D01*
X43388Y125754D01*
X43371Y125744D01*
X43304Y125665D01*
X43233Y125590D01*
X43224Y125572D01*
X43211Y125557D01*
X43172Y125461D01*
X43129Y125367D01*
X43127Y125347D01*
X43119Y125329D01*
X43101Y125162D01*
X43101Y124399D01*
X43099Y124399D01*
X43099Y125162D01*
X43096Y125182D01*
X43098Y125201D01*
X43076Y125303D01*
X43059Y125405D01*
X43050Y125422D01*
X43046Y125442D01*
X42993Y125531D01*
X42944Y125622D01*
X42930Y125636D01*
X42920Y125653D01*
X42841Y125720D01*
X42766Y125791D01*
X42748Y125800D01*
X42733Y125813D01*
X42637Y125852D01*
X42543Y125895D01*
X42523Y125897D01*
X42505Y125905D01*
X42338Y125923D01*
X35559Y125923D01*
X35559Y130234D01*
X35732Y130881D01*
X36040Y131414D01*
X36056Y131455D01*
X36079Y131491D01*
X36099Y131569D01*
X36127Y131644D01*
X36129Y131688D01*
X36139Y131730D01*
X36133Y131809D01*
X36136Y131889D01*
X36124Y131932D01*
X36120Y131975D01*
X36089Y132049D01*
X36066Y132125D01*
X36041Y132161D01*
X36024Y132202D01*
X35933Y132315D01*
X35925Y132327D01*
X35922Y132329D01*
X35919Y132332D01*
X34035Y134216D01*
X34035Y146521D01*
X34024Y146592D01*
X34022Y146664D01*
X34004Y146713D01*
X33996Y146764D01*
X33962Y146828D01*
X33937Y146895D01*
X33905Y146936D01*
X33880Y146982D01*
X33828Y147031D01*
X33784Y147087D01*
X33740Y147115D01*
X33702Y147151D01*
X33637Y147181D01*
X33577Y147220D01*
X33526Y147233D01*
X33479Y147255D01*
X33408Y147262D01*
X33338Y147280D01*
X33286Y147276D01*
X33235Y147282D01*
X33164Y147266D01*
X33093Y147261D01*
X33045Y147240D01*
X32994Y147229D01*
X32933Y147193D01*
X32867Y147165D01*
X32811Y147120D01*
X32783Y147103D01*
X32768Y147085D01*
X32736Y147060D01*
X30788Y145112D01*
X30745Y145053D01*
X30696Y145001D01*
X30688Y144984D01*
X30675Y144968D01*
X30663Y144938D01*
X30644Y144912D01*
X30623Y144843D01*
X30593Y144778D01*
X30591Y144759D01*
X30583Y144740D01*
X30579Y144699D01*
X30572Y144677D01*
X30573Y144645D01*
X30565Y144573D01*
X30565Y131716D01*
X28681Y129832D01*
X28655Y129797D01*
X28623Y129767D01*
X28584Y129698D01*
X28537Y129633D01*
X28524Y129591D01*
X28503Y129553D01*
X28488Y129474D01*
X28465Y129398D01*
X28466Y129354D01*
X28458Y129311D01*
X28469Y129232D01*
X28471Y129152D01*
X28486Y129111D01*
X28493Y129067D01*
X28551Y128934D01*
X28556Y128921D01*
X28558Y128918D01*
X28560Y128914D01*
X28868Y128381D01*
X29041Y127734D01*
X29041Y123423D01*
X22262Y123423D01*
X22242Y123420D01*
X22223Y123422D01*
X22121Y123400D01*
X22019Y123383D01*
X22002Y123374D01*
X21982Y123370D01*
X21893Y123317D01*
X21802Y123268D01*
X21788Y123254D01*
X21771Y123244D01*
X21704Y123165D01*
X21633Y123090D01*
X21624Y123072D01*
X21611Y123057D01*
X21572Y122961D01*
X21529Y122867D01*
X21527Y122847D01*
X21519Y122829D01*
X21501Y122662D01*
X21501Y121899D01*
X21499Y121899D01*
X21499Y122662D01*
X21496Y122682D01*
X21498Y122701D01*
X21476Y122802D01*
X21459Y122905D01*
X21450Y122922D01*
X21446Y122942D01*
X21393Y123031D01*
X21344Y123122D01*
X21330Y123136D01*
X21320Y123153D01*
X21241Y123220D01*
X21166Y123291D01*
X21148Y123300D01*
X21133Y123313D01*
X21037Y123352D01*
X20943Y123395D01*
X20923Y123397D01*
X20905Y123405D01*
X20738Y123423D01*
X13959Y123423D01*
X13959Y127734D01*
X14132Y128381D01*
X14440Y128914D01*
X14456Y128955D01*
X14479Y128991D01*
X14499Y129069D01*
X14527Y129144D01*
X14529Y129188D01*
X14539Y129230D01*
X14533Y129309D01*
X14536Y129389D01*
X14524Y129432D01*
X14520Y129475D01*
X14489Y129549D01*
X14466Y129625D01*
X14441Y129661D01*
X14424Y129702D01*
X14333Y129815D01*
X14325Y129827D01*
X14322Y129829D01*
X14319Y129832D01*
X12435Y131716D01*
X12435Y146084D01*
X14816Y148465D01*
X20173Y148465D01*
X20263Y148479D01*
X20354Y148487D01*
X20384Y148499D01*
X20416Y148504D01*
X20497Y148547D01*
X20581Y148583D01*
X20613Y148609D01*
X20633Y148620D01*
X20656Y148643D01*
X20712Y148688D01*
X25806Y153782D01*
X25848Y153840D01*
X25897Y153892D01*
X25919Y153939D01*
X25949Y153981D01*
X25970Y154050D01*
X26001Y154115D01*
X26006Y154167D01*
X26022Y154217D01*
X26020Y154288D01*
X26028Y154359D01*
X26017Y154410D01*
X26015Y154462D01*
X25991Y154530D01*
X25975Y154600D01*
X25949Y154645D01*
X25931Y154693D01*
X25886Y154749D01*
X25849Y154811D01*
X25810Y154845D01*
X25777Y154885D01*
X25717Y154924D01*
X25662Y154971D01*
X25614Y154990D01*
X25570Y155018D01*
X25501Y155036D01*
X25434Y155063D01*
X25363Y155071D01*
X25332Y155079D01*
X25308Y155077D01*
X25267Y155081D01*
X22885Y155081D01*
X22853Y155090D01*
X22754Y155120D01*
X22734Y155119D01*
X22714Y155124D01*
X22611Y155116D01*
X22508Y155114D01*
X22489Y155107D01*
X22469Y155105D01*
X22413Y155081D01*
X18711Y155081D01*
X16492Y157300D01*
X16409Y157360D01*
X16357Y157404D01*
X16341Y157411D01*
X16307Y157436D01*
X16298Y157440D01*
X16293Y157444D01*
X16271Y157450D01*
X16151Y157497D01*
X16019Y157532D01*
X15440Y157867D01*
X14967Y158340D01*
X14632Y158919D01*
X14459Y159566D01*
X14459Y161318D01*
X14454Y161349D01*
X14455Y161360D01*
X14444Y161411D01*
X14437Y161499D01*
X14425Y161529D01*
X14420Y161561D01*
X14406Y161585D01*
X14403Y161601D01*
X14372Y161652D01*
X14341Y161725D01*
X14315Y161757D01*
X14304Y161778D01*
X14287Y161794D01*
X14277Y161812D01*
X14261Y161825D01*
X14236Y161856D01*
X12081Y164011D01*
X12081Y167715D01*
X12090Y167748D01*
X12120Y167847D01*
X12119Y167867D01*
X12124Y167886D01*
X12116Y167989D01*
X12114Y168092D01*
X12107Y168111D01*
X12105Y168131D01*
X12081Y168187D01*
X12081Y172015D01*
X12090Y172048D01*
X12120Y172147D01*
X12119Y172167D01*
X12124Y172186D01*
X12116Y172289D01*
X12114Y172392D01*
X12107Y172411D01*
X12105Y172431D01*
X12081Y172487D01*
X12081Y176312D01*
X12095Y176341D01*
X12099Y176377D01*
X12120Y176446D01*
X12119Y176466D01*
X12124Y176486D01*
X12119Y176558D01*
X12122Y176585D01*
X12116Y176613D01*
X12114Y176692D01*
X12107Y176711D01*
X12105Y176731D01*
X12081Y176787D01*
X12081Y180615D01*
X12090Y180647D01*
X12120Y180746D01*
X12119Y180766D01*
X12124Y180786D01*
X12116Y180889D01*
X12114Y180992D01*
X12107Y181011D01*
X12105Y181031D01*
X12081Y181087D01*
X12081Y184789D01*
X12712Y185420D01*
X12765Y185494D01*
X12825Y185563D01*
X12837Y185593D01*
X12856Y185620D01*
X12883Y185707D01*
X12917Y185791D01*
X12921Y185832D01*
X12928Y185855D01*
X12927Y185887D01*
X12935Y185958D01*
X12935Y190584D01*
X15316Y192965D01*
X17642Y192965D01*
X17732Y192979D01*
X17823Y192987D01*
X17853Y192999D01*
X17885Y193004D01*
X17965Y193047D01*
X18049Y193083D01*
X18081Y193109D01*
X18102Y193120D01*
X18124Y193143D01*
X18180Y193188D01*
X18711Y193719D01*
X22415Y193719D01*
X22448Y193710D01*
X22547Y193680D01*
X22566Y193681D01*
X22586Y193676D01*
X22689Y193684D01*
X22792Y193686D01*
X22811Y193693D01*
X22831Y193695D01*
X22926Y193735D01*
X23023Y193771D01*
X23039Y193783D01*
X23057Y193791D01*
X23188Y193896D01*
X23195Y193902D01*
X23204Y193916D01*
X23215Y193925D01*
X23217Y193927D01*
X23222Y193931D01*
X23278Y194018D01*
X23338Y194102D01*
X23344Y194121D01*
X23355Y194138D01*
X23380Y194239D01*
X23411Y194337D01*
X23410Y194357D01*
X23415Y194377D01*
X23407Y194480D01*
X23404Y194583D01*
X23398Y194602D01*
X23396Y194622D01*
X23356Y194717D01*
X23320Y194814D01*
X23307Y194830D01*
X23300Y194848D01*
X23195Y194979D01*
X21062Y197112D01*
X20988Y197165D01*
X20918Y197225D01*
X20888Y197237D01*
X20862Y197256D01*
X20775Y197283D01*
X20690Y197317D01*
X20649Y197321D01*
X20627Y197328D01*
X20595Y197327D01*
X20523Y197335D01*
X15666Y197335D01*
X13285Y199716D01*
X13285Y213084D01*
X15666Y215465D01*
X17862Y215465D01*
X17882Y215468D01*
X17901Y215466D01*
X18003Y215488D01*
X18105Y215504D01*
X18122Y215514D01*
X18142Y215518D01*
X18231Y215571D01*
X18322Y215620D01*
X18336Y215634D01*
X18353Y215644D01*
X18420Y215723D01*
X18492Y215798D01*
X18500Y215816D01*
X18513Y215831D01*
X18552Y215927D01*
X18595Y216021D01*
X18597Y216041D01*
X18605Y216059D01*
X18623Y216226D01*
X18623Y220574D01*
X18620Y220594D01*
X18622Y220613D01*
X18600Y220715D01*
X18584Y220817D01*
X18574Y220834D01*
X18570Y220854D01*
X18517Y220943D01*
X18468Y221034D01*
X18454Y221048D01*
X18444Y221065D01*
X18365Y221132D01*
X18290Y221204D01*
X18272Y221212D01*
X18257Y221225D01*
X18161Y221264D01*
X18067Y221307D01*
X18047Y221309D01*
X18029Y221317D01*
X17862Y221335D01*
X16266Y221335D01*
X13885Y223716D01*
X13885Y237084D01*
X16266Y239465D01*
X17862Y239465D01*
X17882Y239468D01*
X17901Y239466D01*
X18003Y239488D01*
X18105Y239504D01*
X18122Y239514D01*
X18142Y239518D01*
X18231Y239571D01*
X18322Y239620D01*
X18336Y239634D01*
X18353Y239644D01*
X18420Y239723D01*
X18492Y239798D01*
X18500Y239816D01*
X18513Y239831D01*
X18552Y239927D01*
X18595Y240021D01*
X18597Y240041D01*
X18605Y240059D01*
X18623Y240226D01*
X18623Y243074D01*
X18620Y243094D01*
X18622Y243113D01*
X18600Y243215D01*
X18584Y243317D01*
X18574Y243334D01*
X18570Y243354D01*
X18517Y243443D01*
X18468Y243534D01*
X18454Y243548D01*
X18444Y243565D01*
X18365Y243632D01*
X18290Y243704D01*
X18272Y243712D01*
X18257Y243725D01*
X18161Y243764D01*
X18067Y243807D01*
X18047Y243809D01*
X18029Y243817D01*
X17862Y243835D01*
X15366Y243835D01*
X12985Y246216D01*
X12985Y259584D01*
X15366Y261965D01*
X16962Y261965D01*
X16982Y261968D01*
X17001Y261966D01*
X17103Y261988D01*
X17205Y262004D01*
X17222Y262014D01*
X17242Y262018D01*
X17331Y262071D01*
X17422Y262120D01*
X17436Y262134D01*
X17453Y262144D01*
X17520Y262223D01*
X17592Y262298D01*
X17600Y262316D01*
X17613Y262331D01*
X17652Y262427D01*
X17695Y262521D01*
X17697Y262541D01*
X17705Y262559D01*
X17723Y262726D01*
X17723Y301449D01*
X22942Y306668D01*
X22995Y306742D01*
X23055Y306812D01*
X23067Y306842D01*
X23086Y306868D01*
X23113Y306955D01*
X23147Y307040D01*
X23151Y307081D01*
X23158Y307103D01*
X23157Y307135D01*
X23165Y307207D01*
X23165Y321694D01*
X24944Y325989D01*
X28231Y329276D01*
X31025Y330433D01*
X31081Y330468D01*
X31141Y330493D01*
X31206Y330545D01*
X31234Y330563D01*
X31247Y330578D01*
X31272Y330598D01*
X36200Y335526D01*
X38514Y337840D01*
X38556Y337898D01*
X38605Y337950D01*
X38627Y337997D01*
X38657Y338039D01*
X38678Y338108D01*
X38709Y338173D01*
X38714Y338225D01*
X38730Y338275D01*
X38728Y338346D01*
X38736Y338417D01*
X38725Y338468D01*
X38723Y338520D01*
X38699Y338588D01*
X38683Y338658D01*
X38657Y338703D01*
X38639Y338751D01*
X38594Y338807D01*
X38557Y338869D01*
X38518Y338903D01*
X38485Y338943D01*
X38425Y338982D01*
X38370Y339029D01*
X38322Y339048D01*
X38278Y339076D01*
X38209Y339094D01*
X38142Y339121D01*
X38071Y339129D01*
X38040Y339137D01*
X38016Y339135D01*
X37975Y339139D01*
X10922Y339139D01*
X10902Y339136D01*
X10883Y339138D01*
X10781Y339116D01*
X10679Y339100D01*
X10662Y339090D01*
X10642Y339086D01*
X10553Y339033D01*
X10462Y338984D01*
X10448Y338970D01*
X10431Y338960D01*
X10364Y338881D01*
X10292Y338806D01*
X10284Y338788D01*
X10271Y338773D01*
X10232Y338677D01*
X10189Y338583D01*
X10187Y338563D01*
X10179Y338545D01*
X10161Y338378D01*
X10161Y15922D01*
X10164Y15902D01*
X10162Y15883D01*
X10184Y15781D01*
X10200Y15679D01*
X10210Y15662D01*
X10214Y15642D01*
X10267Y15553D01*
X10316Y15462D01*
X10330Y15448D01*
X10340Y15431D01*
X10419Y15364D01*
X10494Y15292D01*
X10512Y15284D01*
X10527Y15271D01*
X10623Y15232D01*
X10717Y15189D01*
X10737Y15187D01*
X10755Y15179D01*
X10922Y15161D01*
X215174Y15161D01*
X215194Y15164D01*
G37*
G36*
X81925Y191491D02*
X81925Y191491D01*
X82016Y191499D01*
X82046Y191511D01*
X82078Y191516D01*
X82159Y191559D01*
X82243Y191595D01*
X82275Y191621D01*
X82295Y191632D01*
X82318Y191655D01*
X82374Y191700D01*
X127751Y237077D01*
X196509Y237077D01*
X196580Y237088D01*
X196652Y237090D01*
X196701Y237108D01*
X196752Y237116D01*
X196816Y237150D01*
X196883Y237175D01*
X196924Y237207D01*
X196970Y237232D01*
X197019Y237284D01*
X197075Y237328D01*
X197103Y237372D01*
X197139Y237410D01*
X197169Y237475D01*
X197208Y237535D01*
X197221Y237586D01*
X197243Y237633D01*
X197250Y237704D01*
X197268Y237774D01*
X197264Y237826D01*
X197270Y237877D01*
X197254Y237948D01*
X197249Y238019D01*
X197228Y238067D01*
X197217Y238118D01*
X197181Y238179D01*
X197153Y238245D01*
X197108Y238301D01*
X197091Y238329D01*
X197073Y238344D01*
X197048Y238376D01*
X184474Y250950D01*
X181423Y254001D01*
X181423Y307685D01*
X181409Y307775D01*
X181401Y307866D01*
X181389Y307896D01*
X181384Y307928D01*
X181341Y308009D01*
X181305Y308093D01*
X181279Y308125D01*
X181268Y308145D01*
X181245Y308168D01*
X181200Y308224D01*
X161096Y328328D01*
X161022Y328381D01*
X160952Y328441D01*
X160922Y328453D01*
X160896Y328472D01*
X160809Y328499D01*
X160724Y328533D01*
X160683Y328537D01*
X160661Y328544D01*
X160629Y328543D01*
X160557Y328551D01*
X150681Y328551D01*
X150611Y328540D01*
X150539Y328538D01*
X150490Y328520D01*
X150438Y328512D01*
X150375Y328478D01*
X150308Y328453D01*
X150267Y328421D01*
X150221Y328396D01*
X150172Y328344D01*
X150116Y328300D01*
X150088Y328256D01*
X150052Y328218D01*
X150022Y328153D01*
X149983Y328093D01*
X149970Y328042D01*
X149948Y327995D01*
X149940Y327924D01*
X149923Y327854D01*
X149927Y327802D01*
X149921Y327751D01*
X149936Y327680D01*
X149942Y327609D01*
X149962Y327561D01*
X149973Y327510D01*
X150010Y327449D01*
X150038Y327383D01*
X150083Y327327D01*
X150099Y327299D01*
X150117Y327284D01*
X150143Y327252D01*
X152506Y324889D01*
X154285Y320594D01*
X154285Y300706D01*
X152506Y296411D01*
X149219Y293124D01*
X147241Y292305D01*
X147141Y292243D01*
X147041Y292183D01*
X147037Y292178D01*
X147032Y292175D01*
X146957Y292085D01*
X146881Y291996D01*
X146879Y291990D01*
X146875Y291986D01*
X146833Y291877D01*
X146789Y291768D01*
X146788Y291761D01*
X146787Y291756D01*
X146786Y291738D01*
X146771Y291601D01*
X146771Y276016D01*
X144390Y273635D01*
X143266Y273635D01*
X143246Y273632D01*
X143226Y273634D01*
X143125Y273612D01*
X143023Y273596D01*
X143006Y273586D01*
X142986Y273582D01*
X142897Y273529D01*
X142806Y273480D01*
X142792Y273466D01*
X142775Y273456D01*
X142708Y273377D01*
X142636Y273302D01*
X142628Y273284D01*
X142615Y273269D01*
X142576Y273173D01*
X142533Y273079D01*
X142531Y273059D01*
X142523Y273041D01*
X142505Y272874D01*
X142505Y267658D01*
X142519Y267567D01*
X142527Y267477D01*
X142539Y267447D01*
X142544Y267415D01*
X142587Y267334D01*
X142623Y267250D01*
X142649Y267218D01*
X142660Y267197D01*
X142683Y267175D01*
X142728Y267119D01*
X144152Y265695D01*
X145347Y262811D01*
X145347Y259689D01*
X144152Y256805D01*
X141945Y254598D01*
X139061Y253403D01*
X135939Y253403D01*
X133055Y254598D01*
X130848Y256805D01*
X129653Y259689D01*
X129653Y262811D01*
X130848Y265695D01*
X132628Y267475D01*
X132681Y267549D01*
X132741Y267619D01*
X132753Y267649D01*
X132772Y267675D01*
X132799Y267762D01*
X132833Y267847D01*
X132837Y267888D01*
X132844Y267910D01*
X132843Y267942D01*
X132851Y268014D01*
X132851Y272874D01*
X132848Y272894D01*
X132850Y272914D01*
X132828Y273015D01*
X132811Y273117D01*
X132802Y273134D01*
X132798Y273154D01*
X132745Y273243D01*
X132696Y273334D01*
X132682Y273348D01*
X132672Y273365D01*
X132593Y273432D01*
X132518Y273504D01*
X132500Y273512D01*
X132485Y273525D01*
X132389Y273564D01*
X132295Y273607D01*
X132275Y273609D01*
X132257Y273617D01*
X132090Y273635D01*
X130966Y273635D01*
X128611Y275991D01*
X128594Y276003D01*
X128582Y276018D01*
X128495Y276074D01*
X128411Y276134D01*
X128392Y276140D01*
X128375Y276151D01*
X128275Y276176D01*
X128176Y276207D01*
X128156Y276206D01*
X128137Y276211D01*
X128034Y276203D01*
X127930Y276200D01*
X127911Y276194D01*
X127891Y276192D01*
X127796Y276152D01*
X127699Y276116D01*
X127683Y276104D01*
X127665Y276096D01*
X127534Y275991D01*
X127210Y275667D01*
X126631Y275332D01*
X125985Y275159D01*
X122145Y275159D01*
X122145Y282938D01*
X122142Y282958D01*
X122144Y282977D01*
X122122Y283079D01*
X122105Y283181D01*
X122096Y283198D01*
X122092Y283218D01*
X122039Y283307D01*
X121990Y283398D01*
X121976Y283412D01*
X121966Y283429D01*
X121887Y283496D01*
X121812Y283567D01*
X121794Y283576D01*
X121779Y283589D01*
X121683Y283628D01*
X121589Y283671D01*
X121569Y283673D01*
X121551Y283681D01*
X121384Y283699D01*
X120621Y283699D01*
X120621Y284462D01*
X120618Y284482D01*
X120620Y284501D01*
X120598Y284603D01*
X120581Y284705D01*
X120572Y284722D01*
X120568Y284742D01*
X120515Y284831D01*
X120466Y284922D01*
X120452Y284936D01*
X120442Y284953D01*
X120363Y285020D01*
X120288Y285091D01*
X120270Y285100D01*
X120255Y285113D01*
X120159Y285152D01*
X120065Y285195D01*
X120045Y285197D01*
X120027Y285205D01*
X119860Y285223D01*
X113053Y285223D01*
X113053Y290034D01*
X113226Y290681D01*
X113420Y291017D01*
X113445Y291082D01*
X113479Y291143D01*
X113488Y291196D01*
X113507Y291247D01*
X113510Y291316D01*
X113522Y291385D01*
X113514Y291438D01*
X113516Y291492D01*
X113497Y291559D01*
X113487Y291628D01*
X113462Y291676D01*
X113447Y291728D01*
X113407Y291785D01*
X113375Y291847D01*
X113336Y291885D01*
X113305Y291930D01*
X113249Y291971D01*
X113199Y292020D01*
X113133Y292056D01*
X113107Y292075D01*
X113086Y292082D01*
X113052Y292101D01*
X110581Y293124D01*
X107294Y296411D01*
X105515Y300706D01*
X105515Y320594D01*
X107294Y324889D01*
X110029Y327624D01*
X110071Y327682D01*
X110120Y327734D01*
X110142Y327781D01*
X110173Y327823D01*
X110194Y327892D01*
X110224Y327957D01*
X110230Y328009D01*
X110245Y328059D01*
X110243Y328130D01*
X110251Y328201D01*
X110240Y328252D01*
X110239Y328304D01*
X110214Y328372D01*
X110199Y328442D01*
X110172Y328487D01*
X110154Y328535D01*
X110109Y328591D01*
X110073Y328653D01*
X110033Y328687D01*
X110000Y328727D01*
X109940Y328766D01*
X109886Y328813D01*
X109837Y328832D01*
X109794Y328860D01*
X109724Y328878D01*
X109657Y328905D01*
X109586Y328913D01*
X109555Y328921D01*
X109532Y328919D01*
X109491Y328923D01*
X69059Y328923D01*
X68989Y328912D01*
X68917Y328910D01*
X68868Y328892D01*
X68816Y328884D01*
X68753Y328850D01*
X68686Y328825D01*
X68645Y328793D01*
X68599Y328768D01*
X68550Y328716D01*
X68494Y328672D01*
X68466Y328628D01*
X68430Y328590D01*
X68400Y328525D01*
X68361Y328465D01*
X68348Y328414D01*
X68326Y328367D01*
X68318Y328296D01*
X68301Y328226D01*
X68305Y328174D01*
X68299Y328123D01*
X68314Y328052D01*
X68320Y327981D01*
X68340Y327933D01*
X68351Y327882D01*
X68388Y327821D01*
X68416Y327755D01*
X68461Y327699D01*
X68477Y327671D01*
X68495Y327656D01*
X68521Y327624D01*
X70156Y325989D01*
X71935Y321694D01*
X71935Y307207D01*
X71949Y307117D01*
X71957Y307026D01*
X71969Y306996D01*
X71974Y306964D01*
X72017Y306883D01*
X72053Y306799D01*
X72079Y306767D01*
X72090Y306747D01*
X72113Y306724D01*
X72158Y306668D01*
X84838Y293988D01*
X84912Y293935D01*
X84982Y293875D01*
X85012Y293863D01*
X85038Y293844D01*
X85125Y293817D01*
X85210Y293783D01*
X85251Y293779D01*
X85273Y293772D01*
X85305Y293773D01*
X85377Y293765D01*
X89140Y293765D01*
X91521Y291384D01*
X91521Y276016D01*
X89140Y273635D01*
X88016Y273635D01*
X87996Y273632D01*
X87976Y273634D01*
X87875Y273612D01*
X87773Y273596D01*
X87756Y273586D01*
X87736Y273582D01*
X87647Y273529D01*
X87556Y273480D01*
X87542Y273466D01*
X87525Y273456D01*
X87458Y273377D01*
X87386Y273302D01*
X87378Y273284D01*
X87365Y273269D01*
X87326Y273173D01*
X87283Y273079D01*
X87281Y273059D01*
X87273Y273041D01*
X87255Y272874D01*
X87255Y227908D01*
X87269Y227817D01*
X87277Y227727D01*
X87289Y227697D01*
X87294Y227665D01*
X87337Y227584D01*
X87373Y227500D01*
X87399Y227468D01*
X87410Y227447D01*
X87433Y227425D01*
X87478Y227369D01*
X89152Y225695D01*
X90347Y222811D01*
X90347Y219689D01*
X89152Y216805D01*
X86945Y214598D01*
X84061Y213403D01*
X80939Y213403D01*
X78055Y214598D01*
X75848Y216805D01*
X74653Y219689D01*
X74653Y222811D01*
X75848Y225695D01*
X77378Y227225D01*
X77431Y227299D01*
X77491Y227369D01*
X77503Y227399D01*
X77522Y227425D01*
X77549Y227512D01*
X77583Y227597D01*
X77587Y227638D01*
X77594Y227660D01*
X77593Y227692D01*
X77601Y227764D01*
X77601Y272874D01*
X77598Y272894D01*
X77600Y272914D01*
X77578Y273015D01*
X77561Y273117D01*
X77552Y273134D01*
X77548Y273154D01*
X77495Y273243D01*
X77446Y273334D01*
X77432Y273348D01*
X77422Y273365D01*
X77343Y273432D01*
X77268Y273504D01*
X77250Y273512D01*
X77235Y273525D01*
X77139Y273564D01*
X77045Y273607D01*
X77025Y273609D01*
X77007Y273617D01*
X76840Y273635D01*
X75716Y273635D01*
X73361Y275991D01*
X73344Y276003D01*
X73332Y276018D01*
X73245Y276074D01*
X73161Y276134D01*
X73142Y276140D01*
X73125Y276151D01*
X73025Y276176D01*
X72926Y276207D01*
X72906Y276206D01*
X72887Y276211D01*
X72784Y276203D01*
X72680Y276200D01*
X72661Y276194D01*
X72641Y276192D01*
X72546Y276152D01*
X72449Y276116D01*
X72433Y276104D01*
X72415Y276096D01*
X72284Y275991D01*
X71960Y275667D01*
X71381Y275332D01*
X70735Y275159D01*
X66895Y275159D01*
X66895Y282938D01*
X66892Y282958D01*
X66894Y282977D01*
X66872Y283079D01*
X66855Y283181D01*
X66846Y283198D01*
X66842Y283218D01*
X66789Y283307D01*
X66740Y283398D01*
X66726Y283412D01*
X66716Y283429D01*
X66637Y283496D01*
X66562Y283567D01*
X66544Y283576D01*
X66529Y283589D01*
X66433Y283628D01*
X66339Y283671D01*
X66319Y283673D01*
X66301Y283681D01*
X66134Y283699D01*
X65371Y283699D01*
X65371Y283701D01*
X66134Y283701D01*
X66154Y283704D01*
X66173Y283702D01*
X66275Y283724D01*
X66377Y283741D01*
X66394Y283750D01*
X66414Y283754D01*
X66503Y283807D01*
X66594Y283856D01*
X66608Y283870D01*
X66625Y283880D01*
X66692Y283959D01*
X66763Y284034D01*
X66772Y284052D01*
X66785Y284067D01*
X66824Y284163D01*
X66867Y284257D01*
X66869Y284277D01*
X66877Y284295D01*
X66895Y284462D01*
X66895Y292241D01*
X70734Y292241D01*
X70994Y292171D01*
X71042Y292166D01*
X71087Y292152D01*
X71163Y292154D01*
X71239Y292147D01*
X71285Y292157D01*
X71333Y292159D01*
X71405Y292185D01*
X71478Y292202D01*
X71519Y292227D01*
X71564Y292243D01*
X71624Y292291D01*
X71688Y292330D01*
X71719Y292367D01*
X71756Y292397D01*
X71797Y292461D01*
X71846Y292519D01*
X71863Y292563D01*
X71889Y292604D01*
X71908Y292677D01*
X71935Y292748D01*
X71938Y292796D01*
X71949Y292842D01*
X71944Y292918D01*
X71947Y292994D01*
X71934Y293040D01*
X71930Y293088D01*
X71901Y293157D01*
X71880Y293230D01*
X71853Y293270D01*
X71834Y293314D01*
X71753Y293414D01*
X71741Y293433D01*
X71735Y293437D01*
X71729Y293445D01*
X69448Y295726D01*
X69431Y295738D01*
X69419Y295754D01*
X69332Y295810D01*
X69248Y295870D01*
X69229Y295876D01*
X69212Y295887D01*
X69112Y295912D01*
X69013Y295942D01*
X68993Y295942D01*
X68974Y295947D01*
X68871Y295939D01*
X68767Y295936D01*
X68748Y295929D01*
X68728Y295927D01*
X68633Y295887D01*
X68536Y295851D01*
X68520Y295839D01*
X68502Y295831D01*
X68371Y295726D01*
X66869Y294224D01*
X64319Y293168D01*
X64220Y293106D01*
X64119Y293046D01*
X64115Y293042D01*
X64110Y293038D01*
X64035Y292948D01*
X63959Y292859D01*
X63957Y292854D01*
X63953Y292849D01*
X63911Y292740D01*
X63867Y292631D01*
X63866Y292624D01*
X63865Y292619D01*
X63864Y292601D01*
X63849Y292465D01*
X63849Y285223D01*
X57803Y285223D01*
X57803Y290034D01*
X57976Y290681D01*
X58355Y291336D01*
X58379Y291401D01*
X58413Y291462D01*
X58423Y291515D01*
X58442Y291566D01*
X58444Y291636D01*
X58457Y291704D01*
X58449Y291758D01*
X58451Y291812D01*
X58431Y291879D01*
X58421Y291948D01*
X58396Y291996D01*
X58381Y292048D01*
X58341Y292105D01*
X58309Y292167D01*
X58271Y292205D01*
X58240Y292249D01*
X58184Y292290D01*
X58134Y292339D01*
X58068Y292375D01*
X58042Y292395D01*
X58021Y292401D01*
X57987Y292420D01*
X53631Y294224D01*
X50344Y297511D01*
X48565Y301806D01*
X48565Y321694D01*
X50344Y325989D01*
X51979Y327624D01*
X52021Y327682D01*
X52070Y327734D01*
X52092Y327781D01*
X52123Y327823D01*
X52144Y327892D01*
X52174Y327957D01*
X52180Y328009D01*
X52195Y328059D01*
X52193Y328130D01*
X52201Y328201D01*
X52190Y328252D01*
X52189Y328304D01*
X52164Y328372D01*
X52149Y328442D01*
X52122Y328487D01*
X52104Y328535D01*
X52059Y328591D01*
X52023Y328653D01*
X51983Y328687D01*
X51950Y328727D01*
X51890Y328766D01*
X51836Y328813D01*
X51787Y328832D01*
X51744Y328860D01*
X51674Y328878D01*
X51607Y328905D01*
X51536Y328913D01*
X51505Y328921D01*
X51482Y328919D01*
X51441Y328923D01*
X43659Y328923D01*
X43589Y328912D01*
X43517Y328910D01*
X43468Y328892D01*
X43416Y328884D01*
X43353Y328850D01*
X43286Y328825D01*
X43245Y328793D01*
X43199Y328768D01*
X43150Y328716D01*
X43094Y328672D01*
X43066Y328628D01*
X43030Y328590D01*
X43000Y328525D01*
X42961Y328465D01*
X42948Y328414D01*
X42926Y328367D01*
X42918Y328296D01*
X42901Y328226D01*
X42905Y328174D01*
X42899Y328123D01*
X42914Y328052D01*
X42920Y327981D01*
X42940Y327933D01*
X42951Y327882D01*
X42988Y327821D01*
X43016Y327755D01*
X43061Y327699D01*
X43077Y327671D01*
X43095Y327656D01*
X43121Y327624D01*
X44756Y325989D01*
X46535Y321694D01*
X46535Y301806D01*
X44756Y297511D01*
X41469Y294224D01*
X37174Y292445D01*
X32526Y292445D01*
X28429Y294142D01*
X28385Y294153D01*
X28343Y294172D01*
X28266Y294180D01*
X28190Y294198D01*
X28144Y294194D01*
X28099Y294199D01*
X28022Y294182D01*
X27945Y294175D01*
X27903Y294157D01*
X27858Y294147D01*
X27791Y294107D01*
X27720Y294075D01*
X27686Y294044D01*
X27647Y294021D01*
X27596Y293961D01*
X27539Y293909D01*
X27517Y293869D01*
X27487Y293834D01*
X27458Y293761D01*
X27421Y293693D01*
X27412Y293648D01*
X27395Y293606D01*
X27380Y293470D01*
X27377Y293451D01*
X27378Y293446D01*
X27377Y293439D01*
X27377Y262726D01*
X27380Y262706D01*
X27378Y262687D01*
X27400Y262585D01*
X27416Y262483D01*
X27426Y262466D01*
X27430Y262446D01*
X27483Y262357D01*
X27532Y262266D01*
X27546Y262252D01*
X27556Y262235D01*
X27635Y262168D01*
X27710Y262096D01*
X27728Y262088D01*
X27743Y262075D01*
X27839Y262036D01*
X27933Y261993D01*
X27953Y261991D01*
X27971Y261983D01*
X28138Y261965D01*
X29734Y261965D01*
X31618Y260081D01*
X31653Y260055D01*
X31683Y260023D01*
X31752Y259984D01*
X31817Y259937D01*
X31859Y259924D01*
X31897Y259903D01*
X31976Y259889D01*
X32052Y259865D01*
X32096Y259866D01*
X32139Y259858D01*
X32218Y259869D01*
X32298Y259871D01*
X32339Y259886D01*
X32383Y259893D01*
X32516Y259951D01*
X32529Y259956D01*
X32532Y259958D01*
X32536Y259960D01*
X33069Y260268D01*
X33716Y260441D01*
X38027Y260441D01*
X38027Y253662D01*
X38030Y253642D01*
X38028Y253623D01*
X38050Y253521D01*
X38067Y253419D01*
X38076Y253402D01*
X38080Y253382D01*
X38133Y253293D01*
X38182Y253202D01*
X38196Y253188D01*
X38206Y253171D01*
X38285Y253104D01*
X38360Y253033D01*
X38378Y253024D01*
X38393Y253011D01*
X38489Y252972D01*
X38583Y252929D01*
X38603Y252927D01*
X38621Y252919D01*
X38788Y252901D01*
X39551Y252901D01*
X39551Y252899D01*
X38788Y252899D01*
X38768Y252896D01*
X38749Y252898D01*
X38647Y252876D01*
X38545Y252859D01*
X38528Y252850D01*
X38508Y252846D01*
X38419Y252793D01*
X38328Y252744D01*
X38314Y252730D01*
X38297Y252720D01*
X38230Y252641D01*
X38159Y252566D01*
X38150Y252548D01*
X38137Y252533D01*
X38098Y252437D01*
X38055Y252343D01*
X38053Y252323D01*
X38045Y252305D01*
X38027Y252138D01*
X38027Y245359D01*
X33716Y245359D01*
X33069Y245532D01*
X32536Y245840D01*
X32495Y245856D01*
X32459Y245879D01*
X32381Y245899D01*
X32306Y245927D01*
X32262Y245929D01*
X32220Y245939D01*
X32141Y245933D01*
X32061Y245936D01*
X32018Y245924D01*
X31975Y245920D01*
X31901Y245889D01*
X31825Y245866D01*
X31789Y245841D01*
X31748Y245824D01*
X31635Y245733D01*
X31623Y245725D01*
X31621Y245722D01*
X31618Y245719D01*
X29734Y243835D01*
X29038Y243835D01*
X29018Y243832D01*
X28999Y243834D01*
X28897Y243812D01*
X28795Y243796D01*
X28778Y243786D01*
X28758Y243782D01*
X28669Y243729D01*
X28578Y243680D01*
X28564Y243666D01*
X28547Y243656D01*
X28480Y243577D01*
X28408Y243502D01*
X28400Y243484D01*
X28387Y243469D01*
X28348Y243373D01*
X28305Y243279D01*
X28303Y243259D01*
X28295Y243241D01*
X28277Y243074D01*
X28277Y240226D01*
X28280Y240206D01*
X28278Y240187D01*
X28300Y240085D01*
X28316Y239983D01*
X28326Y239966D01*
X28330Y239946D01*
X28383Y239857D01*
X28432Y239766D01*
X28446Y239752D01*
X28456Y239735D01*
X28535Y239668D01*
X28610Y239596D01*
X28628Y239588D01*
X28643Y239575D01*
X28739Y239536D01*
X28833Y239493D01*
X28853Y239491D01*
X28871Y239483D01*
X29038Y239465D01*
X30634Y239465D01*
X32518Y237581D01*
X32553Y237555D01*
X32583Y237523D01*
X32652Y237484D01*
X32717Y237437D01*
X32759Y237424D01*
X32797Y237403D01*
X32876Y237389D01*
X32952Y237365D01*
X32996Y237366D01*
X33039Y237358D01*
X33118Y237369D01*
X33198Y237371D01*
X33239Y237386D01*
X33283Y237393D01*
X33416Y237451D01*
X33429Y237456D01*
X33432Y237458D01*
X33436Y237460D01*
X33969Y237768D01*
X34616Y237941D01*
X38927Y237941D01*
X38927Y231162D01*
X38930Y231142D01*
X38928Y231123D01*
X38950Y231021D01*
X38967Y230919D01*
X38976Y230902D01*
X38980Y230882D01*
X39033Y230793D01*
X39082Y230702D01*
X39096Y230688D01*
X39106Y230671D01*
X39185Y230604D01*
X39260Y230533D01*
X39278Y230524D01*
X39293Y230511D01*
X39389Y230472D01*
X39483Y230429D01*
X39503Y230427D01*
X39521Y230419D01*
X39688Y230401D01*
X40451Y230401D01*
X40451Y230399D01*
X39688Y230399D01*
X39668Y230396D01*
X39649Y230398D01*
X39547Y230376D01*
X39445Y230359D01*
X39428Y230350D01*
X39408Y230346D01*
X39319Y230293D01*
X39228Y230244D01*
X39214Y230230D01*
X39197Y230220D01*
X39130Y230141D01*
X39059Y230066D01*
X39050Y230048D01*
X39037Y230033D01*
X38998Y229937D01*
X38955Y229843D01*
X38953Y229823D01*
X38945Y229805D01*
X38927Y229638D01*
X38927Y222859D01*
X34616Y222859D01*
X33969Y223032D01*
X33436Y223340D01*
X33395Y223356D01*
X33359Y223379D01*
X33281Y223399D01*
X33206Y223427D01*
X33162Y223429D01*
X33120Y223439D01*
X33041Y223433D01*
X32961Y223436D01*
X32918Y223424D01*
X32875Y223420D01*
X32801Y223389D01*
X32725Y223366D01*
X32689Y223341D01*
X32648Y223324D01*
X32535Y223233D01*
X32523Y223225D01*
X32521Y223222D01*
X32518Y223219D01*
X30634Y221335D01*
X29038Y221335D01*
X29018Y221332D01*
X28999Y221334D01*
X28897Y221312D01*
X28795Y221296D01*
X28778Y221286D01*
X28758Y221282D01*
X28669Y221229D01*
X28578Y221180D01*
X28564Y221166D01*
X28547Y221156D01*
X28480Y221077D01*
X28408Y221002D01*
X28400Y220984D01*
X28387Y220969D01*
X28348Y220873D01*
X28305Y220779D01*
X28303Y220759D01*
X28295Y220741D01*
X28277Y220574D01*
X28277Y216226D01*
X28280Y216206D01*
X28278Y216187D01*
X28300Y216085D01*
X28316Y215983D01*
X28326Y215966D01*
X28330Y215946D01*
X28383Y215857D01*
X28432Y215766D01*
X28446Y215752D01*
X28456Y215735D01*
X28535Y215668D01*
X28610Y215596D01*
X28628Y215588D01*
X28643Y215575D01*
X28739Y215536D01*
X28833Y215493D01*
X28853Y215491D01*
X28871Y215483D01*
X29038Y215465D01*
X30034Y215465D01*
X31918Y213581D01*
X31953Y213555D01*
X31983Y213523D01*
X32052Y213484D01*
X32117Y213437D01*
X32159Y213424D01*
X32197Y213403D01*
X32276Y213388D01*
X32352Y213365D01*
X32396Y213366D01*
X32439Y213358D01*
X32518Y213369D01*
X32598Y213371D01*
X32639Y213386D01*
X32683Y213393D01*
X32816Y213451D01*
X32829Y213456D01*
X32832Y213458D01*
X32836Y213460D01*
X33369Y213768D01*
X34016Y213941D01*
X38327Y213941D01*
X38327Y207162D01*
X38330Y207142D01*
X38328Y207123D01*
X38350Y207021D01*
X38367Y206919D01*
X38376Y206902D01*
X38380Y206882D01*
X38433Y206793D01*
X38482Y206702D01*
X38496Y206688D01*
X38506Y206671D01*
X38585Y206604D01*
X38660Y206533D01*
X38678Y206524D01*
X38693Y206511D01*
X38789Y206472D01*
X38883Y206429D01*
X38903Y206427D01*
X38921Y206419D01*
X39088Y206401D01*
X39851Y206401D01*
X39851Y206399D01*
X39088Y206399D01*
X39068Y206396D01*
X39049Y206398D01*
X38947Y206376D01*
X38845Y206359D01*
X38828Y206350D01*
X38808Y206346D01*
X38719Y206293D01*
X38628Y206244D01*
X38614Y206230D01*
X38597Y206220D01*
X38530Y206141D01*
X38459Y206066D01*
X38450Y206048D01*
X38437Y206033D01*
X38398Y205937D01*
X38355Y205843D01*
X38353Y205823D01*
X38345Y205805D01*
X38327Y205638D01*
X38327Y198652D01*
X38272Y198608D01*
X38244Y198564D01*
X38208Y198526D01*
X38178Y198461D01*
X38139Y198401D01*
X38126Y198350D01*
X38104Y198303D01*
X38096Y198232D01*
X38079Y198162D01*
X38083Y198110D01*
X38077Y198059D01*
X38092Y197988D01*
X38098Y197917D01*
X38118Y197869D01*
X38129Y197818D01*
X38166Y197757D01*
X38194Y197691D01*
X38239Y197635D01*
X38256Y197607D01*
X38273Y197592D01*
X38299Y197560D01*
X40333Y195526D01*
X41710Y194149D01*
X41726Y194138D01*
X41738Y194122D01*
X41826Y194066D01*
X41909Y194006D01*
X41928Y194000D01*
X41945Y193989D01*
X42046Y193964D01*
X42145Y193933D01*
X42164Y193934D01*
X42184Y193929D01*
X42287Y193937D01*
X42390Y193940D01*
X42409Y193947D01*
X42429Y193948D01*
X42524Y193988D01*
X42621Y194024D01*
X42637Y194037D01*
X42655Y194044D01*
X42786Y194149D01*
X43507Y194870D01*
X43508Y194871D01*
X43880Y195243D01*
X48720Y195243D01*
X50775Y193188D01*
X50849Y193135D01*
X50919Y193075D01*
X50949Y193063D01*
X50975Y193044D01*
X51062Y193017D01*
X51147Y192983D01*
X51188Y192979D01*
X51210Y192972D01*
X51242Y192973D01*
X51314Y192965D01*
X51484Y192965D01*
X52749Y191700D01*
X52823Y191647D01*
X52892Y191587D01*
X52922Y191575D01*
X52948Y191556D01*
X53035Y191529D01*
X53120Y191495D01*
X53161Y191491D01*
X53184Y191484D01*
X53216Y191485D01*
X53287Y191477D01*
X81835Y191477D01*
X81925Y191491D01*
G37*
G36*
X431275Y184591D02*
X431275Y184591D01*
X431366Y184599D01*
X431396Y184611D01*
X431428Y184616D01*
X431509Y184659D01*
X431593Y184695D01*
X431625Y184721D01*
X431645Y184732D01*
X431668Y184755D01*
X431724Y184800D01*
X446200Y199276D01*
X446253Y199350D01*
X446313Y199420D01*
X446325Y199450D01*
X446344Y199476D01*
X446371Y199563D01*
X446405Y199648D01*
X446409Y199689D01*
X446416Y199711D01*
X446415Y199743D01*
X446423Y199815D01*
X446423Y267685D01*
X446409Y267775D01*
X446401Y267866D01*
X446389Y267896D01*
X446384Y267928D01*
X446341Y268009D01*
X446305Y268093D01*
X446279Y268125D01*
X446268Y268145D01*
X446245Y268168D01*
X446200Y268224D01*
X439474Y274950D01*
X439400Y275003D01*
X439330Y275063D01*
X439300Y275075D01*
X439274Y275094D01*
X439187Y275121D01*
X439102Y275155D01*
X439061Y275159D01*
X439039Y275166D01*
X439007Y275165D01*
X438935Y275173D01*
X329251Y275173D01*
X305173Y299251D01*
X305173Y303935D01*
X305159Y304025D01*
X305151Y304116D01*
X305139Y304146D01*
X305134Y304178D01*
X305091Y304259D01*
X305055Y304343D01*
X305029Y304375D01*
X305018Y304395D01*
X304995Y304418D01*
X304950Y304474D01*
X296974Y312450D01*
X296900Y312503D01*
X296830Y312563D01*
X296800Y312575D01*
X296774Y312594D01*
X296687Y312621D01*
X296602Y312655D01*
X296561Y312659D01*
X296539Y312666D01*
X296507Y312665D01*
X296435Y312673D01*
X292726Y312673D01*
X292706Y312670D01*
X292686Y312672D01*
X292585Y312650D01*
X292483Y312634D01*
X292466Y312624D01*
X292446Y312620D01*
X292357Y312567D01*
X292266Y312518D01*
X292252Y312504D01*
X292235Y312494D01*
X292168Y312415D01*
X292096Y312340D01*
X292088Y312322D01*
X292075Y312307D01*
X292036Y312211D01*
X291993Y312117D01*
X291991Y312097D01*
X291983Y312079D01*
X291965Y311912D01*
X291965Y311766D01*
X289609Y309411D01*
X289597Y309394D01*
X289582Y309382D01*
X289526Y309295D01*
X289466Y309211D01*
X289460Y309192D01*
X289449Y309175D01*
X289424Y309075D01*
X289393Y308976D01*
X289394Y308956D01*
X289389Y308937D01*
X289397Y308834D01*
X289400Y308730D01*
X289406Y308711D01*
X289408Y308691D01*
X289448Y308596D01*
X289484Y308499D01*
X289496Y308483D01*
X289504Y308465D01*
X289609Y308334D01*
X289933Y308010D01*
X290268Y307431D01*
X290441Y306785D01*
X290441Y302945D01*
X282662Y302945D01*
X282642Y302942D01*
X282623Y302944D01*
X282521Y302922D01*
X282419Y302905D01*
X282402Y302896D01*
X282382Y302892D01*
X282293Y302839D01*
X282202Y302790D01*
X282188Y302776D01*
X282171Y302766D01*
X282104Y302687D01*
X282033Y302612D01*
X282024Y302594D01*
X282011Y302579D01*
X281972Y302483D01*
X281929Y302389D01*
X281927Y302369D01*
X281919Y302351D01*
X281901Y302184D01*
X281901Y301421D01*
X281899Y301421D01*
X281899Y302184D01*
X281898Y302191D01*
X281897Y302195D01*
X281896Y302204D01*
X281898Y302223D01*
X281876Y302325D01*
X281859Y302427D01*
X281850Y302444D01*
X281846Y302464D01*
X281793Y302553D01*
X281744Y302644D01*
X281730Y302658D01*
X281720Y302675D01*
X281641Y302742D01*
X281566Y302813D01*
X281548Y302822D01*
X281533Y302835D01*
X281437Y302874D01*
X281343Y302917D01*
X281323Y302919D01*
X281305Y302927D01*
X281138Y302945D01*
X273359Y302945D01*
X273359Y306785D01*
X273532Y307431D01*
X273867Y308010D01*
X274191Y308334D01*
X274203Y308350D01*
X274218Y308363D01*
X274274Y308450D01*
X274334Y308534D01*
X274340Y308553D01*
X274351Y308570D01*
X274376Y308670D01*
X274407Y308769D01*
X274406Y308789D01*
X274411Y308808D01*
X274403Y308911D01*
X274400Y309015D01*
X274394Y309034D01*
X274392Y309053D01*
X274352Y309148D01*
X274316Y309246D01*
X274304Y309261D01*
X274296Y309280D01*
X274191Y309411D01*
X271835Y311766D01*
X271835Y312890D01*
X271832Y312910D01*
X271834Y312929D01*
X271812Y313031D01*
X271796Y313133D01*
X271786Y313150D01*
X271782Y313170D01*
X271729Y313259D01*
X271680Y313350D01*
X271666Y313364D01*
X271656Y313381D01*
X271577Y313448D01*
X271502Y313519D01*
X271484Y313528D01*
X271469Y313541D01*
X271373Y313580D01*
X271279Y313623D01*
X271259Y313625D01*
X271241Y313633D01*
X271074Y313651D01*
X269046Y313651D01*
X269026Y313648D01*
X269007Y313650D01*
X268905Y313628D01*
X268803Y313611D01*
X268786Y313602D01*
X268766Y313598D01*
X268677Y313545D01*
X268586Y313496D01*
X268572Y313482D01*
X268555Y313472D01*
X268488Y313393D01*
X268416Y313318D01*
X268408Y313300D01*
X268395Y313285D01*
X268356Y313189D01*
X268313Y313095D01*
X268311Y313075D01*
X268303Y313057D01*
X268285Y312890D01*
X268285Y301956D01*
X266506Y297661D01*
X263219Y294374D01*
X258924Y292595D01*
X254276Y292595D01*
X249981Y294374D01*
X246694Y297661D01*
X244915Y301956D01*
X244915Y321844D01*
X246694Y326139D01*
X248179Y327624D01*
X248221Y327682D01*
X248270Y327734D01*
X248292Y327781D01*
X248323Y327823D01*
X248344Y327892D01*
X248374Y327957D01*
X248380Y328009D01*
X248395Y328059D01*
X248393Y328130D01*
X248401Y328201D01*
X248390Y328252D01*
X248389Y328304D01*
X248364Y328372D01*
X248349Y328442D01*
X248322Y328487D01*
X248304Y328535D01*
X248259Y328591D01*
X248223Y328653D01*
X248183Y328687D01*
X248150Y328727D01*
X248090Y328766D01*
X248036Y328813D01*
X247987Y328832D01*
X247944Y328860D01*
X247874Y328878D01*
X247807Y328905D01*
X247736Y328913D01*
X247705Y328921D01*
X247682Y328919D01*
X247641Y328923D01*
X241065Y328923D01*
X240975Y328909D01*
X240884Y328901D01*
X240854Y328889D01*
X240822Y328884D01*
X240741Y328841D01*
X240657Y328805D01*
X240625Y328779D01*
X240605Y328768D01*
X240582Y328745D01*
X240526Y328700D01*
X240074Y328248D01*
X240062Y328231D01*
X240046Y328219D01*
X239991Y328132D01*
X239930Y328048D01*
X239924Y328029D01*
X239913Y328012D01*
X239888Y327912D01*
X239858Y327813D01*
X239858Y327793D01*
X239853Y327774D01*
X239861Y327671D01*
X239864Y327567D01*
X239871Y327548D01*
X239873Y327528D01*
X239913Y327433D01*
X239949Y327336D01*
X239961Y327320D01*
X239969Y327302D01*
X240074Y327171D01*
X241106Y326139D01*
X242885Y321844D01*
X242885Y301956D01*
X241106Y297661D01*
X237819Y294374D01*
X233524Y292595D01*
X228876Y292595D01*
X224581Y294374D01*
X221294Y297661D01*
X219515Y301956D01*
X219515Y321844D01*
X221294Y326139D01*
X222407Y327252D01*
X222449Y327310D01*
X222498Y327362D01*
X222520Y327409D01*
X222551Y327451D01*
X222572Y327520D01*
X222602Y327585D01*
X222608Y327637D01*
X222623Y327687D01*
X222621Y327758D01*
X222629Y327829D01*
X222618Y327880D01*
X222617Y327932D01*
X222592Y328000D01*
X222577Y328070D01*
X222550Y328115D01*
X222532Y328163D01*
X222487Y328219D01*
X222451Y328281D01*
X222411Y328315D01*
X222378Y328355D01*
X222318Y328394D01*
X222264Y328441D01*
X222215Y328460D01*
X222172Y328488D01*
X222102Y328506D01*
X222035Y328533D01*
X221964Y328541D01*
X221933Y328549D01*
X221910Y328547D01*
X221869Y328551D01*
X176363Y328551D01*
X176292Y328540D01*
X176220Y328538D01*
X176171Y328520D01*
X176120Y328512D01*
X176056Y328478D01*
X175989Y328453D01*
X175948Y328421D01*
X175902Y328396D01*
X175853Y328344D01*
X175797Y328300D01*
X175769Y328256D01*
X175733Y328218D01*
X175703Y328153D01*
X175664Y328093D01*
X175651Y328042D01*
X175629Y327995D01*
X175622Y327924D01*
X175604Y327854D01*
X175608Y327802D01*
X175602Y327751D01*
X175618Y327680D01*
X175623Y327609D01*
X175644Y327561D01*
X175655Y327510D01*
X175691Y327449D01*
X175719Y327383D01*
X175764Y327327D01*
X175781Y327299D01*
X175799Y327284D01*
X175824Y327252D01*
X191077Y311999D01*
X191077Y258315D01*
X191091Y258225D01*
X191099Y258134D01*
X191111Y258104D01*
X191116Y258072D01*
X191159Y257991D01*
X191195Y257907D01*
X191221Y257875D01*
X191232Y257855D01*
X191255Y257832D01*
X191300Y257776D01*
X211776Y237300D01*
X211850Y237247D01*
X211920Y237187D01*
X211950Y237175D01*
X211976Y237156D01*
X212063Y237129D01*
X212148Y237095D01*
X212189Y237091D01*
X212211Y237084D01*
X212243Y237085D01*
X212315Y237077D01*
X221914Y237077D01*
X222005Y237091D01*
X222095Y237099D01*
X222125Y237111D01*
X222157Y237116D01*
X222238Y237159D01*
X222322Y237195D01*
X222354Y237221D01*
X222375Y237232D01*
X222397Y237255D01*
X222453Y237300D01*
X224305Y239152D01*
X227189Y240347D01*
X230311Y240347D01*
X233195Y239152D01*
X235047Y237300D01*
X235121Y237247D01*
X235191Y237187D01*
X235221Y237175D01*
X235247Y237156D01*
X235334Y237129D01*
X235419Y237095D01*
X235460Y237091D01*
X235482Y237084D01*
X235514Y237085D01*
X235586Y237077D01*
X236634Y237077D01*
X236654Y237080D01*
X236673Y237078D01*
X236775Y237100D01*
X236877Y237116D01*
X236894Y237126D01*
X236914Y237130D01*
X237003Y237183D01*
X237094Y237232D01*
X237108Y237246D01*
X237125Y237256D01*
X237192Y237335D01*
X237264Y237410D01*
X237272Y237428D01*
X237285Y237443D01*
X237324Y237539D01*
X237367Y237633D01*
X237369Y237653D01*
X237377Y237671D01*
X237395Y237838D01*
X237395Y238506D01*
X239776Y240887D01*
X253316Y240887D01*
X253336Y240890D01*
X253355Y240888D01*
X253457Y240910D01*
X253559Y240926D01*
X253576Y240936D01*
X253596Y240940D01*
X253685Y240993D01*
X253776Y241042D01*
X253790Y241056D01*
X253807Y241066D01*
X253874Y241145D01*
X253946Y241220D01*
X253954Y241238D01*
X253967Y241253D01*
X254006Y241349D01*
X254049Y241443D01*
X254051Y241463D01*
X254059Y241481D01*
X254077Y241648D01*
X254077Y262173D01*
X255740Y266187D01*
X258813Y269260D01*
X262827Y270923D01*
X392173Y270923D01*
X396187Y269260D01*
X399260Y266187D01*
X400923Y262173D01*
X400923Y241648D01*
X400926Y241628D01*
X400924Y241609D01*
X400946Y241507D01*
X400962Y241405D01*
X400972Y241388D01*
X400976Y241368D01*
X401029Y241279D01*
X401078Y241188D01*
X401092Y241174D01*
X401102Y241157D01*
X401181Y241090D01*
X401256Y241018D01*
X401274Y241010D01*
X401289Y240997D01*
X401385Y240958D01*
X401479Y240915D01*
X401499Y240913D01*
X401517Y240905D01*
X401684Y240887D01*
X415924Y240887D01*
X418305Y238506D01*
X418305Y225994D01*
X415924Y223613D01*
X401684Y223613D01*
X401664Y223610D01*
X401645Y223612D01*
X401543Y223590D01*
X401441Y223574D01*
X401424Y223564D01*
X401404Y223560D01*
X401315Y223507D01*
X401224Y223458D01*
X401210Y223444D01*
X401193Y223434D01*
X401126Y223355D01*
X401054Y223280D01*
X401046Y223262D01*
X401033Y223247D01*
X400994Y223151D01*
X400951Y223057D01*
X400949Y223037D01*
X400941Y223019D01*
X400923Y222852D01*
X400923Y215398D01*
X400926Y215378D01*
X400924Y215359D01*
X400946Y215257D01*
X400962Y215155D01*
X400972Y215138D01*
X400976Y215118D01*
X401029Y215029D01*
X401078Y214938D01*
X401092Y214924D01*
X401102Y214907D01*
X401181Y214840D01*
X401256Y214768D01*
X401274Y214760D01*
X401289Y214747D01*
X401385Y214708D01*
X401479Y214665D01*
X401499Y214663D01*
X401517Y214655D01*
X401684Y214637D01*
X415924Y214637D01*
X418305Y212256D01*
X418305Y199744D01*
X415924Y197363D01*
X401684Y197363D01*
X401664Y197360D01*
X401645Y197362D01*
X401543Y197340D01*
X401441Y197324D01*
X401424Y197314D01*
X401404Y197310D01*
X401315Y197257D01*
X401224Y197208D01*
X401210Y197194D01*
X401193Y197184D01*
X401126Y197105D01*
X401054Y197030D01*
X401046Y197012D01*
X401033Y196997D01*
X400994Y196901D01*
X400951Y196807D01*
X400949Y196787D01*
X400941Y196769D01*
X400923Y196602D01*
X400923Y189148D01*
X400926Y189128D01*
X400924Y189109D01*
X400946Y189007D01*
X400962Y188905D01*
X400972Y188888D01*
X400976Y188868D01*
X401029Y188779D01*
X401078Y188688D01*
X401092Y188674D01*
X401102Y188657D01*
X401181Y188590D01*
X401256Y188518D01*
X401274Y188510D01*
X401289Y188497D01*
X401385Y188458D01*
X401479Y188415D01*
X401499Y188413D01*
X401517Y188405D01*
X401684Y188387D01*
X415924Y188387D01*
X418305Y186006D01*
X418305Y185338D01*
X418308Y185318D01*
X418306Y185299D01*
X418328Y185197D01*
X418344Y185095D01*
X418354Y185078D01*
X418358Y185058D01*
X418411Y184969D01*
X418460Y184878D01*
X418474Y184864D01*
X418484Y184847D01*
X418563Y184780D01*
X418638Y184708D01*
X418656Y184700D01*
X418671Y184687D01*
X418767Y184648D01*
X418861Y184605D01*
X418881Y184603D01*
X418899Y184595D01*
X419066Y184577D01*
X431185Y184577D01*
X431275Y184591D01*
G37*
%LPC*%
G36*
X84476Y26095D02*
X84476Y26095D01*
X80181Y27874D01*
X76894Y31161D01*
X75115Y35456D01*
X75115Y49943D01*
X75101Y50033D01*
X75093Y50124D01*
X75081Y50154D01*
X75076Y50186D01*
X75033Y50267D01*
X74997Y50351D01*
X74971Y50383D01*
X74960Y50403D01*
X74937Y50426D01*
X74892Y50482D01*
X71419Y53955D01*
X71345Y54008D01*
X71275Y54068D01*
X71245Y54080D01*
X71219Y54099D01*
X71132Y54126D01*
X71047Y54160D01*
X71006Y54164D01*
X70984Y54171D01*
X70952Y54170D01*
X70880Y54178D01*
X67665Y54178D01*
X67645Y54175D01*
X67626Y54177D01*
X67524Y54155D01*
X67422Y54139D01*
X67405Y54129D01*
X67385Y54125D01*
X67296Y54072D01*
X67205Y54023D01*
X67191Y54009D01*
X67174Y53999D01*
X67107Y53920D01*
X67035Y53845D01*
X67027Y53827D01*
X67014Y53812D01*
X66975Y53716D01*
X66932Y53622D01*
X66930Y53602D01*
X66922Y53584D01*
X66904Y53417D01*
X66904Y52495D01*
X64619Y50211D01*
X64607Y50195D01*
X64592Y50182D01*
X64536Y50095D01*
X64476Y50011D01*
X64470Y49992D01*
X64459Y49975D01*
X64434Y49875D01*
X64403Y49776D01*
X64404Y49756D01*
X64399Y49737D01*
X64407Y49634D01*
X64410Y49530D01*
X64416Y49511D01*
X64418Y49491D01*
X64458Y49397D01*
X64494Y49299D01*
X64506Y49283D01*
X64514Y49265D01*
X64619Y49134D01*
X64872Y48881D01*
X65207Y48302D01*
X65380Y47655D01*
X65380Y44018D01*
X56362Y44018D01*
X56342Y44015D01*
X56323Y44017D01*
X56221Y43995D01*
X56119Y43978D01*
X56102Y43969D01*
X56082Y43965D01*
X55993Y43912D01*
X55902Y43863D01*
X55888Y43849D01*
X55871Y43839D01*
X55804Y43760D01*
X55733Y43685D01*
X55724Y43667D01*
X55711Y43652D01*
X55672Y43556D01*
X55629Y43462D01*
X55627Y43442D01*
X55619Y43424D01*
X55601Y43257D01*
X55601Y42494D01*
X55599Y42494D01*
X55599Y43257D01*
X55596Y43277D01*
X55598Y43296D01*
X55576Y43398D01*
X55559Y43500D01*
X55550Y43517D01*
X55546Y43537D01*
X55493Y43626D01*
X55444Y43717D01*
X55430Y43731D01*
X55420Y43748D01*
X55341Y43815D01*
X55266Y43886D01*
X55248Y43895D01*
X55233Y43908D01*
X55137Y43947D01*
X55043Y43990D01*
X55023Y43992D01*
X55005Y44000D01*
X54838Y44018D01*
X45820Y44018D01*
X45820Y47655D01*
X45993Y48302D01*
X46328Y48881D01*
X46581Y49134D01*
X46593Y49150D01*
X46608Y49163D01*
X46664Y49250D01*
X46724Y49334D01*
X46730Y49353D01*
X46741Y49370D01*
X46766Y49470D01*
X46797Y49569D01*
X46796Y49589D01*
X46801Y49608D01*
X46793Y49711D01*
X46790Y49815D01*
X46784Y49834D01*
X46782Y49853D01*
X46742Y49948D01*
X46706Y50046D01*
X46694Y50061D01*
X46686Y50080D01*
X46581Y50211D01*
X45122Y51670D01*
X45106Y51681D01*
X45093Y51697D01*
X45006Y51753D01*
X44922Y51813D01*
X44903Y51819D01*
X44887Y51830D01*
X44786Y51855D01*
X44687Y51885D01*
X44667Y51885D01*
X44648Y51890D01*
X44545Y51882D01*
X44441Y51879D01*
X44423Y51872D01*
X44403Y51871D01*
X44308Y51830D01*
X44210Y51795D01*
X44195Y51782D01*
X44176Y51774D01*
X44046Y51670D01*
X41776Y49400D01*
X29338Y36962D01*
X29285Y36888D01*
X29225Y36818D01*
X29213Y36788D01*
X29194Y36762D01*
X29167Y36675D01*
X29133Y36590D01*
X29129Y36549D01*
X29122Y36527D01*
X29123Y36495D01*
X29115Y36423D01*
X29115Y29816D01*
X26734Y27435D01*
X15366Y27435D01*
X12985Y29816D01*
X12985Y41184D01*
X14263Y42462D01*
X14275Y42478D01*
X14291Y42490D01*
X14347Y42578D01*
X14407Y42661D01*
X14413Y42680D01*
X14424Y42697D01*
X14449Y42798D01*
X14479Y42897D01*
X14479Y42916D01*
X14484Y42936D01*
X14476Y43039D01*
X14473Y43142D01*
X14466Y43161D01*
X14464Y43181D01*
X14424Y43276D01*
X14388Y43373D01*
X14376Y43389D01*
X14368Y43407D01*
X14263Y43538D01*
X12985Y44816D01*
X12985Y56184D01*
X15366Y58565D01*
X16412Y58565D01*
X16432Y58568D01*
X16451Y58566D01*
X16553Y58588D01*
X16655Y58604D01*
X16672Y58614D01*
X16692Y58618D01*
X16781Y58671D01*
X16872Y58720D01*
X16886Y58734D01*
X16903Y58744D01*
X16970Y58823D01*
X17042Y58898D01*
X17050Y58916D01*
X17063Y58931D01*
X17102Y59027D01*
X17145Y59121D01*
X17147Y59141D01*
X17155Y59159D01*
X17173Y59326D01*
X17173Y65374D01*
X17170Y65394D01*
X17172Y65413D01*
X17150Y65515D01*
X17134Y65617D01*
X17124Y65634D01*
X17120Y65654D01*
X17067Y65743D01*
X17018Y65834D01*
X17004Y65848D01*
X16994Y65865D01*
X16915Y65932D01*
X16840Y66004D01*
X16822Y66012D01*
X16807Y66025D01*
X16711Y66064D01*
X16617Y66107D01*
X16597Y66109D01*
X16579Y66117D01*
X16412Y66135D01*
X14816Y66135D01*
X12435Y68516D01*
X12435Y81884D01*
X13713Y83162D01*
X13725Y83178D01*
X13741Y83190D01*
X13772Y83239D01*
X13778Y83245D01*
X13783Y83256D01*
X13797Y83278D01*
X13857Y83361D01*
X13863Y83380D01*
X13874Y83397D01*
X13899Y83498D01*
X13929Y83597D01*
X13929Y83616D01*
X13934Y83636D01*
X13926Y83739D01*
X13923Y83842D01*
X13916Y83861D01*
X13914Y83881D01*
X13874Y83976D01*
X13838Y84073D01*
X13826Y84089D01*
X13818Y84107D01*
X13713Y84238D01*
X12435Y85516D01*
X12435Y98884D01*
X14816Y101265D01*
X29184Y101265D01*
X31565Y98884D01*
X31565Y97788D01*
X31568Y97768D01*
X31566Y97749D01*
X31588Y97647D01*
X31604Y97545D01*
X31614Y97528D01*
X31618Y97508D01*
X31671Y97419D01*
X31720Y97328D01*
X31734Y97314D01*
X31744Y97297D01*
X31823Y97230D01*
X31898Y97158D01*
X31916Y97150D01*
X31931Y97137D01*
X32027Y97098D01*
X32121Y97055D01*
X32141Y97053D01*
X32159Y97045D01*
X32326Y97027D01*
X42385Y97027D01*
X42475Y97041D01*
X42566Y97049D01*
X42596Y97061D01*
X42628Y97066D01*
X42709Y97109D01*
X42793Y97145D01*
X42825Y97171D01*
X42845Y97182D01*
X42868Y97205D01*
X42924Y97250D01*
X68201Y122527D01*
X78353Y122527D01*
X78443Y122541D01*
X78534Y122549D01*
X78564Y122561D01*
X78596Y122566D01*
X78676Y122609D01*
X78760Y122645D01*
X78792Y122671D01*
X78813Y122682D01*
X78835Y122705D01*
X78891Y122750D01*
X80906Y124765D01*
X96274Y124765D01*
X98655Y122384D01*
X98655Y113016D01*
X97354Y111715D01*
X97301Y111641D01*
X97241Y111572D01*
X97229Y111542D01*
X97210Y111516D01*
X97183Y111429D01*
X97149Y111344D01*
X97145Y111303D01*
X97138Y111280D01*
X97139Y111248D01*
X97131Y111177D01*
X97131Y109699D01*
X89328Y109699D01*
X89309Y109696D01*
X89289Y109698D01*
X89187Y109676D01*
X89085Y109660D01*
X89068Y109650D01*
X89048Y109646D01*
X88959Y109593D01*
X88868Y109544D01*
X88854Y109530D01*
X88837Y109520D01*
X88770Y109441D01*
X88699Y109366D01*
X88690Y109348D01*
X88677Y109333D01*
X88639Y109237D01*
X88595Y109143D01*
X88593Y109123D01*
X88586Y109105D01*
X88573Y109181D01*
X88564Y109198D01*
X88560Y109218D01*
X88507Y109307D01*
X88458Y109398D01*
X88444Y109412D01*
X88434Y109429D01*
X88355Y109496D01*
X88280Y109568D01*
X88262Y109576D01*
X88247Y109589D01*
X88150Y109628D01*
X88057Y109671D01*
X88037Y109673D01*
X88019Y109681D01*
X87852Y109699D01*
X80049Y109699D01*
X80049Y111177D01*
X80035Y111267D01*
X80027Y111358D01*
X80015Y111388D01*
X80010Y111420D01*
X79967Y111500D01*
X79931Y111584D01*
X79905Y111616D01*
X79894Y111637D01*
X79871Y111659D01*
X79826Y111715D01*
X78891Y112650D01*
X78817Y112703D01*
X78748Y112763D01*
X78718Y112775D01*
X78692Y112794D01*
X78605Y112821D01*
X78520Y112855D01*
X78479Y112859D01*
X78456Y112866D01*
X78424Y112865D01*
X78353Y112873D01*
X72515Y112873D01*
X72425Y112859D01*
X72334Y112851D01*
X72304Y112839D01*
X72272Y112834D01*
X72191Y112791D01*
X72107Y112755D01*
X72075Y112729D01*
X72055Y112718D01*
X72032Y112695D01*
X71976Y112650D01*
X46699Y87373D01*
X32326Y87373D01*
X32306Y87370D01*
X32287Y87372D01*
X32185Y87350D01*
X32083Y87334D01*
X32066Y87324D01*
X32046Y87320D01*
X31957Y87267D01*
X31866Y87218D01*
X31852Y87204D01*
X31835Y87194D01*
X31768Y87115D01*
X31696Y87040D01*
X31688Y87022D01*
X31675Y87007D01*
X31636Y86911D01*
X31593Y86817D01*
X31591Y86797D01*
X31583Y86779D01*
X31565Y86612D01*
X31565Y85516D01*
X30287Y84238D01*
X30275Y84222D01*
X30259Y84210D01*
X30203Y84122D01*
X30143Y84039D01*
X30137Y84020D01*
X30126Y84003D01*
X30101Y83902D01*
X30071Y83803D01*
X30071Y83784D01*
X30066Y83764D01*
X30074Y83661D01*
X30077Y83558D01*
X30084Y83539D01*
X30086Y83519D01*
X30126Y83424D01*
X30162Y83327D01*
X30174Y83311D01*
X30182Y83293D01*
X30269Y83184D01*
X30270Y83182D01*
X30271Y83182D01*
X30287Y83162D01*
X31565Y81884D01*
X31565Y81467D01*
X31580Y81371D01*
X31590Y81274D01*
X31600Y81250D01*
X31604Y81224D01*
X31650Y81138D01*
X31690Y81049D01*
X31707Y81030D01*
X31720Y81007D01*
X31790Y80940D01*
X31856Y80868D01*
X31879Y80855D01*
X31898Y80837D01*
X31986Y80796D01*
X32072Y80749D01*
X32097Y80745D01*
X32121Y80734D01*
X32218Y80723D01*
X32314Y80706D01*
X32340Y80710D01*
X32365Y80707D01*
X32460Y80727D01*
X32557Y80742D01*
X32580Y80753D01*
X32606Y80759D01*
X32690Y80809D01*
X32776Y80853D01*
X32794Y80872D01*
X32817Y80885D01*
X32880Y80959D01*
X32948Y81029D01*
X32964Y81057D01*
X32977Y81072D01*
X32989Y81103D01*
X33029Y81176D01*
X33348Y81945D01*
X35555Y84152D01*
X38439Y85347D01*
X41561Y85347D01*
X44445Y84152D01*
X46652Y81945D01*
X47847Y79061D01*
X47847Y75939D01*
X46652Y73055D01*
X45050Y71453D01*
X44997Y71379D01*
X44937Y71309D01*
X44925Y71279D01*
X44906Y71253D01*
X44879Y71166D01*
X44845Y71081D01*
X44841Y71040D01*
X44834Y71018D01*
X44835Y70986D01*
X44827Y70914D01*
X44827Y67883D01*
X44838Y67812D01*
X44840Y67740D01*
X44858Y67692D01*
X44866Y67640D01*
X44900Y67577D01*
X44925Y67509D01*
X44957Y67469D01*
X44982Y67423D01*
X45034Y67373D01*
X45078Y67317D01*
X45122Y67289D01*
X45160Y67253D01*
X45225Y67223D01*
X45285Y67184D01*
X45336Y67172D01*
X45383Y67150D01*
X45454Y67142D01*
X45524Y67124D01*
X45576Y67128D01*
X45627Y67123D01*
X45698Y67138D01*
X45769Y67144D01*
X45817Y67164D01*
X45868Y67175D01*
X45929Y67212D01*
X45995Y67240D01*
X46051Y67285D01*
X46079Y67301D01*
X46094Y67319D01*
X46126Y67345D01*
X46677Y67896D01*
X57349Y67896D01*
X57439Y67910D01*
X57530Y67918D01*
X57560Y67930D01*
X57592Y67935D01*
X57673Y67978D01*
X57757Y68014D01*
X57789Y68040D01*
X57810Y68051D01*
X57832Y68074D01*
X57888Y68119D01*
X68545Y78776D01*
X71596Y81827D01*
X77943Y81827D01*
X77963Y81830D01*
X77982Y81828D01*
X78084Y81850D01*
X78186Y81866D01*
X78203Y81876D01*
X78223Y81880D01*
X78312Y81933D01*
X78403Y81982D01*
X78417Y81996D01*
X78434Y82006D01*
X78501Y82085D01*
X78573Y82160D01*
X78581Y82178D01*
X78594Y82193D01*
X78633Y82289D01*
X78676Y82383D01*
X78678Y82403D01*
X78686Y82421D01*
X78704Y82588D01*
X78704Y85923D01*
X81085Y88304D01*
X83002Y88304D01*
X83022Y88307D01*
X83041Y88305D01*
X83143Y88327D01*
X83245Y88343D01*
X83262Y88353D01*
X83282Y88357D01*
X83371Y88410D01*
X83462Y88459D01*
X83476Y88473D01*
X83493Y88483D01*
X83560Y88562D01*
X83632Y88637D01*
X83640Y88655D01*
X83653Y88670D01*
X83692Y88766D01*
X83735Y88860D01*
X83737Y88880D01*
X83745Y88898D01*
X83763Y89065D01*
X83763Y90874D01*
X83760Y90894D01*
X83762Y90913D01*
X83740Y91015D01*
X83724Y91117D01*
X83714Y91134D01*
X83710Y91154D01*
X83657Y91243D01*
X83608Y91334D01*
X83594Y91348D01*
X83584Y91365D01*
X83505Y91432D01*
X83430Y91504D01*
X83412Y91512D01*
X83397Y91525D01*
X83301Y91564D01*
X83207Y91607D01*
X83187Y91609D01*
X83169Y91617D01*
X83002Y91635D01*
X80906Y91635D01*
X78525Y94016D01*
X78525Y103384D01*
X79826Y104685D01*
X79879Y104759D01*
X79939Y104828D01*
X79951Y104858D01*
X79970Y104884D01*
X79997Y104971D01*
X80031Y105056D01*
X80035Y105097D01*
X80042Y105120D01*
X80041Y105152D01*
X80049Y105223D01*
X80049Y106701D01*
X87852Y106701D01*
X87871Y106704D01*
X87891Y106702D01*
X87993Y106724D01*
X88095Y106740D01*
X88112Y106750D01*
X88132Y106754D01*
X88221Y106807D01*
X88312Y106856D01*
X88326Y106870D01*
X88343Y106880D01*
X88410Y106959D01*
X88481Y107034D01*
X88490Y107052D01*
X88503Y107067D01*
X88541Y107163D01*
X88585Y107257D01*
X88587Y107277D01*
X88594Y107295D01*
X88607Y107219D01*
X88616Y107202D01*
X88620Y107182D01*
X88673Y107093D01*
X88722Y107002D01*
X88736Y106988D01*
X88746Y106971D01*
X88825Y106904D01*
X88900Y106832D01*
X88918Y106824D01*
X88933Y106811D01*
X89030Y106772D01*
X89123Y106729D01*
X89143Y106727D01*
X89161Y106719D01*
X89328Y106701D01*
X97131Y106701D01*
X97131Y105223D01*
X97145Y105133D01*
X97153Y105042D01*
X97165Y105012D01*
X97170Y104980D01*
X97213Y104900D01*
X97249Y104816D01*
X97275Y104784D01*
X97286Y104763D01*
X97309Y104741D01*
X97354Y104685D01*
X98655Y103384D01*
X98655Y94016D01*
X96274Y91635D01*
X94178Y91635D01*
X94158Y91632D01*
X94139Y91634D01*
X94037Y91612D01*
X93935Y91596D01*
X93918Y91586D01*
X93898Y91582D01*
X93809Y91529D01*
X93718Y91480D01*
X93704Y91466D01*
X93687Y91456D01*
X93620Y91377D01*
X93548Y91302D01*
X93540Y91284D01*
X93527Y91269D01*
X93488Y91173D01*
X93445Y91079D01*
X93443Y91059D01*
X93435Y91041D01*
X93417Y90874D01*
X93417Y89065D01*
X93420Y89045D01*
X93418Y89026D01*
X93440Y88924D01*
X93456Y88822D01*
X93466Y88805D01*
X93470Y88785D01*
X93523Y88696D01*
X93572Y88605D01*
X93586Y88591D01*
X93596Y88574D01*
X93675Y88507D01*
X93750Y88435D01*
X93768Y88427D01*
X93783Y88414D01*
X93879Y88375D01*
X93973Y88332D01*
X93993Y88330D01*
X94011Y88322D01*
X94096Y88313D01*
X95312Y87097D01*
X95328Y87085D01*
X95340Y87069D01*
X95428Y87013D01*
X95511Y86953D01*
X95530Y86947D01*
X95547Y86936D01*
X95648Y86911D01*
X95747Y86881D01*
X95766Y86881D01*
X95786Y86876D01*
X95889Y86884D01*
X95992Y86887D01*
X96011Y86894D01*
X96031Y86896D01*
X96126Y86936D01*
X96223Y86972D01*
X96239Y86984D01*
X96257Y86992D01*
X96388Y87097D01*
X97595Y88304D01*
X110615Y88304D01*
X112996Y85923D01*
X112996Y82588D01*
X112999Y82568D01*
X112997Y82549D01*
X113019Y82447D01*
X113035Y82345D01*
X113045Y82328D01*
X113049Y82308D01*
X113102Y82219D01*
X113151Y82128D01*
X113165Y82114D01*
X113175Y82097D01*
X113254Y82030D01*
X113329Y81958D01*
X113347Y81950D01*
X113362Y81937D01*
X113458Y81898D01*
X113552Y81855D01*
X113572Y81853D01*
X113590Y81845D01*
X113757Y81827D01*
X118989Y81827D01*
X119059Y81838D01*
X119131Y81840D01*
X119180Y81858D01*
X119231Y81866D01*
X119295Y81900D01*
X119362Y81925D01*
X119403Y81957D01*
X119449Y81982D01*
X119498Y82034D01*
X119554Y82079D01*
X119582Y82122D01*
X119618Y82160D01*
X119648Y82225D01*
X119687Y82286D01*
X119700Y82336D01*
X119722Y82383D01*
X119730Y82454D01*
X119747Y82524D01*
X119743Y82576D01*
X119749Y82627D01*
X119733Y82698D01*
X119728Y82769D01*
X119708Y82817D01*
X119696Y82868D01*
X119660Y82929D01*
X119631Y82996D01*
X119613Y83019D01*
X118403Y85939D01*
X118403Y89061D01*
X119034Y90583D01*
X119044Y90627D01*
X119063Y90669D01*
X119072Y90746D01*
X119090Y90822D01*
X119086Y90868D01*
X119091Y90913D01*
X119074Y90990D01*
X119067Y91067D01*
X119048Y91109D01*
X119038Y91154D01*
X118998Y91221D01*
X118967Y91292D01*
X118936Y91326D01*
X118912Y91365D01*
X118853Y91416D01*
X118800Y91473D01*
X118760Y91495D01*
X118725Y91525D01*
X118653Y91554D01*
X118585Y91591D01*
X118540Y91600D01*
X118497Y91617D01*
X118361Y91632D01*
X118343Y91635D01*
X118338Y91634D01*
X118330Y91635D01*
X107026Y91635D01*
X104645Y94016D01*
X104645Y103384D01*
X107026Y105765D01*
X122394Y105765D01*
X124409Y103750D01*
X124483Y103697D01*
X124552Y103637D01*
X124582Y103625D01*
X124608Y103606D01*
X124695Y103579D01*
X124780Y103545D01*
X124821Y103541D01*
X124844Y103534D01*
X124876Y103535D01*
X124947Y103527D01*
X140431Y103527D01*
X140502Y103538D01*
X140574Y103540D01*
X140623Y103558D01*
X140674Y103566D01*
X140737Y103600D01*
X140805Y103625D01*
X140845Y103657D01*
X140891Y103682D01*
X140941Y103734D01*
X140997Y103778D01*
X141025Y103822D01*
X141061Y103860D01*
X141091Y103925D01*
X141130Y103985D01*
X141142Y104036D01*
X141164Y104083D01*
X141172Y104154D01*
X141190Y104224D01*
X141186Y104276D01*
X141191Y104327D01*
X141176Y104398D01*
X141171Y104469D01*
X141150Y104517D01*
X141139Y104568D01*
X141102Y104629D01*
X141074Y104695D01*
X141029Y104751D01*
X141013Y104779D01*
X140995Y104794D01*
X140969Y104826D01*
X138979Y106816D01*
X138979Y112112D01*
X138976Y112132D01*
X138978Y112151D01*
X138956Y112253D01*
X138940Y112355D01*
X138930Y112372D01*
X138926Y112392D01*
X138873Y112481D01*
X138824Y112572D01*
X138810Y112586D01*
X138800Y112603D01*
X138721Y112670D01*
X138646Y112742D01*
X138628Y112750D01*
X138613Y112763D01*
X138517Y112802D01*
X138423Y112845D01*
X138403Y112847D01*
X138385Y112855D01*
X138218Y112873D01*
X124947Y112873D01*
X124857Y112859D01*
X124766Y112851D01*
X124736Y112839D01*
X124704Y112834D01*
X124624Y112791D01*
X124540Y112755D01*
X124508Y112729D01*
X124487Y112718D01*
X124465Y112695D01*
X124409Y112650D01*
X122394Y110635D01*
X107026Y110635D01*
X104645Y113016D01*
X104645Y122384D01*
X107026Y124765D01*
X122394Y124765D01*
X124409Y122750D01*
X124483Y122697D01*
X124552Y122637D01*
X124582Y122625D01*
X124608Y122606D01*
X124695Y122579D01*
X124780Y122545D01*
X124821Y122541D01*
X124844Y122534D01*
X124876Y122535D01*
X124947Y122527D01*
X139007Y122527D01*
X139097Y122541D01*
X139188Y122549D01*
X139218Y122561D01*
X139250Y122566D01*
X139331Y122609D01*
X139414Y122645D01*
X139447Y122671D01*
X139467Y122682D01*
X139489Y122705D01*
X139545Y122750D01*
X141360Y124565D01*
X154784Y124565D01*
X157139Y122209D01*
X157156Y122197D01*
X157168Y122182D01*
X157255Y122126D01*
X157339Y122066D01*
X157358Y122060D01*
X157375Y122049D01*
X157475Y122024D01*
X157574Y121993D01*
X157594Y121994D01*
X157613Y121989D01*
X157716Y121997D01*
X157820Y122000D01*
X157839Y122006D01*
X157859Y122008D01*
X157954Y122048D01*
X158051Y122084D01*
X158067Y122096D01*
X158085Y122104D01*
X158216Y122209D01*
X158540Y122533D01*
X159119Y122868D01*
X159765Y123041D01*
X163605Y123041D01*
X163605Y115262D01*
X163608Y115242D01*
X163606Y115223D01*
X163628Y115121D01*
X163645Y115019D01*
X163654Y115002D01*
X163658Y114982D01*
X163711Y114893D01*
X163760Y114802D01*
X163774Y114788D01*
X163784Y114771D01*
X163863Y114704D01*
X163938Y114633D01*
X163956Y114624D01*
X163971Y114611D01*
X164067Y114572D01*
X164161Y114529D01*
X164181Y114527D01*
X164199Y114519D01*
X164366Y114501D01*
X165129Y114501D01*
X165129Y114499D01*
X164366Y114499D01*
X164346Y114496D01*
X164327Y114498D01*
X164225Y114476D01*
X164123Y114459D01*
X164106Y114450D01*
X164086Y114446D01*
X163997Y114393D01*
X163906Y114344D01*
X163892Y114330D01*
X163875Y114320D01*
X163808Y114241D01*
X163737Y114166D01*
X163728Y114148D01*
X163715Y114133D01*
X163676Y114037D01*
X163633Y113943D01*
X163631Y113923D01*
X163623Y113905D01*
X163605Y113738D01*
X163605Y105959D01*
X159765Y105959D01*
X159119Y106132D01*
X158540Y106467D01*
X158216Y106791D01*
X158200Y106803D01*
X158187Y106818D01*
X158100Y106874D01*
X158016Y106934D01*
X157997Y106940D01*
X157980Y106951D01*
X157880Y106976D01*
X157781Y107007D01*
X157761Y107006D01*
X157742Y107011D01*
X157639Y107003D01*
X157535Y107000D01*
X157516Y106994D01*
X157497Y106992D01*
X157402Y106952D01*
X157304Y106916D01*
X157289Y106904D01*
X157270Y106896D01*
X157139Y106791D01*
X155175Y104826D01*
X155133Y104768D01*
X155083Y104716D01*
X155061Y104669D01*
X155031Y104627D01*
X155010Y104558D01*
X154980Y104493D01*
X154974Y104441D01*
X154959Y104391D01*
X154961Y104320D01*
X154953Y104249D01*
X154964Y104198D01*
X154965Y104146D01*
X154990Y104078D01*
X155005Y104008D01*
X155032Y103964D01*
X155050Y103915D01*
X155094Y103859D01*
X155131Y103797D01*
X155171Y103763D01*
X155203Y103723D01*
X155264Y103684D01*
X155318Y103637D01*
X155366Y103618D01*
X155410Y103590D01*
X155480Y103572D01*
X155546Y103545D01*
X155618Y103537D01*
X155649Y103529D01*
X155672Y103531D01*
X155713Y103527D01*
X197049Y103527D01*
X220526Y80050D01*
X220600Y79997D01*
X220670Y79937D01*
X220700Y79925D01*
X220726Y79906D01*
X220813Y79879D01*
X220898Y79845D01*
X220939Y79841D01*
X220961Y79834D01*
X220993Y79835D01*
X221065Y79827D01*
X241999Y79827D01*
X257677Y64149D01*
X257677Y62626D01*
X257680Y62606D01*
X257678Y62587D01*
X257700Y62485D01*
X257716Y62383D01*
X257726Y62366D01*
X257730Y62346D01*
X257783Y62257D01*
X257832Y62166D01*
X257846Y62152D01*
X257856Y62135D01*
X257935Y62068D01*
X258010Y61996D01*
X258028Y61988D01*
X258043Y61975D01*
X258139Y61936D01*
X258233Y61893D01*
X258253Y61891D01*
X258271Y61883D01*
X258438Y61865D01*
X276034Y61865D01*
X277335Y60564D01*
X277409Y60511D01*
X277478Y60451D01*
X277508Y60439D01*
X277534Y60420D01*
X277621Y60393D01*
X277706Y60359D01*
X277747Y60355D01*
X277770Y60348D01*
X277802Y60349D01*
X277854Y60343D01*
X277865Y60273D01*
X277873Y60182D01*
X277885Y60152D01*
X277890Y60120D01*
X277933Y60040D01*
X277969Y59956D01*
X277995Y59923D01*
X278006Y59903D01*
X278029Y59881D01*
X278074Y59825D01*
X278550Y59349D01*
X278608Y59307D01*
X278660Y59257D01*
X278707Y59235D01*
X278749Y59205D01*
X278818Y59184D01*
X278883Y59154D01*
X278935Y59148D01*
X278985Y59133D01*
X279056Y59135D01*
X279127Y59127D01*
X279178Y59138D01*
X279230Y59139D01*
X279298Y59164D01*
X279368Y59179D01*
X279413Y59206D01*
X279461Y59224D01*
X279517Y59268D01*
X279579Y59305D01*
X279613Y59345D01*
X279653Y59377D01*
X279692Y59437D01*
X279739Y59492D01*
X279758Y59540D01*
X279786Y59584D01*
X279804Y59654D01*
X279831Y59720D01*
X279839Y59792D01*
X279847Y59823D01*
X279845Y59846D01*
X279849Y59887D01*
X279849Y60341D01*
X281184Y60341D01*
X281831Y60168D01*
X282410Y59833D01*
X282883Y59360D01*
X283218Y58781D01*
X283391Y58134D01*
X283391Y51549D01*
X279176Y51549D01*
X279156Y51546D01*
X279137Y51548D01*
X279035Y51526D01*
X278933Y51510D01*
X278916Y51500D01*
X278896Y51496D01*
X278807Y51443D01*
X278716Y51394D01*
X278702Y51380D01*
X278685Y51370D01*
X278618Y51291D01*
X278546Y51216D01*
X278538Y51198D01*
X278525Y51183D01*
X278486Y51087D01*
X278443Y50993D01*
X278441Y50973D01*
X278433Y50955D01*
X278415Y50788D01*
X278415Y50312D01*
X278418Y50292D01*
X278416Y50272D01*
X278438Y50171D01*
X278454Y50069D01*
X278464Y50052D01*
X278468Y50032D01*
X278521Y49943D01*
X278570Y49852D01*
X278584Y49838D01*
X278594Y49821D01*
X278673Y49754D01*
X278748Y49682D01*
X278766Y49674D01*
X278781Y49661D01*
X278877Y49622D01*
X278971Y49579D01*
X278991Y49577D01*
X279009Y49569D01*
X279176Y49551D01*
X283391Y49551D01*
X283391Y42966D01*
X283218Y42319D01*
X282883Y41740D01*
X282410Y41267D01*
X281831Y40932D01*
X281184Y40759D01*
X279849Y40759D01*
X279849Y41213D01*
X279838Y41284D01*
X279836Y41356D01*
X279818Y41404D01*
X279810Y41456D01*
X279776Y41519D01*
X279751Y41587D01*
X279719Y41627D01*
X279694Y41673D01*
X279642Y41723D01*
X279598Y41779D01*
X279554Y41807D01*
X279516Y41843D01*
X279451Y41873D01*
X279391Y41912D01*
X279340Y41924D01*
X279293Y41946D01*
X279222Y41954D01*
X279152Y41972D01*
X279100Y41968D01*
X279049Y41973D01*
X278978Y41958D01*
X278907Y41952D01*
X278859Y41932D01*
X278808Y41921D01*
X278747Y41884D01*
X278681Y41856D01*
X278625Y41811D01*
X278597Y41795D01*
X278582Y41777D01*
X278550Y41751D01*
X278074Y41275D01*
X278020Y41201D01*
X277961Y41132D01*
X277949Y41102D01*
X277930Y41076D01*
X277903Y40988D01*
X277869Y40904D01*
X277865Y40863D01*
X277858Y40840D01*
X277859Y40808D01*
X277853Y40756D01*
X277783Y40745D01*
X277692Y40737D01*
X277662Y40725D01*
X277630Y40720D01*
X277549Y40677D01*
X277466Y40641D01*
X277434Y40615D01*
X277413Y40604D01*
X277391Y40581D01*
X277335Y40536D01*
X276034Y39235D01*
X249166Y39235D01*
X246785Y41616D01*
X246785Y59484D01*
X247200Y59898D01*
X247211Y59914D01*
X247227Y59927D01*
X247283Y60014D01*
X247343Y60098D01*
X247349Y60117D01*
X247360Y60133D01*
X247385Y60234D01*
X247415Y60333D01*
X247415Y60353D01*
X247420Y60372D01*
X247412Y60475D01*
X247409Y60579D01*
X247402Y60597D01*
X247401Y60617D01*
X247360Y60712D01*
X247325Y60810D01*
X247312Y60825D01*
X247304Y60843D01*
X247200Y60974D01*
X238224Y69950D01*
X238150Y70003D01*
X238080Y70063D01*
X238050Y70075D01*
X238024Y70094D01*
X237937Y70121D01*
X237852Y70155D01*
X237811Y70159D01*
X237789Y70166D01*
X237757Y70165D01*
X237685Y70173D01*
X216751Y70173D01*
X193274Y93650D01*
X193200Y93703D01*
X193130Y93763D01*
X193100Y93775D01*
X193074Y93794D01*
X192987Y93821D01*
X192902Y93855D01*
X192861Y93859D01*
X192839Y93866D01*
X192807Y93865D01*
X192735Y93873D01*
X158565Y93873D01*
X158475Y93859D01*
X158384Y93851D01*
X158354Y93839D01*
X158322Y93834D01*
X158241Y93791D01*
X158157Y93755D01*
X158125Y93729D01*
X158105Y93718D01*
X158082Y93695D01*
X158026Y93650D01*
X136549Y72173D01*
X113757Y72173D01*
X113737Y72170D01*
X113718Y72172D01*
X113616Y72150D01*
X113514Y72134D01*
X113497Y72124D01*
X113477Y72120D01*
X113388Y72067D01*
X113297Y72018D01*
X113283Y72004D01*
X113266Y71994D01*
X113199Y71915D01*
X113127Y71840D01*
X113119Y71822D01*
X113106Y71807D01*
X113067Y71711D01*
X113024Y71617D01*
X113022Y71597D01*
X113014Y71579D01*
X112996Y71412D01*
X112996Y68077D01*
X110923Y66004D01*
X110881Y65946D01*
X110831Y65894D01*
X110809Y65847D01*
X110779Y65805D01*
X110758Y65736D01*
X110728Y65671D01*
X110722Y65619D01*
X110707Y65569D01*
X110709Y65498D01*
X110701Y65427D01*
X110712Y65376D01*
X110713Y65324D01*
X110738Y65256D01*
X110753Y65186D01*
X110780Y65141D01*
X110798Y65093D01*
X110842Y65037D01*
X110879Y64975D01*
X110919Y64941D01*
X110951Y64901D01*
X111012Y64862D01*
X111066Y64815D01*
X111114Y64796D01*
X111158Y64768D01*
X111228Y64750D01*
X111294Y64723D01*
X111366Y64715D01*
X111397Y64707D01*
X111420Y64709D01*
X111461Y64705D01*
X114524Y64705D01*
X118819Y62926D01*
X122106Y59639D01*
X123885Y55344D01*
X123885Y35456D01*
X122106Y31161D01*
X118819Y27874D01*
X114524Y26095D01*
X109876Y26095D01*
X105581Y27874D01*
X102294Y31161D01*
X100515Y35456D01*
X100515Y55344D01*
X102294Y59639D01*
X105581Y62926D01*
X108734Y64232D01*
X108817Y64283D01*
X108903Y64329D01*
X108921Y64348D01*
X108943Y64361D01*
X109005Y64436D01*
X109072Y64507D01*
X109083Y64531D01*
X109100Y64551D01*
X109135Y64642D01*
X109176Y64730D01*
X109179Y64756D01*
X109188Y64780D01*
X109192Y64878D01*
X109203Y64974D01*
X109197Y65000D01*
X109198Y65026D01*
X109171Y65120D01*
X109150Y65215D01*
X109137Y65237D01*
X109130Y65262D01*
X109074Y65342D01*
X109024Y65426D01*
X109004Y65443D01*
X108990Y65464D01*
X108911Y65523D01*
X108837Y65586D01*
X108813Y65596D01*
X108792Y65611D01*
X108700Y65641D01*
X108609Y65678D01*
X108577Y65681D01*
X108558Y65687D01*
X108525Y65687D01*
X108443Y65696D01*
X97595Y65696D01*
X96388Y66903D01*
X96372Y66915D01*
X96360Y66931D01*
X96272Y66987D01*
X96189Y67047D01*
X96170Y67053D01*
X96153Y67064D01*
X96052Y67089D01*
X95953Y67119D01*
X95934Y67119D01*
X95914Y67124D01*
X95811Y67116D01*
X95708Y67113D01*
X95689Y67106D01*
X95669Y67104D01*
X95574Y67064D01*
X95477Y67028D01*
X95461Y67016D01*
X95443Y67008D01*
X95312Y66903D01*
X94105Y65696D01*
X90557Y65696D01*
X90461Y65681D01*
X90364Y65671D01*
X90341Y65661D01*
X90315Y65657D01*
X90229Y65611D01*
X90140Y65571D01*
X90120Y65554D01*
X90097Y65541D01*
X90030Y65471D01*
X89959Y65405D01*
X89946Y65382D01*
X89928Y65363D01*
X89887Y65275D01*
X89840Y65189D01*
X89835Y65164D01*
X89824Y65140D01*
X89814Y65043D01*
X89796Y64947D01*
X89800Y64921D01*
X89797Y64896D01*
X89818Y64800D01*
X89832Y64704D01*
X89844Y64681D01*
X89850Y64655D01*
X89899Y64572D01*
X89944Y64485D01*
X89962Y64466D01*
X89976Y64444D01*
X90050Y64381D01*
X90119Y64313D01*
X90148Y64297D01*
X90163Y64284D01*
X90193Y64272D01*
X90266Y64232D01*
X93419Y62926D01*
X96706Y59639D01*
X98485Y55344D01*
X98485Y35456D01*
X96706Y31161D01*
X93419Y27874D01*
X89124Y26095D01*
X84476Y26095D01*
G37*
%LPD*%
G36*
X447775Y72341D02*
X447775Y72341D01*
X447866Y72349D01*
X447896Y72361D01*
X447928Y72366D01*
X448009Y72409D01*
X448093Y72445D01*
X448125Y72471D01*
X448145Y72482D01*
X448168Y72505D01*
X448224Y72550D01*
X468800Y93126D01*
X468853Y93200D01*
X468913Y93270D01*
X468925Y93300D01*
X468944Y93326D01*
X468971Y93413D01*
X469005Y93498D01*
X469009Y93539D01*
X469016Y93561D01*
X469015Y93593D01*
X469023Y93665D01*
X469023Y165359D01*
X469012Y165430D01*
X469010Y165502D01*
X468992Y165551D01*
X468984Y165602D01*
X468950Y165666D01*
X468925Y165733D01*
X468893Y165774D01*
X468868Y165820D01*
X468816Y165869D01*
X468772Y165925D01*
X468728Y165953D01*
X468690Y165989D01*
X468625Y166019D01*
X468565Y166058D01*
X468514Y166071D01*
X468467Y166093D01*
X468396Y166100D01*
X468326Y166118D01*
X468274Y166114D01*
X468223Y166120D01*
X468152Y166104D01*
X468081Y166099D01*
X468033Y166078D01*
X467982Y166067D01*
X467921Y166031D01*
X467855Y166003D01*
X467799Y165958D01*
X467771Y165941D01*
X467756Y165923D01*
X467724Y165898D01*
X450499Y148673D01*
X419066Y148673D01*
X419046Y148670D01*
X419027Y148672D01*
X418925Y148650D01*
X418823Y148634D01*
X418806Y148624D01*
X418786Y148620D01*
X418697Y148567D01*
X418606Y148518D01*
X418592Y148504D01*
X418575Y148494D01*
X418508Y148415D01*
X418436Y148340D01*
X418428Y148322D01*
X418415Y148307D01*
X418376Y148211D01*
X418333Y148117D01*
X418331Y148097D01*
X418323Y148079D01*
X418305Y147912D01*
X418305Y147244D01*
X415924Y144863D01*
X401684Y144863D01*
X401664Y144860D01*
X401645Y144862D01*
X401543Y144840D01*
X401441Y144824D01*
X401424Y144814D01*
X401404Y144810D01*
X401315Y144757D01*
X401224Y144708D01*
X401210Y144694D01*
X401193Y144684D01*
X401126Y144605D01*
X401054Y144530D01*
X401046Y144512D01*
X401033Y144497D01*
X400994Y144401D01*
X400951Y144307D01*
X400949Y144287D01*
X400941Y144269D01*
X400923Y144102D01*
X400923Y136648D01*
X400926Y136628D01*
X400924Y136609D01*
X400946Y136507D01*
X400962Y136405D01*
X400972Y136388D01*
X400976Y136368D01*
X401029Y136279D01*
X401078Y136188D01*
X401092Y136174D01*
X401102Y136157D01*
X401181Y136090D01*
X401256Y136018D01*
X401274Y136010D01*
X401289Y135997D01*
X401385Y135958D01*
X401479Y135915D01*
X401499Y135913D01*
X401517Y135905D01*
X401684Y135887D01*
X415924Y135887D01*
X418305Y133506D01*
X418305Y120994D01*
X415924Y118613D01*
X401684Y118613D01*
X401664Y118610D01*
X401645Y118612D01*
X401543Y118590D01*
X401441Y118574D01*
X401424Y118564D01*
X401404Y118560D01*
X401315Y118507D01*
X401224Y118458D01*
X401210Y118444D01*
X401193Y118434D01*
X401126Y118355D01*
X401054Y118280D01*
X401046Y118262D01*
X401033Y118247D01*
X400994Y118151D01*
X400951Y118057D01*
X400949Y118037D01*
X400941Y118019D01*
X400923Y117852D01*
X400923Y110398D01*
X400926Y110378D01*
X400924Y110359D01*
X400946Y110257D01*
X400962Y110155D01*
X400972Y110138D01*
X400976Y110118D01*
X401029Y110029D01*
X401078Y109938D01*
X401092Y109924D01*
X401102Y109907D01*
X401181Y109840D01*
X401256Y109768D01*
X401274Y109760D01*
X401289Y109747D01*
X401385Y109708D01*
X401479Y109665D01*
X401499Y109663D01*
X401517Y109655D01*
X401684Y109637D01*
X415924Y109637D01*
X418305Y107256D01*
X418305Y98413D01*
X418312Y98367D01*
X418310Y98321D01*
X418332Y98246D01*
X418344Y98170D01*
X418366Y98129D01*
X418379Y98085D01*
X418423Y98021D01*
X418460Y97952D01*
X418493Y97921D01*
X418519Y97883D01*
X418582Y97837D01*
X418638Y97783D01*
X418680Y97764D01*
X418716Y97736D01*
X418790Y97712D01*
X418861Y97679D01*
X418907Y97674D01*
X418950Y97660D01*
X419028Y97661D01*
X419105Y97652D01*
X419150Y97662D01*
X419196Y97663D01*
X419327Y97701D01*
X419346Y97705D01*
X419350Y97707D01*
X419357Y97709D01*
X419689Y97847D01*
X422811Y97847D01*
X425695Y96652D01*
X427902Y94445D01*
X429097Y91561D01*
X429097Y88439D01*
X427902Y85555D01*
X425695Y83348D01*
X422811Y82153D01*
X419689Y82153D01*
X416805Y83348D01*
X415203Y84950D01*
X415129Y85003D01*
X415059Y85063D01*
X415029Y85075D01*
X415003Y85094D01*
X414916Y85121D01*
X414831Y85155D01*
X414790Y85159D01*
X414768Y85166D01*
X414736Y85165D01*
X414664Y85173D01*
X414351Y85173D01*
X407384Y92140D01*
X407310Y92193D01*
X407240Y92253D01*
X407210Y92265D01*
X407184Y92284D01*
X407097Y92311D01*
X407012Y92345D01*
X406971Y92349D01*
X406949Y92356D01*
X406917Y92355D01*
X406845Y92363D01*
X394776Y92363D01*
X393161Y93978D01*
X393067Y94046D01*
X392973Y94116D01*
X392967Y94118D01*
X392962Y94122D01*
X392850Y94156D01*
X392739Y94192D01*
X392733Y94192D01*
X392727Y94194D01*
X392610Y94191D01*
X392493Y94190D01*
X392486Y94188D01*
X392481Y94188D01*
X392463Y94181D01*
X392332Y94143D01*
X392173Y94077D01*
X391748Y94077D01*
X391728Y94074D01*
X391709Y94076D01*
X391607Y94054D01*
X391505Y94038D01*
X391488Y94028D01*
X391468Y94024D01*
X391379Y93971D01*
X391288Y93922D01*
X391274Y93908D01*
X391257Y93898D01*
X391190Y93819D01*
X391118Y93744D01*
X391110Y93726D01*
X391097Y93711D01*
X391058Y93615D01*
X391015Y93521D01*
X391013Y93501D01*
X391005Y93483D01*
X390987Y93316D01*
X390987Y75926D01*
X388687Y73626D01*
X388645Y73568D01*
X388595Y73516D01*
X388573Y73469D01*
X388543Y73427D01*
X388522Y73358D01*
X388492Y73293D01*
X388486Y73241D01*
X388471Y73191D01*
X388473Y73120D01*
X388465Y73049D01*
X388476Y72998D01*
X388477Y72946D01*
X388502Y72878D01*
X388517Y72808D01*
X388544Y72763D01*
X388562Y72715D01*
X388606Y72659D01*
X388643Y72597D01*
X388683Y72563D01*
X388715Y72523D01*
X388776Y72484D01*
X388830Y72437D01*
X388878Y72418D01*
X388922Y72390D01*
X388992Y72372D01*
X389058Y72345D01*
X389130Y72337D01*
X389161Y72329D01*
X389184Y72331D01*
X389225Y72327D01*
X447685Y72327D01*
X447775Y72341D01*
G37*
G36*
X236654Y158330D02*
X236654Y158330D01*
X236673Y158328D01*
X236775Y158350D01*
X236877Y158366D01*
X236894Y158376D01*
X236914Y158380D01*
X237003Y158433D01*
X237094Y158482D01*
X237108Y158496D01*
X237125Y158506D01*
X237192Y158585D01*
X237264Y158660D01*
X237272Y158678D01*
X237285Y158693D01*
X237324Y158789D01*
X237367Y158883D01*
X237369Y158903D01*
X237377Y158921D01*
X237395Y159088D01*
X237395Y159756D01*
X239776Y162137D01*
X253316Y162137D01*
X253336Y162140D01*
X253355Y162138D01*
X253457Y162160D01*
X253559Y162176D01*
X253576Y162186D01*
X253596Y162190D01*
X253685Y162243D01*
X253776Y162292D01*
X253790Y162306D01*
X253807Y162316D01*
X253874Y162395D01*
X253946Y162470D01*
X253954Y162488D01*
X253967Y162503D01*
X254006Y162599D01*
X254049Y162693D01*
X254051Y162713D01*
X254059Y162731D01*
X254077Y162898D01*
X254077Y170352D01*
X254074Y170372D01*
X254076Y170391D01*
X254054Y170493D01*
X254038Y170595D01*
X254028Y170612D01*
X254024Y170632D01*
X253971Y170721D01*
X253922Y170812D01*
X253908Y170826D01*
X253898Y170843D01*
X253819Y170910D01*
X253744Y170982D01*
X253726Y170990D01*
X253711Y171003D01*
X253615Y171042D01*
X253521Y171085D01*
X253501Y171087D01*
X253483Y171095D01*
X253316Y171113D01*
X239776Y171113D01*
X237395Y173494D01*
X237395Y174162D01*
X237392Y174182D01*
X237394Y174201D01*
X237372Y174303D01*
X237356Y174405D01*
X237346Y174422D01*
X237342Y174442D01*
X237289Y174531D01*
X237240Y174622D01*
X237226Y174636D01*
X237216Y174653D01*
X237137Y174720D01*
X237062Y174792D01*
X237044Y174800D01*
X237029Y174813D01*
X236933Y174852D01*
X236839Y174895D01*
X236819Y174897D01*
X236801Y174905D01*
X236634Y174923D01*
X200751Y174923D01*
X187494Y188180D01*
X187420Y188233D01*
X187350Y188293D01*
X187320Y188305D01*
X187294Y188324D01*
X187207Y188351D01*
X187122Y188385D01*
X187081Y188389D01*
X187059Y188396D01*
X187027Y188395D01*
X186955Y188403D01*
X184689Y188403D01*
X181805Y189598D01*
X179598Y191805D01*
X178403Y194689D01*
X178403Y197811D01*
X179360Y200121D01*
X179371Y200165D01*
X179390Y200207D01*
X179398Y200284D01*
X179416Y200360D01*
X179412Y200406D01*
X179417Y200451D01*
X179400Y200528D01*
X179393Y200605D01*
X179374Y200647D01*
X179365Y200692D01*
X179325Y200759D01*
X179293Y200830D01*
X179262Y200864D01*
X179239Y200903D01*
X179179Y200954D01*
X179127Y201011D01*
X179087Y201033D01*
X179052Y201063D01*
X178979Y201092D01*
X178911Y201129D01*
X178866Y201138D01*
X178823Y201155D01*
X178688Y201170D01*
X178669Y201173D01*
X178664Y201172D01*
X178657Y201173D01*
X125815Y201173D01*
X125725Y201159D01*
X125634Y201151D01*
X125604Y201139D01*
X125572Y201134D01*
X125491Y201091D01*
X125407Y201055D01*
X125375Y201029D01*
X125355Y201018D01*
X125332Y200995D01*
X125276Y200950D01*
X98402Y174076D01*
X98360Y174018D01*
X98311Y173966D01*
X98289Y173919D01*
X98259Y173877D01*
X98238Y173808D01*
X98207Y173743D01*
X98202Y173691D01*
X98186Y173641D01*
X98188Y173570D01*
X98180Y173499D01*
X98191Y173448D01*
X98193Y173396D01*
X98217Y173328D01*
X98233Y173258D01*
X98259Y173213D01*
X98277Y173165D01*
X98322Y173109D01*
X98359Y173047D01*
X98398Y173013D01*
X98431Y172973D01*
X98491Y172934D01*
X98546Y172887D01*
X98594Y172868D01*
X98638Y172840D01*
X98707Y172822D01*
X98774Y172795D01*
X98845Y172787D01*
X98876Y172779D01*
X98900Y172781D01*
X98941Y172777D01*
X158039Y172777D01*
X158109Y172788D01*
X158181Y172790D01*
X158230Y172808D01*
X158281Y172816D01*
X158345Y172850D01*
X158412Y172875D01*
X158453Y172907D01*
X158499Y172932D01*
X158548Y172983D01*
X158604Y173028D01*
X158632Y173072D01*
X158668Y173110D01*
X158698Y173175D01*
X158737Y173235D01*
X158750Y173286D01*
X158772Y173333D01*
X158780Y173404D01*
X158797Y173474D01*
X158793Y173526D01*
X158799Y173577D01*
X158783Y173648D01*
X158778Y173719D01*
X158758Y173767D01*
X158746Y173818D01*
X158710Y173879D01*
X158682Y173945D01*
X158637Y174001D01*
X158620Y174029D01*
X158603Y174044D01*
X158577Y174076D01*
X158348Y174305D01*
X157153Y177189D01*
X157153Y180311D01*
X158348Y183195D01*
X160555Y185402D01*
X163439Y186597D01*
X166561Y186597D01*
X169445Y185402D01*
X171047Y183800D01*
X171121Y183747D01*
X171191Y183687D01*
X171221Y183675D01*
X171247Y183656D01*
X171334Y183629D01*
X171419Y183595D01*
X171460Y183591D01*
X171482Y183584D01*
X171514Y183585D01*
X171586Y183577D01*
X179499Y183577D01*
X204526Y158550D01*
X204600Y158497D01*
X204670Y158437D01*
X204700Y158425D01*
X204726Y158406D01*
X204813Y158379D01*
X204898Y158345D01*
X204939Y158341D01*
X204961Y158334D01*
X204993Y158335D01*
X205065Y158327D01*
X236634Y158327D01*
X236654Y158330D01*
G37*
G36*
X91825Y181391D02*
X91825Y181391D01*
X91916Y181399D01*
X91946Y181411D01*
X91978Y181416D01*
X92059Y181459D01*
X92143Y181495D01*
X92175Y181521D01*
X92195Y181532D01*
X92218Y181555D01*
X92274Y181600D01*
X121501Y210827D01*
X236634Y210827D01*
X236654Y210830D01*
X236673Y210828D01*
X236775Y210850D01*
X236877Y210866D01*
X236894Y210876D01*
X236914Y210880D01*
X237003Y210933D01*
X237094Y210982D01*
X237108Y210996D01*
X237125Y211006D01*
X237192Y211085D01*
X237264Y211160D01*
X237272Y211178D01*
X237285Y211193D01*
X237324Y211289D01*
X237367Y211383D01*
X237369Y211403D01*
X237377Y211421D01*
X237395Y211588D01*
X237395Y212256D01*
X239776Y214637D01*
X253316Y214637D01*
X253336Y214640D01*
X253355Y214638D01*
X253457Y214660D01*
X253559Y214676D01*
X253576Y214686D01*
X253596Y214690D01*
X253685Y214743D01*
X253776Y214792D01*
X253790Y214806D01*
X253807Y214816D01*
X253874Y214895D01*
X253946Y214970D01*
X253954Y214988D01*
X253967Y215003D01*
X254006Y215099D01*
X254049Y215193D01*
X254051Y215213D01*
X254059Y215231D01*
X254077Y215398D01*
X254077Y222852D01*
X254074Y222872D01*
X254076Y222891D01*
X254054Y222993D01*
X254038Y223095D01*
X254028Y223112D01*
X254024Y223132D01*
X253971Y223221D01*
X253922Y223312D01*
X253908Y223326D01*
X253898Y223343D01*
X253819Y223410D01*
X253744Y223482D01*
X253726Y223490D01*
X253711Y223503D01*
X253615Y223542D01*
X253521Y223585D01*
X253501Y223587D01*
X253483Y223595D01*
X253316Y223613D01*
X239776Y223613D01*
X237395Y225994D01*
X237395Y226662D01*
X237392Y226682D01*
X237394Y226701D01*
X237372Y226803D01*
X237356Y226905D01*
X237346Y226922D01*
X237342Y226942D01*
X237289Y227031D01*
X237240Y227122D01*
X237226Y227136D01*
X237216Y227153D01*
X237137Y227220D01*
X237062Y227292D01*
X237044Y227300D01*
X237029Y227313D01*
X236933Y227352D01*
X236839Y227395D01*
X236819Y227397D01*
X236801Y227405D01*
X236634Y227423D01*
X235086Y227423D01*
X234995Y227409D01*
X234905Y227401D01*
X234875Y227389D01*
X234843Y227384D01*
X234762Y227341D01*
X234678Y227305D01*
X234646Y227279D01*
X234625Y227268D01*
X234603Y227245D01*
X234547Y227200D01*
X233195Y225848D01*
X230311Y224653D01*
X227189Y224653D01*
X224305Y225848D01*
X222953Y227200D01*
X222879Y227253D01*
X222809Y227313D01*
X222779Y227325D01*
X222753Y227344D01*
X222666Y227371D01*
X222581Y227405D01*
X222540Y227409D01*
X222518Y227416D01*
X222486Y227415D01*
X222414Y227423D01*
X132065Y227423D01*
X131975Y227409D01*
X131884Y227401D01*
X131854Y227389D01*
X131822Y227384D01*
X131741Y227341D01*
X131657Y227305D01*
X131625Y227279D01*
X131605Y227268D01*
X131582Y227245D01*
X131526Y227200D01*
X87002Y182676D01*
X86960Y182618D01*
X86911Y182566D01*
X86889Y182519D01*
X86859Y182477D01*
X86838Y182408D01*
X86807Y182343D01*
X86802Y182291D01*
X86786Y182241D01*
X86788Y182170D01*
X86780Y182099D01*
X86791Y182048D01*
X86793Y181996D01*
X86817Y181928D01*
X86833Y181858D01*
X86859Y181813D01*
X86877Y181765D01*
X86922Y181709D01*
X86959Y181647D01*
X86998Y181613D01*
X87031Y181573D01*
X87091Y181534D01*
X87146Y181487D01*
X87194Y181468D01*
X87238Y181440D01*
X87307Y181422D01*
X87374Y181395D01*
X87445Y181387D01*
X87476Y181379D01*
X87500Y181381D01*
X87541Y181377D01*
X91735Y181377D01*
X91825Y181391D01*
G37*
G36*
X400330Y284838D02*
X400330Y284838D01*
X400402Y284840D01*
X400451Y284858D01*
X400502Y284866D01*
X400566Y284900D01*
X400633Y284925D01*
X400674Y284957D01*
X400720Y284982D01*
X400769Y285034D01*
X400825Y285078D01*
X400853Y285122D01*
X400889Y285160D01*
X400919Y285225D01*
X400958Y285285D01*
X400971Y285336D01*
X400993Y285383D01*
X401000Y285454D01*
X401018Y285524D01*
X401014Y285576D01*
X401020Y285627D01*
X401004Y285698D01*
X400999Y285769D01*
X400978Y285817D01*
X400967Y285868D01*
X400931Y285929D01*
X400903Y285995D01*
X400858Y286051D01*
X400841Y286079D01*
X400823Y286094D01*
X400798Y286126D01*
X397673Y289251D01*
X397673Y305185D01*
X397659Y305275D01*
X397651Y305366D01*
X397639Y305396D01*
X397634Y305428D01*
X397609Y305475D01*
X397608Y305477D01*
X397603Y305486D01*
X397591Y305509D01*
X397555Y305593D01*
X397529Y305625D01*
X397518Y305645D01*
X397495Y305668D01*
X397492Y305672D01*
X397482Y305688D01*
X397472Y305697D01*
X397450Y305724D01*
X394490Y308684D01*
X394432Y308726D01*
X394380Y308775D01*
X394333Y308797D01*
X394291Y308827D01*
X394222Y308848D01*
X394157Y308879D01*
X394105Y308884D01*
X394055Y308900D01*
X393984Y308898D01*
X393912Y308906D01*
X393862Y308895D01*
X393810Y308893D01*
X393742Y308869D01*
X393672Y308853D01*
X393627Y308827D01*
X393579Y308809D01*
X393522Y308764D01*
X393461Y308727D01*
X393427Y308688D01*
X393386Y308655D01*
X393348Y308595D01*
X393301Y308540D01*
X393282Y308492D01*
X393253Y308448D01*
X393236Y308379D01*
X393209Y308312D01*
X393201Y308241D01*
X393193Y308210D01*
X393195Y308186D01*
X393191Y308145D01*
X393191Y306695D01*
X385412Y306695D01*
X385392Y306692D01*
X385373Y306694D01*
X385271Y306672D01*
X385169Y306655D01*
X385152Y306646D01*
X385132Y306642D01*
X385043Y306589D01*
X384952Y306540D01*
X384938Y306526D01*
X384921Y306516D01*
X384854Y306437D01*
X384783Y306362D01*
X384774Y306344D01*
X384761Y306329D01*
X384722Y306233D01*
X384679Y306139D01*
X384677Y306119D01*
X384669Y306101D01*
X384651Y305934D01*
X384651Y305171D01*
X384649Y305171D01*
X384649Y305934D01*
X384646Y305954D01*
X384648Y305973D01*
X384626Y306075D01*
X384609Y306177D01*
X384600Y306194D01*
X384596Y306214D01*
X384543Y306303D01*
X384494Y306394D01*
X384480Y306408D01*
X384470Y306425D01*
X384391Y306492D01*
X384316Y306563D01*
X384298Y306572D01*
X384283Y306585D01*
X384187Y306624D01*
X384093Y306667D01*
X384073Y306669D01*
X384055Y306677D01*
X383888Y306695D01*
X376109Y306695D01*
X376109Y310535D01*
X376282Y311181D01*
X376617Y311760D01*
X376941Y312084D01*
X376953Y312100D01*
X376968Y312113D01*
X377024Y312200D01*
X377084Y312284D01*
X377090Y312303D01*
X377101Y312320D01*
X377126Y312420D01*
X377157Y312519D01*
X377156Y312539D01*
X377161Y312558D01*
X377153Y312661D01*
X377150Y312765D01*
X377144Y312784D01*
X377142Y312803D01*
X377102Y312898D01*
X377066Y312996D01*
X377054Y313011D01*
X377046Y313030D01*
X376941Y313161D01*
X374585Y315516D01*
X374585Y316640D01*
X374584Y316650D01*
X374584Y316655D01*
X374582Y316663D01*
X374584Y316679D01*
X374562Y316781D01*
X374546Y316883D01*
X374536Y316900D01*
X374532Y316920D01*
X374479Y317009D01*
X374430Y317100D01*
X374416Y317114D01*
X374406Y317131D01*
X374327Y317198D01*
X374252Y317269D01*
X374234Y317278D01*
X374219Y317291D01*
X374123Y317330D01*
X374029Y317373D01*
X374009Y317375D01*
X373991Y317383D01*
X373824Y317401D01*
X369296Y317401D01*
X369276Y317398D01*
X369257Y317400D01*
X369155Y317378D01*
X369053Y317361D01*
X369036Y317352D01*
X369016Y317348D01*
X368927Y317295D01*
X368836Y317246D01*
X368822Y317232D01*
X368805Y317222D01*
X368738Y317143D01*
X368666Y317068D01*
X368658Y317050D01*
X368645Y317035D01*
X368606Y316939D01*
X368563Y316845D01*
X368561Y316825D01*
X368553Y316807D01*
X368535Y316640D01*
X368535Y303206D01*
X366756Y298911D01*
X363469Y295624D01*
X359174Y293845D01*
X354526Y293845D01*
X350231Y295624D01*
X346944Y298911D01*
X345165Y303206D01*
X345165Y323094D01*
X346944Y327389D01*
X347179Y327624D01*
X347221Y327682D01*
X347270Y327734D01*
X347292Y327781D01*
X347323Y327823D01*
X347344Y327892D01*
X347374Y327957D01*
X347380Y328009D01*
X347395Y328059D01*
X347393Y328130D01*
X347401Y328201D01*
X347390Y328252D01*
X347389Y328304D01*
X347364Y328372D01*
X347349Y328442D01*
X347322Y328487D01*
X347304Y328535D01*
X347259Y328591D01*
X347223Y328653D01*
X347183Y328687D01*
X347150Y328727D01*
X347090Y328766D01*
X347036Y328813D01*
X346987Y328832D01*
X346944Y328860D01*
X346874Y328878D01*
X346807Y328905D01*
X346736Y328913D01*
X346705Y328921D01*
X346682Y328919D01*
X346641Y328923D01*
X341659Y328923D01*
X341589Y328912D01*
X341517Y328910D01*
X341468Y328892D01*
X341416Y328884D01*
X341353Y328850D01*
X341286Y328825D01*
X341245Y328793D01*
X341199Y328768D01*
X341150Y328717D01*
X341094Y328672D01*
X341066Y328628D01*
X341030Y328590D01*
X341000Y328525D01*
X340961Y328465D01*
X340948Y328414D01*
X340926Y328367D01*
X340918Y328296D01*
X340901Y328226D01*
X340905Y328174D01*
X340899Y328123D01*
X340914Y328052D01*
X340920Y327981D01*
X340940Y327933D01*
X340951Y327882D01*
X340988Y327821D01*
X341016Y327755D01*
X341061Y327699D01*
X341077Y327671D01*
X341095Y327656D01*
X341121Y327624D01*
X341356Y327389D01*
X343135Y323094D01*
X343135Y303206D01*
X341356Y298911D01*
X338069Y295624D01*
X333774Y293845D01*
X329126Y293845D01*
X324831Y295624D01*
X321544Y298911D01*
X319765Y303206D01*
X319765Y323094D01*
X321544Y327389D01*
X321779Y327624D01*
X321821Y327682D01*
X321870Y327734D01*
X321892Y327781D01*
X321923Y327823D01*
X321944Y327892D01*
X321974Y327957D01*
X321980Y328009D01*
X321995Y328059D01*
X321993Y328130D01*
X322001Y328201D01*
X321990Y328252D01*
X321989Y328304D01*
X321964Y328372D01*
X321949Y328442D01*
X321922Y328487D01*
X321904Y328535D01*
X321859Y328591D01*
X321823Y328653D01*
X321783Y328687D01*
X321750Y328727D01*
X321690Y328766D01*
X321636Y328813D01*
X321587Y328832D01*
X321544Y328860D01*
X321474Y328878D01*
X321407Y328905D01*
X321336Y328913D01*
X321305Y328921D01*
X321282Y328919D01*
X321241Y328923D01*
X290069Y328923D01*
X289998Y328912D01*
X289926Y328910D01*
X289877Y328892D01*
X289826Y328884D01*
X289763Y328850D01*
X289695Y328825D01*
X289655Y328793D01*
X289609Y328768D01*
X289559Y328716D01*
X289503Y328672D01*
X289475Y328628D01*
X289439Y328590D01*
X289409Y328525D01*
X289370Y328465D01*
X289358Y328414D01*
X289336Y328367D01*
X289328Y328296D01*
X289310Y328226D01*
X289314Y328174D01*
X289309Y328123D01*
X289324Y328052D01*
X289329Y327981D01*
X289350Y327933D01*
X289361Y327882D01*
X289398Y327821D01*
X289426Y327755D01*
X289471Y327699D01*
X289487Y327671D01*
X289505Y327656D01*
X289531Y327624D01*
X291965Y325190D01*
X291965Y323088D01*
X291968Y323068D01*
X291966Y323049D01*
X291988Y322947D01*
X292004Y322845D01*
X292014Y322828D01*
X292018Y322808D01*
X292071Y322719D01*
X292120Y322628D01*
X292134Y322614D01*
X292144Y322597D01*
X292223Y322530D01*
X292298Y322458D01*
X292316Y322450D01*
X292331Y322437D01*
X292427Y322398D01*
X292521Y322355D01*
X292541Y322353D01*
X292559Y322345D01*
X292726Y322327D01*
X300749Y322327D01*
X314827Y308249D01*
X314827Y303565D01*
X314841Y303475D01*
X314849Y303384D01*
X314861Y303354D01*
X314866Y303322D01*
X314909Y303241D01*
X314945Y303157D01*
X314971Y303125D01*
X314982Y303105D01*
X315005Y303082D01*
X315050Y303026D01*
X333026Y285050D01*
X333100Y284997D01*
X333170Y284937D01*
X333200Y284925D01*
X333226Y284906D01*
X333313Y284879D01*
X333398Y284845D01*
X333439Y284841D01*
X333461Y284834D01*
X333493Y284835D01*
X333565Y284827D01*
X400259Y284827D01*
X400330Y284838D01*
G37*
%LPC*%
G36*
X135276Y26095D02*
X135276Y26095D01*
X130981Y27874D01*
X127694Y31161D01*
X125915Y35456D01*
X125915Y55344D01*
X127694Y59639D01*
X130981Y62926D01*
X135276Y64705D01*
X139924Y64705D01*
X144219Y62926D01*
X147506Y59639D01*
X149285Y55344D01*
X149285Y35456D01*
X147506Y31161D01*
X144219Y27874D01*
X139924Y26095D01*
X135276Y26095D01*
G37*
%LPD*%
%LPC*%
G36*
X238919Y102523D02*
X238919Y102523D01*
X238919Y105906D01*
X239092Y106553D01*
X239427Y107132D01*
X239900Y107605D01*
X240479Y107940D01*
X241126Y108113D01*
X248827Y108113D01*
X248827Y102523D01*
X238919Y102523D01*
G37*
%LPD*%
%LPC*%
G36*
X241126Y93887D02*
X241126Y93887D01*
X240479Y94060D01*
X239900Y94395D01*
X239427Y94868D01*
X239092Y95447D01*
X238919Y96094D01*
X238919Y99477D01*
X248827Y99477D01*
X248827Y93887D01*
X241126Y93887D01*
G37*
%LPD*%
%LPC*%
G36*
X57123Y35128D02*
X57123Y35128D01*
X57123Y40972D01*
X65380Y40972D01*
X65380Y37335D01*
X65207Y36688D01*
X64872Y36109D01*
X64399Y35636D01*
X63820Y35301D01*
X63173Y35128D01*
X57123Y35128D01*
G37*
%LPD*%
%LPC*%
G36*
X48027Y35128D02*
X48027Y35128D01*
X47380Y35301D01*
X46801Y35636D01*
X46328Y36109D01*
X45993Y36688D01*
X45820Y37335D01*
X45820Y40972D01*
X54077Y40972D01*
X54077Y35128D01*
X48027Y35128D01*
G37*
%LPD*%
%LPC*%
G36*
X475373Y319551D02*
X475373Y319551D01*
X475373Y325597D01*
X480184Y325597D01*
X480831Y325424D01*
X481410Y325089D01*
X481883Y324616D01*
X482218Y324037D01*
X482391Y323390D01*
X482391Y319551D01*
X475373Y319551D01*
G37*
%LPD*%
%LPC*%
G36*
X166651Y116023D02*
X166651Y116023D01*
X166651Y123041D01*
X170490Y123041D01*
X171137Y122868D01*
X171716Y122533D01*
X172189Y122060D01*
X172524Y121481D01*
X172697Y120834D01*
X172697Y116023D01*
X166651Y116023D01*
G37*
%LPD*%
%LPC*%
G36*
X465309Y319551D02*
X465309Y319551D01*
X465309Y323390D01*
X465482Y324037D01*
X465817Y324616D01*
X466290Y325089D01*
X466869Y325424D01*
X467516Y325597D01*
X472327Y325597D01*
X472327Y319551D01*
X465309Y319551D01*
G37*
%LPD*%
%LPC*%
G36*
X166651Y105959D02*
X166651Y105959D01*
X166651Y112977D01*
X172697Y112977D01*
X172697Y108166D01*
X172524Y107519D01*
X172189Y106940D01*
X171716Y106467D01*
X171137Y106132D01*
X170490Y105959D01*
X166651Y105959D01*
G37*
%LPD*%
%LPC*%
G36*
X386173Y297603D02*
X386173Y297603D01*
X386173Y303649D01*
X393191Y303649D01*
X393191Y299810D01*
X393018Y299163D01*
X392683Y298584D01*
X392210Y298111D01*
X391631Y297776D01*
X390984Y297603D01*
X386173Y297603D01*
G37*
%LPD*%
%LPC*%
G36*
X283423Y293853D02*
X283423Y293853D01*
X283423Y299899D01*
X290441Y299899D01*
X290441Y296060D01*
X290268Y295413D01*
X289933Y294834D01*
X289460Y294361D01*
X288881Y294026D01*
X288234Y293853D01*
X283423Y293853D01*
G37*
%LPD*%
%LPC*%
G36*
X378316Y297603D02*
X378316Y297603D01*
X377669Y297776D01*
X377090Y298111D01*
X376617Y298584D01*
X376282Y299163D01*
X376109Y299810D01*
X376109Y303649D01*
X383127Y303649D01*
X383127Y297603D01*
X378316Y297603D01*
G37*
%LPD*%
%LPC*%
G36*
X275566Y293853D02*
X275566Y293853D01*
X274919Y294026D01*
X274340Y294361D01*
X273867Y294834D01*
X273532Y295413D01*
X273359Y296060D01*
X273359Y299899D01*
X280377Y299899D01*
X280377Y293853D01*
X275566Y293853D01*
G37*
%LPD*%
%LPC*%
G36*
X115260Y275159D02*
X115260Y275159D01*
X114613Y275332D01*
X114034Y275667D01*
X113561Y276140D01*
X113226Y276719D01*
X113053Y277366D01*
X113053Y282177D01*
X119099Y282177D01*
X119099Y275159D01*
X115260Y275159D01*
G37*
%LPD*%
%LPC*%
G36*
X60010Y275159D02*
X60010Y275159D01*
X59363Y275332D01*
X58784Y275667D01*
X58311Y276140D01*
X57976Y276719D01*
X57803Y277366D01*
X57803Y282177D01*
X63849Y282177D01*
X63849Y275159D01*
X60010Y275159D01*
G37*
%LPD*%
%LPC*%
G36*
X41373Y207923D02*
X41373Y207923D01*
X41373Y213941D01*
X45684Y213941D01*
X46331Y213768D01*
X46910Y213433D01*
X47383Y212960D01*
X47718Y212381D01*
X47891Y211734D01*
X47891Y207923D01*
X41373Y207923D01*
G37*
%LPD*%
%LPC*%
G36*
X41073Y254423D02*
X41073Y254423D01*
X41073Y260441D01*
X45384Y260441D01*
X46031Y260268D01*
X46610Y259933D01*
X47083Y259460D01*
X47418Y258881D01*
X47591Y258234D01*
X47591Y254423D01*
X41073Y254423D01*
G37*
%LPD*%
%LPC*%
G36*
X41973Y231923D02*
X41973Y231923D01*
X41973Y237941D01*
X46284Y237941D01*
X46931Y237768D01*
X47510Y237433D01*
X47983Y236960D01*
X48318Y236381D01*
X48491Y235734D01*
X48491Y231923D01*
X41973Y231923D01*
G37*
%LPD*%
%LPC*%
G36*
X44623Y116359D02*
X44623Y116359D01*
X44623Y122877D01*
X50641Y122877D01*
X50641Y118566D01*
X50468Y117919D01*
X50133Y117340D01*
X49660Y116867D01*
X49081Y116532D01*
X48434Y116359D01*
X44623Y116359D01*
G37*
%LPD*%
%LPC*%
G36*
X23023Y113859D02*
X23023Y113859D01*
X23023Y120377D01*
X29041Y120377D01*
X29041Y116066D01*
X28868Y115419D01*
X28533Y114840D01*
X28060Y114367D01*
X27481Y114032D01*
X26834Y113859D01*
X23023Y113859D01*
G37*
%LPD*%
%LPC*%
G36*
X41373Y198859D02*
X41373Y198859D01*
X41373Y204877D01*
X47891Y204877D01*
X47891Y201065D01*
X47718Y200419D01*
X47383Y199840D01*
X46910Y199367D01*
X46331Y199032D01*
X45684Y198859D01*
X41373Y198859D01*
G37*
%LPD*%
%LPC*%
G36*
X41073Y245359D02*
X41073Y245359D01*
X41073Y251377D01*
X47591Y251377D01*
X47591Y247565D01*
X47418Y246919D01*
X47083Y246340D01*
X46610Y245867D01*
X46031Y245532D01*
X45384Y245359D01*
X41073Y245359D01*
G37*
%LPD*%
%LPC*%
G36*
X41973Y222859D02*
X41973Y222859D01*
X41973Y228877D01*
X48491Y228877D01*
X48491Y225065D01*
X48318Y224419D01*
X47983Y223840D01*
X47510Y223367D01*
X46931Y223032D01*
X46284Y222859D01*
X41973Y222859D01*
G37*
%LPD*%
%LPC*%
G36*
X16166Y113859D02*
X16166Y113859D01*
X15519Y114032D01*
X14940Y114367D01*
X14467Y114840D01*
X14132Y115419D01*
X13959Y116066D01*
X13959Y120377D01*
X19977Y120377D01*
X19977Y113859D01*
X16166Y113859D01*
G37*
%LPD*%
%LPC*%
G36*
X37766Y116359D02*
X37766Y116359D01*
X37119Y116532D01*
X36540Y116867D01*
X36067Y117340D01*
X35732Y117919D01*
X35559Y118566D01*
X35559Y122877D01*
X41577Y122877D01*
X41577Y116359D01*
X37766Y116359D01*
G37*
%LPD*%
D10*
X43100Y141400D03*
X43100Y124400D03*
D11*
X60250Y304130D02*
X60250Y319370D01*
X34850Y319370D02*
X34850Y304130D01*
X142600Y303030D02*
X142600Y318270D01*
X117200Y318270D02*
X117200Y303030D01*
X256600Y304280D02*
X256600Y319520D01*
X231200Y319520D02*
X231200Y304280D01*
X356850Y305530D02*
X356850Y320770D01*
X331450Y320770D02*
X331450Y305530D01*
X442100Y303030D02*
X442100Y318270D01*
X416700Y318270D02*
X416700Y303030D01*
X137600Y53020D02*
X137600Y37780D01*
X112200Y37780D02*
X112200Y53020D01*
X86800Y53020D02*
X86800Y37780D01*
D12*
X22550Y252900D03*
X39550Y252900D03*
X23450Y230400D03*
X40450Y230400D03*
X22850Y206400D03*
X39850Y206400D03*
D10*
X21500Y138900D03*
X21500Y121900D03*
D13*
X55600Y59005D03*
X55600Y42495D03*
D14*
X87595Y77000D03*
X104105Y77000D03*
D15*
X265850Y50550D03*
X259350Y50550D03*
X252850Y50550D03*
X272350Y50550D03*
X278850Y50550D03*
D16*
X229000Y23300D03*
D17*
X265850Y23300D03*
D16*
X302700Y23300D03*
D18*
X21050Y50500D03*
X21050Y35500D03*
D19*
X65372Y283700D03*
X82428Y283700D03*
X120622Y283700D03*
X137678Y283700D03*
D20*
X281900Y301422D03*
X281900Y318478D03*
X384650Y305172D03*
X384650Y322228D03*
X473850Y318028D03*
X473850Y300972D03*
D19*
X165128Y114500D03*
X148072Y114500D03*
D12*
X22000Y92200D03*
X22000Y75200D03*
D21*
X250350Y153500D03*
X250350Y206000D03*
X250350Y127250D03*
X250350Y179750D03*
X250350Y232250D03*
X250350Y101000D03*
X405350Y179750D03*
X405350Y153500D03*
X405350Y127250D03*
X405350Y206000D03*
X405350Y232250D03*
X405350Y101000D03*
D22*
X273350Y86500D03*
X301350Y86500D03*
X327850Y86500D03*
X354350Y86500D03*
X382350Y86500D03*
D23*
X48450Y162150D03*
D24*
X48150Y167950D03*
X48150Y172250D03*
X48150Y176550D03*
X48150Y180850D03*
D23*
X48450Y186650D03*
X44150Y186650D03*
X39850Y186650D03*
X35550Y186650D03*
X31250Y186650D03*
X26950Y186650D03*
X22650Y186650D03*
X18350Y186650D03*
D24*
X18650Y180850D03*
X18650Y176550D03*
X18650Y172250D03*
X18650Y167950D03*
D23*
X18350Y162150D03*
X22650Y162150D03*
X26950Y162150D03*
X31250Y162150D03*
X35550Y162150D03*
X39850Y162150D03*
X44150Y162150D03*
D25*
X114710Y117700D03*
X114710Y98700D03*
X88590Y117700D03*
X88590Y108200D03*
X88590Y98700D03*
D26*
X23450Y252000D02*
X22550Y252900D01*
X23450Y252000D02*
X23450Y230400D01*
X23450Y207000D01*
X22850Y206400D01*
X39850Y186650D02*
X40984Y186650D01*
X40984Y183384D01*
X43016Y183384D01*
X43016Y186650D01*
X44150Y186650D01*
X36684Y162150D02*
X35550Y162150D01*
X36684Y162150D02*
X36684Y165416D01*
X38716Y165416D01*
X38716Y162150D01*
X39850Y162150D01*
X48150Y172250D02*
X48150Y172914D01*
X48150Y180548D02*
X48150Y180850D01*
X43614Y174253D02*
X44953Y172914D01*
X43614Y174253D02*
X43614Y178847D01*
X47486Y172914D02*
X48150Y172250D01*
X47486Y172914D02*
X44953Y172914D01*
X47562Y180262D02*
X48150Y180850D01*
X44259Y179491D02*
X43614Y178847D01*
X44259Y179491D02*
X45029Y180262D01*
X47562Y180262D01*
X39850Y186650D02*
X39186Y187314D01*
X39186Y189847D01*
X35283Y193750D01*
X31250Y193750D01*
X22850Y202150D01*
X22850Y206400D01*
X38716Y173949D02*
X38716Y165416D01*
X38716Y173949D02*
X43614Y178847D01*
X22550Y252900D02*
X22550Y299450D01*
X34850Y311750D01*
X35000Y311900D01*
X117200Y310650D02*
X117200Y328450D01*
X122128Y333378D01*
X34850Y327350D02*
X34850Y311750D01*
X111900Y333750D02*
X117200Y328450D01*
X41250Y333750D02*
X34850Y327350D01*
X41250Y333750D02*
X111900Y333750D01*
X231200Y326200D02*
X231200Y311900D01*
X231875Y326875D02*
X225372Y333378D01*
X162872Y333378D01*
X161250Y333378D02*
X122128Y333378D01*
X331250Y313350D02*
X331450Y313150D01*
X331250Y313350D02*
X331250Y328750D01*
X326250Y333750D01*
X238750Y333750D02*
X231875Y326875D01*
X231200Y326200D01*
X238750Y333750D02*
X326250Y333750D01*
X331450Y327700D02*
X331450Y313150D01*
X331450Y327700D02*
X337500Y333750D01*
X416700Y333750D01*
X416700Y310650D01*
X250350Y232250D02*
X229000Y232250D01*
X228750Y232500D01*
X228000Y232500D01*
X227750Y232250D01*
X210000Y232250D01*
X181250Y232250D01*
X129750Y232250D01*
X84150Y186650D02*
X48450Y186650D01*
X84150Y186650D02*
X129750Y232250D01*
X45284Y187784D02*
X44150Y186650D01*
X48450Y162150D02*
X69350Y141250D01*
X86250Y141250D01*
D27*
X86250Y141250D03*
X228750Y232500D03*
D26*
X44259Y182141D02*
X43016Y183384D01*
X44259Y182141D02*
X44259Y179491D01*
X47316Y189821D02*
X46721Y190416D01*
X45879Y190416D01*
X45284Y189821D01*
X47316Y189821D02*
X47316Y187784D01*
X45284Y187784D02*
X45284Y189821D01*
X47316Y187784D02*
X48450Y186650D01*
X186250Y256000D02*
X210000Y232250D01*
X186250Y256000D02*
X186250Y310000D01*
X162872Y333378D01*
X161250Y333378D01*
X44150Y162150D02*
X44150Y142450D01*
X43100Y141400D01*
X31250Y152400D02*
X31250Y162150D01*
X31250Y152400D02*
X21500Y142650D01*
X21500Y138900D01*
X252850Y62150D02*
X252850Y50550D01*
X252850Y62150D02*
X240000Y75000D01*
X218750Y75000D01*
X195050Y98700D02*
X156250Y98700D01*
X195050Y98700D02*
X218750Y75000D01*
X156250Y98700D02*
X145050Y87500D01*
X134550Y77000D01*
X104105Y77000D01*
X114710Y98700D02*
X156250Y98700D01*
X40000Y54450D02*
X21050Y35500D01*
X40000Y54450D02*
X40000Y77500D01*
D27*
X40000Y77500D03*
X126250Y87500D03*
D26*
X145050Y87500D01*
X22000Y75200D02*
X21250Y74450D01*
X22000Y75200D02*
X22000Y51450D01*
X21050Y50500D01*
X70200Y117700D02*
X88590Y117700D01*
X44700Y92200D02*
X22000Y92200D01*
X44700Y92200D02*
X70200Y117700D01*
X73195Y59005D02*
X86800Y45400D01*
X73195Y59005D02*
X55600Y59005D01*
X73595Y77000D01*
X87595Y77000D01*
X88590Y77995D01*
X88590Y98700D01*
X144872Y117700D02*
X148072Y114500D01*
X144872Y117700D02*
X114710Y117700D01*
X11650Y180850D02*
X11250Y181250D01*
X11650Y180850D02*
X18650Y180850D01*
X11550Y176550D02*
X11250Y176250D01*
X11550Y176550D02*
X18650Y176550D01*
X12250Y172250D02*
X11250Y171250D01*
X12250Y172250D02*
X18650Y172250D01*
X12950Y167950D02*
X11250Y166250D01*
X12950Y167950D02*
X18650Y167950D01*
X18350Y162150D02*
X18750Y161750D01*
X18750Y156250D01*
X22650Y157350D02*
X22650Y162150D01*
X22650Y157350D02*
X23750Y156250D01*
X26950Y156800D02*
X26950Y162150D01*
D27*
X372500Y40000D03*
X145000Y216250D03*
X117500Y243750D03*
X433750Y127500D03*
X145000Y192500D03*
D26*
X416350Y90000D02*
X421250Y90000D01*
X416350Y90000D02*
X405350Y101000D01*
D27*
X421250Y90000D03*
D26*
X250350Y206000D02*
X123500Y206000D01*
X94050Y176550D02*
X48150Y176550D01*
X94050Y176550D02*
X123500Y206000D01*
X167050Y167950D02*
X48150Y167950D01*
X207750Y127250D02*
X250350Y127250D01*
X207750Y127250D02*
X167050Y167950D01*
X442100Y310650D02*
X450600Y310650D01*
X460278Y300972D02*
X473850Y300972D01*
X460278Y300972D02*
X450600Y310650D01*
X473850Y300972D02*
X473850Y91350D01*
X450000Y67500D01*
X292350Y67500D01*
X273350Y86500D01*
X137678Y305728D02*
X142600Y310650D01*
X137678Y305728D02*
X137678Y283700D01*
X137678Y261428D01*
X137500Y261250D01*
D27*
X137500Y261250D03*
X186250Y196250D03*
D26*
X202750Y179750D02*
X250350Y179750D01*
X202750Y179750D02*
X186250Y196250D01*
X82428Y289572D02*
X60250Y311750D01*
X82428Y289572D02*
X82428Y283700D01*
X82428Y221322D01*
X82500Y221250D01*
D27*
X82500Y221250D03*
X165000Y178750D03*
D26*
X177500Y178750D01*
X202750Y153500D02*
X250350Y153500D01*
X202750Y153500D02*
X177500Y178750D01*
X356850Y313150D02*
X365928Y322228D01*
X384650Y322228D01*
X390628Y316250D01*
X393750Y316250D01*
X402500Y307500D01*
X402500Y291250D01*
X406250Y287500D01*
X455000Y287500D02*
X465000Y277500D01*
X465000Y170000D01*
X448500Y153500D02*
X405350Y153500D01*
X406250Y287500D02*
X455000Y287500D01*
X465000Y170000D02*
X448500Y153500D01*
X412250Y179750D02*
X406250Y179750D01*
X405350Y179750D01*
X263178Y318478D02*
X256600Y311900D01*
X263178Y318478D02*
X281900Y318478D01*
X282878Y317500D01*
X298750Y317500D01*
X310000Y306250D01*
X310000Y301250D01*
X331250Y280000D01*
X441250Y280000D01*
X451250Y270000D01*
X451250Y197500D01*
X433500Y179750D01*
X412250Y179750D01*
M02*
