G04 EAGLE Gerber RS-274X export*
G75*
%MOMM*%
%FSLAX34Y34*%
%LPD*%
%INSoldermask Top*%
%IPNEG*%
%AMOC8*
5,1,8,0,0,1.08239X$1,22.5*%
G01*
%ADD10R,1.203200X1.303200*%
%ADD11C,1.727200*%
%ADD12R,1.303200X1.203200*%
%ADD13R,1.651000X1.168400*%
%ADD14R,1.168400X1.651000*%
%ADD15R,0.603200X1.653200*%
%ADD16R,2.000000X1.700000*%
%ADD17R,2.700000X1.700000*%
%ADD18R,1.003200X1.003200*%
%ADD19R,1.208800X1.403197*%
%ADD20R,1.403197X1.208800*%
%ADD21R,1.981200X1.117600*%
%ADD22R,1.117600X1.981200*%
%ADD23R,0.473200X0.653200*%
%ADD24R,0.653200X0.473200*%
%ADD25R,1.403200X0.803200*%
%ADD26C,1.359600*%


D10*
X43100Y141400D03*
X43100Y124400D03*
D11*
X60250Y304130D02*
X60250Y319370D01*
X34850Y319370D02*
X34850Y304130D01*
X142600Y303030D02*
X142600Y318270D01*
X117200Y318270D02*
X117200Y303030D01*
X256600Y304280D02*
X256600Y319520D01*
X231200Y319520D02*
X231200Y304280D01*
X356850Y305530D02*
X356850Y320770D01*
X331450Y320770D02*
X331450Y305530D01*
X442100Y303030D02*
X442100Y318270D01*
X416700Y318270D02*
X416700Y303030D01*
X137600Y53020D02*
X137600Y37780D01*
X112200Y37780D02*
X112200Y53020D01*
X86800Y53020D02*
X86800Y37780D01*
D12*
X22550Y252900D03*
X39550Y252900D03*
X23450Y230400D03*
X40450Y230400D03*
X22850Y206400D03*
X39850Y206400D03*
D10*
X21500Y138900D03*
X21500Y121900D03*
D13*
X55600Y59005D03*
X55600Y42495D03*
D14*
X87595Y77000D03*
X104105Y77000D03*
D15*
X265850Y50550D03*
X259350Y50550D03*
X252850Y50550D03*
X272350Y50550D03*
X278850Y50550D03*
D16*
X229010Y23300D03*
X302690Y23300D03*
D17*
X265850Y23300D03*
D18*
X21050Y50500D03*
X21050Y35500D03*
D19*
X65372Y283700D03*
X82428Y283700D03*
X120622Y283700D03*
X137678Y283700D03*
D20*
X281900Y301422D03*
X281900Y318478D03*
X384650Y305172D03*
X384650Y322228D03*
X473850Y318028D03*
X473850Y300972D03*
D19*
X165128Y114500D03*
X148072Y114500D03*
D12*
X22000Y92200D03*
X22000Y75200D03*
D21*
X250350Y153500D03*
X250350Y206000D03*
X250350Y127250D03*
X250350Y179750D03*
X250350Y232250D03*
X250350Y101000D03*
X405350Y179750D03*
X405350Y153500D03*
X405350Y127250D03*
X405350Y206000D03*
X405350Y232250D03*
X405350Y101000D03*
D22*
X273350Y86500D03*
X301350Y86500D03*
X327850Y86500D03*
X354350Y86500D03*
X382350Y86500D03*
D23*
X48450Y162150D03*
D24*
X48150Y167950D03*
X48150Y172250D03*
X48150Y176550D03*
X48150Y180850D03*
D23*
X48450Y186650D03*
X44150Y186650D03*
X39850Y186650D03*
X35550Y186650D03*
X31250Y186650D03*
X26950Y186650D03*
X22650Y186650D03*
X18350Y186650D03*
D24*
X18650Y180850D03*
X18650Y176550D03*
X18650Y172250D03*
X18650Y167950D03*
D23*
X18350Y162150D03*
X22650Y162150D03*
X26950Y162150D03*
X31250Y162150D03*
X35550Y162150D03*
X39850Y162150D03*
X44150Y162150D03*
D25*
X114710Y117700D03*
X114710Y98700D03*
X88590Y117700D03*
X88590Y108200D03*
X88590Y98700D03*
D26*
X86250Y141250D03*
X228750Y232500D03*
X53750Y81250D03*
X138750Y87500D03*
X372500Y40000D03*
X140000Y218750D03*
X112500Y248750D03*
X446250Y135000D03*
X145000Y192500D03*
X372500Y292500D03*
X226250Y273750D03*
X447500Y101250D03*
X137500Y261250D03*
X188750Y192500D03*
X82500Y221250D03*
X165000Y178750D03*
M02*
