G04 EAGLE Gerber X2 export*
%TF.Part,Single*%
%TF.FileFunction,Copper,L4,Bot,Mixed*%
%TF.FilePolarity,Positive*%
%TF.GenerationSoftware,Autodesk,EAGLE,9.1.1*%
%TF.CreationDate,2018-08-02T16:49:24Z*%
G75*
%MOMM*%
%FSLAX34Y34*%
%LPD*%
%AMOC8*
5,1,8,0,0,1.08239X$1,22.5*%
G01*
%ADD10C,1.524000*%
%ADD11R,1.450000X0.400000*%
%ADD12R,1.500000X1.800000*%
%ADD13R,1.500000X2.500000*%
%ADD14C,0.756400*%
%ADD15C,0.606400*%
%ADD16C,0.254000*%
%ADD17C,0.254000*%

G36*
X1306675Y389260D02*
X1306675Y389260D01*
X1306724Y389259D01*
X1308434Y389428D01*
X1308461Y389435D01*
X1308489Y389435D01*
X1308650Y389482D01*
X1311809Y390791D01*
X1311833Y390805D01*
X1311860Y390814D01*
X1312001Y390905D01*
X1313329Y391995D01*
X1313346Y392015D01*
X1313384Y392045D01*
X1318762Y397423D01*
X1322148Y400809D01*
X1327983Y403226D01*
X1348379Y403226D01*
X1348469Y403240D01*
X1348560Y403248D01*
X1348590Y403260D01*
X1348622Y403265D01*
X1348703Y403308D01*
X1348787Y403344D01*
X1348819Y403370D01*
X1348839Y403381D01*
X1348862Y403404D01*
X1348918Y403449D01*
X1358131Y412663D01*
X1358132Y412663D01*
X1358327Y412858D01*
X1359285Y413816D01*
X1359300Y413837D01*
X1359335Y413871D01*
X1360425Y415199D01*
X1360439Y415224D01*
X1360459Y415244D01*
X1360539Y415391D01*
X1361848Y418550D01*
X1361854Y418577D01*
X1361867Y418602D01*
X1361902Y418766D01*
X1362071Y420476D01*
X1362069Y420502D01*
X1362074Y420550D01*
X1362074Y516710D01*
X1362070Y516736D01*
X1362071Y516784D01*
X1361902Y518494D01*
X1361895Y518521D01*
X1361895Y518549D01*
X1361848Y518710D01*
X1360539Y521869D01*
X1360525Y521893D01*
X1360516Y521920D01*
X1360425Y522061D01*
X1359335Y523389D01*
X1359315Y523406D01*
X1359285Y523444D01*
X1315807Y566922D01*
X1314654Y568075D01*
X1312421Y570308D01*
X1310004Y576143D01*
X1310004Y625858D01*
X1309992Y625930D01*
X1309990Y626004D01*
X1309973Y626051D01*
X1309965Y626101D01*
X1309942Y626144D01*
X1310003Y627437D01*
X1310002Y627451D01*
X1310004Y627473D01*
X1310004Y627655D01*
X1310002Y627670D01*
X1310003Y627694D01*
X1309914Y629449D01*
X1309908Y629476D01*
X1309910Y629505D01*
X1309871Y629668D01*
X1308628Y633124D01*
X1308625Y633130D01*
X1308623Y633136D01*
X1308597Y633180D01*
X1308596Y633181D01*
X1308573Y633243D01*
X1308524Y633310D01*
X1308508Y633339D01*
X1308494Y633352D01*
X1308475Y633379D01*
X1306004Y636096D01*
X1305953Y636137D01*
X1305908Y636185D01*
X1305837Y636229D01*
X1305812Y636249D01*
X1305793Y636256D01*
X1305765Y636273D01*
X1302443Y637838D01*
X1302416Y637846D01*
X1302391Y637860D01*
X1302229Y637903D01*
X1300434Y638166D01*
X1300401Y638166D01*
X1300323Y638174D01*
X1284732Y638174D01*
X1284712Y638171D01*
X1284693Y638173D01*
X1284591Y638151D01*
X1284489Y638135D01*
X1284472Y638125D01*
X1284452Y638121D01*
X1284363Y638068D01*
X1284272Y638019D01*
X1284258Y638005D01*
X1284241Y637995D01*
X1284174Y637916D01*
X1284102Y637841D01*
X1284094Y637823D01*
X1284081Y637808D01*
X1284042Y637712D01*
X1283999Y637618D01*
X1283997Y637598D01*
X1283989Y637580D01*
X1283971Y637413D01*
X1283971Y495300D01*
X1283970Y495299D01*
X1155700Y495299D01*
X1155699Y495300D01*
X1155699Y637413D01*
X1155696Y637433D01*
X1155698Y637452D01*
X1155676Y637554D01*
X1155660Y637656D01*
X1155650Y637673D01*
X1155646Y637693D01*
X1155593Y637782D01*
X1155544Y637873D01*
X1155530Y637887D01*
X1155520Y637904D01*
X1155441Y637971D01*
X1155366Y638043D01*
X1155348Y638051D01*
X1155333Y638064D01*
X1155237Y638103D01*
X1155143Y638146D01*
X1155123Y638148D01*
X1155105Y638156D01*
X1154938Y638174D01*
X1059337Y638174D01*
X1059304Y638169D01*
X1059226Y638166D01*
X1057431Y637903D01*
X1057404Y637894D01*
X1057376Y637892D01*
X1057217Y637838D01*
X1053895Y636273D01*
X1053841Y636236D01*
X1053782Y636207D01*
X1053719Y636152D01*
X1053692Y636133D01*
X1053680Y636118D01*
X1053656Y636096D01*
X1051185Y633379D01*
X1051149Y633324D01*
X1051106Y633275D01*
X1051069Y633200D01*
X1051051Y633172D01*
X1051046Y633153D01*
X1051032Y633124D01*
X1049789Y629668D01*
X1049784Y629640D01*
X1049772Y629614D01*
X1049746Y629449D01*
X1049657Y627694D01*
X1049658Y627679D01*
X1049656Y627655D01*
X1049656Y627474D01*
X1049658Y627460D01*
X1049657Y627437D01*
X1049718Y626155D01*
X1049702Y626093D01*
X1049674Y626025D01*
X1049667Y625956D01*
X1049659Y625925D01*
X1049661Y625901D01*
X1049656Y625858D01*
X1049656Y435791D01*
X1049660Y435765D01*
X1049659Y435716D01*
X1049828Y434006D01*
X1049835Y433979D01*
X1049835Y433951D01*
X1049882Y433790D01*
X1051191Y430631D01*
X1051205Y430607D01*
X1051214Y430580D01*
X1051305Y430439D01*
X1052395Y429111D01*
X1052415Y429094D01*
X1052445Y429056D01*
X1088303Y393198D01*
X1089166Y392335D01*
X1089456Y392045D01*
X1089477Y392030D01*
X1089511Y391995D01*
X1090839Y390905D01*
X1090864Y390891D01*
X1090884Y390871D01*
X1091031Y390791D01*
X1094190Y389482D01*
X1094217Y389476D01*
X1094242Y389463D01*
X1094406Y389428D01*
X1096116Y389259D01*
X1096142Y389261D01*
X1096190Y389256D01*
X1306650Y389256D01*
X1306675Y389260D01*
G37*
%LPC*%
G36*
X1179213Y401843D02*
X1179213Y401843D01*
X1177673Y403382D01*
X1177600Y403435D01*
X1177530Y403495D01*
X1177500Y403507D01*
X1177474Y403526D01*
X1177387Y403553D01*
X1177302Y403587D01*
X1177261Y403591D01*
X1177239Y403598D01*
X1177206Y403597D01*
X1177135Y403605D01*
X1156092Y403605D01*
X1153457Y406240D01*
X1093845Y465852D01*
X1093771Y465905D01*
X1093702Y465965D01*
X1093672Y465977D01*
X1093646Y465996D01*
X1093559Y466023D01*
X1093474Y466057D01*
X1093433Y466061D01*
X1093411Y466068D01*
X1093378Y466067D01*
X1093307Y466075D01*
X1086168Y466075D01*
X1085275Y466968D01*
X1085275Y472232D01*
X1085355Y472312D01*
X1085367Y472328D01*
X1085383Y472340D01*
X1085439Y472428D01*
X1085499Y472511D01*
X1085505Y472530D01*
X1085516Y472547D01*
X1085541Y472647D01*
X1085571Y472747D01*
X1085571Y472767D01*
X1085576Y472786D01*
X1085568Y472889D01*
X1085565Y472992D01*
X1085558Y473011D01*
X1085557Y473031D01*
X1085516Y473126D01*
X1085481Y473223D01*
X1085468Y473239D01*
X1085460Y473257D01*
X1085355Y473388D01*
X1085275Y473468D01*
X1085275Y478732D01*
X1085355Y478812D01*
X1085367Y478828D01*
X1085383Y478840D01*
X1085439Y478928D01*
X1085499Y479011D01*
X1085505Y479030D01*
X1085516Y479047D01*
X1085541Y479148D01*
X1085571Y479247D01*
X1085571Y479267D01*
X1085576Y479286D01*
X1085568Y479389D01*
X1085565Y479492D01*
X1085558Y479511D01*
X1085557Y479531D01*
X1085516Y479626D01*
X1085481Y479723D01*
X1085468Y479739D01*
X1085460Y479757D01*
X1085355Y479888D01*
X1085275Y479968D01*
X1085275Y485232D01*
X1085355Y485312D01*
X1085367Y485328D01*
X1085383Y485340D01*
X1085439Y485427D01*
X1085499Y485511D01*
X1085505Y485530D01*
X1085516Y485547D01*
X1085541Y485648D01*
X1085571Y485746D01*
X1085571Y485766D01*
X1085576Y485786D01*
X1085568Y485889D01*
X1085565Y485992D01*
X1085558Y486011D01*
X1085557Y486031D01*
X1085516Y486126D01*
X1085481Y486223D01*
X1085468Y486239D01*
X1085460Y486257D01*
X1085355Y486388D01*
X1085275Y486468D01*
X1085275Y491216D01*
X1085261Y491306D01*
X1085253Y491397D01*
X1085241Y491427D01*
X1085236Y491459D01*
X1085193Y491540D01*
X1085157Y491624D01*
X1085131Y491656D01*
X1085120Y491676D01*
X1085097Y491699D01*
X1085052Y491755D01*
X1084767Y492040D01*
X1084432Y492619D01*
X1084259Y493265D01*
X1084259Y494601D01*
X1093812Y494601D01*
X1093831Y494604D01*
X1093851Y494602D01*
X1093953Y494624D01*
X1094055Y494640D01*
X1094056Y494641D01*
X1094083Y494629D01*
X1094103Y494627D01*
X1094121Y494619D01*
X1094288Y494601D01*
X1103841Y494601D01*
X1103841Y493265D01*
X1103668Y492619D01*
X1103333Y492040D01*
X1103048Y491755D01*
X1102995Y491681D01*
X1102935Y491611D01*
X1102923Y491581D01*
X1102904Y491555D01*
X1102877Y491468D01*
X1102843Y491383D01*
X1102839Y491342D01*
X1102832Y491320D01*
X1102833Y491288D01*
X1102825Y491216D01*
X1102825Y486156D01*
X1102828Y486136D01*
X1102826Y486117D01*
X1102848Y486015D01*
X1102864Y485913D01*
X1102874Y485896D01*
X1102878Y485876D01*
X1102931Y485787D01*
X1102980Y485696D01*
X1102994Y485682D01*
X1103004Y485665D01*
X1103083Y485598D01*
X1103158Y485526D01*
X1103176Y485518D01*
X1103191Y485505D01*
X1103287Y485466D01*
X1103381Y485423D01*
X1103401Y485421D01*
X1103419Y485413D01*
X1103586Y485395D01*
X1113635Y485395D01*
X1113725Y485409D01*
X1113816Y485417D01*
X1113846Y485429D01*
X1113878Y485434D01*
X1113959Y485477D01*
X1114043Y485513D01*
X1114075Y485539D01*
X1114095Y485550D01*
X1114118Y485573D01*
X1114173Y485618D01*
X1115713Y487157D01*
X1119487Y487157D01*
X1122157Y484487D01*
X1122157Y480713D01*
X1121638Y480194D01*
X1121597Y480136D01*
X1121547Y480084D01*
X1121525Y480037D01*
X1121495Y479995D01*
X1121474Y479926D01*
X1121444Y479861D01*
X1121438Y479809D01*
X1121423Y479759D01*
X1121424Y479688D01*
X1121417Y479617D01*
X1121428Y479566D01*
X1121429Y479514D01*
X1121454Y479446D01*
X1121469Y479376D01*
X1121495Y479331D01*
X1121513Y479283D01*
X1121558Y479227D01*
X1121595Y479165D01*
X1121635Y479131D01*
X1121667Y479091D01*
X1121727Y479052D01*
X1121782Y479005D01*
X1121830Y478986D01*
X1121874Y478958D01*
X1121943Y478940D01*
X1122010Y478913D01*
X1122081Y478905D01*
X1122112Y478897D01*
X1122136Y478899D01*
X1122177Y478895D01*
X1122627Y478895D01*
X1122717Y478909D01*
X1122808Y478917D01*
X1122838Y478929D01*
X1122870Y478934D01*
X1122950Y478977D01*
X1123034Y479013D01*
X1123066Y479039D01*
X1123087Y479050D01*
X1123109Y479073D01*
X1123165Y479118D01*
X1125520Y481473D01*
X1125573Y481547D01*
X1125633Y481616D01*
X1125645Y481646D01*
X1125664Y481672D01*
X1125691Y481759D01*
X1125725Y481844D01*
X1125729Y481885D01*
X1125736Y481907D01*
X1125735Y481940D01*
X1125743Y482011D01*
X1125743Y484487D01*
X1128413Y487157D01*
X1132187Y487157D01*
X1134857Y484487D01*
X1134857Y480713D01*
X1132187Y478043D01*
X1130311Y478043D01*
X1130221Y478029D01*
X1130130Y478021D01*
X1130100Y478009D01*
X1130068Y478004D01*
X1129988Y477961D01*
X1129904Y477925D01*
X1129872Y477899D01*
X1129851Y477888D01*
X1129829Y477865D01*
X1129773Y477820D01*
X1125258Y473305D01*
X1103586Y473305D01*
X1103566Y473302D01*
X1103547Y473304D01*
X1103445Y473282D01*
X1103343Y473266D01*
X1103326Y473256D01*
X1103306Y473252D01*
X1103217Y473199D01*
X1103126Y473150D01*
X1103112Y473136D01*
X1103095Y473126D01*
X1103028Y473047D01*
X1102956Y472972D01*
X1102948Y472954D01*
X1102935Y472939D01*
X1102896Y472843D01*
X1102853Y472749D01*
X1102851Y472729D01*
X1102843Y472711D01*
X1102825Y472544D01*
X1102825Y466968D01*
X1102268Y466411D01*
X1102256Y466395D01*
X1102240Y466383D01*
X1102184Y466295D01*
X1102124Y466212D01*
X1102118Y466193D01*
X1102107Y466176D01*
X1102082Y466075D01*
X1102052Y465976D01*
X1102052Y465957D01*
X1102047Y465937D01*
X1102055Y465834D01*
X1102058Y465731D01*
X1102065Y465712D01*
X1102066Y465692D01*
X1102107Y465597D01*
X1102143Y465500D01*
X1102155Y465484D01*
X1102163Y465466D01*
X1102268Y465335D01*
X1157410Y410193D01*
X1158185Y409418D01*
X1158259Y409365D01*
X1158328Y409305D01*
X1158358Y409293D01*
X1158384Y409274D01*
X1158471Y409247D01*
X1158556Y409213D01*
X1158597Y409209D01*
X1158619Y409202D01*
X1158652Y409203D01*
X1158723Y409195D01*
X1177135Y409195D01*
X1177225Y409209D01*
X1177316Y409217D01*
X1177346Y409229D01*
X1177378Y409234D01*
X1177459Y409277D01*
X1177543Y409313D01*
X1177575Y409339D01*
X1177595Y409350D01*
X1177618Y409373D01*
X1177673Y409418D01*
X1179213Y410957D01*
X1182987Y410957D01*
X1185657Y408287D01*
X1185657Y404513D01*
X1182987Y401843D01*
X1179213Y401843D01*
G37*
%LPD*%
%LPC*%
G36*
X1128413Y503443D02*
X1128413Y503443D01*
X1126873Y504982D01*
X1126800Y505035D01*
X1126730Y505095D01*
X1126700Y505107D01*
X1126674Y505126D01*
X1126587Y505153D01*
X1126502Y505187D01*
X1126461Y505191D01*
X1126439Y505198D01*
X1126406Y505197D01*
X1126335Y505205D01*
X1116442Y505205D01*
X1102105Y519542D01*
X1102105Y559958D01*
X1112820Y570673D01*
X1112865Y570734D01*
X1112895Y570766D01*
X1112901Y570778D01*
X1112933Y570816D01*
X1112945Y570846D01*
X1112964Y570872D01*
X1112991Y570959D01*
X1113025Y571044D01*
X1113029Y571085D01*
X1113036Y571107D01*
X1113035Y571140D01*
X1113043Y571211D01*
X1113043Y573387D01*
X1115713Y576057D01*
X1119487Y576057D01*
X1122157Y573387D01*
X1122157Y569613D01*
X1119487Y566943D01*
X1117311Y566943D01*
X1117221Y566929D01*
X1117130Y566921D01*
X1117100Y566909D01*
X1117068Y566904D01*
X1116988Y566861D01*
X1116904Y566825D01*
X1116872Y566799D01*
X1116851Y566788D01*
X1116829Y566765D01*
X1116773Y566720D01*
X1107918Y557865D01*
X1107865Y557791D01*
X1107805Y557722D01*
X1107793Y557692D01*
X1107774Y557666D01*
X1107747Y557579D01*
X1107713Y557494D01*
X1107709Y557453D01*
X1107702Y557431D01*
X1107703Y557398D01*
X1107695Y557327D01*
X1107695Y522173D01*
X1107709Y522083D01*
X1107717Y521992D01*
X1107729Y521962D01*
X1107734Y521930D01*
X1107777Y521850D01*
X1107813Y521766D01*
X1107839Y521734D01*
X1107850Y521713D01*
X1107873Y521691D01*
X1107918Y521635D01*
X1118535Y511018D01*
X1118609Y510965D01*
X1118678Y510905D01*
X1118708Y510893D01*
X1118734Y510874D01*
X1118821Y510847D01*
X1118906Y510813D01*
X1118947Y510809D01*
X1118969Y510802D01*
X1119002Y510803D01*
X1119073Y510795D01*
X1126335Y510795D01*
X1126425Y510809D01*
X1126516Y510817D01*
X1126546Y510829D01*
X1126578Y510834D01*
X1126659Y510877D01*
X1126743Y510913D01*
X1126775Y510939D01*
X1126795Y510950D01*
X1126818Y510973D01*
X1126873Y511018D01*
X1128413Y512557D01*
X1132187Y512557D01*
X1134857Y509887D01*
X1134857Y506113D01*
X1132187Y503443D01*
X1128413Y503443D01*
G37*
%LPD*%
%LPC*%
G36*
X1324061Y473455D02*
X1324061Y473455D01*
X1320700Y474847D01*
X1318127Y477420D01*
X1316735Y480781D01*
X1316735Y484419D01*
X1318127Y487780D01*
X1320700Y490353D01*
X1324061Y491745D01*
X1342939Y491745D01*
X1346300Y490353D01*
X1348873Y487780D01*
X1350265Y484419D01*
X1350265Y480781D01*
X1348873Y477420D01*
X1346300Y474847D01*
X1342939Y473455D01*
X1324061Y473455D01*
G37*
%LPD*%
%LPC*%
G36*
X1324061Y448055D02*
X1324061Y448055D01*
X1320700Y449447D01*
X1318127Y452020D01*
X1316735Y455381D01*
X1316735Y459019D01*
X1318127Y462380D01*
X1320700Y464953D01*
X1324061Y466345D01*
X1342939Y466345D01*
X1346300Y464953D01*
X1348873Y462380D01*
X1350265Y459019D01*
X1350265Y455381D01*
X1348873Y452020D01*
X1346300Y449447D01*
X1342939Y448055D01*
X1324061Y448055D01*
G37*
%LPD*%
%LPC*%
G36*
X1242781Y427735D02*
X1242781Y427735D01*
X1239420Y429127D01*
X1236847Y431700D01*
X1235455Y435061D01*
X1235455Y453939D01*
X1236847Y457300D01*
X1239420Y459873D01*
X1242781Y461265D01*
X1246419Y461265D01*
X1249780Y459873D01*
X1252353Y457300D01*
X1253745Y453939D01*
X1253745Y435061D01*
X1252353Y431700D01*
X1249780Y429127D01*
X1246419Y427735D01*
X1242781Y427735D01*
G37*
%LPD*%
%LPC*%
G36*
X1217381Y427735D02*
X1217381Y427735D01*
X1214020Y429127D01*
X1211447Y431700D01*
X1210055Y435061D01*
X1210055Y453939D01*
X1211447Y457300D01*
X1214020Y459873D01*
X1217381Y461265D01*
X1221019Y461265D01*
X1224380Y459873D01*
X1226953Y457300D01*
X1228345Y453939D01*
X1228345Y435061D01*
X1226953Y431700D01*
X1224380Y429127D01*
X1221019Y427735D01*
X1217381Y427735D01*
G37*
%LPD*%
%LPC*%
G36*
X1191981Y427735D02*
X1191981Y427735D01*
X1188620Y429127D01*
X1186047Y431700D01*
X1184655Y435061D01*
X1184655Y453939D01*
X1186047Y457300D01*
X1188620Y459873D01*
X1191981Y461265D01*
X1195619Y461265D01*
X1198980Y459873D01*
X1201553Y457300D01*
X1202945Y453939D01*
X1202945Y435061D01*
X1201553Y431700D01*
X1198980Y429127D01*
X1195619Y427735D01*
X1191981Y427735D01*
G37*
%LPD*%
%LPC*%
G36*
X1324061Y422655D02*
X1324061Y422655D01*
X1320700Y424047D01*
X1318127Y426620D01*
X1316735Y429981D01*
X1316735Y433619D01*
X1318127Y436980D01*
X1320700Y439553D01*
X1324061Y440945D01*
X1342939Y440945D01*
X1346300Y439553D01*
X1348873Y436980D01*
X1350265Y433619D01*
X1350265Y429981D01*
X1348873Y426620D01*
X1346300Y424047D01*
X1342939Y422655D01*
X1324061Y422655D01*
G37*
%LPD*%
%LPC*%
G36*
X1058668Y468575D02*
X1058668Y468575D01*
X1057775Y469468D01*
X1057775Y495732D01*
X1058668Y496625D01*
X1074932Y496625D01*
X1075825Y495732D01*
X1075825Y469468D01*
X1074932Y468575D01*
X1058668Y468575D01*
G37*
%LPD*%
%LPC*%
G36*
X1058668Y508925D02*
X1058668Y508925D01*
X1057775Y509818D01*
X1057775Y529082D01*
X1058668Y529975D01*
X1074932Y529975D01*
X1075825Y529082D01*
X1075825Y509818D01*
X1074932Y508925D01*
X1058668Y508925D01*
G37*
%LPD*%
%LPC*%
G36*
X1058668Y435225D02*
X1058668Y435225D01*
X1057775Y436118D01*
X1057775Y455382D01*
X1058668Y456275D01*
X1074932Y456275D01*
X1075825Y455382D01*
X1075825Y436118D01*
X1074932Y435225D01*
X1058668Y435225D01*
G37*
%LPD*%
%LPC*%
G36*
X1115402Y591593D02*
X1115402Y591593D01*
X1112293Y594702D01*
X1112293Y597939D01*
X1112279Y598029D01*
X1112271Y598120D01*
X1112259Y598150D01*
X1112254Y598182D01*
X1112211Y598262D01*
X1112175Y598346D01*
X1112149Y598378D01*
X1112138Y598399D01*
X1112115Y598421D01*
X1112070Y598477D01*
X1105727Y604820D01*
X1105653Y604873D01*
X1105584Y604933D01*
X1105554Y604945D01*
X1105528Y604964D01*
X1105441Y604991D01*
X1105356Y605025D01*
X1105315Y605029D01*
X1105293Y605036D01*
X1105260Y605035D01*
X1105189Y605043D01*
X1103013Y605043D01*
X1100343Y607713D01*
X1100343Y611487D01*
X1103013Y614157D01*
X1106787Y614157D01*
X1109457Y611487D01*
X1109457Y609311D01*
X1109471Y609221D01*
X1109479Y609130D01*
X1109491Y609100D01*
X1109496Y609068D01*
X1109539Y608988D01*
X1109575Y608904D01*
X1109601Y608872D01*
X1109612Y608851D01*
X1109635Y608829D01*
X1109680Y608773D01*
X1116023Y602430D01*
X1116097Y602377D01*
X1116166Y602317D01*
X1116196Y602305D01*
X1116222Y602286D01*
X1116309Y602259D01*
X1116394Y602225D01*
X1116435Y602221D01*
X1116457Y602214D01*
X1116490Y602215D01*
X1116561Y602207D01*
X1119798Y602207D01*
X1122907Y599098D01*
X1122907Y594702D01*
X1119798Y591593D01*
X1115402Y591593D01*
G37*
%LPD*%
%LPC*%
G36*
X1331613Y503443D02*
X1331613Y503443D01*
X1328943Y506113D01*
X1328943Y509887D01*
X1330482Y511427D01*
X1330535Y511500D01*
X1330595Y511570D01*
X1330607Y511600D01*
X1330626Y511626D01*
X1330653Y511713D01*
X1330687Y511798D01*
X1330691Y511839D01*
X1330698Y511861D01*
X1330697Y511894D01*
X1330705Y511965D01*
X1330705Y516735D01*
X1330691Y516825D01*
X1330683Y516916D01*
X1330671Y516946D01*
X1330666Y516978D01*
X1330623Y517059D01*
X1330587Y517143D01*
X1330561Y517175D01*
X1330550Y517195D01*
X1330527Y517218D01*
X1330482Y517273D01*
X1328943Y518813D01*
X1328943Y522587D01*
X1331613Y525257D01*
X1335387Y525257D01*
X1338057Y522587D01*
X1338057Y518813D01*
X1336518Y517273D01*
X1336465Y517200D01*
X1336405Y517130D01*
X1336393Y517100D01*
X1336374Y517074D01*
X1336347Y516987D01*
X1336313Y516902D01*
X1336309Y516861D01*
X1336302Y516839D01*
X1336303Y516806D01*
X1336295Y516735D01*
X1336295Y511965D01*
X1336309Y511875D01*
X1336317Y511784D01*
X1336329Y511754D01*
X1336334Y511722D01*
X1336377Y511641D01*
X1336413Y511557D01*
X1336439Y511525D01*
X1336450Y511505D01*
X1336473Y511482D01*
X1336518Y511427D01*
X1338057Y509887D01*
X1338057Y506113D01*
X1335387Y503443D01*
X1331613Y503443D01*
G37*
%LPD*%
%LPC*%
G36*
X1095049Y496599D02*
X1095049Y496599D01*
X1095049Y500141D01*
X1101634Y500141D01*
X1102281Y499968D01*
X1102860Y499633D01*
X1103333Y499160D01*
X1103668Y498581D01*
X1103841Y497934D01*
X1103841Y496599D01*
X1095049Y496599D01*
G37*
%LPD*%
%LPC*%
G36*
X1084259Y496599D02*
X1084259Y496599D01*
X1084259Y497934D01*
X1084432Y498581D01*
X1084767Y499160D01*
X1085240Y499633D01*
X1085819Y499968D01*
X1086466Y500141D01*
X1093051Y500141D01*
X1093051Y496599D01*
X1084259Y496599D01*
G37*
%LPD*%
D10*
X1244600Y452120D02*
X1244600Y436880D01*
X1219200Y436880D02*
X1219200Y452120D01*
X1193800Y452120D02*
X1193800Y436880D01*
D11*
X1094050Y482600D03*
X1094050Y476100D03*
X1094050Y469600D03*
X1094050Y489100D03*
X1094050Y495600D03*
D12*
X1066800Y445750D03*
D13*
X1066800Y482600D03*
D12*
X1066800Y519450D03*
D10*
X1325880Y431800D02*
X1341120Y431800D01*
X1341120Y457200D02*
X1325880Y457200D01*
X1325880Y482600D02*
X1341120Y482600D01*
D14*
X1117600Y596900D03*
D15*
X1104900Y609600D03*
D16*
X1117600Y596900D01*
D15*
X1333500Y520700D03*
X1333500Y508000D03*
D16*
X1333500Y520700D01*
X1156475Y407175D02*
X1094050Y469600D01*
X1156475Y407175D02*
X1157250Y406400D01*
X1156475Y407175D01*
X1157250Y406400D01*
D15*
X1181100Y406400D03*
D17*
X1156475Y407175D03*
D16*
X1157250Y406400D02*
X1181100Y406400D01*
X1117600Y476100D02*
X1094050Y476100D01*
X1117600Y476100D02*
X1124100Y476100D01*
X1130300Y482300D01*
X1130300Y482600D01*
D15*
X1130300Y482600D03*
D16*
X1117600Y482600D02*
X1094050Y482600D01*
D15*
X1117600Y482600D03*
X1104900Y508000D03*
D16*
X1094050Y495600D01*
D15*
X1117600Y571500D03*
D16*
X1104900Y558800D02*
X1104900Y520700D01*
X1117600Y508000D01*
D15*
X1130300Y508000D03*
D16*
X1104900Y558800D02*
X1117600Y571500D01*
X1117600Y508000D02*
X1130300Y508000D01*
M02*
