G04 EAGLE Gerber X2 export*
%TF.Part,Single*%
%TF.FileFunction,Profile,NP*%
%TF.FilePolarity,Positive*%
%TF.GenerationSoftware,Autodesk,EAGLE,9.1.1*%
%TF.CreationDate,2018-08-02T16:49:24Z*%
G75*
%MOMM*%
%FSLAX34Y34*%
%LPD*%
%AMOC8*
5,1,8,0,0,1.08239X$1,22.5*%
G01*
%ADD10C,0.254000*%


D10*
X1046480Y435791D02*
X1046528Y434684D01*
X1046673Y433585D01*
X1046913Y432504D01*
X1047246Y431447D01*
X1047670Y430423D01*
X1048181Y429441D01*
X1048777Y428506D01*
X1049451Y427627D01*
X1050200Y426810D01*
X1087210Y389800D01*
X1088027Y389051D01*
X1088906Y388377D01*
X1089841Y387781D01*
X1090823Y387270D01*
X1091847Y386846D01*
X1092904Y386513D01*
X1093985Y386273D01*
X1095084Y386128D01*
X1096191Y386080D01*
X1306650Y386080D01*
X1307756Y386128D01*
X1308855Y386273D01*
X1309937Y386513D01*
X1310993Y386846D01*
X1312017Y387270D01*
X1312999Y387782D01*
X1313934Y388377D01*
X1314813Y389051D01*
X1315630Y389800D01*
X1322160Y396330D01*
X1322977Y397079D01*
X1323856Y397753D01*
X1324791Y398349D01*
X1325773Y398860D01*
X1326797Y399284D01*
X1327854Y399617D01*
X1328935Y399857D01*
X1330034Y400002D01*
X1331141Y400050D01*
X1348740Y400050D01*
X1349007Y400062D01*
X1349272Y400097D01*
X1349534Y400154D01*
X1349789Y400235D01*
X1350036Y400337D01*
X1350273Y400461D01*
X1350499Y400605D01*
X1350711Y400767D01*
X1350908Y400948D01*
X1361530Y411570D01*
X1362279Y412387D01*
X1362953Y413266D01*
X1363549Y414201D01*
X1364060Y415183D01*
X1364484Y416207D01*
X1364817Y417264D01*
X1365057Y418345D01*
X1365202Y419444D01*
X1365250Y420551D01*
X1365250Y516710D01*
X1365202Y517816D01*
X1365057Y518915D01*
X1364817Y519997D01*
X1364484Y521053D01*
X1364060Y522077D01*
X1363549Y523060D01*
X1362953Y523994D01*
X1362279Y524873D01*
X1361530Y525690D01*
X1316900Y570320D01*
X1316151Y571137D01*
X1315477Y572016D01*
X1314881Y572951D01*
X1314370Y573933D01*
X1313946Y574957D01*
X1313613Y576014D01*
X1313373Y577095D01*
X1313228Y578194D01*
X1313180Y579301D01*
X1313180Y627380D01*
X1313185Y628545D01*
X1313088Y629705D01*
X1312890Y630853D01*
X1312593Y631979D01*
X1312199Y633075D01*
X1311711Y634133D01*
X1311133Y635143D01*
X1310468Y636100D01*
X1309723Y636995D01*
X1308903Y637822D01*
X1308014Y638574D01*
X1307062Y639246D01*
X1306056Y639832D01*
X1305003Y640329D01*
X1303910Y640731D01*
X1302786Y641037D01*
X1301640Y641244D01*
X1300480Y641350D01*
X1059180Y641350D01*
X1058020Y641244D01*
X1056874Y641037D01*
X1055750Y640731D01*
X1054657Y640329D01*
X1053604Y639832D01*
X1052598Y639246D01*
X1051646Y638574D01*
X1050757Y637822D01*
X1049937Y636995D01*
X1049192Y636100D01*
X1048527Y635143D01*
X1047949Y634133D01*
X1047461Y633075D01*
X1047067Y631979D01*
X1046770Y630853D01*
X1046572Y629705D01*
X1046475Y628545D01*
X1046480Y627380D01*
X1046480Y435791D01*
M02*
